<svg width="323" height="266" viewBox="0 0 323 266" fill="none" xmlns="http://www.w3.org/2000/svg">
<g filter="url(#filter0_d_1235_9731)">
<g clip-path="url(#clip0_1235_9731)">
<path d="M276.911 26H46V526H276.911V26Z" fill="white"/>
<mask id="mask0_1235_9731" style="mask-type:luminance" maskUnits="userSpaceOnUse" x="64" y="138" width="195" height="111">
<path d="M248.582 138.07H74.321C68.8797 138.07 64.4688 142.481 64.4688 147.923V239.056C64.4688 244.497 68.8797 248.908 74.321 248.908H248.582C254.023 248.908 258.434 244.497 258.434 239.056V147.923C258.434 142.481 254.023 138.07 248.582 138.07Z" fill="white"/>
</mask>
<g mask="url(#mask0_1235_9731)">
<path d="M258.434 138.07H64.4688V248.908H258.434V138.07Z" fill="#121212"/>
<g opacity="0.14">
<mask id="mask1_1235_9731" style="mask-type:alpha" maskUnits="userSpaceOnUse" x="64" y="132" width="195" height="136">
<path d="M258.603 132.922H64.4688V267.38H258.603V132.922Z" fill="#121212"/>
</mask>
<g mask="url(#mask1_1235_9731)">
<path d="M443.131 392.856V433.024H-73.8607C-145.502 343.196 -187.43 233.832 -187.43 115.906H127.871C127.871 192.391 163.221 261.621 220.182 311.762C277.261 361.801 356.066 392.856 443.131 392.856Z" stroke="#F6946C" stroke-width="12" stroke-miterlimit="10" stroke-linecap="round" stroke-linejoin="round"/>
<path d="M325.349 294.018C307.08 257.281 233.568 121.379 61.3231 60.6769C-7.42021 36.4489 -70.7148 31.6361 -115.715 32.122C-173.542 61.4111 -231.426 90.7284 -289.254 120.018L-432.953 192.8C-353.486 171.052 -187.63 136.252 13.6696 174.628C157.138 201.947 262.672 255.827 325.349 294.018Z" stroke="#F1DB8D" stroke-width="18" stroke-miterlimit="10" stroke-linecap="round" stroke-linejoin="round"/>
</g>
</g>
<path d="M91.3967 176.675L91.4013 184.427C91.4013 185.341 90.6213 186.091 89.6736 186.091L78.5271 186.099C77.5703 186.099 76.7903 185.35 76.7903 184.44L76.7812 176.688C76.7812 175.769 77.5612 175.024 78.5135 175.024L89.6644 175.016C90.6168 175.016 91.3967 175.756 91.3967 176.675Z" fill="#F6C859"/>
<path d="M82.4147 184.615C82.3512 184.615 82.2922 184.584 82.265 184.528C82.2242 184.449 82.256 184.35 82.3376 184.31C82.5825 184.188 82.9135 183.962 83.1085 183.574C83.3534 183.078 83.2898 182.538 83.1856 182.49C83.1584 182.477 83.0586 182.529 82.9951 182.56C82.8364 182.638 82.6142 182.747 82.3602 182.659C82.1108 182.577 81.9884 182.363 81.9294 182.259C81.544 181.584 81.4261 179.833 81.8297 178.962C81.9657 178.675 82.1471 178.501 82.3738 178.448C82.6051 178.396 82.7956 178.488 82.9453 178.566C83.0677 178.627 83.1312 178.653 83.172 178.631C83.3307 178.54 83.3262 177.982 83.1039 177.542C82.9089 177.15 82.5779 176.924 82.3331 176.807C82.2514 176.767 82.2152 176.667 82.2605 176.589C82.3013 176.51 82.4056 176.475 82.4872 176.519C82.7775 176.663 83.1765 176.933 83.4078 177.408C83.639 177.873 83.7479 178.679 83.3443 178.914C83.1402 179.032 82.9453 178.936 82.7911 178.862C82.6732 178.805 82.5598 178.749 82.4509 178.775C82.3013 178.81 82.2015 178.971 82.1381 179.102C81.7844 179.864 81.8886 181.518 82.2242 182.111C82.2831 182.211 82.3512 182.32 82.4691 182.359C82.5825 182.398 82.6913 182.35 82.841 182.276C82.9906 182.203 83.1538 182.124 83.3307 182.203C83.7116 182.381 83.6844 183.161 83.4123 183.718C83.1765 184.193 82.782 184.462 82.4918 184.606C82.4645 184.611 82.4373 184.615 82.4147 184.615Z" fill="#7D662D"/>
<path d="M81.9059 179.256H78.863C78.7678 179.256 78.6953 179.182 78.6953 179.095C78.6953 179.008 78.7678 178.934 78.8586 178.934H81.9013C81.9966 178.934 82.0691 179.008 82.0691 179.095C82.0737 179.182 82.0011 179.256 81.9059 179.256Z" fill="#7D662D"/>
<path d="M81.9059 182.182H78.863C78.7678 182.182 78.6953 182.108 78.6953 182.021C78.6953 181.929 78.7724 181.859 78.863 181.859H81.9059C82.0011 181.859 82.0737 181.933 82.0737 182.021C82.0782 182.108 82.0011 182.182 81.9059 182.182Z" fill="#7D662D"/>
<path d="M85.97 184.612C85.9428 184.612 85.9156 184.608 85.8929 184.595C85.6027 184.451 85.2036 184.181 84.9724 183.706C84.6958 183.149 84.6731 182.369 85.0495 182.191C85.2263 182.108 85.3941 182.191 85.5392 182.26C85.6934 182.334 85.8022 182.382 85.9111 182.343C86.0381 182.299 86.1106 182.173 86.1559 182.095C86.4915 181.502 86.5913 179.843 86.2376 179.085C86.1741 178.955 86.0743 178.789 85.9247 178.759C85.834 178.737 85.775 178.65 85.7977 178.563C85.8204 178.476 85.9111 178.424 86.0017 178.441C86.2285 178.493 86.4099 178.663 86.5459 178.95C86.9541 179.821 86.8362 181.576 86.4507 182.247C86.3918 182.351 86.2693 182.565 86.0199 182.648C85.766 182.735 85.5437 182.626 85.385 182.548C85.3216 182.517 85.2218 182.469 85.1946 182.478C85.0948 182.526 85.0268 183.066 85.2762 183.562C85.4712 183.954 85.8022 184.181 86.0471 184.299C86.1288 184.337 86.165 184.438 86.1197 184.516C86.0924 184.581 86.0335 184.612 85.97 184.612Z" fill="#7D662D"/>
<path d="M85.2788 178.601C85.2062 178.601 85.1427 178.558 85.1201 178.492C84.7573 177.448 85.6053 176.641 85.8774 176.511C85.959 176.468 86.0633 176.502 86.1041 176.581C86.145 176.659 86.1132 176.759 86.0315 176.799C85.9091 176.859 85.1291 177.5 85.4375 178.388C85.4693 178.475 85.4193 178.567 85.3287 178.593C85.3151 178.601 85.2969 178.601 85.2788 178.601Z" fill="#7D662D"/>
<path d="M89.5231 179.252H86.4802C86.385 179.252 86.3125 179.178 86.3125 179.091C86.3125 179.004 86.3895 178.93 86.4802 178.93H89.5231C89.6183 178.93 89.6908 179.004 89.6908 179.091C89.6908 179.178 89.6137 179.252 89.5231 179.252Z" fill="#7D662D"/>
<path d="M89.5231 182.174H86.4802C86.385 182.174 86.3125 182.1 86.3125 182.012C86.3125 181.921 86.3895 181.852 86.4802 181.852H89.5231C89.6183 181.852 89.6908 181.925 89.6908 182.012C89.6908 182.104 89.6183 182.174 89.5231 182.174Z" fill="#7D662D"/>
<path d="M78.4006 205.985L77.5583 205.375L78.4006 204.345L77.1094 203.984L77.4308 202.992L78.6777 203.48L78.6112 202.133H79.6531L79.5866 203.48L80.8391 202.992L81.1605 203.984L79.8637 204.345L80.706 205.375L79.8637 205.985L79.1322 204.877L78.4006 205.985ZM86.9914 205.985L86.149 205.375L86.9914 204.345L85.7001 203.984L86.0216 202.992L87.2685 203.48L87.202 202.133H88.2439L88.1774 203.48L89.4298 202.992L89.7512 203.984L88.4544 204.345L89.2968 205.375L88.4544 205.985L87.7229 204.877L86.9914 205.985ZM95.5822 205.985L94.7398 205.375L95.5822 204.345L94.2909 203.984L94.6123 202.992L95.8593 203.48L95.7927 202.133H96.8346L96.7681 203.48L98.0206 202.992L98.342 203.984L97.0452 204.345L97.8876 205.375L97.0452 205.985L96.3137 204.877L95.5822 205.985ZM104.173 205.985L103.331 205.375L104.173 204.345L102.882 203.984L103.203 202.992L104.45 203.48L104.384 202.133H105.425L105.359 203.48L106.611 202.992L106.933 203.984L105.636 204.345L106.478 205.375L105.636 205.985L104.904 204.877L104.173 205.985ZM112.764 205.985L111.922 205.375L112.764 204.345L111.473 203.984L111.794 202.992L113.041 203.48L112.975 202.133H114.016L113.95 203.48L115.202 202.992L115.524 203.984L114.227 204.345L115.069 205.375L114.227 205.985L113.495 204.877L112.764 205.985ZM121.354 205.985L120.512 205.375L121.354 204.345L120.063 203.984L120.385 202.992L121.632 203.48L121.565 202.133H122.607L122.54 203.48L123.793 202.992L124.114 203.984L122.818 204.345L123.66 205.375L122.818 205.985L122.086 204.877L121.354 205.985ZM129.945 205.985L129.103 205.375L129.945 204.345L128.654 203.984L128.975 202.992L130.222 203.48L130.156 202.133H131.197L131.131 203.48L132.383 202.992L132.705 203.984L131.408 204.345L132.25 205.375L131.408 205.985L130.676 204.877L129.945 205.985ZM138.536 205.985L137.694 205.375L138.536 204.345L137.245 203.984L137.566 202.992L138.813 203.48L138.747 202.133H139.789L139.722 203.48L140.975 202.992L141.296 203.984L139.999 204.345L140.842 205.375L139.999 205.985L139.268 204.877L138.536 205.985ZM147.127 205.985L146.284 205.375L147.127 204.345L145.835 203.984L146.157 202.992L147.404 203.48L147.337 202.133H148.379L148.313 203.48L149.565 202.992L149.886 203.984L148.59 204.345L149.432 205.375L148.59 205.985L147.858 204.877L147.127 205.985ZM155.718 205.985L154.875 205.375L155.718 204.345L154.426 203.984L154.748 202.992L155.995 203.48L155.928 202.133H156.97L156.904 203.48L158.156 202.992L158.478 203.984L157.181 204.345L158.023 205.375L157.181 205.985L156.449 204.877L155.718 205.985ZM164.308 205.985L163.466 205.375L164.308 204.345L163.017 203.984L163.338 202.992L164.585 203.48L164.519 202.133H165.561L165.494 203.48L166.747 202.992L167.068 203.984L165.771 204.345L166.614 205.375L165.771 205.985L165.04 204.877L164.308 205.985ZM172.899 205.985L172.056 205.375L172.899 204.345L171.608 203.984L171.929 202.992L173.176 203.48L173.109 202.133H174.151L174.085 203.48L175.337 202.992L175.659 203.984L174.362 204.345L175.204 205.375L174.362 205.985L173.63 204.877L172.899 205.985ZM181.49 205.985L180.648 205.375L181.49 204.345L180.199 203.984L180.52 202.992L181.767 203.48L181.701 202.133H182.742L182.676 203.48L183.928 202.992L184.25 203.984L182.953 204.345L183.795 205.375L182.953 205.985L182.221 204.877L181.49 205.985ZM190.08 205.985L189.238 205.375L190.08 204.345L188.789 203.984L189.111 202.992L190.358 203.48L190.291 202.133H191.333L191.266 203.48L192.519 202.992L192.84 203.984L191.543 204.345L192.386 205.375L191.543 205.985L190.812 204.877L190.08 205.985ZM198.672 205.985L197.829 205.375L198.672 204.345L197.38 203.984L197.702 202.992L198.949 203.48L198.882 202.133H199.924L199.858 203.48L201.11 202.992L201.431 203.984L200.135 204.345L200.977 205.375L200.135 205.985L199.403 204.877L198.672 205.985ZM209.795 210.114V208.723H206.192V207.625L208.786 202.133H210.111L207.517 207.625H209.795V205.464H210.97V207.625H211.762V208.723H210.97V210.114H209.795ZM219.006 210.28C218.596 210.28 218.213 210.197 217.859 210.031C217.508 209.861 217.207 209.628 216.955 209.332C216.704 209.033 216.525 208.689 216.418 208.301L217.532 208.002C217.595 208.239 217.702 208.444 217.853 208.617C218.008 208.791 218.189 208.926 218.396 209.022C218.603 209.114 218.817 209.16 219.039 209.16C219.331 209.16 219.595 209.09 219.832 208.95C220.072 208.809 220.26 208.621 220.397 208.385C220.537 208.148 220.608 207.888 220.608 207.603C220.608 207.311 220.535 207.047 220.391 206.811C220.251 206.574 220.061 206.388 219.821 206.251C219.584 206.111 219.324 206.04 219.039 206.04C218.714 206.04 218.439 206.105 218.213 206.234C217.988 206.364 217.813 206.513 217.687 206.683L216.678 206.329L216.922 202.133H221.228V203.225H217.515L217.986 202.787L217.792 205.93L217.565 205.636C217.776 205.425 218.027 205.265 218.319 205.154C218.611 205.043 218.901 204.987 219.189 204.987C219.684 204.987 220.125 205.102 220.513 205.331C220.905 205.56 221.213 205.872 221.439 206.268C221.664 206.659 221.777 207.104 221.777 207.603C221.777 208.098 221.649 208.549 221.394 208.955C221.14 209.358 220.801 209.68 220.38 209.92C219.959 210.16 219.501 210.28 219.006 210.28ZM229.391 210.28C228.874 210.28 228.409 210.158 227.995 209.914C227.581 209.667 227.252 209.329 227.008 208.9C226.768 208.471 226.648 207.984 226.648 207.437V204.893C226.648 204.313 226.768 203.803 227.008 203.364C227.252 202.924 227.588 202.582 228.017 202.338C228.449 202.095 228.946 201.973 229.508 201.973C229.929 201.973 230.324 202.052 230.694 202.211C231.063 202.37 231.383 202.606 231.652 202.92L230.805 203.713C230.653 203.517 230.463 203.362 230.234 203.247C230.008 203.129 229.766 203.07 229.508 203.07C229.175 203.07 228.883 203.149 228.632 203.308C228.381 203.463 228.183 203.668 228.039 203.923C227.899 204.178 227.829 204.452 227.829 204.744V206.207L227.601 205.952C227.83 205.652 228.115 205.416 228.455 205.242C228.795 205.069 229.159 204.982 229.547 204.982C230.042 204.982 230.483 205.098 230.871 205.331C231.263 205.56 231.569 205.872 231.791 206.268C232.016 206.663 232.129 207.108 232.129 207.603C232.129 208.102 232.003 208.555 231.752 208.961C231.505 209.364 231.172 209.685 230.755 209.925C230.341 210.162 229.886 210.28 229.391 210.28ZM229.391 209.166C229.68 209.166 229.942 209.096 230.178 208.955C230.415 208.815 230.603 208.627 230.744 208.39C230.884 208.154 230.954 207.891 230.954 207.603C230.954 207.315 230.884 207.053 230.744 206.816C230.607 206.58 230.42 206.391 230.184 206.251C229.947 206.111 229.685 206.04 229.397 206.04C229.109 206.04 228.845 206.111 228.604 206.251C228.368 206.391 228.18 206.58 228.039 206.816C227.899 207.053 227.829 207.315 227.829 207.603C227.829 207.888 227.899 208.148 228.039 208.385C228.18 208.621 228.368 208.811 228.604 208.955C228.841 209.096 229.103 209.166 229.391 209.166ZM237.495 210.114L240.299 203.236H236.747V202.133H241.546V203.236L238.747 210.114H237.495Z" fill="white"/>
<path d="M230.694 182.401V178.675L229.859 179.183V178.466L230.694 177.967H231.35V182.401H230.694ZM232.396 182.398L232.399 181.825L234.329 180.095C234.485 179.958 234.591 179.826 234.646 179.701C234.704 179.576 234.733 179.45 234.733 179.325C234.733 179.167 234.697 179.025 234.628 178.9C234.558 178.773 234.462 178.672 234.338 178.599C234.215 178.525 234.074 178.488 233.914 178.488C233.749 178.488 233.603 178.526 233.473 178.605C233.346 178.68 233.246 178.782 233.175 178.909C233.103 179.037 233.067 179.174 233.07 179.322H232.411C232.411 179.034 232.476 178.783 232.605 178.568C232.736 178.35 232.916 178.181 233.144 178.06C233.372 177.937 233.632 177.875 233.926 177.875C234.205 177.875 234.455 177.938 234.677 178.066C234.899 178.191 235.073 178.363 235.2 178.583C235.33 178.803 235.394 179.053 235.394 179.334C235.394 179.538 235.367 179.71 235.314 179.852C235.261 179.993 235.181 180.124 235.074 180.246C234.967 180.367 234.834 180.498 234.674 180.64L233.184 181.97L233.113 181.785H235.394V182.398H232.396ZM237.253 177.967H237.903L236.721 182.401H236.071L237.253 177.967ZM239.947 182.484C239.728 182.484 239.521 182.443 239.329 182.361C239.135 182.276 238.968 182.158 238.827 182.004C238.687 181.85 238.585 181.668 238.522 181.459L239.144 181.286C239.203 181.477 239.307 181.624 239.455 181.727C239.603 181.827 239.766 181.876 239.947 181.874C240.109 181.873 240.252 181.834 240.375 181.76C240.499 181.687 240.595 181.587 240.665 181.462C240.734 181.334 240.769 181.189 240.769 181.025C240.769 180.778 240.692 180.575 240.539 180.415C240.386 180.255 240.188 180.175 239.941 180.175C239.871 180.175 239.8 180.185 239.726 180.206C239.654 180.226 239.586 180.253 239.523 180.286L239.221 179.778L240.785 178.395L240.853 178.58H238.697V177.967H241.364V178.58L240.064 179.83L240.058 179.621C240.337 179.621 240.579 179.683 240.785 179.808C240.99 179.932 241.148 180.1 241.259 180.313C241.372 180.525 241.428 180.762 241.428 181.025C241.428 181.308 241.361 181.559 241.228 181.779C241.096 181.999 240.919 182.171 240.696 182.296C240.474 182.421 240.225 182.484 239.947 182.484ZM243.776 182.493C243.474 182.493 243.207 182.427 242.975 182.296C242.744 182.163 242.561 181.98 242.427 181.748C242.296 181.516 242.23 181.249 242.23 180.948V179.421C242.23 179.119 242.296 178.852 242.427 178.62C242.561 178.388 242.744 178.206 242.975 178.075C243.207 177.942 243.474 177.875 243.776 177.875C244.077 177.875 244.345 177.942 244.576 178.075C244.808 178.206 244.99 178.388 245.121 178.62C245.255 178.852 245.321 179.119 245.321 179.421V180.948C245.321 181.249 245.255 181.516 245.121 181.748C244.99 181.98 244.808 182.163 244.576 182.296C244.345 182.427 244.077 182.493 243.776 182.493ZM243.776 181.877C243.94 181.877 244.089 181.839 244.222 181.76C244.358 181.68 244.465 181.574 244.545 181.44C244.625 181.305 244.665 181.154 244.665 180.988V179.374C244.665 179.21 244.625 179.062 244.545 178.928C244.465 178.792 244.358 178.686 244.222 178.608C244.089 178.528 243.94 178.488 243.776 178.488C243.612 178.488 243.462 178.528 243.326 178.608C243.193 178.686 243.086 178.792 243.006 178.928C242.926 179.062 242.886 179.21 242.886 179.374V180.988C242.886 181.154 242.926 181.305 243.006 181.44C243.086 181.574 243.193 181.68 243.326 181.76C243.462 181.839 243.612 181.877 243.776 181.877Z" fill="white"/>
<path d="M157.141 154.223C157.436 154.741 157.591 155.327 157.591 155.923C157.591 156.519 157.436 157.105 157.141 157.622M158.739 153.249C159.2 154.065 159.442 154.986 159.442 155.923C159.442 156.86 159.2 157.781 158.739 158.597M160.332 152.275C160.968 153.385 161.303 154.643 161.304 155.922C161.305 157.202 160.971 158.46 160.336 159.571M161.93 151.305C162.733 152.711 163.156 154.303 163.156 155.923C163.156 157.543 162.733 159.135 161.93 160.541" stroke="white" stroke-width="1.6" stroke-linecap="round" stroke-linejoin="round"/>
<path d="M77.2188 157.464V153.031H78.5857C78.6309 153.031 78.7099 153.032 78.8228 153.034C78.9357 153.035 79.0434 153.044 79.1461 153.058C79.4889 153.103 79.7752 153.229 80.0051 153.434C80.237 153.637 80.4115 153.896 80.5285 154.21C80.6455 154.524 80.704 154.87 80.704 155.247C80.704 155.625 80.6455 155.971 80.5285 156.285C80.4115 156.599 80.237 156.859 80.0051 157.064C79.7752 157.267 79.4889 157.391 79.1461 157.436C79.0434 157.449 78.9347 157.457 78.8197 157.461C78.7069 157.463 78.6288 157.464 78.5857 157.464H77.2188ZM77.7822 156.941H78.5857C78.6638 156.941 78.751 156.939 78.8474 156.934C78.9439 156.928 79.028 156.919 79.0999 156.907C79.3421 156.862 79.5381 156.76 79.688 156.602C79.8378 156.444 79.9476 156.247 80.0174 156.011C80.0872 155.775 80.1221 155.52 80.1221 155.247C80.1221 154.968 80.0862 154.71 80.0143 154.475C79.9446 154.239 79.8347 154.042 79.6849 153.886C79.5351 153.731 79.3401 153.631 79.0999 153.588C79.028 153.574 78.9429 153.564 78.8444 153.56C78.7458 153.556 78.6596 153.554 78.5857 153.554H77.7822V156.941ZM82.8509 157.556C82.5245 157.556 82.2393 157.484 81.995 157.341C81.7528 157.195 81.5639 156.993 81.4285 156.734C81.293 156.474 81.2253 156.17 81.2253 155.823C81.2253 155.46 81.292 155.146 81.4254 154.881C81.5588 154.614 81.7446 154.409 81.9827 154.265C82.2228 154.119 82.504 154.047 82.8263 154.047C83.1609 154.047 83.4451 154.124 83.6791 154.277C83.9152 154.431 84.0917 154.651 84.2087 154.936C84.3277 155.221 84.379 155.561 84.3626 155.955H83.8084V155.758C83.8022 155.35 83.7191 155.045 83.559 154.844C83.3989 154.641 83.1609 154.539 82.8447 154.539C82.5061 154.539 82.2485 154.648 82.072 154.866C81.8955 155.083 81.8072 155.395 81.8072 155.801C81.8072 156.194 81.8955 156.497 82.072 156.713C82.2485 156.928 82.4999 157.036 82.8263 157.036C83.0459 157.036 83.2368 156.986 83.3989 156.885C83.5611 156.785 83.6883 156.64 83.7807 156.451L84.3072 156.633C84.1779 156.926 83.9829 157.154 83.7222 157.316C83.4636 157.476 83.1732 157.556 82.8509 157.556ZM81.6224 155.955V155.515H84.0793V155.955H81.6224ZM86.5752 157.556C86.2632 157.556 86.0005 157.479 85.787 157.326C85.5736 157.17 85.4114 156.959 85.3005 156.694C85.1918 156.428 85.1373 156.129 85.1373 155.798C85.1373 155.464 85.1918 155.164 85.3005 154.899C85.4114 154.635 85.5736 154.426 85.787 154.274C86.0025 154.122 86.2663 154.047 86.5782 154.047C86.8861 154.047 87.1509 154.124 87.3726 154.277C87.5963 154.43 87.7677 154.638 87.8867 154.902C88.0058 155.167 88.0653 155.466 88.0653 155.798C88.0653 156.131 88.0058 156.43 87.8867 156.694C87.7677 156.959 87.5963 157.17 87.3726 157.326C87.1509 157.479 86.8851 157.556 86.5752 157.556ZM85.045 157.464V153.031H85.5961V155.016H85.5345V157.464H85.045ZM86.5074 157.055C86.7271 157.055 86.9087 156.999 87.0524 156.888C87.1961 156.777 87.3038 156.628 87.3756 156.439C87.4475 156.248 87.4834 156.034 87.4834 155.798C87.4834 155.564 87.4475 155.353 87.3756 155.164C87.3059 154.975 87.1971 154.826 87.0493 154.715C86.9036 154.604 86.7178 154.548 86.492 154.548C86.2765 154.548 86.0979 154.602 85.9563 154.709C85.8147 154.813 85.709 154.96 85.6392 155.149C85.5694 155.335 85.5345 155.552 85.5345 155.798C85.5345 156.04 85.5684 156.257 85.6361 156.448C85.7059 156.637 85.8127 156.785 85.9563 156.894C86.1 157.001 86.2837 157.055 86.5074 157.055ZM88.8018 153.551V152.984H89.3498V153.551H88.8018ZM88.8018 157.464V154.139H89.3498V157.464H88.8018ZM92.1302 157.464C91.9332 157.503 91.7381 157.518 91.5452 157.51C91.3543 157.504 91.184 157.466 91.0341 157.396C90.8843 157.324 90.7704 157.213 90.6924 157.064C90.6267 156.933 90.5908 156.8 90.5846 156.667C90.5805 156.531 90.5785 156.378 90.5785 156.208V153.215H91.1265V156.183C91.1265 156.319 91.1275 156.434 91.1296 156.531C91.1337 156.628 91.1552 156.711 91.1942 156.781C91.2681 156.912 91.3851 156.989 91.5452 157.011C91.7074 157.034 91.9024 157.028 92.1302 156.993V157.464ZM89.9042 154.592V154.139H92.1302V154.592H89.9042Z" fill="white"/>
<path d="M79.0654 233.603C78.6221 233.603 78.2444 233.506 77.9324 233.313C77.6204 233.118 77.3813 232.847 77.2151 232.5C77.0508 232.154 76.9688 231.751 76.9688 231.293C76.9688 230.836 77.0508 230.433 77.2151 230.087C77.3813 229.74 77.6204 229.47 77.9324 229.277C78.2444 229.082 78.6221 228.984 79.0654 228.984C79.5765 228.984 79.9994 229.114 80.3339 229.372C80.6705 229.631 80.9045 229.979 81.0359 230.416L80.3832 230.592C80.297 230.282 80.143 230.039 79.9213 229.862C79.7017 229.685 79.4164 229.597 79.0654 229.597C78.7514 229.597 78.4897 229.668 78.2803 229.809C78.071 229.951 77.9129 230.149 77.8062 230.404C77.7015 230.658 77.6492 230.955 77.6492 231.293C77.6471 231.632 77.6984 231.929 77.8031 232.183C77.9098 232.438 78.0679 232.636 78.2772 232.777C78.4886 232.919 78.7514 232.99 79.0654 232.99C79.4164 232.99 79.7017 232.902 79.9213 232.725C80.143 232.547 80.297 232.303 80.3832 231.995L81.0359 232.171C80.9045 232.608 80.6705 232.956 80.3339 233.215C79.9994 233.473 79.5765 233.603 79.0654 233.603ZM84.1699 233.51V231.875C84.1699 231.746 84.1587 231.614 84.1361 231.478C84.1155 231.341 84.0745 231.213 84.0129 231.096C83.9534 230.979 83.8682 230.885 83.7574 230.813C83.6486 230.741 83.5059 230.705 83.3294 230.705C83.2144 230.705 83.1057 230.725 83.003 230.764C82.9004 230.801 82.8101 230.861 82.7321 230.946C82.6562 231.03 82.5956 231.141 82.5505 231.278C82.5074 231.415 82.4858 231.583 82.4858 231.78L82.0856 231.629C82.0856 231.327 82.142 231.061 82.2549 230.832C82.3678 230.6 82.53 230.419 82.7414 230.29C82.9527 230.16 83.2083 230.096 83.508 230.096C83.7378 230.096 83.9308 230.133 84.0868 230.207C84.2428 230.281 84.369 230.378 84.4655 230.499C84.564 230.618 84.6389 230.749 84.6902 230.89C84.7415 231.032 84.7764 231.17 84.7949 231.306C84.8134 231.441 84.8226 231.56 84.8226 231.663V233.51H84.1699ZM81.8331 233.51V229.077H82.4088V231.469H82.4858V233.51H81.8331ZM87.0008 233.6C86.7709 233.6 86.578 233.563 86.422 233.489C86.266 233.415 86.1387 233.318 86.0402 233.199C85.9437 233.078 85.8699 232.947 85.8185 232.805C85.7672 232.664 85.7323 232.525 85.7138 232.39C85.6954 232.254 85.6861 232.135 85.6861 232.032V230.185H86.3388V231.82C86.3388 231.949 86.3491 232.083 86.3696 232.22C86.3922 232.356 86.4333 232.482 86.4928 232.599C86.5543 232.716 86.6396 232.81 86.7483 232.882C86.8591 232.954 87.0029 232.99 87.1793 232.99C87.2943 232.99 87.4031 232.971 87.5057 232.935C87.6083 232.896 87.6976 232.834 87.7736 232.75C87.8516 232.665 87.9121 232.555 87.9552 232.417C88.0004 232.28 88.0229 232.112 88.0229 231.915L88.4232 232.066C88.4232 232.368 88.3668 232.635 88.2538 232.867C88.141 233.096 87.9788 233.276 87.7674 233.406C87.556 233.535 87.3005 233.6 87.0008 233.6ZM88.0999 233.51V232.55H88.0229V230.185H88.6726V233.51H88.0999ZM89.6562 233.51L89.6593 229.077H90.312V231.786L91.6174 230.185H92.4364L91.057 231.848L92.578 233.51H91.7036L90.312 231.909V233.51H89.6562ZM93.7197 233.51L92.7037 230.182L93.341 230.185L94.0368 232.467L94.7388 230.185H95.293L95.9949 232.467L96.6907 230.185H97.325L96.309 233.51H95.7917L95.0159 231.103L94.2369 233.51H93.7197ZM99.2526 233.6C99.0227 233.6 98.8297 233.563 98.6737 233.489C98.5178 233.415 98.3905 233.318 98.292 233.199C98.1955 233.078 98.1216 232.947 98.0703 232.805C98.019 232.664 97.9841 232.525 97.9656 232.39C97.9471 232.254 97.9379 232.135 97.9379 232.032V230.185H98.5906V231.82C98.5906 231.949 98.6009 232.083 98.6214 232.22C98.644 232.356 98.685 232.482 98.7446 232.599C98.8061 232.716 98.8913 232.81 99.0001 232.882C99.1109 232.954 99.2546 232.99 99.4311 232.99C99.5461 232.99 99.6548 232.971 99.7575 232.935C99.8601 232.896 99.9494 232.834 100.025 232.75C100.103 232.665 100.164 232.555 100.207 232.417C100.252 232.28 100.275 232.112 100.275 231.915L100.675 232.066C100.675 232.368 100.619 232.635 100.506 232.867C100.393 233.096 100.231 233.276 100.019 233.406C99.8078 233.535 99.5522 233.6 99.2526 233.6ZM100.352 233.51V232.55H100.275V230.185H100.924V233.51H100.352ZM105.117 233.603C104.674 233.603 104.296 233.506 103.984 233.313C103.672 233.118 103.433 232.847 103.267 232.5C103.103 232.154 103.021 231.751 103.021 231.293C103.021 230.836 103.103 230.433 103.267 230.087C103.433 229.74 103.672 229.47 103.984 229.277C104.296 229.082 104.674 228.984 105.117 228.984C105.559 228.984 105.935 229.082 106.247 229.277C106.561 229.47 106.8 229.74 106.965 230.087C107.129 230.433 107.211 230.836 107.211 231.293C107.211 231.751 107.129 232.154 106.965 232.5C106.8 232.847 106.561 233.118 106.247 233.313C105.935 233.506 105.559 233.603 105.117 233.603ZM105.117 232.99C105.431 232.994 105.692 232.925 105.899 232.784C106.109 232.64 106.266 232.441 106.37 232.186C106.475 231.93 106.527 231.632 106.527 231.293C106.527 230.955 106.475 230.659 106.37 230.407C106.266 230.152 106.109 229.954 105.899 229.813C105.692 229.671 105.431 229.599 105.117 229.597C104.803 229.593 104.542 229.662 104.332 229.803C104.125 229.945 103.969 230.144 103.864 230.401C103.76 230.657 103.706 230.955 103.704 231.293C103.702 231.632 103.753 231.929 103.858 232.183C103.963 232.436 104.12 232.633 104.329 232.774C104.54 232.916 104.803 232.988 105.117 232.99ZM108.01 233.51V228.984H108.653V233.51H108.01ZM111.145 233.603C110.812 233.603 110.524 233.527 110.28 233.378C110.035 233.228 109.847 233.022 109.713 232.759C109.582 232.494 109.516 232.189 109.516 231.845C109.516 231.498 109.584 231.193 109.719 230.93C109.855 230.665 110.044 230.46 110.289 230.314C110.533 230.167 110.819 230.093 111.145 230.093C111.477 230.093 111.766 230.168 112.01 230.318C112.254 230.467 112.443 230.673 112.577 230.936C112.71 231.199 112.777 231.502 112.777 231.845C112.777 232.191 112.709 232.497 112.573 232.762C112.44 233.025 112.251 233.231 112.007 233.381C111.762 233.529 111.476 233.603 111.145 233.603ZM111.145 232.996C111.463 232.996 111.7 232.89 111.856 232.676C112.014 232.46 112.093 232.183 112.093 231.845C112.093 231.498 112.013 231.221 111.853 231.013C111.695 230.804 111.459 230.699 111.145 230.699C110.929 230.699 110.752 230.749 110.612 230.847C110.472 230.944 110.369 231.078 110.301 231.25C110.234 231.421 110.2 231.619 110.2 231.845C110.2 232.194 110.28 232.473 110.44 232.682C110.6 232.891 110.835 232.996 111.145 232.996ZM113.638 233.51V228.984H114.282V233.51H113.638ZM116.268 233.603C116.022 233.603 115.815 233.558 115.649 233.467C115.483 233.375 115.357 233.253 115.27 233.104C115.187 232.952 115.144 232.785 115.144 232.605C115.144 232.437 115.174 232.289 115.234 232.162C115.293 232.034 115.381 231.926 115.498 231.838C115.615 231.748 115.759 231.675 115.929 231.62C116.077 231.577 116.245 231.539 116.431 231.506C116.618 231.473 116.814 231.443 117.019 231.414C117.227 231.385 117.432 231.356 117.635 231.327L117.401 231.457C117.405 231.196 117.35 231.003 117.235 230.878C117.122 230.75 116.927 230.687 116.65 230.687C116.476 230.687 116.315 230.728 116.169 230.81C116.024 230.89 115.923 231.024 115.865 231.21L115.264 231.026C115.347 230.741 115.503 230.513 115.732 230.345C115.964 230.177 116.272 230.093 116.656 230.093C116.954 230.093 117.213 230.144 117.432 230.247C117.653 230.347 117.816 230.507 117.918 230.727C117.972 230.836 118.004 230.951 118.017 231.072C118.029 231.193 118.035 231.323 118.035 231.463V233.51H117.466V232.75L117.577 232.848C117.439 233.103 117.264 233.293 117.05 233.418C116.839 233.541 116.578 233.603 116.268 233.603ZM116.382 233.076C116.565 233.076 116.722 233.044 116.853 232.981C116.985 232.915 117.09 232.832 117.17 232.731C117.25 232.631 117.302 232.526 117.327 232.417C117.362 232.319 117.382 232.208 117.386 232.085C117.392 231.962 117.395 231.863 117.395 231.789L117.604 231.866C117.401 231.897 117.216 231.925 117.05 231.949C116.884 231.974 116.733 231.999 116.597 232.023C116.464 232.046 116.345 232.074 116.24 232.106C116.152 232.137 116.073 232.174 116.003 232.217C115.935 232.26 115.881 232.313 115.84 232.374C115.801 232.436 115.782 232.511 115.782 232.599C115.782 232.685 115.803 232.765 115.846 232.839C115.889 232.911 115.955 232.968 116.043 233.011C116.132 233.055 116.245 233.076 116.382 233.076ZM120.279 233.603C119.969 233.603 119.701 233.526 119.476 233.372C119.251 233.218 119.078 233.008 118.955 232.744C118.834 232.477 118.774 232.177 118.774 231.845C118.774 231.51 118.835 231.212 118.958 230.949C119.081 230.684 119.256 230.476 119.482 230.324C119.71 230.17 119.979 230.093 120.291 230.093C120.605 230.093 120.869 230.17 121.083 230.324C121.298 230.476 121.46 230.684 121.569 230.949C121.68 231.213 121.735 231.512 121.735 231.845C121.735 232.177 121.68 232.476 121.569 232.741C121.458 233.005 121.295 233.216 121.08 233.372C120.864 233.526 120.597 233.603 120.279 233.603ZM120.368 233.021C120.58 233.021 120.752 232.97 120.886 232.87C121.019 232.769 121.117 232.631 121.178 232.454C121.24 232.277 121.27 232.074 121.27 231.845C121.27 231.615 121.238 231.412 121.175 231.235C121.113 231.058 121.017 230.921 120.886 230.822C120.756 230.724 120.591 230.675 120.39 230.675C120.176 230.675 120.001 230.727 119.863 230.832C119.726 230.936 119.623 231.077 119.556 231.253C119.49 231.43 119.457 231.627 119.457 231.845C119.457 232.064 119.49 232.263 119.556 232.442C119.623 232.619 119.724 232.759 119.857 232.864C119.993 232.968 120.163 233.021 120.368 233.021ZM121.27 233.51V231.118H121.197V229.077H121.843V233.51H121.27ZM124.302 233.603C123.972 233.603 123.681 233.531 123.431 233.387C123.182 233.241 122.988 233.039 122.849 232.781C122.711 232.52 122.643 232.218 122.643 231.875C122.643 231.512 122.711 231.197 122.846 230.93C122.984 230.664 123.174 230.457 123.419 230.311C123.663 230.165 123.947 230.093 124.272 230.093C124.61 230.093 124.899 230.172 125.137 230.33C125.375 230.486 125.552 230.709 125.669 230.998C125.788 231.287 125.836 231.631 125.811 232.029H125.168V231.795C125.163 231.409 125.089 231.124 124.946 230.939C124.804 230.755 124.588 230.662 124.296 230.662C123.974 230.662 123.732 230.764 123.57 230.967C123.407 231.17 123.327 231.464 123.327 231.848C123.327 232.213 123.407 232.496 123.57 232.697C123.732 232.896 123.966 232.996 124.272 232.996C124.472 232.996 124.646 232.951 124.792 232.861C124.94 232.768 125.054 232.637 125.137 232.467L125.768 232.667C125.639 232.964 125.442 233.195 125.18 233.359C124.917 233.521 124.625 233.603 124.302 233.603ZM123.117 232.029V231.527H125.491V232.029H123.117ZM127.98 233.51V229.077H128.624V230.989H130.841V229.077H131.487V233.51H130.841V231.595H128.624V233.51H127.98ZM133.415 233.603C133.168 233.603 132.962 233.558 132.796 233.467C132.629 233.375 132.503 233.253 132.417 233.104C132.333 232.952 132.291 232.785 132.291 232.605C132.291 232.437 132.32 232.289 132.38 232.162C132.44 232.034 132.528 231.926 132.645 231.838C132.762 231.748 132.905 231.675 133.076 231.62C133.224 231.577 133.391 231.539 133.578 231.506C133.764 231.473 133.961 231.443 134.166 231.414C134.373 231.385 134.578 231.356 134.782 231.327L134.548 231.457C134.552 231.196 134.496 231.003 134.381 230.878C134.269 230.75 134.073 230.687 133.796 230.687C133.622 230.687 133.462 230.728 133.316 230.81C133.17 230.89 133.069 231.024 133.011 231.21L132.411 231.026C132.493 230.741 132.649 230.513 132.879 230.345C133.111 230.177 133.419 230.093 133.802 230.093C134.1 230.093 134.359 230.144 134.578 230.247C134.8 230.347 134.962 230.507 135.065 230.727C135.118 230.836 135.151 230.951 135.163 231.072C135.176 231.193 135.182 231.323 135.182 231.463V233.51H134.612V232.75L134.723 232.848C134.586 233.103 134.41 233.293 134.197 233.418C133.985 233.541 133.724 233.603 133.415 233.603ZM133.528 233.076C133.711 233.076 133.868 233.044 134 232.981C134.131 232.915 134.237 232.832 134.317 232.731C134.397 232.631 134.449 232.526 134.474 232.417C134.509 232.319 134.528 232.208 134.532 232.085C134.538 231.962 134.541 231.863 134.541 231.789L134.751 231.866C134.548 231.897 134.363 231.925 134.197 231.949C134.03 231.974 133.879 231.999 133.744 232.023C133.61 232.046 133.492 232.074 133.387 232.106C133.299 232.137 133.219 232.174 133.15 232.217C133.082 232.26 133.028 232.313 132.987 232.374C132.948 232.436 132.928 232.511 132.928 232.599C132.928 232.685 132.95 232.765 132.993 232.839C133.036 232.911 133.102 232.968 133.19 233.011C133.278 233.055 133.391 233.076 133.528 233.076ZM137.376 233.6C136.972 233.6 136.642 233.51 136.387 233.332C136.133 233.153 135.977 232.902 135.919 232.577L136.578 232.476C136.62 232.648 136.714 232.785 136.862 232.885C137.012 232.984 137.197 233.033 137.419 233.033C137.62 233.033 137.777 232.992 137.89 232.91C138.005 232.828 138.062 232.715 138.062 232.571C138.062 232.487 138.042 232.419 138.001 232.368C137.962 232.314 137.879 232.265 137.751 232.217C137.625 232.17 137.431 232.111 137.169 232.042C136.884 231.968 136.658 231.889 136.489 231.805C136.323 231.718 136.204 231.619 136.132 231.506C136.062 231.391 136.027 231.252 136.027 231.09C136.027 230.889 136.081 230.713 136.187 230.564C136.294 230.414 136.444 230.298 136.637 230.216C136.832 230.134 137.06 230.093 137.32 230.093C137.575 230.093 137.802 230.133 138.001 230.213C138.2 230.293 138.361 230.407 138.484 230.555C138.607 230.701 138.681 230.872 138.706 231.069L138.047 231.189C138.025 231.029 137.95 230.902 137.822 230.81C137.695 230.718 137.53 230.667 137.327 230.659C137.132 230.651 136.974 230.684 136.852 230.758C136.732 230.83 136.671 230.929 136.671 231.056C136.671 231.13 136.693 231.193 136.738 231.244C136.786 231.295 136.876 231.345 137.009 231.392C137.143 231.439 137.34 231.495 137.601 231.561C137.88 231.633 138.102 231.713 138.266 231.802C138.43 231.888 138.547 231.991 138.617 232.112C138.689 232.231 138.724 232.376 138.724 232.547C138.724 232.875 138.604 233.133 138.364 233.319C138.126 233.506 137.797 233.6 137.376 233.6ZM140.801 233.6C140.396 233.6 140.067 233.51 139.812 233.332C139.557 233.153 139.402 232.902 139.344 232.577L140.003 232.476C140.044 232.648 140.139 232.785 140.286 232.885C140.436 232.984 140.622 233.033 140.844 233.033C141.044 233.033 141.202 232.992 141.315 232.91C141.429 232.828 141.487 232.715 141.487 232.571C141.487 232.487 141.466 232.419 141.426 232.368C141.386 232.314 141.303 232.265 141.176 232.217C141.049 232.17 140.855 232.111 140.594 232.042C140.309 231.968 140.082 231.889 139.914 231.805C139.748 231.718 139.628 231.619 139.557 231.506C139.487 231.391 139.452 231.252 139.452 231.09C139.452 230.889 139.505 230.713 139.612 230.564C139.719 230.414 139.868 230.298 140.062 230.216C140.256 230.134 140.484 230.093 140.745 230.093C141 230.093 141.226 230.133 141.426 230.213C141.625 230.293 141.786 230.407 141.909 230.555C142.032 230.701 142.106 230.872 142.131 231.069L141.472 231.189C141.449 231.029 141.374 230.902 141.247 230.81C141.12 230.718 140.955 230.667 140.751 230.659C140.556 230.651 140.398 230.684 140.277 230.758C140.156 230.83 140.096 230.929 140.096 231.056C140.096 231.13 140.118 231.193 140.163 231.244C140.21 231.295 140.301 231.345 140.434 231.392C140.567 231.439 140.764 231.495 141.025 231.561C141.304 231.633 141.526 231.713 141.69 231.802C141.854 231.888 141.971 231.991 142.041 232.112C142.113 232.231 142.149 232.376 142.149 232.547C142.149 232.875 142.029 233.133 141.789 233.319C141.551 233.506 141.221 233.6 140.801 233.6ZM143.892 233.603C143.646 233.603 143.44 233.558 143.274 233.467C143.107 233.375 142.981 233.253 142.895 233.104C142.81 232.952 142.769 232.785 142.769 232.605C142.769 232.437 142.798 232.289 142.858 232.162C142.918 232.034 143.006 231.926 143.123 231.838C143.24 231.748 143.383 231.675 143.554 231.62C143.702 231.577 143.869 231.539 144.056 231.506C144.242 231.473 144.439 231.443 144.644 231.414C144.851 231.385 145.056 231.356 145.259 231.327L145.025 231.457C145.03 231.196 144.974 231.003 144.859 230.878C144.746 230.75 144.551 230.687 144.274 230.687C144.1 230.687 143.94 230.728 143.794 230.81C143.648 230.89 143.546 231.024 143.489 231.21L142.889 231.026C142.971 230.741 143.127 230.513 143.357 230.345C143.589 230.177 143.897 230.093 144.28 230.093C144.578 230.093 144.836 230.144 145.056 230.247C145.278 230.347 145.44 230.507 145.543 230.727C145.596 230.836 145.629 230.951 145.641 231.072C145.653 231.193 145.66 231.323 145.66 231.463V233.51H145.09V232.75L145.201 232.848C145.064 233.103 144.888 233.293 144.674 233.418C144.463 233.541 144.202 233.603 143.892 233.603ZM144.006 233.076C144.189 233.076 144.346 233.044 144.477 232.981C144.609 232.915 144.714 232.832 144.794 232.731C144.875 232.631 144.927 232.526 144.952 232.417C144.987 232.319 145.006 232.208 145.01 232.085C145.016 231.962 145.019 231.863 145.019 231.789L145.229 231.866C145.025 231.897 144.841 231.925 144.674 231.949C144.508 231.974 144.357 231.999 144.222 232.023C144.088 232.046 143.969 232.074 143.865 232.106C143.777 232.137 143.697 232.174 143.628 232.217C143.56 232.26 143.506 232.313 143.464 232.374C143.426 232.436 143.406 232.511 143.406 232.599C143.406 232.685 143.427 232.765 143.471 232.839C143.514 232.911 143.58 232.968 143.668 233.011C143.756 233.055 143.869 233.076 144.006 233.076ZM148.916 233.51V231.875C148.916 231.746 148.905 231.614 148.882 231.478C148.862 231.341 148.82 231.213 148.759 231.096C148.7 230.979 148.614 230.885 148.503 230.813C148.395 230.741 148.252 230.705 148.075 230.705C147.961 230.705 147.852 230.725 147.749 230.764C147.647 230.801 147.556 230.861 147.478 230.946C147.402 231.03 147.342 231.141 147.296 231.278C147.253 231.415 147.232 231.583 147.232 231.78L146.831 231.629C146.831 231.327 146.888 231.061 147.001 230.832C147.114 230.6 147.276 230.419 147.487 230.29C147.699 230.16 147.955 230.096 148.254 230.096C148.484 230.096 148.677 230.133 148.833 230.207C148.989 230.281 149.115 230.378 149.211 230.499C149.31 230.618 149.385 230.749 149.436 230.89C149.488 231.032 149.522 231.17 149.541 231.306C149.559 231.441 149.568 231.56 149.568 231.663V233.51H148.916ZM146.579 233.51V230.185H147.155V231.146H147.232V233.51H146.579Z" fill="white"/>
<mask id="mask2_1235_9731" style="mask-type:luminance" maskUnits="userSpaceOnUse" x="223" y="227" width="24" height="8">
<path d="M246.121 227.355H223.953V234.745H246.121V227.355Z" fill="white"/>
</mask>
<g mask="url(#mask2_1235_9731)">
<path d="M228.578 234.494C230.46 234.494 231.985 232.968 231.985 231.087C231.985 229.205 230.46 227.68 228.578 227.68C226.697 227.68 225.172 229.205 225.172 231.087C225.172 232.968 226.697 234.494 228.578 234.494Z" fill="#EE312A"/>
<path d="M228.575 232.548C227.813 230.82 227.254 229.207 227.254 229.207H226.086C226.086 229.207 226.797 231.278 228.118 233.868H229.032C230.353 231.278 231.064 229.207 231.064 229.207H229.896C229.896 229.207 229.337 230.82 228.575 232.548Z" fill="white"/>
<path d="M244.891 232.333H242.606C242.606 232.333 242.657 233.095 243.672 233.095C244.18 233.095 244.688 232.942 244.688 232.942L244.79 233.755C244.79 233.755 244.282 233.958 243.57 233.958C242.555 233.958 241.641 233.45 241.641 232.028C241.641 230.91 242.352 230.199 243.367 230.199C244.891 230.199 244.993 231.723 244.891 232.333ZM243.317 230.91C242.657 230.91 242.606 231.622 242.606 231.622H244.028C244.028 231.622 243.977 230.91 243.317 230.91Z" fill="white"/>
<path d="M237.028 231.128L237.18 230.315C237.18 230.315 236.003 229.958 235.047 230.62V233.87H236.062V231.229C236.469 230.925 237.028 231.128 237.028 231.128Z" fill="white"/>
<path d="M234.251 232.333H231.966C231.966 232.333 232.016 233.095 233.032 233.095C233.54 233.095 234.047 232.942 234.047 232.942L234.149 233.755C234.149 233.755 233.642 233.958 232.93 233.958C231.914 233.958 231 233.45 231 232.028C231 230.91 231.711 230.199 232.727 230.199C234.251 230.199 234.352 231.723 234.251 232.333ZM232.676 230.91C232.016 230.91 231.966 231.622 231.966 231.622H233.387C233.387 231.622 233.337 230.91 232.676 230.91Z" fill="white"/>
<path d="M239.496 232.649C239.181 231.881 238.926 231.089 238.734 230.281H237.719C237.719 230.281 238.226 232.242 239.09 233.867H239.902C240.766 232.242 241.274 230.282 241.274 230.282H240.258C240.067 231.09 239.812 231.881 239.496 232.649Z" fill="white"/>
</g>
</g>
<path d="M46 119.289H276.911" stroke="#E6E6E6"/>
<path d="M46 119.289H161.456" stroke="#121212"/>
<path d="M87.1406 111.711V105.504H89.6492C89.7096 105.504 89.7843 105.507 89.8734 105.513C89.9624 105.516 90.0472 105.525 90.1277 105.539C90.4725 105.594 90.7598 105.711 90.9898 105.892C91.2225 106.073 91.3964 106.302 91.5113 106.578C91.6262 106.853 91.6837 107.158 91.6837 107.491C91.6837 107.828 91.6262 108.134 91.5113 108.409C91.3964 108.685 91.2225 108.914 90.9898 109.095C90.7598 109.276 90.4725 109.394 90.1277 109.448C90.0472 109.46 89.961 109.469 89.8691 109.474C89.78 109.48 89.7067 109.483 89.6492 109.483H88.0415V111.711H87.1406ZM88.0415 108.629H89.6148C89.6722 108.629 89.7355 108.627 89.8044 108.621C89.8762 108.615 89.9438 108.605 90.007 108.591C90.1909 108.547 90.3389 108.469 90.451 108.353C90.563 108.236 90.6435 108.101 90.6923 107.948C90.7412 107.796 90.7656 107.644 90.7656 107.491C90.7656 107.339 90.7412 107.188 90.6923 107.039C90.6435 106.887 90.563 106.753 90.451 106.638C90.3389 106.52 90.1909 106.44 90.007 106.397C89.9438 106.379 89.8762 106.368 89.8044 106.362C89.7355 106.357 89.6722 106.353 89.6148 106.353H88.0415V108.629ZM95.8126 111.711V109.422C95.8126 109.241 95.7968 109.056 95.7652 108.866C95.7364 108.674 95.679 108.496 95.5928 108.332C95.5095 108.168 95.3902 108.036 95.235 107.935C95.0827 107.835 94.883 107.784 94.6359 107.784C94.475 107.784 94.3226 107.812 94.179 107.866C94.0353 107.918 93.9089 108.003 93.7997 108.121C93.6933 108.239 93.6086 108.394 93.5454 108.586C93.485 108.779 93.4548 109.013 93.4548 109.289L92.8945 109.078C92.8945 108.655 92.9735 108.283 93.1316 107.961C93.2896 107.637 93.5166 107.384 93.8126 107.203C94.1086 107.022 94.4664 106.931 94.8859 106.931C95.2077 106.931 95.4778 106.983 95.6962 107.086C95.9146 107.19 96.0914 107.326 96.2264 107.496C96.3643 107.663 96.4692 107.845 96.5411 108.043C96.6129 108.241 96.6617 108.435 96.6876 108.625C96.7135 108.815 96.7264 108.982 96.7264 109.125V111.711H95.8126ZM92.5411 111.711V105.504H93.3471V108.853H93.4548V111.711H92.5411ZM98.4784 113.78L99.3793 111.328L99.3922 112.052L97.3621 107.056H98.3017L99.8189 110.914H99.5431L100.991 107.056H101.905L99.3362 113.78H98.4784ZM104.361 111.836C103.795 111.836 103.333 111.711 102.977 111.461C102.621 111.211 102.402 110.86 102.322 110.405L103.244 110.263C103.302 110.504 103.434 110.696 103.641 110.836C103.851 110.974 104.111 111.043 104.421 111.043C104.703 111.043 104.922 110.986 105.08 110.871C105.241 110.756 105.322 110.598 105.322 110.397C105.322 110.279 105.293 110.184 105.236 110.112C105.181 110.038 105.065 109.967 104.886 109.901C104.708 109.835 104.437 109.753 104.072 109.655C103.672 109.552 103.355 109.442 103.119 109.323C102.886 109.203 102.72 109.063 102.619 108.905C102.521 108.744 102.473 108.55 102.473 108.323C102.473 108.042 102.547 107.796 102.697 107.586C102.846 107.377 103.056 107.214 103.326 107.099C103.599 106.985 103.918 106.927 104.283 106.927C104.639 106.927 104.957 106.983 105.236 107.095C105.514 107.207 105.74 107.366 105.912 107.573C106.085 107.778 106.188 108.017 106.223 108.293L105.3 108.461C105.269 108.237 105.164 108.06 104.986 107.931C104.807 107.802 104.576 107.732 104.292 107.72C104.019 107.709 103.797 107.754 103.628 107.858C103.458 107.959 103.374 108.098 103.374 108.276C103.374 108.379 103.405 108.467 103.468 108.539C103.534 108.611 103.661 108.68 103.848 108.746C104.034 108.812 104.31 108.891 104.675 108.983C105.066 109.084 105.376 109.196 105.606 109.319C105.836 109.44 106 109.585 106.098 109.754C106.198 109.921 106.249 110.124 106.249 110.362C106.249 110.822 106.08 111.183 105.744 111.444C105.411 111.706 104.95 111.836 104.361 111.836ZM107.288 106.293V105.418H108.189V106.293H107.288ZM107.288 111.711V107.056H108.189V111.711H107.288ZM111.475 111.841C110.998 111.841 110.593 111.735 110.26 111.522C109.926 111.309 109.67 111.017 109.492 110.647C109.317 110.276 109.228 109.855 109.225 109.384C109.228 108.904 109.32 108.48 109.501 108.112C109.682 107.741 109.941 107.451 110.277 107.241C110.613 107.032 111.017 106.927 111.488 106.927C111.997 106.927 112.431 107.054 112.79 107.306C113.152 107.559 113.39 107.905 113.505 108.345L112.609 108.603C112.519 108.342 112.373 108.14 112.169 107.996C111.968 107.849 111.737 107.776 111.475 107.776C111.179 107.776 110.936 107.847 110.747 107.987C110.557 108.125 110.416 108.315 110.324 108.556C110.232 108.797 110.185 109.073 110.182 109.384C110.185 109.864 110.294 110.252 110.51 110.547C110.728 110.844 111.05 110.991 111.475 110.991C111.765 110.991 112 110.925 112.178 110.793C112.359 110.658 112.497 110.466 112.591 110.216L113.505 110.431C113.353 110.885 113.101 111.235 112.751 111.478C112.401 111.72 111.975 111.841 111.475 111.841ZM115.639 111.841C115.294 111.841 115.005 111.778 114.772 111.651C114.54 111.522 114.363 111.352 114.242 111.142C114.125 110.93 114.066 110.697 114.066 110.444C114.066 110.209 114.107 110.002 114.191 109.823C114.274 109.645 114.397 109.494 114.561 109.371C114.725 109.244 114.926 109.142 115.165 109.065C115.372 109.004 115.606 108.951 115.867 108.905C116.129 108.86 116.404 108.816 116.691 108.776C116.981 108.736 117.268 108.696 117.553 108.655L117.225 108.836C117.231 108.472 117.154 108.201 116.992 108.026C116.835 107.848 116.561 107.759 116.173 107.759C115.929 107.759 115.705 107.817 115.501 107.931C115.297 108.043 115.155 108.23 115.074 108.491L114.234 108.233C114.349 107.834 114.567 107.516 114.889 107.28C115.214 107.045 115.645 106.927 116.182 106.927C116.599 106.927 116.961 106.999 117.268 107.142C117.578 107.283 117.806 107.507 117.949 107.815C118.024 107.967 118.07 108.128 118.087 108.297C118.104 108.467 118.113 108.65 118.113 108.845V111.711H117.316V110.647L117.471 110.784C117.279 111.141 117.033 111.407 116.734 111.582C116.438 111.754 116.073 111.841 115.639 111.841ZM115.798 111.103C116.054 111.103 116.274 111.059 116.458 110.97C116.642 110.878 116.79 110.762 116.902 110.621C117.014 110.48 117.087 110.334 117.122 110.181C117.171 110.043 117.198 109.888 117.203 109.716C117.212 109.543 117.216 109.405 117.216 109.302L117.51 109.409C117.225 109.453 116.966 109.491 116.734 109.526C116.501 109.56 116.29 109.595 116.1 109.629C115.913 109.661 115.747 109.7 115.6 109.746C115.477 109.789 115.366 109.841 115.268 109.901C115.173 109.961 115.098 110.034 115.04 110.121C114.986 110.207 114.958 110.312 114.958 110.435C114.958 110.556 114.988 110.668 115.048 110.772C115.109 110.873 115.201 110.953 115.324 111.013C115.448 111.073 115.606 111.103 115.798 111.103ZM119.319 111.711V105.375H120.22V111.711H119.319Z" fill="#121212"/>
<path d="M208.171 111.711L206.094 105.504H206.891L208.697 110.897L210.52 105.504H211.318L209.24 111.711H208.171ZM211.884 106.233V105.44H212.651V106.233H211.884ZM211.884 111.711V107.056H212.651V111.711H211.884ZM213.945 111.711V107.056H214.63V108.181L214.518 108.034C214.572 107.891 214.643 107.759 214.729 107.638C214.818 107.517 214.917 107.418 215.027 107.341C215.147 107.243 215.283 107.168 215.436 107.116C215.588 107.065 215.743 107.034 215.902 107.026C216.059 107.015 216.208 107.025 216.346 107.056V107.776C216.184 107.733 216.008 107.722 215.815 107.741C215.623 107.762 215.445 107.832 215.281 107.953C215.131 108.059 215.015 108.188 214.932 108.341C214.851 108.493 214.795 108.658 214.764 108.836C214.732 109.012 214.716 109.192 214.716 109.375V111.711H213.945ZM219.759 111.711C219.484 111.766 219.211 111.788 218.94 111.776C218.673 111.767 218.435 111.714 218.225 111.616C218.016 111.516 217.856 111.361 217.746 111.151C217.655 110.967 217.604 110.782 217.596 110.595C217.59 110.405 217.587 110.192 217.587 109.953V105.763H218.354V109.918C218.354 110.108 218.356 110.27 218.359 110.405C218.365 110.541 218.395 110.657 218.449 110.754C218.552 110.938 218.716 111.046 218.94 111.078C219.168 111.11 219.44 111.101 219.759 111.052V111.711ZM216.643 107.69V107.056H219.759V107.69H216.643ZM222.472 111.832C222.173 111.832 221.916 111.784 221.7 111.69C221.488 111.595 221.311 111.469 221.17 111.31C221.029 111.153 220.919 110.977 220.838 110.784C220.758 110.592 220.7 110.395 220.666 110.194C220.634 109.993 220.618 109.805 220.618 109.629V107.056H221.394V109.388C221.394 109.607 221.415 109.818 221.455 110.022C221.495 110.226 221.562 110.409 221.657 110.573C221.755 110.737 221.884 110.866 222.045 110.961C222.209 111.056 222.413 111.103 222.657 111.103C222.85 111.103 223.025 111.071 223.183 111.004C223.341 110.938 223.476 110.841 223.588 110.711C223.7 110.579 223.786 110.413 223.847 110.211C223.907 110.01 223.937 109.776 223.937 109.509L224.442 109.664C224.442 110.112 224.36 110.499 224.196 110.823C224.035 111.148 223.807 111.398 223.511 111.573C223.218 111.746 222.871 111.832 222.472 111.832ZM224.024 111.711V110.466H223.937V107.056H224.709V111.711H224.024ZM227.239 111.841C226.891 111.841 226.6 111.778 226.364 111.651C226.131 111.522 225.955 111.352 225.834 111.142C225.716 110.933 225.657 110.703 225.657 110.453C225.657 110.209 225.703 109.998 225.795 109.819C225.89 109.638 226.022 109.489 226.192 109.371C226.361 109.25 226.564 109.155 226.799 109.086C227.02 109.026 227.268 108.974 227.541 108.931C227.817 108.885 228.096 108.844 228.377 108.806C228.658 108.769 228.921 108.733 229.166 108.698L228.89 108.858C228.899 108.444 228.815 108.138 228.64 107.94C228.468 107.741 228.169 107.642 227.743 107.642C227.462 107.642 227.214 107.707 227.002 107.836C226.792 107.963 226.644 108.17 226.558 108.457L225.83 108.237C225.942 107.829 226.158 107.509 226.48 107.276C226.802 107.043 227.226 106.927 227.752 106.927C228.174 106.927 228.536 107.003 228.838 107.155C229.143 107.305 229.361 107.532 229.493 107.836C229.559 107.98 229.601 108.137 229.618 108.306C229.636 108.473 229.644 108.648 229.644 108.832V111.711H228.963V110.595L229.123 110.698C228.947 111.075 228.702 111.36 228.386 111.552C228.072 111.744 227.69 111.841 227.239 111.841ZM227.355 111.198C227.631 111.198 227.87 111.15 228.071 111.052C228.275 110.951 228.439 110.821 228.562 110.659C228.686 110.496 228.766 110.318 228.804 110.125C228.847 109.982 228.87 109.822 228.873 109.647C228.878 109.469 228.881 109.332 228.881 109.237L229.149 109.353C228.899 109.388 228.653 109.421 228.411 109.453C228.17 109.485 227.942 109.519 227.726 109.556C227.511 109.591 227.317 109.632 227.144 109.681C227.018 109.722 226.899 109.773 226.786 109.836C226.678 109.9 226.588 109.982 226.519 110.082C226.453 110.18 226.42 110.302 226.42 110.448C226.42 110.575 226.452 110.696 226.515 110.81C226.581 110.925 226.682 111.019 226.817 111.091C226.955 111.163 227.134 111.198 227.355 111.198ZM230.851 111.711V105.375H231.618V111.711H230.851Z" fill="#9CA3AF"/>
<path d="M74.8378 271.223C74.7696 271.223 74.6975 271.199 74.6413 271.151C74.2122 270.787 73.8273 270.337 73.4984 269.816C73.0734 269.154 73.0734 268.076 73.4984 267.41C74.4769 265.878 75.9004 264.996 77.4042 264.996C78.2864 264.996 79.1565 265.301 79.9185 265.874C80.0508 265.975 80.0788 266.163 79.9785 266.295C79.8783 266.428 79.6899 266.455 79.5576 266.356C78.8999 265.858 78.154 265.598 77.4042 265.598C76.109 265.598 74.8699 266.375 74.0037 267.735C73.703 268.204 73.703 269.022 74.0037 269.491C74.3045 269.96 74.6493 270.366 75.0303 270.694C75.1546 270.803 75.1706 270.991 75.0624 271.119C75.0062 271.188 74.922 271.223 74.8378 271.223Z" fill="#F9956B"/>
<path d="M78.4091 267.897C78.3329 267.897 78.2568 267.868 78.1966 267.809C78.0803 267.692 78.0803 267.5 78.1966 267.383L81.1921 264.388C81.3083 264.272 81.5008 264.272 81.6171 264.388C81.7334 264.504 81.7334 264.697 81.6171 264.813L78.6217 267.809C78.5615 267.868 78.4853 267.897 78.4091 267.897Z" fill="#F9956B"/>
<path d="M221.7 271.491C221.17 271.491 220.723 271.374 220.358 271.14C219.994 270.904 219.718 270.577 219.531 270.161C219.344 269.745 219.25 269.264 219.25 268.72C219.25 268.176 219.344 267.696 219.531 267.279C219.718 266.863 219.994 266.538 220.358 266.304C220.723 266.067 221.17 265.949 221.7 265.949C222.318 265.949 222.823 266.108 223.214 266.426C223.606 266.741 223.874 267.165 224.02 267.697L223.466 267.841C223.352 267.42 223.149 267.086 222.856 266.84C222.563 266.593 222.177 266.47 221.7 266.47C221.283 266.47 220.937 266.565 220.661 266.755C220.385 266.944 220.177 267.209 220.037 267.549C219.899 267.886 219.828 268.277 219.823 268.72C219.82 269.164 219.888 269.554 220.026 269.891C220.166 270.229 220.376 270.494 220.654 270.686C220.935 270.875 221.283 270.97 221.7 270.97C222.177 270.97 222.563 270.847 222.856 270.601C223.149 270.352 223.352 270.018 223.466 269.599L224.02 269.744C223.874 270.276 223.606 270.7 223.214 271.018C222.823 271.333 222.318 271.491 221.7 271.491ZM226.042 271.38L224.21 266.06H224.775L226.397 270.763L228.03 266.06H228.595L226.763 271.38H226.042ZM230.502 271.38L228.67 266.06H229.235L230.857 270.763L232.49 266.06H233.055L231.223 271.38H230.502Z" fill="#999999"/>
<mask id="mask3_1235_9731" style="mask-type:luminance" maskUnits="userSpaceOnUse" x="46" y="26" width="231" height="68">
<path d="M46 26H276.911V93.734H46V26Z" fill="white"/>
</mask>
<g mask="url(#mask3_1235_9731)">
<path d="M46 26H276.911V93.734H46V26Z" fill="#FAFAFA"/>
<path d="M151.52 76.6451C148.844 76.6451 147.461 75.1598 147.461 72.2975V72.2734C147.461 69.4171 148.844 67.9258 151.502 67.9258C153.901 67.9258 155.224 69.0262 155.362 71.191L153.595 71.4856V71.179C153.547 69.3148 152.867 68.509 151.502 68.509C149.986 68.509 149.265 69.5433 149.265 71.8344V72.0389C149.265 74.4502 150.095 75.5446 151.941 75.5446C153.528 75.5446 154.454 74.805 154.652 73.2596L155.446 73.4039C155.242 75.5567 153.901 76.6451 151.52 76.6451ZM158.176 76.6391C156.926 76.6391 156.222 76.0678 156.222 75.0997V75.0576C156.222 73.8429 157.281 73.3919 159.031 73.0732L160.774 72.7545V71.8645C160.774 70.9084 160.372 70.5356 159.518 70.5356C158.519 70.5356 158.116 71.1008 158.146 72.5741L156.378 72.3816C156.343 70.8483 157.383 70.0425 159.535 70.0425C161.58 70.0425 162.518 70.71 162.518 72.1411V75.3883C162.518 75.8333 162.729 75.8814 163.21 75.719L163.156 76.176C162.915 76.4947 162.584 76.6391 162.145 76.6391C161.111 76.6391 160.816 76.1219 160.99 74.9012L160.87 74.8712C160.474 76.0137 159.47 76.6391 158.176 76.6391ZM158.982 75.7852C159.968 75.7852 160.774 75.0275 160.774 73.897V73.2415L159.662 73.464C158.543 73.6805 157.99 74.0173 157.99 74.829V74.8832C157.99 75.4424 158.327 75.7852 158.982 75.7852ZM165.711 76.4947H163.962V70.1808H165.717C165.723 70.71 165.675 71.167 165.477 72.3877L165.597 72.4297C166.06 70.6739 166.709 70.1447 168.213 69.9823L168.417 71.4436C166.156 71.5999 165.711 72.0028 165.711 73.7767V76.4947ZM171.586 76.609C169.764 76.609 168.814 75.5085 168.814 73.4099V73.2536C168.814 71.1549 169.764 70.0665 171.586 70.0665C172.843 70.0665 173.733 70.6739 174.07 71.9907L174.19 71.9547C174.027 71.0527 173.968 70.4754 173.968 69.7899V68.0761H175.717V76.4947H173.949C173.955 76.1099 174.027 75.5627 174.19 74.7088L174.064 74.6787C173.727 76.0016 172.843 76.609 171.586 76.609ZM172.229 75.8453C173.36 75.8453 173.968 74.9914 173.968 73.5362V73.1213C173.968 71.6721 173.36 70.8122 172.229 70.8122C171.129 70.8122 170.582 71.5338 170.582 73.0431V73.6144C170.582 75.1237 171.129 75.8453 172.229 75.8453Z" fill="#121212"/>
<path opacity="0.2" d="M305.844 104.477C279.583 86.2369 235.366 60.5033 175.254 47.4557C90.9121 29.1272 21.4208 45.7475 -11.875 56.1347" stroke="#F1DB8D" stroke-width="14" stroke-miterlimit="10" stroke-linecap="round" stroke-linejoin="round"/>
<path d="M69.4062 79.5724V64.794C69.4062 64.1139 68.8549 63.5625 68.1747 63.5625H53.3964C52.7162 63.5625 52.1649 64.1139 52.1649 64.794V79.5724C52.1649 80.2525 52.7162 80.8039 53.3964 80.8039H68.1747C68.8549 80.8039 69.4062 80.2525 69.4062 79.5724Z" fill="white"/>
<path d="M58.6497 71.1027C58.3539 71.3986 58.2031 71.7894 58.2031 72.1802C58.2031 72.5709 58.3539 72.9617 58.6497 73.2576L61.9954 76.6032C62.1922 76.8001 62.5165 76.8001 62.7134 76.6032C62.9103 76.4063 62.9103 76.082 62.7134 75.8851L59.3678 72.5395C59.1696 72.3412 59.1696 72.019 59.3678 71.8208L62.7134 68.4751C62.9103 68.2782 62.9103 67.9539 62.7134 67.7571C62.5165 67.5601 62.1922 67.5601 61.9954 67.7571L58.6497 71.1027Z" fill="#121212" stroke="black" stroke-width="0.4"/>
</g>
<mask id="mask4_1235_9731" style="mask-type:luminance" maskUnits="userSpaceOnUse" x="46" y="26" width="231" height="68">
<path d="M46 26H276.911V93.734H46V26Z" fill="#E6E6E6"/>
</mask>
<g mask="url(#mask4_1235_9731)">
<path d="M276.911 93.1172H46V94.3487H276.911V93.1172Z" fill="#E6E6E6"/>
</g>
</g>
<rect x="43" y="23" width="236.911" height="506" rx="23" stroke="black" stroke-width="6" shape-rendering="crispEdges"/>
</g>
<defs>
<filter id="filter0_d_1235_9731" x="0" y="0" width="322.914" height="592" filterUnits="userSpaceOnUse" color-interpolation-filters="sRGB">
<feFlood flood-opacity="0" result="BackgroundImageFix"/>
<feColorMatrix in="SourceAlpha" type="matrix" values="0 0 0 0 0 0 0 0 0 0 0 0 0 0 0 0 0 0 127 0" result="hardAlpha"/>
<feOffset dy="20"/>
<feGaussianBlur stdDeviation="20"/>
<feComposite in2="hardAlpha" operator="out"/>
<feColorMatrix type="matrix" values="0 0 0 0 0 0 0 0 0 0 0 0 0 0 0 0 0 0 0.4 0"/>
<feBlend mode="normal" in2="BackgroundImageFix" result="effect1_dropShadow_1235_9731"/>
<feBlend mode="normal" in="SourceGraphic" in2="effect1_dropShadow_1235_9731" result="shape"/>
</filter>
<clipPath id="clip0_1235_9731">
<rect x="46" y="26" width="230.911" height="500" rx="20" fill="white"/>
</clipPath>
</defs>
</svg>
