<svg width="323" height="266" viewBox="0 0 323 266" fill="none" xmlns="http://www.w3.org/2000/svg">
<g filter="url(#filter0_d_1235_9805)">
<g clip-path="url(#clip0_1235_9805)">
<path d="M276.911 26H46V526H276.911V26Z" fill="white"/>
<path d="M259.667 202.902H63.2386C60.518 202.902 58.3125 205.108 58.3125 207.828V235.716C58.3125 238.437 60.518 240.642 63.2386 240.642H259.667C262.388 240.642 264.593 238.437 264.593 235.716V207.828C264.593 205.108 262.388 202.902 259.667 202.902Z" fill="#FAFAFA"/>
<path d="M80.4528 227.314C79.1289 227.314 77.8385 227.019 76.5815 226.429C75.3246 225.838 74.211 225.058 73.241 224.089C72.271 223.119 71.491 222.006 70.9011 220.748C70.3112 219.491 70.0161 218.2 70.0156 216.877C70.0156 216.692 70.0772 216.538 70.2004 216.415C70.3235 216.292 70.4774 216.23 70.6622 216.23H73.156C73.2997 216.23 73.428 216.277 73.5409 216.369C73.6537 216.461 73.7205 216.579 73.741 216.723L74.1412 218.878C74.1617 219.022 74.1591 219.153 74.1332 219.271C74.1074 219.389 74.0484 219.494 73.9565 219.586L72.4633 221.095C72.8943 221.834 73.4358 222.527 74.0877 223.173C74.7396 223.82 75.4553 224.379 76.2348 224.851L77.6819 223.404C77.7742 223.312 77.8949 223.242 78.0439 223.196C78.193 223.149 78.3391 223.137 78.4824 223.158L80.6068 223.589C80.7504 223.62 80.8685 223.689 80.9608 223.797C81.0532 223.905 81.0994 224.03 81.0994 224.174V226.668C81.0994 226.852 81.0378 227.006 80.9146 227.129C80.7915 227.253 80.6375 227.314 80.4528 227.314ZM71.8783 219.925L72.8943 218.909L72.6326 217.462H71.2625C71.3138 217.883 71.3857 218.298 71.4781 218.709C71.5704 219.119 71.7039 219.525 71.8783 219.925ZM77.3894 225.436C77.7896 225.61 78.1977 225.749 78.6135 225.852C79.0294 225.954 79.4475 226.021 79.8678 226.052V224.697L78.4208 224.405L77.3894 225.436Z" fill="#121212"/>
<path d="M91.0216 225.286C90.4038 225.286 89.8793 225.149 89.4483 224.876C89.0172 224.603 88.6882 224.224 88.4612 223.738C88.2371 223.253 88.125 222.691 88.125 222.053C88.125 221.415 88.2371 220.853 88.4612 220.368C88.6882 219.882 89.0172 219.503 89.4483 219.23C89.8793 218.956 90.4038 218.82 91.0216 218.82C91.74 218.82 92.3305 219.003 92.7931 219.368C93.2586 219.732 93.579 220.224 93.7543 220.842L92.9741 221.049C92.8477 220.586 92.6221 220.221 92.2974 219.954C91.9727 219.687 91.5474 219.553 91.0216 219.553C90.5589 219.553 90.1738 219.658 89.8664 219.868C89.5589 220.077 89.3276 220.37 89.1724 220.747C89.0172 221.12 88.9382 221.556 88.9353 222.053C88.9325 222.547 89.0086 222.982 89.1638 223.359C89.319 223.732 89.5517 224.025 89.8621 224.238C90.1724 224.448 90.5589 224.553 91.0216 224.553C91.5474 224.553 91.9727 224.419 92.2974 224.152C92.6221 223.882 92.8477 223.517 92.9741 223.057L93.7543 223.264C93.579 223.879 93.2586 224.37 92.7931 224.738C92.3305 225.103 91.74 225.286 91.0216 225.286ZM96.0229 225.286C95.6752 225.286 95.3836 225.222 95.1479 225.096C94.9152 224.967 94.7384 224.797 94.6177 224.588C94.4999 224.378 94.441 224.148 94.441 223.898C94.441 223.653 94.487 223.442 94.5789 223.264C94.6738 223.083 94.806 222.934 94.9755 222.816C95.145 222.695 95.3476 222.6 95.5833 222.532C95.8045 222.471 96.0517 222.419 96.3246 222.376C96.6005 222.33 96.8792 222.288 97.1608 222.251C97.4424 222.214 97.7054 222.178 97.9496 222.144L97.6738 222.303C97.6824 221.889 97.5991 221.583 97.4238 221.385C97.2514 221.187 96.9525 221.088 96.5272 221.088C96.2456 221.088 95.9985 221.152 95.7858 221.282C95.576 221.408 95.4281 221.615 95.3419 221.902L94.6134 221.682C94.7255 221.274 94.9424 220.954 95.2643 220.721C95.5861 220.488 96.01 220.372 96.5358 220.372C96.9583 220.372 97.3203 220.448 97.622 220.6C97.9267 220.749 98.145 220.977 98.2772 221.282C98.3433 221.425 98.385 221.581 98.4022 221.751C98.4195 221.918 98.4281 222.093 98.4281 222.277V225.157H97.747V224.04L97.9065 224.144C97.7312 224.52 97.4855 224.804 97.1695 224.997C96.8562 225.189 96.4741 225.286 96.0229 225.286ZM96.1393 224.644C96.4152 224.644 96.6536 224.594 96.8548 224.497C97.0588 224.396 97.2226 224.266 97.3462 224.105C97.4698 223.941 97.5502 223.762 97.5876 223.57C97.6307 223.426 97.6536 223.267 97.6565 223.092C97.6623 222.913 97.6651 222.777 97.6651 222.682L97.9324 222.799C97.6824 222.833 97.4367 222.866 97.1953 222.898C96.9539 222.929 96.7255 222.964 96.51 223.001C96.2945 223.036 96.1005 223.077 95.9281 223.126C95.8017 223.166 95.6824 223.218 95.5703 223.282C95.4611 223.344 95.372 223.426 95.3031 223.527C95.237 223.624 95.2039 223.747 95.2039 223.894C95.2039 224.02 95.2355 224.141 95.2988 224.256C95.3648 224.37 95.4655 224.464 95.6005 224.536C95.7384 224.607 95.918 224.644 96.1393 224.644ZM99.635 225.157V218.82H100.402V225.157H99.635ZM101.782 225.157V218.82H102.549V225.157H101.782ZM108.017 225.286C107.536 225.286 107.113 225.187 106.745 224.988C106.377 224.79 106.088 224.512 105.878 224.157C105.672 223.797 105.568 223.376 105.568 222.894V218.954L106.344 218.95V222.829C106.344 223.122 106.393 223.378 106.491 223.596C106.591 223.812 106.723 223.991 106.887 224.135C107.051 224.278 107.23 224.386 107.426 224.458C107.624 224.527 107.821 224.562 108.017 224.562C108.215 224.562 108.413 224.525 108.611 224.454C108.81 224.382 108.989 224.275 109.15 224.135C109.314 223.991 109.445 223.81 109.542 223.592C109.64 223.373 109.689 223.119 109.689 222.829V218.95H110.465V222.894C110.465 223.373 110.36 223.793 110.15 224.152C109.943 224.511 109.656 224.79 109.288 224.988C108.92 225.187 108.496 225.286 108.017 225.286ZM113.43 225.282C112.876 225.282 112.42 225.161 112.064 224.919C111.711 224.675 111.493 224.334 111.413 223.898L112.198 223.773C112.26 224.025 112.406 224.227 112.633 224.376C112.86 224.523 113.142 224.596 113.478 224.596C113.797 224.596 114.047 224.53 114.228 224.398C114.409 224.265 114.499 224.086 114.499 223.859C114.499 223.727 114.469 223.62 114.409 223.54C114.349 223.456 114.224 223.379 114.034 223.307C113.847 223.235 113.564 223.149 113.185 223.049C112.773 222.939 112.45 222.826 112.215 222.708C111.979 222.59 111.811 222.454 111.711 222.299C111.61 222.144 111.56 221.955 111.56 221.734C111.56 221.461 111.634 221.222 111.784 221.019C111.933 220.812 112.142 220.652 112.409 220.54C112.679 220.428 112.992 220.372 113.349 220.372C113.702 220.372 114.018 220.428 114.297 220.54C114.575 220.652 114.799 220.812 114.969 221.019C115.142 221.222 115.243 221.461 115.275 221.734L114.491 221.876C114.453 221.626 114.333 221.429 114.129 221.286C113.927 221.142 113.667 221.066 113.349 221.057C113.047 221.046 112.801 221.099 112.611 221.217C112.424 221.334 112.331 221.494 112.331 221.695C112.331 221.807 112.366 221.903 112.435 221.984C112.506 222.064 112.637 222.141 112.827 222.213C113.019 222.284 113.298 222.366 113.663 222.458C114.074 222.562 114.397 222.675 114.633 222.799C114.871 222.919 115.041 223.063 115.142 223.23C115.242 223.394 115.292 223.596 115.292 223.838C115.292 224.286 115.127 224.639 114.797 224.898C114.466 225.153 114.01 225.282 113.43 225.282Z" fill="#121212"/>
<path d="M252.404 221.773C252.404 222.06 252.293 222.348 252.076 222.565L249.399 225.242C249.28 225.361 249.083 225.361 248.965 225.242C248.845 225.123 248.845 224.926 248.965 224.806L251.641 222.13C251.838 221.933 251.838 221.613 251.641 221.416L248.965 218.739C248.845 218.62 248.845 218.423 248.965 218.304C249.083 218.185 249.28 218.185 249.399 218.304L252.076 220.981C252.293 221.198 252.404 221.486 252.404 221.773Z" fill="#121212"/>
<path d="M259.667 248.469H63.2386C60.518 248.469 58.3125 250.674 58.3125 253.395V281.282C58.3125 284.003 60.518 286.209 63.2386 286.209H259.667C262.388 286.209 264.593 284.003 264.593 281.282V253.395C264.593 250.674 262.388 248.469 259.667 248.469Z" fill="#FAFAFA"/>
<path d="M69.3984 272.002V262.411C69.3984 262.073 69.5191 261.783 69.7605 261.541C70.0019 261.3 70.2917 261.179 70.63 261.18H80.4822C80.8209 261.18 81.1109 261.3 81.3523 261.542C81.5936 261.783 81.7141 262.073 81.7137 262.411V269.8C81.7137 270.139 81.593 270.429 81.3516 270.67C81.1103 270.912 80.8204 271.032 80.4822 271.032H71.8615L70.4452 272.448C70.2502 272.643 70.0269 272.686 69.7753 272.579C69.5236 272.472 69.398 272.279 69.3984 272.002ZM70.63 270.524L71.3535 269.8H80.4822V262.411H70.63V270.524Z" fill="black"/>
<path d="M91.0216 270.856C90.4038 270.856 89.8793 270.719 89.4483 270.447C89.0172 270.173 88.6882 269.794 88.4612 269.309C88.2371 268.823 88.125 268.261 88.125 267.623C88.125 266.985 88.2371 266.423 88.4612 265.938C88.6882 265.452 89.0172 265.073 89.4483 264.8C89.8793 264.527 90.4038 264.391 91.0216 264.391C91.74 264.391 92.3305 264.573 92.7931 264.938C93.2586 265.303 93.579 265.794 93.7543 266.412L92.9741 266.619C92.8477 266.156 92.6221 265.791 92.2974 265.524C91.9727 265.257 91.5474 265.123 91.0216 265.123C90.5589 265.123 90.1738 265.228 89.8664 265.438C89.5589 265.647 89.3276 265.941 89.1724 266.317C89.0172 266.691 88.9382 267.126 88.9353 267.623C88.9325 268.117 89.0086 268.553 89.1638 268.929C89.319 269.303 89.5517 269.596 89.8621 269.809C90.1724 270.018 90.5589 270.123 91.0216 270.123C91.5474 270.123 91.9727 269.99 92.2974 269.723C92.6221 269.452 92.8477 269.087 92.9741 268.628L93.7543 268.835C93.579 269.449 93.2586 269.94 92.7931 270.309C92.3305 270.673 91.74 270.856 91.0216 270.856ZM98.0143 270.727V268.395C98.0143 268.173 97.9942 267.961 97.9539 267.757C97.9166 267.553 97.8491 267.37 97.7514 267.21C97.6565 267.046 97.5272 266.916 97.3634 266.822C97.2025 266.727 96.9985 266.679 96.7514 266.679C96.5588 266.679 96.3836 266.712 96.2255 266.779C96.0703 266.841 95.9367 266.939 95.8246 267.072C95.7126 267.203 95.6249 267.37 95.5617 267.572C95.5014 267.77 95.4712 268.004 95.4712 268.274L94.9669 268.119C94.9669 267.668 95.0474 267.281 95.2083 266.96C95.372 266.634 95.6005 266.386 95.8936 266.214C96.1896 266.038 96.5373 265.951 96.9367 265.951C97.2384 265.951 97.4956 265.998 97.7083 266.093C97.9209 266.188 98.0976 266.314 98.2384 266.473C98.3793 266.628 98.4898 266.803 98.5703 266.998C98.6508 267.19 98.7068 267.388 98.7384 267.589C98.7729 267.787 98.7901 267.975 98.7901 268.154V270.727H98.0143ZM94.6953 270.727V264.52H95.385V267.947H95.4712V270.727H94.6953ZM101.234 270.856C100.886 270.856 100.595 270.793 100.359 270.666C100.126 270.537 99.9496 270.367 99.8289 270.158C99.711 269.948 99.6522 269.718 99.6522 269.468C99.6522 269.224 99.6981 269.013 99.7901 268.835C99.8849 268.654 100.017 268.504 100.187 268.386C100.356 268.266 100.559 268.171 100.794 268.102C101.016 268.041 101.263 267.99 101.536 267.947C101.812 267.9 102.09 267.859 102.372 267.822C102.654 267.784 102.917 267.748 103.161 267.714L102.885 267.873C102.894 267.46 102.81 267.154 102.635 266.955C102.463 266.757 102.164 266.658 101.738 266.658C101.457 266.658 101.21 266.723 100.997 266.852C100.787 266.978 100.639 267.185 100.553 267.473L99.8246 267.253C99.9366 266.844 100.154 266.524 100.475 266.291C100.797 266.059 101.221 265.942 101.747 265.942C102.169 265.942 102.531 266.018 102.833 266.171C103.138 266.32 103.356 266.547 103.488 266.852C103.554 266.995 103.596 267.152 103.613 267.322C103.631 267.488 103.639 267.663 103.639 267.848V270.727H102.958V269.61L103.118 269.714C102.942 270.09 102.697 270.375 102.381 270.567C102.067 270.759 101.685 270.856 101.234 270.856ZM101.35 270.214C101.626 270.214 101.865 270.165 102.066 270.067C102.27 269.966 102.434 269.836 102.557 269.675C102.681 269.511 102.761 269.333 102.799 269.141C102.842 268.997 102.865 268.837 102.868 268.662C102.873 268.484 102.876 268.348 102.876 268.253L103.144 268.369C102.894 268.404 102.648 268.436 102.406 268.468C102.165 268.5 101.937 268.534 101.721 268.572C101.506 268.606 101.312 268.647 101.139 268.697C101.013 268.737 100.894 268.788 100.781 268.852C100.672 268.915 100.583 268.997 100.514 269.098C100.448 269.195 100.415 269.317 100.415 269.464C100.415 269.59 100.447 269.711 100.51 269.826C100.576 269.94 100.677 270.034 100.812 270.106C100.95 270.178 101.129 270.214 101.35 270.214ZM107.359 270.727C107.083 270.781 106.81 270.803 106.54 270.791C106.273 270.783 106.034 270.729 105.825 270.632C105.615 270.531 105.455 270.376 105.346 270.166C105.254 269.982 105.204 269.797 105.195 269.61C105.189 269.421 105.187 269.207 105.187 268.968V264.779H105.954V268.934C105.954 269.123 105.955 269.285 105.958 269.421C105.964 269.556 105.994 269.672 106.049 269.77C106.152 269.953 106.316 270.061 106.54 270.093C106.767 270.125 107.04 270.116 107.359 270.067V270.727ZM104.243 266.705V266.072H107.359V266.705H104.243ZM111.353 270.727L109.556 264.52H110.358L111.737 269.429L113.112 264.524L113.918 264.52L115.297 269.429L116.672 264.52H117.478L115.681 270.727H114.914L113.517 265.86L112.121 270.727H111.353ZM118.131 265.248V264.455H118.898V265.248H118.131ZM118.131 270.727V266.072H118.898V270.727H118.131ZM122.791 270.727C122.515 270.781 122.241 270.803 121.972 270.791C121.704 270.783 121.466 270.729 121.256 270.632C121.046 270.531 120.887 270.376 120.778 270.166C120.685 269.982 120.635 269.797 120.627 269.61C120.621 269.421 120.618 269.207 120.618 268.968V264.779H121.385V268.934C121.385 269.123 121.387 269.285 121.39 269.421C121.395 269.556 121.425 269.672 121.48 269.77C121.584 269.953 121.748 270.061 121.972 270.093C122.198 270.125 122.472 270.116 122.791 270.067V270.727ZM119.674 266.705V266.072H122.791V266.705H119.674ZM127.05 270.727V268.395C127.05 268.173 127.03 267.961 126.99 267.757C126.953 267.553 126.885 267.37 126.787 267.21C126.692 267.046 126.563 266.916 126.399 266.822C126.238 266.727 126.034 266.679 125.787 266.679C125.595 266.679 125.419 266.712 125.261 266.779C125.106 266.841 124.972 266.939 124.86 267.072C124.748 267.203 124.661 267.37 124.597 267.572C124.537 267.77 124.507 268.004 124.507 268.274L124.002 268.119C124.002 267.668 124.083 267.281 124.244 266.96C124.408 266.634 124.636 266.386 124.929 266.214C125.225 266.038 125.573 265.951 125.972 265.951C126.274 265.951 126.531 265.998 126.744 266.093C126.957 266.188 127.134 266.314 127.274 266.473C127.415 266.628 127.526 266.803 127.606 266.998C127.687 267.19 127.743 267.388 127.774 267.589C127.809 267.787 127.826 267.975 127.826 268.154V270.727H127.05ZM123.731 270.727V264.52H124.421V267.947H124.507V270.727H123.731ZM133.121 270.856C132.641 270.856 132.217 270.757 131.849 270.559C131.482 270.36 131.193 270.083 130.983 269.727C130.776 269.367 130.672 268.947 130.672 268.464V264.524L131.448 264.52V268.399C131.448 268.692 131.497 268.948 131.595 269.166C131.695 269.382 131.828 269.561 131.991 269.705C132.155 269.849 132.335 269.956 132.53 270.029C132.728 270.098 132.925 270.132 133.121 270.132C133.319 270.132 133.517 270.096 133.716 270.024C133.914 269.952 134.094 269.846 134.254 269.705C134.418 269.561 134.549 269.38 134.647 269.162C134.744 268.944 134.793 268.689 134.793 268.399V264.52H135.569V268.464C135.569 268.944 135.464 269.363 135.254 269.723C135.047 270.082 134.76 270.36 134.392 270.559C134.025 270.757 133.6 270.856 133.121 270.856ZM138.534 270.852C137.98 270.852 137.525 270.731 137.168 270.49C136.815 270.245 136.598 269.905 136.517 269.468L137.302 269.343C137.365 269.596 137.51 269.797 137.737 269.947C137.964 270.093 138.246 270.166 138.582 270.166C138.901 270.166 139.151 270.1 139.332 269.968C139.513 269.836 139.603 269.656 139.603 269.429C139.603 269.297 139.573 269.19 139.513 269.11C139.453 269.027 139.328 268.949 139.138 268.878C138.951 268.806 138.668 268.719 138.289 268.619C137.878 268.509 137.555 268.396 137.319 268.279C137.084 268.16 136.916 268.024 136.815 267.869C136.714 267.714 136.664 267.525 136.664 267.304C136.664 267.031 136.739 266.793 136.888 266.589C137.038 266.382 137.246 266.223 137.513 266.11C137.783 265.998 138.097 265.942 138.453 265.942C138.806 265.942 139.123 265.998 139.401 266.11C139.68 266.223 139.904 266.382 140.073 266.589C140.246 266.793 140.348 267.031 140.379 267.304L139.595 267.447C139.558 267.197 139.437 267 139.233 266.856C139.032 266.712 138.772 266.636 138.453 266.628C138.151 266.616 137.905 266.669 137.716 266.787C137.529 266.905 137.435 267.064 137.435 267.266C137.435 267.378 137.47 267.474 137.539 267.554C137.611 267.634 137.741 267.711 137.931 267.783C138.124 267.854 138.403 267.936 138.767 268.029C139.179 268.132 139.502 268.245 139.737 268.369C139.976 268.49 140.145 268.633 140.246 268.8C140.347 268.964 140.397 269.166 140.397 269.408C140.397 269.856 140.232 270.21 139.901 270.468C139.571 270.724 139.115 270.852 138.534 270.852Z" fill="#121212"/>
<path d="M252.404 267.34C252.404 267.627 252.293 267.914 252.076 268.131L249.399 270.808C249.28 270.927 249.083 270.927 248.965 270.808C248.845 270.689 248.845 270.492 248.965 270.373L251.641 267.697C251.838 267.5 251.838 267.18 251.641 266.982L248.965 264.306C248.845 264.187 248.845 263.99 248.965 263.87C249.083 263.752 249.28 263.752 249.399 263.87L252.076 266.547C252.293 266.764 252.404 267.052 252.404 267.34Z" fill="#121212"/>
<path d="M259.667 157.773H63.2386C60.518 157.773 58.3125 159.979 58.3125 162.7V190.587C58.3125 193.308 60.518 195.513 63.2386 195.513H259.667C262.388 195.513 264.593 193.308 264.593 190.587V162.7C264.593 159.979 262.388 157.773 259.667 157.773Z" fill="#FAFAFA"/>
<path d="M70.63 181.571C70.2913 181.571 70.0013 181.45 69.7599 181.209C69.5185 180.968 69.398 180.677 69.3984 180.339V172.95C69.3984 172.612 69.5191 172.322 69.7605 172.08C70.0019 171.839 70.2917 171.718 70.63 171.719H80.4822C80.8209 171.719 81.1109 171.839 81.3523 172.081C81.5936 172.322 81.7141 172.612 81.7137 172.95V180.339C81.7137 180.678 81.593 180.968 81.3516 181.21C81.1103 181.451 80.8204 181.571 80.4822 181.571H70.63ZM80.4822 174.182L75.8794 177.061C75.8281 177.091 75.7741 177.114 75.7174 177.13C75.6608 177.145 75.607 177.153 75.5561 177.153C75.5048 177.153 75.4508 177.145 75.3941 177.13C75.3375 177.115 75.2837 177.091 75.2328 177.061L70.63 174.182V180.339H80.4822V174.182ZM75.5561 176.029L80.4822 172.95H70.63L75.5561 176.029ZM70.63 174.336V173.427V173.443V173.435V174.336Z" fill="#121212"/>
<path d="M90.6762 180.161C90.2365 180.161 89.84 180.086 89.4865 179.937C89.136 179.787 88.8457 179.575 88.6158 179.299C88.3888 179.02 88.2408 178.691 88.1719 178.312L88.965 178.187C89.0655 178.577 89.2739 178.883 89.59 179.105C89.9089 179.323 90.2839 179.432 90.715 179.432C90.9937 179.432 91.2452 179.389 91.4693 179.303C91.6963 179.214 91.8759 179.088 92.0081 178.924C92.1403 178.76 92.2064 178.566 92.2064 178.342C92.2064 178.204 92.1819 178.086 92.1331 177.988C92.0871 177.887 92.0224 177.803 91.9391 177.734C91.8586 177.662 91.7667 177.602 91.6633 177.553C91.5598 177.504 91.4521 177.464 91.34 177.432L89.7581 176.963C89.5857 176.911 89.419 176.846 89.2581 176.769C89.0972 176.688 88.9535 176.589 88.827 176.471C88.7006 176.35 88.6 176.206 88.5253 176.04C88.4506 175.87 88.4133 175.671 88.4133 175.441C88.4133 175.073 88.5081 174.76 88.6977 174.501C88.8903 174.24 89.1503 174.04 89.4779 173.902C89.8055 173.764 90.1748 173.697 90.5857 173.7C91.0024 173.702 91.3745 173.777 91.702 173.924C92.0325 174.067 92.3055 174.274 92.521 174.544C92.7394 174.814 92.886 175.137 92.9607 175.514L92.146 175.657C92.1029 175.403 92.0067 175.187 91.8572 175.006C91.7107 174.822 91.5267 174.681 91.3055 174.583C91.0843 174.482 90.8414 174.431 90.5771 174.428C90.3242 174.425 90.0957 174.465 89.8917 174.549C89.6877 174.632 89.5253 174.748 89.4046 174.898C89.2839 175.044 89.2236 175.214 89.2236 175.407C89.2236 175.596 89.2782 175.749 89.3874 175.868C89.4966 175.982 89.6302 176.075 89.7883 176.144C89.9492 176.209 90.1058 176.264 90.2581 176.307L91.4391 176.648C91.5742 176.685 91.7293 176.737 91.9046 176.803C92.0828 176.869 92.2552 176.963 92.4219 177.083C92.5886 177.201 92.7265 177.359 92.8357 177.557C92.9448 177.753 92.9995 177.999 92.9995 178.299C92.9995 178.597 92.9391 178.863 92.8184 179.096C92.7006 179.329 92.5354 179.524 92.3227 179.682C92.1101 179.838 91.8629 179.955 91.5814 180.036C91.2998 180.119 90.998 180.161 90.6762 180.161ZM95.9209 180.161C95.464 180.161 95.0646 180.06 94.7226 179.859C94.3835 179.655 94.1192 179.372 93.9295 179.01C93.7399 178.645 93.645 178.219 93.645 177.734C93.645 177.225 93.7384 176.786 93.9252 176.415C94.112 176.041 94.372 175.754 94.7054 175.553C95.0416 175.349 95.4352 175.247 95.8864 175.247C96.3548 175.247 96.7528 175.355 97.0804 175.57C97.4108 175.786 97.658 176.093 97.8218 176.493C97.9884 176.892 98.0602 177.368 98.0373 177.919H97.2614V177.644C97.2528 177.072 97.1364 176.645 96.9123 176.363C96.6881 176.079 96.3548 175.937 95.9123 175.937C95.4381 175.937 95.0775 176.089 94.8304 176.394C94.5832 176.698 94.4597 177.135 94.4597 177.704C94.4597 178.253 94.5832 178.678 94.8304 178.98C95.0775 179.282 95.4295 179.432 95.8864 179.432C96.1939 179.432 96.4611 179.362 96.6881 179.221C96.9151 179.08 97.0933 178.878 97.2226 178.613L97.9597 178.868C97.7786 179.278 97.5056 179.597 97.1407 179.825C96.7786 180.049 96.372 180.161 95.9209 180.161ZM94.2011 177.919V177.303H97.6407V177.919H94.2011ZM102.185 180.032V177.7C102.185 177.478 102.165 177.266 102.125 177.062C102.088 176.857 102.02 176.675 101.922 176.514C101.828 176.35 101.698 176.221 101.534 176.126C101.373 176.032 101.169 175.984 100.922 175.984C100.73 175.984 100.555 176.017 100.397 176.083C100.241 176.146 100.108 176.244 99.9956 176.376C99.8836 176.508 99.7959 176.675 99.7327 176.876C99.6724 177.075 99.6422 177.309 99.6422 177.579L99.1379 177.424C99.1379 176.972 99.2183 176.586 99.3793 176.264C99.5431 175.939 99.7715 175.691 100.065 175.519C100.361 175.343 100.708 175.256 101.108 175.256C101.409 175.256 101.667 175.303 101.879 175.398C102.092 175.493 102.269 175.619 102.409 175.777C102.55 175.932 102.661 176.107 102.741 176.303C102.822 176.495 102.878 176.692 102.909 176.894C102.944 177.092 102.961 177.28 102.961 177.458V180.032H102.185ZM98.8663 180.032V175.376H99.556V176.622H99.6422V180.032H98.8663ZM105.867 180.161C105.433 180.161 105.061 180.053 104.751 179.838C104.441 179.619 104.201 179.325 104.031 178.954C103.864 178.583 103.781 178.165 103.781 177.7C103.781 177.234 103.864 176.816 104.031 176.445C104.201 176.075 104.441 175.783 104.751 175.57C105.061 175.355 105.432 175.247 105.863 175.247C106.303 175.247 106.672 175.353 106.971 175.566C107.27 175.778 107.495 176.07 107.647 176.441C107.802 176.812 107.88 177.231 107.88 177.7C107.88 178.162 107.802 178.58 107.647 178.954C107.495 179.325 107.27 179.619 106.971 179.838C106.672 180.053 106.304 180.161 105.867 180.161ZM105.962 179.458C106.275 179.458 106.532 179.383 106.734 179.234C106.935 179.081 107.083 178.873 107.178 178.609C107.275 178.342 107.324 178.038 107.324 177.7C107.324 177.355 107.275 177.051 107.178 176.79C107.083 176.525 106.936 176.32 106.738 176.174C106.54 176.024 106.288 175.95 105.984 175.95C105.668 175.95 105.406 176.027 105.199 176.182C104.995 176.338 104.843 176.547 104.742 176.812C104.645 177.076 104.596 177.372 104.596 177.7C104.596 178.03 104.646 178.329 104.747 178.596C104.847 178.86 104.998 179.07 105.199 179.225C105.403 179.381 105.657 179.458 105.962 179.458ZM107.324 180.032V176.605H107.238V173.825H108.009V180.032H107.324ZM110.943 180.032V173.825H114.865V174.553H111.71V176.497H114.348V177.225H111.71V179.303H114.865V180.032H110.943ZM121.466 180.032L121.471 177.053C121.471 176.705 121.377 176.434 121.19 176.238C121.006 176.04 120.767 175.941 120.471 175.941C120.298 175.941 120.134 175.981 119.979 176.062C119.824 176.139 119.698 176.262 119.6 176.432C119.502 176.599 119.453 176.813 119.453 177.075L119.048 176.911C119.043 176.58 119.11 176.291 119.251 176.044C119.394 175.794 119.59 175.6 119.837 175.463C120.084 175.325 120.363 175.256 120.673 175.256C121.159 175.256 121.541 175.403 121.82 175.7C122.099 175.993 122.238 176.387 122.238 176.885L122.233 180.032H121.466ZM115.897 180.032V175.376H116.583V176.622H116.669V180.032H115.897ZM118.686 180.032L118.69 177.083C118.69 176.727 118.599 176.448 118.414 176.247C118.23 176.043 117.987 175.941 117.682 175.941C117.38 175.941 117.136 176.044 116.949 176.251C116.762 176.458 116.669 176.732 116.669 177.075L116.264 176.833C116.264 176.532 116.336 176.261 116.479 176.023C116.623 175.784 116.818 175.597 117.065 175.463C117.312 175.325 117.592 175.256 117.906 175.256C118.219 175.256 118.492 175.322 118.725 175.454C118.958 175.586 119.137 175.775 119.264 176.023C119.39 176.267 119.453 176.559 119.453 176.898L119.449 180.032H118.686ZM124.684 180.161C124.336 180.161 124.044 180.097 123.809 179.971C123.576 179.842 123.399 179.672 123.278 179.463C123.161 179.253 123.102 179.023 123.102 178.773C123.102 178.528 123.148 178.317 123.24 178.139C123.334 177.958 123.467 177.809 123.636 177.691C123.806 177.57 124.009 177.475 124.244 177.407C124.466 177.346 124.713 177.294 124.985 177.251C125.261 177.205 125.54 177.163 125.822 177.126C126.104 177.089 126.366 177.053 126.61 177.019L126.334 177.178C126.343 176.764 126.26 176.458 126.084 176.26C125.912 176.062 125.613 175.963 125.188 175.963C124.906 175.963 124.66 176.027 124.447 176.157C124.237 176.283 124.089 176.49 124.003 176.777L123.274 176.557C123.386 176.149 123.604 175.829 123.925 175.596C124.247 175.363 124.671 175.247 125.197 175.247C125.619 175.247 125.981 175.323 126.283 175.475C126.588 175.625 126.806 175.852 126.938 176.157C127.004 176.3 127.046 176.456 127.063 176.626C127.08 176.793 127.089 176.968 127.089 177.152V180.032H126.408V178.915L126.567 179.019C126.392 179.395 126.147 179.679 125.83 179.872C125.517 180.064 125.135 180.161 124.684 180.161ZM124.8 179.519C125.076 179.519 125.315 179.469 125.515 179.372C125.72 179.271 125.884 179.141 126.007 178.98C126.131 178.816 126.211 178.637 126.248 178.445C126.291 178.301 126.315 178.142 126.317 177.967C126.323 177.788 126.326 177.652 126.326 177.557L126.593 177.674C126.343 177.708 126.097 177.741 125.856 177.773C125.615 177.804 125.386 177.839 125.171 177.876C124.955 177.911 124.761 177.952 124.589 178.001C124.463 178.041 124.343 178.093 124.231 178.157C124.122 178.219 124.033 178.301 123.964 178.402C123.898 178.499 123.865 178.622 123.865 178.769C123.865 178.895 123.897 179.016 123.959 179.131C124.026 179.245 124.126 179.339 124.261 179.411C124.399 179.482 124.579 179.519 124.8 179.519ZM128.296 174.553V173.76H129.063V174.553H128.296ZM128.296 180.032V175.376H129.063V180.032H128.296ZM130.443 180.032V173.695H131.21V180.032H130.443Z" fill="#121212"/>
<path d="M251.17 176.644C251.17 176.931 251.059 177.219 250.842 177.436L248.165 180.113C248.046 180.232 247.849 180.232 247.73 180.113C247.611 179.993 247.611 179.796 247.73 179.678L250.406 177.001C250.603 176.804 250.603 176.484 250.406 176.287L247.73 173.61C247.611 173.491 247.611 173.294 247.73 173.175C247.849 173.056 248.046 173.056 248.165 173.175L250.842 175.852C251.059 176.069 251.17 176.357 251.17 176.644Z" fill="#121212"/>
<path d="M259.667 112.207H63.2386C60.518 112.207 58.3125 114.413 58.3125 117.133V145.021C58.3125 147.741 60.518 149.947 63.2386 149.947H259.667C262.388 149.947 264.593 147.741 264.593 145.021V117.133C264.593 114.413 262.388 112.207 259.667 112.207Z" fill="#FAFAFA"/>
<mask id="mask0_1235_9805" style="mask-type:luminance" maskUnits="userSpaceOnUse" x="68" y="123" width="15" height="16">
<path d="M82.9424 123.688H68.1641V138.466H82.9424V123.688Z" fill="white"/>
</mask>
<g mask="url(#mask0_1235_9805)">
<path d="M75.5488 137.942C79.3383 137.942 82.4102 134.87 82.4102 131.08C82.4102 127.291 79.3383 124.219 75.5488 124.219C71.7594 124.219 68.6875 127.291 68.6875 131.08C68.6875 134.87 71.7594 137.942 75.5488 137.942Z" stroke="#121212" stroke-width="2" stroke-linecap="round" stroke-linejoin="round"/>
<path d="M73.9688 129.497C73.9688 129.185 74.0616 128.878 74.2356 128.618C74.4096 128.358 74.6569 128.154 74.9462 128.035C75.2355 127.915 75.5539 127.883 75.8611 127.944C76.1682 128.006 76.4503 128.156 76.6718 128.378C76.8932 128.6 77.044 128.882 77.1051 129.189C77.1662 129.496 77.1348 129.814 77.015 130.103C76.8952 130.393 76.6922 130.64 76.4318 130.814C76.1715 130.988 75.8653 131.081 75.5521 131.081V132.136" stroke="#121212" stroke-width="2" stroke-linecap="round" stroke-linejoin="round"/>
<path d="M75.5417 133.719C75.3852 133.719 75.2321 133.765 75.1018 133.852C74.9717 133.939 74.8702 134.062 74.8103 134.207C74.7504 134.352 74.7347 134.511 74.7652 134.665C74.7958 134.819 74.8712 134.96 74.9819 135.07C75.0926 135.181 75.2337 135.256 75.3872 135.286C75.5408 135.317 75.7 135.302 75.8447 135.242C75.9893 135.182 76.113 135.08 76.2 134.95C76.287 134.82 76.3334 134.667 76.3334 134.51C76.3307 134.301 76.2464 134.101 76.0985 133.953C75.9506 133.806 75.7509 133.721 75.5417 133.719Z" fill="#121212"/>
</g>
<path d="M88.4766 134.461V128.254H92.0973V129.022H89.2438V130.974H91.58V131.741H89.2438V134.461H88.4766ZM92.3559 134.461L94.4335 128.254H95.5024L97.58 134.461H96.7826L94.8386 128.703H95.08L93.1533 134.461H92.3559ZM93.3559 133.009V132.289H96.58V133.009H93.3559ZM103.054 134.586L101.36 132.901L101.864 132.397L103.55 134.082L103.054 134.586ZM100.735 134.591C100.117 134.591 99.5928 134.454 99.1617 134.181C98.7307 133.908 98.4016 133.528 98.1747 133.043C97.9505 132.557 97.8384 131.996 97.8384 131.358C97.8384 130.72 97.9505 130.158 98.1747 129.672C98.4016 129.187 98.7307 128.807 99.1617 128.534C99.5928 128.261 100.117 128.125 100.735 128.125C101.356 128.125 101.882 128.261 102.313 128.534C102.744 128.807 103.071 129.187 103.295 129.672C103.519 130.158 103.632 130.72 103.632 131.358C103.632 131.996 103.519 132.557 103.295 133.043C103.071 133.528 102.744 133.908 102.313 134.181C101.882 134.454 101.356 134.591 100.735 134.591ZM100.735 133.858C101.198 133.86 101.583 133.757 101.89 133.547C102.201 133.334 102.432 133.04 102.584 132.664C102.739 132.287 102.817 131.852 102.817 131.358C102.817 130.86 102.739 130.425 102.584 130.052C102.432 129.678 102.201 129.386 101.89 129.177C101.583 128.967 101.198 128.86 100.735 128.858C100.272 128.855 99.8873 128.958 99.5798 129.168C99.2752 129.377 99.0453 129.671 98.8902 130.047C98.735 130.424 98.6559 130.86 98.6531 131.358C98.6502 131.852 98.7264 132.286 98.8815 132.659C99.0367 133.033 99.268 133.326 99.5755 133.539C99.8859 133.748 100.272 133.855 100.735 133.858ZM106.256 134.586C105.701 134.586 105.246 134.466 104.889 134.224C104.536 133.98 104.319 133.639 104.239 133.203L105.023 133.078C105.086 133.33 105.231 133.531 105.458 133.681C105.685 133.828 105.967 133.901 106.303 133.901C106.622 133.901 106.872 133.834 107.053 133.703C107.234 133.57 107.325 133.39 107.325 133.164C107.325 133.031 107.295 132.925 107.234 132.845C107.174 132.761 107.049 132.683 106.859 132.612C106.672 132.54 106.389 132.454 106.01 132.353C105.599 132.244 105.276 132.131 105.04 132.013C104.805 131.895 104.637 131.759 104.536 131.603C104.435 131.448 104.385 131.26 104.385 131.039C104.385 130.765 104.46 130.527 104.609 130.323C104.759 130.116 104.967 129.957 105.234 129.845C105.504 129.733 105.818 129.677 106.174 129.677C106.527 129.677 106.843 129.733 107.122 129.845C107.401 129.957 107.625 130.116 107.795 130.323C107.967 130.527 108.069 130.765 108.101 131.039L107.316 131.181C107.279 130.931 107.158 130.734 106.954 130.591C106.753 130.446 106.493 130.371 106.174 130.362C105.872 130.35 105.627 130.403 105.437 130.522C105.25 130.639 105.157 130.799 105.157 131C105.157 131.112 105.191 131.208 105.26 131.289C105.332 131.369 105.463 131.445 105.652 131.517C105.845 131.589 106.124 131.671 106.489 131.763C106.9 131.866 107.223 131.98 107.458 132.103C107.697 132.224 107.866 132.368 107.967 132.534C108.068 132.698 108.118 132.901 108.118 133.142C108.118 133.591 107.953 133.944 107.622 134.203C107.292 134.458 106.836 134.586 106.256 134.586Z" fill="#121212"/>
<path d="M251.17 131.077C251.17 131.365 251.059 131.652 250.842 131.87L248.165 134.546C248.046 134.665 247.849 134.665 247.73 134.546C247.611 134.427 247.611 134.23 247.73 134.111L250.406 131.434C250.603 131.237 250.603 130.917 250.406 130.72L247.73 128.044C247.611 127.925 247.611 127.728 247.73 127.609C247.849 127.49 248.046 127.49 248.165 127.609L250.842 130.285C251.059 130.503 251.17 130.79 251.17 131.077Z" fill="#121212"/>
<mask id="mask1_1235_9805" style="mask-type:luminance" maskUnits="userSpaceOnUse" x="46" y="26" width="231" height="68">
<path d="M46 26H276.911V93.734H46V26Z" fill="white"/>
</mask>
<g mask="url(#mask1_1235_9805)">
<path d="M46 26H276.911V93.734H46V26Z" fill="#FAFAFA"/>
<path d="M140.121 76.6451C142.37 76.6451 143.759 75.701 143.759 74.1375C143.759 72.8146 142.809 72.2855 141.396 71.8344L140.007 71.3895C138.558 70.9204 138.203 70.5115 138.203 69.8079C138.203 68.954 138.823 68.473 139.947 68.473C141.276 68.473 141.883 69.2306 141.907 70.9204L143.543 70.6558C143.459 68.8999 142.274 67.9258 140.001 67.9258C137.878 67.9258 136.604 68.7797 136.604 70.3191C136.597 71.5879 137.41 72.1652 138.828 72.6282L140.206 73.0732C141.607 73.5242 142.1 73.9391 142.1 74.7268C142.1 75.6108 141.402 76.0979 140.23 76.0979C138.774 76.0979 138.113 75.3041 138.065 73.5662L136.297 73.8369C136.441 75.6709 137.734 76.6451 140.121 76.6451ZM149.514 70.1808V73.44C149.514 74.787 148.853 75.7792 147.728 75.7792C146.929 75.7792 146.507 75.3643 146.507 74.4622V70.1808H144.757V74.6126C144.757 75.9355 145.527 76.609 146.958 76.609C148.251 76.609 149.219 76.0016 149.628 74.5705L149.749 74.6066C149.575 75.5206 149.508 76.0377 149.508 76.4947H151.264V70.1808H149.514ZM156.604 70.0665C155.347 70.0665 154.463 70.6739 154.126 71.9968L154.006 71.9667C154.163 71.1129 154.235 70.5656 154.241 70.1808H152.473V78.5994H154.222V76.8856C154.222 76.2001 154.163 75.6228 154 74.7208L154.12 74.6847C154.457 76.0016 155.347 76.609 156.604 76.609C158.426 76.609 159.376 75.5206 159.376 73.422V73.2656C159.376 71.167 158.426 70.0665 156.604 70.0665ZM155.961 70.8302C157.061 70.8302 157.614 71.5518 157.614 73.0611V73.6324C157.614 75.1417 157.061 75.8633 155.961 75.8633C154.836 75.8633 154.222 75.0034 154.222 73.5542V73.1393C154.222 71.6841 154.836 70.8302 155.961 70.8302ZM164.53 70.0665C163.273 70.0665 162.389 70.6739 162.052 71.9968L161.932 71.9667C162.088 71.1129 162.16 70.5656 162.166 70.1808H160.398V78.5994H162.148V76.8856C162.148 76.2001 162.088 75.6228 161.926 74.7208L162.046 74.6847C162.382 76.0016 163.273 76.609 164.53 76.609C166.352 76.609 167.302 75.5206 167.302 73.422V73.2656C167.302 71.167 166.352 70.0665 164.53 70.0665ZM163.886 70.8302C164.987 70.8302 165.539 71.5518 165.539 73.0611V73.6324C165.539 75.1417 164.987 75.8633 163.886 75.8633C162.762 75.8633 162.148 75.0034 162.148 73.5542V73.1393C162.148 71.6841 162.762 70.8302 163.886 70.8302ZM171.619 76.6451C173.802 76.6451 175.095 75.5387 175.095 73.422V73.2536C175.095 71.1369 173.802 70.0305 171.619 70.0305C169.424 70.0305 168.137 71.1369 168.137 73.2536V73.422C168.137 75.5387 169.424 76.6451 171.619 76.6451ZM171.619 76.1279C170.549 76.1279 169.935 75.4665 169.935 73.8549V72.8206C169.935 71.209 170.549 70.5476 171.619 70.5476C172.684 70.5476 173.297 71.209 173.297 72.8206V73.8549C173.297 75.4665 172.684 76.1279 171.619 76.1279ZM177.867 76.4947V73.7767C177.867 72.0028 178.312 71.5999 180.573 71.4436L180.368 69.9823C178.865 70.1447 178.216 70.6739 177.753 72.4297L177.632 72.3877C177.831 71.167 177.879 70.71 177.873 70.1808H176.117V76.4947H177.867ZM183.904 76.633C184.656 76.633 185.317 76.4045 185.799 75.8453L185.786 75.3342C185.462 75.5987 185.077 75.7431 184.668 75.7431C184.055 75.7431 183.748 75.4725 183.748 74.805V70.746H185.841V70.1808H183.748V68.2986L181.998 68.936V70.1808H180.958V70.746H181.998V74.9493C181.998 76.0738 182.636 76.633 183.904 76.633Z" fill="#121212"/>
<path opacity="0.2" d="M305.844 104.477C279.583 86.2369 235.366 60.5033 175.254 47.4557C90.9121 29.1272 21.4208 45.7475 -11.875 56.1347" stroke="#F1DB8D" stroke-width="14" stroke-miterlimit="10" stroke-linecap="round" stroke-linejoin="round"/>
<path d="M69.4062 79.5724V64.794C69.4062 64.1139 68.8549 63.5625 68.1747 63.5625H53.3964C52.7162 63.5625 52.1649 64.1139 52.1649 64.794V79.5724C52.1649 80.2525 52.7162 80.8039 53.3964 80.8039H68.1747C68.8549 80.8039 69.4062 80.2525 69.4062 79.5724Z" fill="white"/>
<path d="M58.6497 71.1027C58.3539 71.3986 58.2031 71.7894 58.2031 72.1802C58.2031 72.5709 58.3539 72.9617 58.6497 73.2576L61.9954 76.6032C62.1922 76.8001 62.5165 76.8001 62.7134 76.6032C62.9103 76.4063 62.9103 76.082 62.7134 75.8851L59.3678 72.5395C59.1696 72.3412 59.1696 72.019 59.3678 71.8208L62.7134 68.4751C62.9103 68.2782 62.9103 67.9539 62.7134 67.7571C62.5165 67.5601 62.1922 67.5601 61.9954 67.7571L58.6497 71.1027Z" fill="#121212" stroke="black" stroke-width="0.4"/>
</g>
<mask id="mask2_1235_9805" style="mask-type:luminance" maskUnits="userSpaceOnUse" x="46" y="26" width="231" height="68">
<path d="M46 26H276.911V93.734H46V26Z" fill="#E6E6E6"/>
</mask>
<g mask="url(#mask2_1235_9805)">
<path d="M276.911 93.1172H46V94.3487H276.911V93.1172Z" fill="#E6E6E6"/>
</g>
</g>
<rect x="43" y="23" width="236.911" height="506" rx="23" stroke="black" stroke-width="6" shape-rendering="crispEdges"/>
</g>
<defs>
<filter id="filter0_d_1235_9805" x="0" y="0" width="322.914" height="592" filterUnits="userSpaceOnUse" color-interpolation-filters="sRGB">
<feFlood flood-opacity="0" result="BackgroundImageFix"/>
<feColorMatrix in="SourceAlpha" type="matrix" values="0 0 0 0 0 0 0 0 0 0 0 0 0 0 0 0 0 0 127 0" result="hardAlpha"/>
<feOffset dy="20"/>
<feGaussianBlur stdDeviation="20"/>
<feComposite in2="hardAlpha" operator="out"/>
<feColorMatrix type="matrix" values="0 0 0 0 0 0 0 0 0 0 0 0 0 0 0 0 0 0 0.4 0"/>
<feBlend mode="normal" in2="BackgroundImageFix" result="effect1_dropShadow_1235_9805"/>
<feBlend mode="normal" in="SourceGraphic" in2="effect1_dropShadow_1235_9805" result="shape"/>
</filter>
<clipPath id="clip0_1235_9805">
<rect x="46" y="26" width="230.911" height="500" rx="20" fill="white"/>
</clipPath>
</defs>
</svg>
