<svg width="276" height="494" viewBox="0 0 276 494" fill="none" xmlns="http://www.w3.org/2000/svg">
<g filter="url(#filter0_d_1235_10000)">
<g clip-path="url(#clip0_1235_10000)">
<path d="M231.5 24H44V430H231.5V24Z" fill="white"/>
<mask id="mask0_1235_10000" style="mask-type:luminance" maskUnits="userSpaceOnUse" x="59" y="115" width="158" height="90">
<path d="M208.5 115H67C62.5817 115 59 118.582 59 123V197C59 201.418 62.5817 205 67 205H208.5C212.918 205 216.5 201.418 216.5 197V123C216.5 118.582 212.918 115 208.5 115Z" fill="white"/>
</mask>
<g mask="url(#mask0_1235_10000)">
<path d="M216.5 115H59V205H216.5V115Z" fill="#121212"/>
<g opacity="0.14">
<mask id="mask1_1235_10000" style="mask-type:alpha" maskUnits="userSpaceOnUse" x="59" y="110" width="158" height="110">
<path d="M216.637 110.82H59V220H216.637V110.82Z" fill="#121212"/>
</mask>
<g mask="url(#mask1_1235_10000)">
<path d="M366.476 321.887V354.504H-53.3211C-111.494 281.563 -145.539 192.76 -145.539 97.0039H110.485C110.485 159.11 139.189 215.324 185.442 256.039C231.789 296.67 295.779 321.887 366.476 321.887Z" stroke="#F6946C" stroke-width="12" stroke-miterlimit="10" stroke-linecap="round" stroke-linejoin="round"/>
<path d="M270.835 241.631C256 211.801 196.309 101.448 56.4461 52.158C0.626476 32.4849 -50.7687 28.5769 -87.3087 28.9714C-134.265 52.7542 -181.266 76.5599 -228.222 100.343L-344.906 159.442C-280.379 141.782 -145.704 113.525 17.7514 144.686C134.248 166.869 219.941 210.62 270.835 241.631Z" stroke="#F1DB8D" stroke-width="18" stroke-miterlimit="10" stroke-linecap="round" stroke-linejoin="round"/>
</g>
</g>
<path d="M80.8677 146.348L80.8714 152.642C80.8714 153.384 80.2381 153.993 79.4686 153.993L70.4177 154C69.6407 154 69.0074 153.391 69.0074 152.652L69 146.358C69 145.612 69.6334 145.007 70.4066 145.007L79.4612 145C80.2345 145 80.8677 145.601 80.8677 146.348Z" fill="#F6C859"/>
<path d="M73.5777 152.796C73.5262 152.796 73.4783 152.771 73.4562 152.726C73.4231 152.662 73.4489 152.581 73.5151 152.549C73.714 152.45 73.9828 152.266 74.1411 151.951C74.34 151.548 74.2884 151.109 74.2037 151.071C74.1816 151.06 74.1006 151.102 74.0491 151.127C73.9202 151.191 73.7398 151.279 73.5335 151.208C73.331 151.141 73.2316 150.968 73.1837 150.883C72.8707 150.335 72.775 148.913 73.1027 148.206C73.2132 147.973 73.3605 147.831 73.5446 147.789C73.7324 147.746 73.887 147.821 74.0086 147.884C74.108 147.934 74.1595 147.955 74.1927 147.937C74.3215 147.863 74.3179 147.41 74.1374 147.053C73.9791 146.735 73.7103 146.551 73.5115 146.456C73.4452 146.424 73.4157 146.342 73.4525 146.279C73.4857 146.215 73.5704 146.187 73.6366 146.222C73.8723 146.339 74.1963 146.558 74.3841 146.944C74.5719 147.322 74.6603 147.976 74.3326 148.167C74.1669 148.263 74.0086 148.185 73.8834 148.125C73.7876 148.079 73.6956 148.033 73.6072 148.054C73.4857 148.082 73.4047 148.213 73.3531 148.319C73.0659 148.938 73.1506 150.282 73.4231 150.763C73.4709 150.844 73.5262 150.933 73.6219 150.964C73.714 150.996 73.8023 150.957 73.9239 150.897C74.0454 150.837 74.1779 150.773 74.3215 150.837C74.6308 150.982 74.6088 151.615 74.3878 152.068C74.1963 152.453 73.876 152.672 73.6403 152.789C73.6182 152.793 73.5961 152.796 73.5777 152.796Z" fill="#7D662D"/>
<path d="M73.1617 148.446H70.6909C70.6136 148.446 70.5547 148.385 70.5547 148.315C70.5547 148.244 70.6136 148.184 70.6872 148.184H73.158C73.2353 148.184 73.2942 148.244 73.2942 148.315C73.2979 148.385 73.239 148.446 73.1617 148.446Z" fill="#7D662D"/>
<path d="M73.1617 150.817H70.6909C70.6136 150.817 70.5547 150.756 70.5547 150.686C70.5547 150.611 70.6173 150.555 70.6909 150.555H73.1617C73.239 150.555 73.2979 150.615 73.2979 150.686C73.3016 150.756 73.239 150.817 73.1617 150.817Z" fill="#7D662D"/>
<path d="M76.4623 152.791C76.4402 152.791 76.4181 152.788 76.3997 152.777C76.1641 152.66 75.84 152.441 75.6522 152.056C75.4276 151.603 75.4092 150.97 75.7148 150.825C75.8584 150.758 75.9947 150.825 76.1125 150.882C76.2377 150.942 76.3261 150.981 76.4145 150.949C76.5176 150.913 76.5765 150.811 76.6133 150.747C76.8858 150.266 76.9668 148.919 76.6796 148.304C76.628 148.198 76.547 148.063 76.4255 148.038C76.3519 148.021 76.304 147.95 76.3224 147.879C76.3408 147.809 76.4145 147.766 76.4881 147.78C76.6722 147.823 76.8195 147.961 76.93 148.194C77.2614 148.901 77.1656 150.326 76.8526 150.871C76.8048 150.956 76.7053 151.129 76.5028 151.196C76.2966 151.267 76.1162 151.179 75.9873 151.115C75.9358 151.09 75.8548 151.051 75.8327 151.058C75.7517 151.097 75.6964 151.536 75.8989 151.939C76.0573 152.257 76.3261 152.441 76.5249 152.537C76.5912 152.568 76.6207 152.65 76.5838 152.713C76.5617 152.766 76.5139 152.791 76.4623 152.791Z" fill="#7D662D"/>
<path d="M75.9041 147.912C75.8452 147.912 75.7937 147.876 75.7753 147.823C75.4807 146.975 76.1693 146.32 76.3902 146.214C76.4565 146.179 76.5412 146.207 76.5743 146.271C76.6075 146.335 76.5817 146.416 76.5154 146.448C76.416 146.497 75.7826 147.017 76.033 147.739C76.0588 147.809 76.0183 147.884 75.9447 147.905C75.9336 147.912 75.9189 147.912 75.9041 147.912Z" fill="#7D662D"/>
<path d="M79.3414 148.442H76.8706C76.7933 148.442 76.7344 148.382 76.7344 148.311C76.7344 148.24 76.7969 148.18 76.8706 148.18H79.3414C79.4187 148.18 79.4776 148.24 79.4776 148.311C79.4776 148.382 79.415 148.442 79.3414 148.442Z" fill="#7D662D"/>
<path d="M79.3414 150.812H76.8706C76.7933 150.812 76.7344 150.752 76.7344 150.681C76.7344 150.607 76.7969 150.551 76.8706 150.551H79.3414C79.4187 150.551 79.4776 150.611 79.4776 150.681C79.4776 150.756 79.4187 150.812 79.3414 150.812Z" fill="#7D662D"/>
<path d="M70.3141 170.149L69.6301 169.654L70.3141 168.817L69.2656 168.524L69.5266 167.719L70.5391 168.115L70.4851 167.021H71.3311L71.2771 168.115L72.2941 167.719L72.5551 168.524L71.5021 168.817L72.1861 169.654L71.5021 170.149L70.9081 169.249L70.3141 170.149ZM77.2898 170.149L76.6058 169.654L77.2898 168.817L76.2413 168.524L76.5023 167.719L77.5148 168.115L77.4608 167.021H78.3068L78.2528 168.115L79.2698 167.719L79.5308 168.524L78.4778 168.817L79.1618 169.654L78.4778 170.149L77.8838 169.249L77.2898 170.149ZM84.2655 170.149L83.5815 169.654L84.2655 168.817L83.217 168.524L83.478 167.719L84.4905 168.115L84.4365 167.021H85.2825L85.2285 168.115L86.2455 167.719L86.5065 168.524L85.4535 168.817L86.1375 169.654L85.4535 170.149L84.8595 169.249L84.2655 170.149ZM91.2412 170.149L90.5572 169.654L91.2412 168.817L90.1927 168.524L90.4537 167.719L91.4662 168.115L91.4122 167.021H92.2582L92.2042 168.115L93.2212 167.719L93.4822 168.524L92.4292 168.817L93.1132 169.654L92.4292 170.149L91.8352 169.249L91.2412 170.149ZM98.2171 170.149L97.5331 169.654L98.2171 168.817L97.1686 168.524L97.4296 167.719L98.4421 168.115L98.3881 167.021H99.2341L99.1801 168.115L100.197 167.719L100.458 168.524L99.4051 168.817L100.089 169.654L99.4051 170.149L98.8111 169.249L98.2171 170.149ZM105.193 170.149L104.509 169.654L105.193 168.817L104.144 168.524L104.405 167.719L105.418 168.115L105.364 167.021H106.21L106.156 168.115L107.173 167.719L107.434 168.524L106.381 168.817L107.065 169.654L106.381 170.149L105.787 169.249L105.193 170.149ZM112.168 170.149L111.484 169.654L112.168 168.817L111.12 168.524L111.381 167.719L112.393 168.115L112.339 167.021H113.185L113.131 168.115L114.148 167.719L114.409 168.524L113.356 168.817L114.04 169.654L113.356 170.149L112.762 169.249L112.168 170.149ZM119.144 170.149L118.46 169.654L119.144 168.817L118.096 168.524L118.357 167.719L119.369 168.115L119.315 167.021H120.161L120.107 168.115L121.124 167.719L121.385 168.524L120.332 168.817L121.016 169.654L120.332 170.149L119.738 169.249L119.144 170.149ZM126.12 170.149L125.436 169.654L126.12 168.817L125.071 168.524L125.332 167.719L126.345 168.115L126.291 167.021H127.137L127.083 168.115L128.1 167.719L128.361 168.524L127.308 168.817L127.992 169.654L127.308 170.149L126.714 169.249L126.12 170.149ZM133.096 170.149L132.412 169.654L133.096 168.817L132.047 168.524L132.308 167.719L133.321 168.115L133.267 167.021H134.113L134.059 168.115L135.076 167.719L135.337 168.524L134.284 168.817L134.968 169.654L134.284 170.149L133.69 169.249L133.096 170.149ZM140.071 170.149L139.387 169.654L140.071 168.817L139.023 168.524L139.284 167.719L140.296 168.115L140.242 167.021H141.088L141.034 168.115L142.051 167.719L142.312 168.524L141.259 168.817L141.943 169.654L141.259 170.149L140.665 169.249L140.071 170.149ZM147.047 170.149L146.363 169.654L147.047 168.817L145.998 168.524L146.259 167.719L147.272 168.115L147.218 167.021H148.064L148.01 168.115L149.027 167.719L149.288 168.524L148.235 168.817L148.919 169.654L148.235 170.149L147.641 169.249L147.047 170.149ZM154.023 170.149L153.339 169.654L154.023 168.817L152.974 168.524L153.235 167.719L154.248 168.115L154.194 167.021H155.04L154.986 168.115L156.003 167.719L156.264 168.524L155.211 168.817L155.895 169.654L155.211 170.149L154.617 169.249L154.023 170.149ZM160.998 170.149L160.314 169.654L160.998 168.817L159.95 168.524L160.211 167.719L161.223 168.115L161.169 167.021H162.015L161.961 168.115L162.978 167.719L163.239 168.524L162.186 168.817L162.87 169.654L162.186 170.149L161.592 169.249L160.998 170.149ZM167.974 170.149L167.29 169.654L167.974 168.817L166.926 168.524L167.187 167.719L168.199 168.115L168.145 167.021H168.991L168.937 168.115L169.954 167.719L170.215 168.524L169.162 168.817L169.846 169.654L169.162 170.149L168.568 169.249L167.974 170.149ZM177.006 173.501V172.372H174.081V171.481L176.187 167.021H177.263L175.157 171.481H177.006V169.726H177.96V171.481H178.604V172.372H177.96V173.501H177.006ZM184.486 173.636C184.153 173.636 183.842 173.569 183.554 173.434C183.269 173.296 183.025 173.107 182.821 172.867C182.617 172.624 182.471 172.345 182.384 172.03L183.289 171.787C183.34 171.979 183.427 172.145 183.55 172.286C183.676 172.427 183.823 172.537 183.991 172.615C184.159 172.69 184.333 172.727 184.513 172.727C184.75 172.727 184.964 172.67 185.156 172.556C185.351 172.442 185.504 172.289 185.615 172.097C185.729 171.905 185.786 171.694 185.786 171.463C185.786 171.226 185.728 171.011 185.611 170.819C185.497 170.627 185.342 170.476 185.147 170.365C184.955 170.251 184.744 170.194 184.513 170.194C184.249 170.194 184.025 170.246 183.842 170.351C183.659 170.456 183.517 170.578 183.415 170.716L182.596 170.428L182.794 167.021H186.29V167.908H183.275L183.658 167.552L183.5 170.104L183.316 169.865C183.487 169.694 183.691 169.564 183.928 169.474C184.165 169.384 184.4 169.339 184.634 169.339C185.036 169.339 185.395 169.432 185.71 169.618C186.028 169.804 186.278 170.057 186.461 170.378C186.644 170.696 186.736 171.058 186.736 171.463C186.736 171.865 186.632 172.231 186.425 172.561C186.218 172.888 185.944 173.149 185.602 173.344C185.26 173.539 184.888 173.636 184.486 173.636ZM192.919 173.636C192.499 173.636 192.121 173.537 191.785 173.339C191.449 173.138 191.182 172.864 190.984 172.516C190.789 172.168 190.691 171.772 190.691 171.328V169.262C190.691 168.791 190.789 168.377 190.984 168.02C191.182 167.663 191.455 167.386 191.803 167.188C192.154 166.99 192.557 166.891 193.013 166.891C193.355 166.891 193.676 166.955 193.976 167.084C194.276 167.213 194.536 167.405 194.755 167.66L194.066 168.304C193.943 168.145 193.789 168.019 193.603 167.926C193.42 167.83 193.223 167.782 193.013 167.782C192.743 167.782 192.506 167.846 192.302 167.975C192.098 168.101 191.938 168.268 191.821 168.475C191.707 168.682 191.65 168.904 191.65 169.141V170.329L191.465 170.122C191.651 169.879 191.882 169.687 192.158 169.546C192.434 169.405 192.73 169.334 193.045 169.334C193.447 169.334 193.805 169.429 194.12 169.618C194.438 169.804 194.687 170.057 194.867 170.378C195.05 170.699 195.142 171.061 195.142 171.463C195.142 171.868 195.04 172.235 194.836 172.565C194.635 172.892 194.365 173.153 194.026 173.348C193.69 173.54 193.321 173.636 192.919 173.636ZM192.919 172.732C193.153 172.732 193.366 172.675 193.558 172.561C193.75 172.447 193.903 172.294 194.017 172.102C194.131 171.91 194.188 171.697 194.188 171.463C194.188 171.229 194.131 171.016 194.017 170.824C193.906 170.632 193.754 170.479 193.562 170.365C193.37 170.251 193.157 170.194 192.923 170.194C192.689 170.194 192.475 170.251 192.28 170.365C192.088 170.479 191.935 170.632 191.821 170.824C191.707 171.016 191.65 171.229 191.65 171.463C191.65 171.694 191.707 171.905 191.821 172.097C191.935 172.289 192.088 172.444 192.28 172.561C192.472 172.675 192.685 172.732 192.919 172.732ZM199.499 173.501L201.776 167.917H198.891V167.021H202.788V167.917L200.516 173.501H199.499Z" fill="white"/>
<path d="M193.974 150.999V147.974L193.297 148.387V147.804L193.974 147.399H194.507V150.999H193.974ZM195.356 150.997L195.359 150.532L196.926 149.127C197.053 149.015 197.139 148.908 197.184 148.807C197.23 148.705 197.254 148.603 197.254 148.502C197.254 148.373 197.225 148.258 197.169 148.157C197.112 148.053 197.034 147.972 196.934 147.912C196.834 147.852 196.719 147.822 196.589 147.822C196.455 147.822 196.336 147.853 196.231 147.917C196.128 147.978 196.047 148.061 195.989 148.164C195.93 148.268 195.902 148.379 195.904 148.499H195.369C195.369 148.266 195.421 148.062 195.526 147.887C195.633 147.71 195.779 147.573 195.964 147.474C196.149 147.374 196.36 147.324 196.599 147.324C196.825 147.324 197.029 147.376 197.209 147.479C197.389 147.581 197.53 147.721 197.634 147.899C197.739 148.078 197.791 148.281 197.791 148.509C197.791 148.674 197.769 148.814 197.726 148.929C197.683 149.044 197.618 149.151 197.531 149.249C197.444 149.348 197.336 149.454 197.206 149.569L195.996 150.649L195.939 150.499H197.791V150.997H195.356ZM199.301 147.399H199.828L198.868 150.999H198.341L199.301 147.399ZM201.488 151.067C201.31 151.067 201.142 151.033 200.986 150.967C200.829 150.898 200.693 150.802 200.578 150.677C200.465 150.552 200.382 150.404 200.331 150.234L200.836 150.094C200.884 150.249 200.968 150.368 201.088 150.452C201.208 150.533 201.341 150.573 201.488 150.572C201.62 150.57 201.736 150.539 201.836 150.479C201.936 150.419 202.014 150.338 202.071 150.237C202.127 150.133 202.156 150.015 202.156 149.882C202.156 149.682 202.093 149.517 201.968 149.387C201.845 149.257 201.683 149.192 201.483 149.192C201.426 149.192 201.368 149.2 201.308 149.217C201.25 149.233 201.195 149.255 201.143 149.282L200.898 148.869L202.168 147.747L202.223 147.897H200.473V147.399H202.638V147.897L201.583 148.912L201.578 148.742C201.805 148.742 202.001 148.793 202.168 148.894C202.335 148.994 202.463 149.131 202.553 149.304C202.645 149.476 202.691 149.668 202.691 149.882C202.691 150.112 202.636 150.316 202.528 150.494C202.421 150.673 202.277 150.813 202.096 150.914C201.916 151.016 201.713 151.067 201.488 151.067ZM204.597 151.074C204.352 151.074 204.135 151.021 203.947 150.914C203.759 150.806 203.61 150.658 203.502 150.469C203.395 150.281 203.342 150.064 203.342 149.819V148.579C203.342 148.334 203.395 148.118 203.502 147.929C203.61 147.741 203.759 147.593 203.947 147.487C204.135 147.378 204.352 147.324 204.597 147.324C204.842 147.324 205.059 147.378 205.247 147.487C205.435 147.593 205.583 147.741 205.689 147.929C205.798 148.118 205.852 148.334 205.852 148.579V149.819C205.852 150.064 205.798 150.281 205.689 150.469C205.583 150.658 205.435 150.806 205.247 150.914C205.059 151.021 204.842 151.074 204.597 151.074ZM204.597 150.574C204.73 150.574 204.851 150.543 204.959 150.479C205.069 150.414 205.157 150.328 205.222 150.219C205.287 150.109 205.319 149.987 205.319 149.852V148.542C205.319 148.408 205.287 148.288 205.222 148.179C205.157 148.069 205.069 147.983 204.959 147.919C204.851 147.854 204.73 147.822 204.597 147.822C204.464 147.822 204.342 147.854 204.232 147.919C204.124 147.983 204.037 148.069 203.972 148.179C203.907 148.288 203.874 148.408 203.874 148.542V149.852C203.874 149.987 203.907 150.109 203.972 150.219C204.037 150.328 204.124 150.414 204.232 150.479C204.342 150.543 204.464 150.574 204.597 150.574Z" fill="white"/>
<path d="M134.25 128.12C134.49 128.541 134.616 129.016 134.616 129.5C134.616 129.984 134.49 130.459 134.25 130.88M135.548 127.329C135.922 127.991 136.119 128.739 136.119 129.5C136.119 130.261 135.922 131.009 135.548 131.672M136.841 126.537C137.358 127.439 137.63 128.46 137.631 129.499C137.632 130.538 137.361 131.56 136.845 132.463M138.139 125.75C138.791 126.892 139.134 128.185 139.134 129.5C139.134 130.816 138.791 132.108 138.139 133.25" stroke="white" stroke-width="1.6" stroke-linecap="round" stroke-linejoin="round"/>
<path d="M69.3516 130.747V127.147H70.4616C70.4982 127.147 70.5624 127.148 70.6541 127.149C70.7457 127.151 70.8332 127.158 70.9166 127.169C71.1949 127.206 71.4274 127.308 71.6141 127.474C71.8024 127.639 71.9441 127.849 72.0391 128.104C72.1341 128.359 72.1816 128.64 72.1816 128.947C72.1816 129.253 72.1341 129.534 72.0391 129.789C71.9441 130.044 71.8024 130.255 71.6141 130.422C71.4274 130.587 71.1949 130.688 70.9166 130.724C70.8332 130.734 70.7449 130.741 70.6516 130.744C70.5599 130.746 70.4966 130.747 70.4616 130.747H69.3516ZM69.8091 130.322H70.4616C70.5249 130.322 70.5957 130.32 70.6741 130.317C70.7524 130.312 70.8207 130.304 70.8791 130.294C71.0757 130.258 71.2349 130.175 71.3566 130.047C71.4782 129.918 71.5674 129.758 71.6241 129.567C71.6807 129.375 71.7091 129.168 71.7091 128.947C71.7091 128.72 71.6799 128.511 71.6216 128.319C71.5649 128.128 71.4757 127.968 71.3541 127.842C71.2324 127.715 71.0741 127.634 70.8791 127.599C70.8207 127.588 70.7516 127.58 70.6716 127.577C70.5916 127.573 70.5216 127.572 70.4616 127.572H69.8091V130.322ZM73.9249 130.822C73.6599 130.822 73.4282 130.763 73.2299 130.647C73.0332 130.528 72.8799 130.364 72.7699 130.154C72.6599 129.943 72.6049 129.696 72.6049 129.414C72.6049 129.119 72.6591 128.864 72.7674 128.649C72.8757 128.433 73.0266 128.266 73.2199 128.149C73.4149 128.031 73.6432 127.972 73.9049 127.972C74.1766 127.972 74.4074 128.034 74.5974 128.159C74.7891 128.284 74.9324 128.463 75.0274 128.694C75.1241 128.926 75.1657 129.202 75.1524 129.522H74.7024V129.362C74.6974 129.03 74.6299 128.783 74.4999 128.619C74.3699 128.454 74.1766 128.372 73.9199 128.372C73.6449 128.372 73.4357 128.46 73.2924 128.637C73.1491 128.813 73.0774 129.067 73.0774 129.397C73.0774 129.715 73.1491 129.962 73.2924 130.137C73.4357 130.312 73.6399 130.399 73.9049 130.399C74.0832 130.399 74.2382 130.358 74.3699 130.277C74.5016 130.195 74.6049 130.078 74.6799 129.924L75.1074 130.072C75.0024 130.31 74.8441 130.495 74.6324 130.627C74.4224 130.757 74.1866 130.822 73.9249 130.822ZM72.9274 129.522V129.164H74.9224V129.522H72.9274ZM76.949 130.822C76.6957 130.822 76.4823 130.759 76.309 130.634C76.1357 130.508 76.004 130.337 75.914 130.122C75.8257 129.905 75.7815 129.663 75.7815 129.394C75.7815 129.123 75.8257 128.879 75.914 128.664C76.004 128.449 76.1357 128.28 76.309 128.157C76.484 128.033 76.6982 127.972 76.9515 127.972C77.2015 127.972 77.4165 128.034 77.5965 128.159C77.7782 128.283 77.9173 128.452 78.014 128.667C78.1107 128.882 78.159 129.124 78.159 129.394C78.159 129.664 78.1107 129.907 78.014 130.122C77.9173 130.337 77.7782 130.508 77.5965 130.634C77.4165 130.759 77.2007 130.822 76.949 130.822ZM75.7065 130.747V127.147H76.154V128.759H76.104V130.747H75.7065ZM76.894 130.414C77.0723 130.414 77.2198 130.369 77.3365 130.279C77.4532 130.189 77.5407 130.068 77.599 129.914C77.6573 129.759 77.6865 129.586 77.6865 129.394C77.6865 129.204 77.6573 129.033 77.599 128.879C77.5423 128.726 77.454 128.604 77.334 128.514C77.2157 128.424 77.0648 128.379 76.8815 128.379C76.7065 128.379 76.5615 128.423 76.4465 128.509C76.3315 128.594 76.2457 128.713 76.189 128.867C76.1323 129.018 76.104 129.194 76.104 129.394C76.104 129.591 76.1315 129.767 76.1865 129.922C76.2432 130.075 76.3298 130.196 76.4465 130.284C76.5632 130.371 76.7123 130.414 76.894 130.414ZM78.757 127.569V127.109H79.202V127.569H78.757ZM78.757 130.747V128.047H79.202V130.747H78.757ZM81.4597 130.747C81.2997 130.778 81.1413 130.791 80.9847 130.784C80.8297 130.779 80.6913 130.748 80.5697 130.692C80.448 130.633 80.3555 130.543 80.2922 130.422C80.2388 130.315 80.2097 130.208 80.2047 130.099C80.2013 129.989 80.1997 129.865 80.1997 129.727V127.297H80.6447V129.707C80.6447 129.817 80.6455 129.911 80.6472 129.989C80.6505 130.068 80.668 130.135 80.6997 130.192C80.7597 130.298 80.8547 130.361 80.9847 130.379C81.1163 130.398 81.2747 130.393 81.4597 130.364V130.747ZM79.6522 128.414V128.047H81.4597V128.414H79.6522Z" fill="white"/>
<path d="M70.8509 192.574C70.4909 192.574 70.1843 192.496 69.9309 192.339C69.6776 192.181 69.4834 191.961 69.3484 191.679C69.2151 191.398 69.1484 191.071 69.1484 190.699C69.1484 190.328 69.2151 190.001 69.3484 189.719C69.4834 189.438 69.6776 189.218 69.9309 189.062C70.1843 188.903 70.4909 188.824 70.8509 188.824C71.2659 188.824 71.6093 188.929 71.8809 189.139C72.1543 189.349 72.3443 189.632 72.4509 189.987L71.9209 190.129C71.8509 189.878 71.7259 189.68 71.5459 189.537C71.3676 189.393 71.1359 189.322 70.8509 189.322C70.5959 189.322 70.3834 189.379 70.2134 189.494C70.0434 189.609 69.9151 189.77 69.8284 189.977C69.7434 190.183 69.7009 190.424 69.7009 190.699C69.6993 190.974 69.7409 191.215 69.8259 191.422C69.9126 191.628 70.0409 191.789 70.2109 191.904C70.3826 192.019 70.5959 192.077 70.8509 192.077C71.1359 192.077 71.3676 192.005 71.5459 191.862C71.7259 191.717 71.8509 191.519 71.9209 191.269L72.4509 191.412C72.3443 191.767 72.1543 192.049 71.8809 192.259C71.6093 192.469 71.2659 192.574 70.8509 192.574ZM74.9958 192.499V191.172C74.9958 191.067 74.9866 190.959 74.9683 190.849C74.9516 190.738 74.9183 190.634 74.8683 190.539C74.8199 190.444 74.7508 190.368 74.6608 190.309C74.5724 190.251 74.4566 190.222 74.3133 190.222C74.2199 190.222 74.1316 190.238 74.0483 190.269C73.9649 190.299 73.8916 190.348 73.8283 190.417C73.7666 190.485 73.7174 190.575 73.6808 190.687C73.6458 190.798 73.6283 190.934 73.6283 191.094L73.3033 190.972C73.3033 190.727 73.3491 190.511 73.4408 190.324C73.5324 190.136 73.6641 189.989 73.8358 189.884C74.0074 189.779 74.2149 189.727 74.4583 189.727C74.6449 189.727 74.8016 189.757 74.9283 189.817C75.0549 189.877 75.1574 189.956 75.2358 190.054C75.3158 190.151 75.3766 190.257 75.4183 190.372C75.4599 190.487 75.4883 190.599 75.5033 190.709C75.5183 190.819 75.5258 190.916 75.5258 190.999V192.499H74.9958ZM73.0983 192.499V188.899H73.5658V190.842H73.6283V192.499H73.0983ZM77.2944 192.572C77.1078 192.572 76.9511 192.542 76.8244 192.482C76.6978 192.422 76.5944 192.343 76.5144 192.247C76.4361 192.148 76.3761 192.042 76.3344 191.927C76.2928 191.812 76.2644 191.699 76.2494 191.589C76.2344 191.479 76.2269 191.383 76.2269 191.299V189.799H76.7569V191.127C76.7569 191.232 76.7653 191.34 76.7819 191.452C76.8003 191.562 76.8336 191.664 76.8819 191.759C76.9319 191.854 77.0011 191.931 77.0894 191.989C77.1794 192.048 77.2961 192.077 77.4394 192.077C77.5328 192.077 77.6211 192.062 77.7044 192.032C77.7878 192 77.8603 191.95 77.9219 191.882C77.9853 191.813 78.0344 191.723 78.0694 191.612C78.1061 191.5 78.1244 191.364 78.1244 191.204L78.4494 191.327C78.4494 191.572 78.4036 191.788 78.3119 191.977C78.2203 192.163 78.0886 192.309 77.9169 192.414C77.7453 192.519 77.5378 192.572 77.2944 192.572ZM78.1869 192.499V191.719H78.1244V189.799H78.6519V192.499H78.1869ZM79.4506 192.499L79.4531 188.899H79.9831V191.099L81.0431 189.799H81.7081L80.5881 191.149L81.8231 192.499H81.1131L79.9831 191.199V192.499H79.4506ZM82.7502 192.499L81.9252 189.797L82.4427 189.799L83.0077 191.652L83.5777 189.799H84.0277L84.5977 191.652L85.1627 189.799H85.6777L84.8527 192.499H84.4327L83.8027 190.544L83.1702 192.499H82.7502ZM87.2429 192.572C87.0562 192.572 86.8995 192.542 86.7729 192.482C86.6462 192.422 86.5429 192.343 86.4629 192.247C86.3845 192.148 86.3245 192.042 86.2829 191.927C86.2412 191.812 86.2129 191.699 86.1979 191.589C86.1829 191.479 86.1754 191.383 86.1754 191.299V189.799H86.7054V191.127C86.7054 191.232 86.7137 191.34 86.7304 191.452C86.7487 191.562 86.782 191.664 86.8304 191.759C86.8804 191.854 86.9495 191.931 87.0379 191.989C87.1279 192.048 87.2445 192.077 87.3879 192.077C87.4812 192.077 87.5695 192.062 87.6529 192.032C87.7362 192 87.8087 191.95 87.8704 191.882C87.9337 191.813 87.9829 191.723 88.0179 191.612C88.0545 191.5 88.0729 191.364 88.0729 191.204L88.3979 191.327C88.3979 191.572 88.352 191.788 88.2604 191.977C88.1687 192.163 88.037 192.309 87.8654 192.414C87.6937 192.519 87.4862 192.572 87.2429 192.572ZM88.1354 192.499V191.719H88.0729V189.799H88.6004V192.499H88.1354ZM92.005 192.574C91.645 192.574 91.3384 192.496 91.085 192.339C90.8317 192.181 90.6375 191.961 90.5025 191.679C90.3692 191.398 90.3025 191.071 90.3025 190.699C90.3025 190.328 90.3692 190.001 90.5025 189.719C90.6375 189.438 90.8317 189.218 91.085 189.062C91.3384 188.903 91.645 188.824 92.005 188.824C92.3634 188.824 92.6692 188.903 92.9225 189.062C93.1775 189.218 93.3717 189.438 93.505 189.719C93.6384 190.001 93.705 190.328 93.705 190.699C93.705 191.071 93.6384 191.398 93.505 191.679C93.3717 191.961 93.1775 192.181 92.9225 192.339C92.6692 192.496 92.3634 192.574 92.005 192.574ZM92.005 192.077C92.26 192.08 92.4717 192.024 92.64 191.909C92.81 191.793 92.9375 191.631 93.0225 191.424C93.1075 191.216 93.15 190.974 93.15 190.699C93.15 190.424 93.1075 190.184 93.0225 189.979C92.9375 189.773 92.81 189.612 92.64 189.497C92.4717 189.382 92.26 189.323 92.005 189.322C91.75 189.318 91.5375 189.374 91.3675 189.489C91.1992 189.604 91.0725 189.766 90.9875 189.974C90.9025 190.183 90.8592 190.424 90.8575 190.699C90.8559 190.974 90.8975 191.215 90.9825 191.422C91.0675 191.627 91.195 191.787 91.365 191.902C91.5367 192.017 91.75 192.075 92.005 192.077ZM94.3539 192.499V188.824H94.8764V192.499H94.3539ZM96.8994 192.574C96.6294 192.574 96.3954 192.513 96.1969 192.392C95.9984 192.27 95.8454 192.103 95.7369 191.889C95.6304 191.674 95.5769 191.427 95.5769 191.147C95.5769 190.865 95.6319 190.618 95.7419 190.404C95.8519 190.189 96.0059 190.023 96.2044 189.904C96.4029 189.784 96.6344 189.724 96.8994 189.724C97.1694 189.724 97.4034 189.785 97.6019 189.907C97.8004 190.028 97.9534 190.196 98.0619 190.409C98.1704 190.623 98.2244 190.868 98.2244 191.147C98.2244 191.428 98.1694 191.677 98.0594 191.892C97.9509 192.105 97.7979 192.273 97.5994 192.394C97.4009 192.514 97.1679 192.574 96.8994 192.574ZM96.8994 192.082C97.1579 192.082 97.3504 191.995 97.4769 191.822C97.6054 191.647 97.6694 191.422 97.6694 191.147C97.6694 190.865 97.6044 190.64 97.4744 190.472C97.3459 190.302 97.1544 190.217 96.8994 190.217C96.7244 190.217 96.5804 190.257 96.4669 190.337C96.3534 190.415 96.2694 190.524 96.2144 190.664C96.1594 190.803 96.1319 190.963 96.1319 191.147C96.1319 191.43 96.1969 191.657 96.3269 191.827C96.4569 191.997 96.6479 192.082 96.8994 192.082ZM98.9239 192.499V188.824H99.4464V192.499H98.9239ZM101.059 192.574C100.859 192.574 100.692 192.538 100.557 192.464C100.422 192.389 100.319 192.291 100.249 192.169C100.181 192.046 100.147 191.911 100.147 191.764C100.147 191.628 100.171 191.508 100.219 191.404C100.268 191.301 100.339 191.213 100.434 191.142C100.529 191.068 100.646 191.009 100.784 190.964C100.904 190.929 101.04 190.898 101.192 190.872C101.344 190.845 101.503 190.82 101.669 190.797C101.838 190.773 102.004 190.75 102.169 190.727L101.979 190.832C101.983 190.62 101.938 190.463 101.844 190.362C101.753 190.258 101.594 190.207 101.369 190.207C101.228 190.207 101.098 190.24 100.979 190.307C100.861 190.372 100.779 190.48 100.732 190.632L100.244 190.482C100.311 190.25 100.438 190.066 100.624 189.929C100.813 189.793 101.063 189.724 101.374 189.724C101.616 189.724 101.826 189.766 102.004 189.849C102.184 189.931 102.316 190.061 102.399 190.239C102.443 190.328 102.469 190.421 102.479 190.519C102.489 190.618 102.494 190.723 102.494 190.837V192.499H102.032V191.882L102.122 191.962C102.01 192.168 101.868 192.323 101.694 192.424C101.523 192.524 101.311 192.574 101.059 192.574ZM101.152 192.147C101.3 192.147 101.428 192.121 101.534 192.069C101.641 192.016 101.727 191.948 101.792 191.867C101.857 191.785 101.899 191.7 101.919 191.612C101.948 191.532 101.964 191.442 101.967 191.342C101.972 191.242 101.974 191.162 101.974 191.102L102.144 191.164C101.979 191.189 101.829 191.212 101.694 191.232C101.559 191.252 101.437 191.272 101.327 191.292C101.219 191.31 101.122 191.333 101.037 191.359C100.965 191.384 100.901 191.414 100.844 191.449C100.789 191.484 100.745 191.527 100.712 191.577C100.68 191.627 100.664 191.688 100.664 191.759C100.664 191.829 100.682 191.894 100.717 191.954C100.752 192.013 100.805 192.059 100.877 192.094C100.949 192.129 101.04 192.147 101.152 192.147ZM104.316 192.574C104.064 192.574 103.847 192.512 103.664 192.387C103.482 192.262 103.341 192.092 103.241 191.877C103.143 191.66 103.094 191.417 103.094 191.147C103.094 190.875 103.144 190.633 103.244 190.419C103.344 190.204 103.485 190.035 103.669 189.912C103.854 189.787 104.073 189.724 104.326 189.724C104.581 189.724 104.795 189.787 104.969 189.912C105.144 190.035 105.275 190.204 105.364 190.419C105.454 190.634 105.499 190.877 105.499 191.147C105.499 191.417 105.454 191.659 105.364 191.874C105.274 192.089 105.141 192.26 104.966 192.387C104.791 192.512 104.574 192.574 104.316 192.574ZM104.389 192.102C104.56 192.102 104.7 192.061 104.809 191.979C104.917 191.898 104.996 191.785 105.046 191.642C105.096 191.498 105.121 191.333 105.121 191.147C105.121 190.96 105.095 190.795 105.044 190.652C104.994 190.508 104.915 190.397 104.809 190.317C104.704 190.237 104.569 190.197 104.406 190.197C104.233 190.197 104.09 190.239 103.979 190.324C103.867 190.409 103.784 190.523 103.729 190.667C103.675 190.81 103.649 190.97 103.649 191.147C103.649 191.325 103.675 191.487 103.729 191.632C103.784 191.775 103.865 191.889 103.974 191.974C104.084 192.059 104.222 192.102 104.389 192.102ZM105.121 192.499V190.557H105.061V188.899H105.586V192.499H105.121ZM107.583 192.574C107.315 192.574 107.079 192.516 106.876 192.399C106.674 192.281 106.516 192.117 106.403 191.907C106.291 191.695 106.236 191.45 106.236 191.172C106.236 190.877 106.291 190.621 106.401 190.404C106.512 190.188 106.667 190.02 106.866 189.902C107.064 189.783 107.295 189.724 107.558 189.724C107.833 189.724 108.067 189.788 108.261 189.917C108.454 190.043 108.598 190.224 108.693 190.459C108.79 190.694 108.828 190.973 108.808 191.297H108.286V191.107C108.282 190.793 108.222 190.562 108.106 190.412C107.991 190.262 107.815 190.187 107.578 190.187C107.316 190.187 107.12 190.269 106.988 190.434C106.856 190.599 106.791 190.838 106.791 191.149C106.791 191.446 106.856 191.676 106.988 191.839C107.12 192.001 107.31 192.082 107.558 192.082C107.721 192.082 107.862 192.045 107.981 191.972C108.101 191.897 108.194 191.79 108.261 191.652L108.773 191.814C108.668 192.056 108.509 192.243 108.296 192.377C108.082 192.508 107.845 192.574 107.583 192.574ZM106.621 191.297V190.889H108.548V191.297H106.621ZM110.57 192.499V188.899H111.092V190.452H112.892V188.899H113.417V192.499H112.892V190.944H111.092V192.499H110.57ZM114.982 192.574C114.782 192.574 114.615 192.538 114.48 192.464C114.345 192.389 114.242 192.291 114.172 192.169C114.104 192.046 114.07 191.911 114.07 191.764C114.07 191.628 114.094 191.508 114.142 191.404C114.191 191.301 114.262 191.213 114.357 191.142C114.452 191.068 114.569 191.009 114.707 190.964C114.827 190.929 114.963 190.898 115.115 190.872C115.266 190.845 115.426 190.82 115.592 190.797C115.761 190.773 115.927 190.75 116.092 190.727L115.902 190.832C115.906 190.62 115.861 190.463 115.767 190.362C115.676 190.258 115.517 190.207 115.292 190.207C115.151 190.207 115.021 190.24 114.902 190.307C114.784 190.372 114.701 190.48 114.655 190.632L114.167 190.482C114.234 190.25 114.361 190.066 114.547 189.929C114.736 189.793 114.986 189.724 115.297 189.724C115.539 189.724 115.749 189.766 115.927 189.849C116.107 189.931 116.239 190.061 116.322 190.239C116.366 190.328 116.392 190.421 116.402 190.519C116.412 190.618 116.417 190.723 116.417 190.837V192.499H115.955V191.882L116.045 191.962C115.933 192.168 115.791 192.323 115.617 192.424C115.446 192.524 115.234 192.574 114.982 192.574ZM115.075 192.147C115.223 192.147 115.351 192.121 115.457 192.069C115.564 192.016 115.65 191.948 115.715 191.867C115.78 191.785 115.822 191.7 115.842 191.612C115.871 191.532 115.886 191.442 115.89 191.342C115.895 191.242 115.897 191.162 115.897 191.102L116.067 191.164C115.902 191.189 115.752 191.212 115.617 191.232C115.482 191.252 115.36 191.272 115.25 191.292C115.141 191.31 115.045 191.333 114.96 191.359C114.888 191.384 114.824 191.414 114.767 191.449C114.712 191.484 114.668 191.527 114.635 191.577C114.603 191.627 114.587 191.688 114.587 191.759C114.587 191.829 114.605 191.894 114.64 191.954C114.675 192.013 114.728 192.059 114.8 192.094C114.871 192.129 114.963 192.147 115.075 192.147ZM118.199 192.572C117.871 192.572 117.603 192.499 117.396 192.354C117.19 192.209 117.063 192.005 117.016 191.742L117.551 191.659C117.585 191.799 117.661 191.91 117.781 191.992C117.903 192.072 118.054 192.112 118.234 192.112C118.397 192.112 118.525 192.078 118.616 192.012C118.71 191.945 118.756 191.853 118.756 191.737C118.756 191.668 118.74 191.613 118.706 191.572C118.675 191.528 118.607 191.488 118.504 191.449C118.401 191.411 118.243 191.363 118.031 191.307C117.8 191.247 117.616 191.183 117.479 191.114C117.344 191.044 117.247 190.963 117.189 190.872C117.132 190.778 117.104 190.666 117.104 190.534C117.104 190.371 117.147 190.228 117.234 190.107C117.321 189.985 117.442 189.891 117.599 189.824C117.757 189.758 117.942 189.724 118.154 189.724C118.361 189.724 118.545 189.757 118.706 189.822C118.868 189.887 118.999 189.979 119.099 190.099C119.199 190.218 119.259 190.357 119.279 190.517L118.744 190.614C118.726 190.484 118.665 190.382 118.561 190.307C118.458 190.232 118.324 190.191 118.159 190.184C118.001 190.178 117.872 190.204 117.774 190.264C117.676 190.323 117.626 190.403 117.626 190.507C117.626 190.567 117.645 190.618 117.681 190.659C117.72 190.701 117.793 190.741 117.901 190.779C118.01 190.818 118.17 190.863 118.381 190.917C118.608 190.975 118.788 191.04 118.921 191.112C119.055 191.182 119.15 191.266 119.206 191.364C119.265 191.461 119.294 191.578 119.294 191.717C119.294 191.983 119.196 192.193 119.001 192.344C118.808 192.496 118.541 192.572 118.199 192.572ZM120.98 192.572C120.651 192.572 120.384 192.499 120.177 192.354C119.97 192.209 119.844 192.005 119.797 191.742L120.332 191.659C120.365 191.799 120.442 191.91 120.562 191.992C120.684 192.072 120.835 192.112 121.015 192.112C121.178 192.112 121.305 192.078 121.397 192.012C121.49 191.945 121.537 191.853 121.537 191.737C121.537 191.668 121.52 191.613 121.487 191.572C121.455 191.528 121.388 191.488 121.285 191.449C121.181 191.411 121.024 191.363 120.812 191.307C120.58 191.247 120.396 191.183 120.26 191.114C120.125 191.044 120.028 190.963 119.97 190.872C119.913 190.778 119.885 190.666 119.885 190.534C119.885 190.371 119.928 190.228 120.015 190.107C120.101 189.985 120.223 189.891 120.38 189.824C120.538 189.758 120.723 189.724 120.935 189.724C121.141 189.724 121.325 189.757 121.487 189.822C121.649 189.887 121.78 189.979 121.88 190.099C121.98 190.218 122.04 190.357 122.06 190.517L121.525 190.614C121.506 190.484 121.445 190.382 121.342 190.307C121.239 190.232 121.105 190.191 120.94 190.184C120.781 190.178 120.653 190.204 120.555 190.264C120.456 190.323 120.407 190.403 120.407 190.507C120.407 190.567 120.425 190.618 120.462 190.659C120.5 190.701 120.574 190.741 120.682 190.779C120.79 190.818 120.95 190.863 121.162 190.917C121.389 190.975 121.569 191.04 121.702 191.112C121.835 191.182 121.93 191.266 121.987 191.364C122.045 191.461 122.075 191.578 122.075 191.717C122.075 191.983 121.977 192.193 121.782 192.344C121.589 192.496 121.321 192.572 120.98 192.572ZM123.49 192.574C123.29 192.574 123.123 192.538 122.988 192.464C122.853 192.389 122.75 192.291 122.68 192.169C122.612 192.046 122.578 191.911 122.578 191.764C122.578 191.628 122.602 191.508 122.65 191.404C122.699 191.301 122.77 191.213 122.865 191.142C122.96 191.068 123.077 191.009 123.215 190.964C123.335 190.929 123.471 190.898 123.623 190.872C123.774 190.845 123.934 190.82 124.1 190.797C124.269 190.773 124.435 190.75 124.6 190.727L124.41 190.832C124.414 190.62 124.369 190.463 124.275 190.362C124.184 190.258 124.025 190.207 123.8 190.207C123.659 190.207 123.529 190.24 123.41 190.307C123.292 190.372 123.209 190.48 123.163 190.632L122.675 190.482C122.742 190.25 122.869 190.066 123.055 189.929C123.244 189.793 123.494 189.724 123.805 189.724C124.047 189.724 124.257 189.766 124.435 189.849C124.615 189.931 124.747 190.061 124.83 190.239C124.874 190.328 124.9 190.421 124.91 190.519C124.92 190.618 124.925 190.723 124.925 190.837V192.499H124.463V191.882L124.553 191.962C124.441 192.168 124.299 192.323 124.125 192.424C123.954 192.524 123.742 192.574 123.49 192.574ZM123.583 192.147C123.731 192.147 123.859 192.121 123.965 192.069C124.072 192.016 124.158 191.948 124.223 191.867C124.288 191.785 124.33 191.7 124.35 191.612C124.379 191.532 124.394 191.442 124.398 191.342C124.403 191.242 124.405 191.162 124.405 191.102L124.575 191.164C124.41 191.189 124.26 191.212 124.125 191.232C123.99 191.252 123.868 191.272 123.758 191.292C123.649 191.31 123.553 191.333 123.468 191.359C123.396 191.384 123.332 191.414 123.275 191.449C123.22 191.484 123.176 191.527 123.143 191.577C123.111 191.627 123.095 191.688 123.095 191.759C123.095 191.829 123.113 191.894 123.148 191.954C123.183 192.013 123.236 192.059 123.308 192.094C123.379 192.129 123.471 192.147 123.583 192.147ZM127.569 192.499V191.172C127.569 191.067 127.56 190.959 127.542 190.849C127.525 190.738 127.492 190.634 127.442 190.539C127.394 190.444 127.324 190.368 127.234 190.309C127.146 190.251 127.03 190.222 126.887 190.222C126.794 190.222 126.705 190.238 126.622 190.269C126.539 190.299 126.465 190.348 126.402 190.417C126.34 190.485 126.291 190.575 126.254 190.687C126.219 190.798 126.202 190.934 126.202 191.094L125.877 190.972C125.877 190.727 125.923 190.511 126.014 190.324C126.106 190.136 126.238 189.989 126.409 189.884C126.581 189.779 126.789 189.727 127.032 189.727C127.219 189.727 127.375 189.757 127.502 189.817C127.629 189.877 127.731 189.956 127.809 190.054C127.889 190.151 127.95 190.257 127.992 190.372C128.034 190.487 128.062 190.599 128.077 190.709C128.092 190.819 128.099 190.916 128.099 190.999V192.499H127.569ZM125.672 192.499V189.799H126.139V190.579H126.202V192.499H125.672Z" fill="white"/>
<mask id="mask2_1235_10000" style="mask-type:luminance" maskUnits="userSpaceOnUse" x="188" y="187" width="19" height="7">
<path d="M206.5 187.5H188.5V193.5H206.5V187.5Z" fill="white"/>
</mask>
<g mask="url(#mask2_1235_10000)">
<path d="M192.25 193.295C193.778 193.295 195.017 192.056 195.017 190.528C195.017 189 193.778 187.762 192.25 187.762C190.723 187.762 189.484 189 189.484 190.528C189.484 192.056 190.723 193.295 192.25 193.295Z" fill="#EE312A"/>
<path d="M192.248 191.712C191.629 190.31 191.175 189 191.175 189H190.227C190.227 189 190.804 190.682 191.877 192.785H192.619C193.692 190.682 194.269 189 194.269 189H193.32C193.32 189 192.867 190.31 192.248 191.712Z" fill="white"/>
<path d="M205.491 191.541H203.635C203.635 191.541 203.677 192.16 204.501 192.16C204.914 192.16 205.326 192.036 205.326 192.036L205.409 192.696C205.409 192.696 204.996 192.861 204.419 192.861C203.594 192.861 202.852 192.448 202.852 191.294C202.852 190.386 203.429 189.809 204.254 189.809C205.491 189.809 205.574 191.046 205.491 191.541ZM204.213 190.386C203.677 190.386 203.635 190.964 203.635 190.964H204.79C204.79 190.964 204.749 190.386 204.213 190.386Z" fill="white"/>
<path d="M199.116 190.558L199.24 189.898C199.24 189.898 198.284 189.608 197.508 190.146V192.785H198.332V190.641C198.662 190.393 199.116 190.558 199.116 190.558Z" fill="white"/>
<path d="M196.858 191.541H195.003C195.003 191.541 195.044 192.16 195.869 192.16C196.281 192.16 196.693 192.036 196.693 192.036L196.776 192.696C196.776 192.696 196.364 192.861 195.786 192.861C194.961 192.861 194.219 192.448 194.219 191.294C194.219 190.386 194.796 189.809 195.621 189.809C196.858 189.809 196.941 191.046 196.858 191.541ZM195.58 190.386C195.044 190.386 195.003 190.964 195.003 190.964H196.157C196.157 190.964 196.116 190.386 195.58 190.386Z" fill="white"/>
<path d="M201.115 191.798C200.859 191.174 200.652 190.531 200.496 189.875H199.672C199.672 189.875 200.084 191.468 200.785 192.787H201.445C202.146 191.468 202.558 189.876 202.558 189.876H201.734C201.578 190.532 201.371 191.174 201.115 191.798Z" fill="white"/>
</g>
</g>
<path d="M44 99.75H231.5" stroke="#E6E6E6"/>
<path d="M44 99.75H137.75" stroke="#121212"/>
<path d="M77.4062 93.5981V88.5581H79.4432C79.4922 88.5581 79.5529 88.5606 79.6252 88.5651C79.6975 88.5676 79.7664 88.5746 79.8317 88.5861C80.1117 88.6306 80.345 88.7261 80.5317 88.8731C80.7207 89.0201 80.8619 89.2056 80.9552 89.4296C81.0485 89.6536 81.0952 89.9011 81.0952 90.1716C81.0952 90.4446 81.0485 90.6931 80.9552 90.9171C80.8619 91.1411 80.7207 91.3266 80.5317 91.4736C80.345 91.6206 80.1117 91.7166 79.8317 91.7606C79.7664 91.7701 79.6964 91.7771 79.6217 91.7816C79.5494 91.7866 79.4899 91.7886 79.4432 91.7886H78.1377V93.5981H77.4062ZM78.1377 91.0956H79.4152C79.4619 91.0956 79.5132 91.0936 79.5692 91.0886C79.6275 91.0841 79.6824 91.0761 79.7337 91.0641C79.883 91.0291 80.0032 90.9651 80.0942 90.8716C80.1852 90.7761 80.2505 90.6666 80.2902 90.5426C80.3299 90.4191 80.3498 90.2956 80.3498 90.1716C80.3498 90.0481 80.3299 89.9256 80.2902 89.8041C80.2505 89.6806 80.1852 89.5721 80.0942 89.4786C80.0032 89.3831 79.883 89.3176 79.7337 89.2826C79.6824 89.2686 79.6275 89.2596 79.5692 89.2546C79.5132 89.2501 79.4619 89.2476 79.4152 89.2476H78.1377V91.0956ZM84.4479 93.5981V91.7396C84.4479 91.5926 84.4351 91.4421 84.4094 91.2881C84.3861 91.1321 84.3394 90.9871 84.2694 90.8541C84.2017 90.7211 84.1049 90.6141 83.9789 90.5321C83.8553 90.4506 83.6931 90.4096 83.4924 90.4096C83.3618 90.4096 83.238 90.4321 83.1214 90.4761C83.0047 90.5181 82.9021 90.5871 82.8134 90.6826C82.7271 90.7786 82.6582 90.9046 82.6069 91.0606C82.5579 91.2171 82.5334 91.4071 82.5334 91.6311L82.0784 91.4596C82.0784 91.1166 82.1426 90.8146 82.2709 90.5531C82.3993 90.2896 82.5835 90.0841 82.8239 89.9371C83.0642 89.7901 83.3548 89.7166 83.6954 89.7166C83.9568 89.7166 84.1761 89.7586 84.3534 89.8426C84.5308 89.9266 84.6743 90.0376 84.7839 90.1751C84.8959 90.3106 84.981 90.4586 85.0394 90.6196C85.0977 90.7806 85.1374 90.9381 85.1584 91.0921C85.1794 91.2461 85.1899 91.3816 85.1899 91.4981V93.5981H84.4479ZM81.7914 93.5981V88.5581H82.4459V91.2776H82.5334V93.5981H81.7914ZM86.6125 95.2781L87.3441 93.2866L87.3545 93.8746L85.7061 89.8181H86.4691L87.701 92.9506H87.4771L88.653 89.8181H89.3951L87.309 95.2781H86.6125ZM91.3889 93.6996C90.9292 93.6996 90.5547 93.5981 90.2654 93.3951C89.976 93.1921 89.7987 92.9066 89.7333 92.5376L90.4823 92.4221C90.529 92.6181 90.6363 92.7736 90.8043 92.8876C90.9747 92.9996 91.1859 93.0556 91.4379 93.0556C91.6665 93.0556 91.845 93.0091 91.9734 92.9156C92.104 92.8226 92.1693 92.6941 92.1693 92.5306C92.1693 92.4351 92.146 92.3581 92.0993 92.2996C92.055 92.2391 91.9605 92.1821 91.8158 92.1281C91.6712 92.0746 91.4507 92.0081 91.1544 91.9286C90.83 91.8446 90.5722 91.7551 90.3808 91.6591C90.1918 91.5611 90.0565 91.4481 89.9748 91.3196C89.8955 91.1891 89.8559 91.0316 89.8559 90.8471C89.8559 90.6186 89.9165 90.4191 90.0378 90.2486C90.1592 90.0786 90.3295 89.9466 90.5489 89.8531C90.7705 89.7601 91.0295 89.7131 91.3258 89.7131C91.6152 89.7131 91.873 89.7586 92.0993 89.8496C92.3257 89.9406 92.5088 90.0701 92.6488 90.2381C92.7888 90.4041 92.8728 90.5986 92.9008 90.8226L92.1518 90.9591C92.1262 90.7771 92.041 90.6336 91.8964 90.5286C91.7517 90.4236 91.5638 90.3666 91.3328 90.3571C91.1112 90.3481 90.9315 90.3851 90.7938 90.4691C90.6562 90.5511 90.5873 90.6641 90.5873 90.8086C90.5873 90.8926 90.613 90.9641 90.6643 91.0221C90.718 91.0806 90.8207 91.1366 90.9724 91.1901C91.124 91.2441 91.348 91.3081 91.6443 91.3826C91.9617 91.4646 92.2137 91.5556 92.4003 91.6556C92.587 91.7536 92.72 91.8716 92.7994 92.0091C92.881 92.1446 92.9218 92.3091 92.9218 92.5026C92.9218 92.8761 92.7853 93.1691 92.5123 93.3811C92.2417 93.5936 91.8672 93.6996 91.3889 93.6996ZM93.7663 89.1986V88.4881H94.4978V89.1986H93.7663ZM93.7663 93.5981V89.8181H94.4978V93.5981H93.7663ZM97.1658 93.7031C96.7783 93.7031 96.4493 93.6171 96.1788 93.4441C95.9083 93.2716 95.7003 93.0346 95.5558 92.7336C95.4133 92.4326 95.3413 92.0911 95.3388 91.7081C95.3413 91.3186 95.4158 90.9746 95.5628 90.6756C95.7098 90.3746 95.9198 90.1391 96.1928 89.9686C96.4658 89.7986 96.7938 89.7131 97.1763 89.7131C97.5893 89.7131 97.9418 89.8161 98.2333 90.0211C98.5273 90.2266 98.7208 90.5076 98.8143 90.8646L98.0863 91.0746C98.0138 90.8626 97.8948 90.6981 97.7293 90.5811C97.5658 90.4621 97.3783 90.4026 97.1658 90.4026C96.9253 90.4026 96.7283 90.4601 96.5743 90.5741C96.4203 90.6861 96.3058 90.8401 96.2313 91.0361C96.1568 91.2321 96.1183 91.4561 96.1158 91.7081C96.1183 92.0981 96.2068 92.4131 96.3818 92.6531C96.5593 92.8936 96.8203 93.0136 97.1658 93.0136C97.4013 93.0136 97.5918 92.9601 97.7363 92.8526C97.8833 92.7431 97.9953 92.5866 98.0723 92.3836L98.8143 92.5586C98.6908 92.9276 98.4863 93.2111 98.2018 93.4091C97.9173 93.6051 97.5718 93.7031 97.1658 93.7031ZM100.547 93.7031C100.267 93.7031 100.032 93.6521 99.8433 93.5491C99.6543 93.4441 99.5108 93.3066 99.4128 93.1361C99.3173 92.9636 99.2693 92.7746 99.2693 92.5691C99.2693 92.3781 99.3033 92.2101 99.3708 92.0651C99.4388 91.9206 99.5388 91.7981 99.6718 91.6976C99.8048 91.5951 99.9683 91.5121 100.162 91.4491C100.33 91.4001 100.52 91.3571 100.732 91.3196C100.945 91.2826 101.168 91.2476 101.401 91.2146C101.637 91.1821 101.87 91.1496 102.101 91.1166L101.835 91.2636C101.84 90.9676 101.777 90.7481 101.646 90.6056C101.518 90.4611 101.296 90.3886 100.981 90.3886C100.783 90.3886 100.601 90.4356 100.435 90.5286C100.269 90.6196 100.154 90.7716 100.088 90.9836L99.4058 90.7736C99.4993 90.4496 99.6768 90.1916 99.9378 90.0001C100.202 89.8091 100.552 89.7131 100.988 89.7131C101.326 89.7131 101.62 89.7716 101.87 89.8881C102.122 90.0026 102.306 90.1846 102.423 90.4341C102.484 90.5581 102.521 90.6886 102.535 90.8261C102.549 90.9641 102.556 91.1121 102.556 91.2706V93.5981H101.908V92.7336L102.034 92.8456C101.878 93.1351 101.679 93.3511 101.436 93.4931C101.196 93.6331 100.899 93.7031 100.547 93.7031ZM100.676 93.1046C100.884 93.1046 101.063 93.0686 101.212 92.9961C101.361 92.9216 101.481 92.8271 101.572 92.7126C101.663 92.5986 101.723 92.4796 101.751 92.3556C101.791 92.2436 101.813 92.1176 101.817 91.9776C101.824 91.8376 101.828 91.7256 101.828 91.6416L102.066 91.7291C101.835 91.7641 101.625 91.7956 101.436 91.8236C101.247 91.8516 101.075 91.8796 100.921 91.9076C100.77 91.9336 100.634 91.9651 100.515 92.0021C100.415 92.0371 100.325 92.0791 100.246 92.1281C100.169 92.1771 100.107 92.2366 100.06 92.3066C100.016 92.3766 99.9938 92.4621 99.9938 92.5621C99.9938 92.6601 100.018 92.7511 100.067 92.8351C100.116 92.9171 100.191 92.9821 100.291 93.0311C100.392 93.0801 100.52 93.1046 100.676 93.1046ZM103.535 93.5981V88.4531H104.266V93.5981H103.535Z" fill="#121212"/>
<path d="M175.687 93.5981L174 88.5581H174.648L176.114 92.9366L177.594 88.5581H178.242L176.555 93.5981H175.687ZM178.702 89.1496V88.5056H179.325V89.1496H178.702ZM178.702 93.5981V89.8181H179.325V93.5981H178.702ZM180.375 93.5981V89.8181H180.932V90.7316L180.841 90.6126C180.885 90.4961 180.942 90.3886 181.012 90.2906C181.084 90.1926 181.165 90.1121 181.254 90.0491C181.352 89.9701 181.462 89.9091 181.586 89.8671C181.709 89.8251 181.836 89.8006 181.964 89.7936C182.092 89.7846 182.213 89.7926 182.325 89.8181V90.4026C182.194 90.3676 182.05 90.3586 181.894 90.3746C181.737 90.3911 181.593 90.4481 181.46 90.5461C181.339 90.6326 181.244 90.7376 181.176 90.8611C181.111 90.9851 181.066 91.1191 181.04 91.2636C181.014 91.4061 181.002 91.5521 181.002 91.7011V93.5981H180.375ZM185.096 93.5981C184.872 93.6426 184.651 93.6601 184.432 93.6506C184.215 93.6436 184.021 93.6006 183.851 93.5211C183.681 93.4396 183.551 93.3136 183.462 93.1431C183.388 92.9941 183.347 92.8436 183.34 92.6916C183.335 92.5376 183.333 92.3641 183.333 92.1701V88.7681H183.956V92.1421C183.956 92.2961 183.957 92.4281 183.959 92.5376C183.964 92.6476 183.989 92.7421 184.033 92.8211C184.117 92.9706 184.25 93.0581 184.432 93.0836C184.616 93.1096 184.837 93.1026 185.096 93.0626V93.5981ZM182.566 90.3326V89.8181H185.096V90.3326H182.566ZM187.299 93.6961C187.056 93.6961 186.848 93.6576 186.673 93.5806C186.5 93.5036 186.357 93.4011 186.242 93.2726C186.128 93.1446 186.038 93.0021 185.973 92.8456C185.907 92.6896 185.861 92.5296 185.833 92.3661C185.807 92.2031 185.794 92.0501 185.794 91.9076V89.8181H186.424V91.7116C186.424 91.8891 186.441 92.0606 186.473 92.2261C186.506 92.3921 186.56 92.5411 186.637 92.6741C186.717 92.8071 186.822 92.9121 186.953 92.9891C187.086 93.0661 187.251 93.1046 187.45 93.1046C187.606 93.1046 187.748 93.0781 187.877 93.0241C188.005 92.9706 188.115 92.8911 188.206 92.7861C188.297 92.6791 188.366 92.5436 188.415 92.3801C188.464 92.2171 188.489 92.0266 188.489 91.8096L188.899 91.9356C188.899 92.2996 188.832 92.6136 188.699 92.8771C188.569 93.1411 188.383 93.3441 188.143 93.4861C187.905 93.6261 187.623 93.6961 187.299 93.6961ZM188.559 93.5981V92.5866H188.489V89.8181H189.116V93.5981H188.559ZM191.17 93.7031C190.888 93.7031 190.651 93.6521 190.46 93.5491C190.271 93.4441 190.127 93.3066 190.029 93.1361C189.934 92.9661 189.885 92.7791 189.885 92.5761C189.885 92.3781 189.923 92.2066 189.997 92.0616C190.074 91.9146 190.182 91.7936 190.32 91.6976C190.457 91.5996 190.622 91.5226 190.813 91.4666C190.993 91.4176 191.194 91.3756 191.415 91.3406C191.639 91.3036 191.866 91.2696 192.094 91.2391C192.323 91.2091 192.536 91.1796 192.734 91.1516L192.511 91.2811C192.518 90.9451 192.45 90.6966 192.308 90.5356C192.168 90.3746 191.925 90.2941 191.58 90.2941C191.351 90.2941 191.15 90.3466 190.978 90.4516C190.807 90.5546 190.687 90.7226 190.617 90.9556L190.025 90.7771C190.116 90.4461 190.293 90.1856 190.554 89.9966C190.816 89.8076 191.16 89.7131 191.587 89.7131C191.93 89.7131 192.224 89.7751 192.469 89.8986C192.716 90.0201 192.893 90.2046 193.001 90.4516C193.054 90.5686 193.088 90.6956 193.102 90.8331C193.116 90.9686 193.123 91.1111 193.123 91.2601V93.5981H192.57V92.6916L192.7 92.7756C192.557 93.0816 192.358 93.3126 192.101 93.4686C191.847 93.6251 191.537 93.7031 191.17 93.7031ZM191.265 93.1816C191.489 93.1816 191.682 93.1421 191.846 93.0626C192.011 92.9811 192.144 92.8751 192.245 92.7441C192.345 92.6111 192.41 92.4666 192.441 92.3101C192.476 92.1936 192.494 92.0641 192.497 91.9216C192.501 91.7771 192.504 91.6661 192.504 91.5891L192.721 91.6836C192.518 91.7116 192.318 91.7386 192.122 91.7641C191.926 91.7901 191.741 91.8181 191.566 91.8481C191.391 91.8761 191.233 91.9101 191.093 91.9496C190.991 91.9826 190.894 92.0246 190.803 92.0756C190.714 92.1271 190.642 92.1936 190.586 92.2751C190.532 92.3546 190.505 92.4536 190.505 92.5726C190.505 92.6756 190.531 92.7736 190.582 92.8666C190.636 92.9601 190.718 93.0361 190.827 93.0941C190.939 93.1526 191.085 93.1816 191.265 93.1816ZM194.103 93.5981V88.4531H194.726V93.5981H194.103Z" fill="#9CA3AF"/>
<path d="M68.6798 222.067C68.6179 222.067 68.5561 222.045 68.5072 221.996C68.2402 221.729 68.0938 221.374 68.0938 220.999C68.0938 220.221 68.7255 219.59 69.5037 219.59C69.8781 219.59 70.233 219.736 70.5 220.003C70.5456 220.049 70.5717 220.111 70.5717 220.176C70.5717 220.241 70.5456 220.303 70.5 220.348L68.8524 221.996C68.8035 222.045 68.7417 222.067 68.6798 222.067ZM69.5037 220.078C68.9957 220.078 68.5822 220.492 68.5822 220.999C68.5822 221.162 68.6245 221.319 68.7027 221.455L69.9595 220.198C69.8228 220.12 69.6665 220.078 69.5037 220.078Z" fill="#F9956B"/>
<path d="M67.4167 223.123C67.3613 223.123 67.3027 223.103 67.2571 223.064C66.9087 222.768 66.5961 222.403 66.3291 221.98C65.984 221.443 65.984 220.567 66.3291 220.026C67.1236 218.783 68.2795 218.066 69.5006 218.066C70.2169 218.066 70.9235 218.314 71.5422 218.779C71.6496 218.861 71.6724 219.014 71.591 219.121C71.5096 219.229 71.3566 219.251 71.2491 219.17C70.7151 218.766 70.1095 218.555 69.5006 218.555C68.4489 218.555 67.4427 219.186 66.7394 220.29C66.4952 220.671 66.4952 221.335 66.7394 221.716C66.9836 222.097 67.2636 222.426 67.573 222.693C67.6739 222.781 67.6869 222.934 67.599 223.038C67.5534 223.094 67.4851 223.123 67.4167 223.123Z" fill="#F9956B"/>
<path d="M69.5064 223.94C69.0733 223.94 68.6501 223.852 68.243 223.679C68.1193 223.627 68.0607 223.484 68.1128 223.36C68.1649 223.236 68.3082 223.178 68.4319 223.23C68.777 223.376 69.1385 223.451 69.5031 223.451C70.5549 223.451 71.561 222.82 72.2643 221.716C72.5085 221.335 72.5085 220.671 72.2643 220.29C72.1634 220.13 72.0527 219.977 71.9355 219.834C71.8508 219.73 71.8671 219.577 71.9713 219.489C72.0755 219.404 72.2285 219.417 72.3164 219.525C72.4434 219.681 72.5671 219.85 72.6778 220.026C73.023 220.563 73.023 221.439 72.6778 221.98C71.8834 223.223 70.7274 223.94 69.5064 223.94Z" fill="#F9956B"/>
<path d="M69.7221 222.388C69.6081 222.388 69.5039 222.307 69.4811 222.19C69.4551 222.056 69.543 221.929 69.6765 221.906C70.0346 221.841 70.3342 221.542 70.3993 221.184C70.4254 221.05 70.5524 220.965 70.6859 220.988C70.8194 221.014 70.9073 221.141 70.8812 221.275C70.777 221.838 70.3277 222.284 69.7676 222.388C69.7514 222.385 69.7383 222.388 69.7221 222.388Z" fill="#F9956B"/>
<path d="M66.2434 224.498C66.1815 224.498 66.1197 224.475 66.0708 224.426C65.9764 224.332 65.9764 224.175 66.0708 224.081L68.5031 221.649C68.5975 221.554 68.7538 221.554 68.8482 221.649C68.9427 221.743 68.9427 221.9 68.8482 221.994L66.416 224.426C66.3671 224.475 66.3052 224.498 66.2434 224.498Z" fill="#F9956B"/>
<path d="M70.3215 220.42C70.2597 220.42 70.1978 220.397 70.149 220.348C70.0545 220.254 70.0545 220.097 70.149 220.003L72.5813 217.571C72.6757 217.476 72.832 217.476 72.9264 217.571C73.0208 217.665 73.0208 217.821 72.9264 217.916L70.4941 220.348C70.4453 220.397 70.3834 220.42 70.3215 220.42Z" fill="#F9956B"/>
<path d="M77.4858 223.59C77.1758 223.59 76.8958 223.537 76.6458 223.431C76.3978 223.323 76.1927 223.17 76.0307 222.972C75.8707 222.772 75.7668 222.535 75.7188 222.261L76.3728 222.162C76.4388 222.426 76.5767 222.632 76.7867 222.78C76.9967 222.926 77.2417 222.999 77.5217 222.999C77.6957 222.999 77.8557 222.972 78.0017 222.918C78.1477 222.862 78.2648 222.783 78.3528 222.681C78.4428 222.577 78.4877 222.453 78.4877 222.309C78.4877 222.231 78.4737 222.162 78.4457 222.102C78.4197 222.042 78.3827 221.99 78.3347 221.946C78.2887 221.9 78.2318 221.861 78.1638 221.829C78.0978 221.795 78.0247 221.766 77.9447 221.742L76.8378 221.415C76.7298 221.383 76.6197 221.342 76.5077 221.292C76.3957 221.24 76.2928 221.173 76.1988 221.091C76.1068 221.007 76.0318 220.904 75.9738 220.782C75.9158 220.658 75.8867 220.508 75.8867 220.332C75.8867 220.066 75.9547 219.841 76.0907 219.657C76.2287 219.471 76.4147 219.331 76.6487 219.237C76.8827 219.141 77.1448 219.093 77.4348 219.093C77.7268 219.097 77.9877 219.149 78.2177 219.249C78.4497 219.349 78.6417 219.493 78.7937 219.681C78.9477 219.867 79.0537 220.093 79.1117 220.359L78.4397 220.473C78.4097 220.311 78.3458 220.172 78.2478 220.056C78.1498 219.938 78.0298 219.848 77.8878 219.786C77.7458 219.722 77.5917 219.689 77.4257 219.687C77.2657 219.683 77.1188 219.707 76.9848 219.759C76.8528 219.811 76.7467 219.884 76.6667 219.978C76.5887 220.072 76.5497 220.18 76.5497 220.302C76.5497 220.422 76.5847 220.519 76.6547 220.593C76.7247 220.667 76.8107 220.726 76.9127 220.77C77.0167 220.812 77.1198 220.847 77.2218 220.875L78.0198 221.1C78.1198 221.128 78.2328 221.166 78.3588 221.214C78.4868 221.26 78.6098 221.325 78.7278 221.409C78.8478 221.493 78.9468 221.605 79.0248 221.745C79.1028 221.883 79.1417 222.057 79.1417 222.267C79.1417 222.485 79.0977 222.677 79.0097 222.843C78.9217 223.007 78.8007 223.145 78.6467 223.257C78.4947 223.367 78.3187 223.45 78.1187 223.506C77.9187 223.562 77.7078 223.59 77.4858 223.59ZM81.9951 223.5V221.907C81.9951 221.781 81.9841 221.652 81.9621 221.52C81.9421 221.386 81.9021 221.262 81.8421 221.148C81.7841 221.034 81.7011 220.942 81.5931 220.872C81.4871 220.802 81.3481 220.767 81.1761 220.767C81.0641 220.767 80.9581 220.786 80.8581 220.824C80.7581 220.86 80.6701 220.919 80.5941 221.001C80.5201 221.083 80.4611 221.191 80.4171 221.325C80.3751 221.459 80.3541 221.622 80.3541 221.814L79.9641 221.667C79.9641 221.373 80.0191 221.114 80.1291 220.89C80.2391 220.664 80.3971 220.488 80.6031 220.362C80.8091 220.236 81.0581 220.173 81.3501 220.173C81.5741 220.173 81.7621 220.209 81.9141 220.281C82.0661 220.353 82.1891 220.448 82.2831 220.566C82.3791 220.682 82.4521 220.809 82.5021 220.947C82.5521 221.085 82.5861 221.22 82.6041 221.352C82.6221 221.484 82.6311 221.6 82.6311 221.7V223.5H81.9951ZM79.7181 223.5V219.18H80.2791V221.511H80.3541V223.5H79.7181ZM84.7595 223.59C84.4355 223.59 84.1545 223.517 83.9165 223.371C83.6785 223.225 83.4945 223.024 83.3645 222.768C83.2365 222.51 83.1725 222.213 83.1725 221.877C83.1725 221.539 83.2385 221.242 83.3705 220.986C83.5025 220.728 83.6875 220.528 83.9255 220.386C84.1635 220.242 84.4415 220.17 84.7595 220.17C85.0835 220.17 85.3645 220.243 85.6025 220.389C85.8405 220.535 86.0245 220.736 86.1545 220.992C86.2845 221.248 86.3495 221.543 86.3495 221.877C86.3495 222.215 86.2835 222.513 86.1515 222.771C86.0215 223.027 85.8375 223.228 85.5995 223.374C85.3615 223.518 85.0815 223.59 84.7595 223.59ZM84.7595 222.999C85.0695 222.999 85.3005 222.895 85.4525 222.687C85.6065 222.477 85.6835 222.207 85.6835 221.877C85.6835 221.539 85.6055 221.269 85.4495 221.067C85.2955 220.863 85.0655 220.761 84.7595 220.761C84.5495 220.761 84.3765 220.809 84.2405 220.905C84.1045 220.999 84.0035 221.13 83.9375 221.298C83.8715 221.464 83.8385 221.657 83.8385 221.877C83.8385 222.217 83.9165 222.489 84.0725 222.693C84.2285 222.897 84.4575 222.999 84.7595 222.999ZM87.5216 223.5L86.5315 220.257L87.1526 220.26L87.8305 222.483L88.5146 220.26H89.0545L89.7386 222.483L90.4166 220.26H91.0346L90.0445 223.5H89.5405L88.7846 221.154L88.0255 223.5H87.5216ZM93.94 223.59C93.638 223.59 93.3769 223.515 93.1569 223.365C92.939 223.215 92.77 223.011 92.65 222.753C92.532 222.493 92.473 222.201 92.473 221.877C92.473 221.551 92.5329 221.26 92.6529 221.004C92.7729 220.746 92.943 220.543 93.163 220.395C93.385 220.245 93.648 220.17 93.952 220.17C94.2578 220.17 94.5147 220.245 94.7227 220.395C94.9327 220.543 95.0907 220.746 95.1967 221.004C95.3047 221.262 95.3588 221.553 95.3588 221.877C95.3588 222.201 95.3047 222.492 95.1967 222.75C95.0887 223.008 94.9298 223.213 94.7198 223.365C94.5098 223.515 94.2498 223.59 93.94 223.59ZM94.0268 223.023C94.2328 223.023 94.4007 222.974 94.5307 222.876C94.6607 222.778 94.7558 222.643 94.8158 222.471C94.8758 222.299 94.9057 222.101 94.9057 221.877C94.9057 221.653 94.8747 221.455 94.8127 221.283C94.7527 221.111 94.6587 220.977 94.5307 220.881C94.4047 220.785 94.2438 220.737 94.0478 220.737C93.84 220.737 93.6689 220.788 93.5349 220.89C93.4009 220.992 93.3009 221.129 93.2349 221.301C93.1709 221.473 93.1389 221.665 93.1389 221.877C93.1389 222.091 93.1709 222.285 93.2349 222.459C93.3009 222.631 93.399 222.768 93.529 222.87C93.661 222.972 93.827 223.023 94.0268 223.023ZM94.9057 223.5V221.169H94.8337V219.18H95.4638V223.5H94.9057ZM97.6803 223.59C97.3583 223.59 97.0753 223.52 96.8313 223.38C96.5893 223.238 96.4002 223.041 96.2642 222.789C96.1302 222.535 96.0632 222.241 96.0632 221.907C96.0632 221.553 96.1293 221.246 96.2613 220.986C96.3953 220.726 96.5813 220.525 96.8193 220.383C97.0573 220.241 97.3343 220.17 97.6503 220.17C97.9803 220.17 98.2612 220.247 98.4932 220.401C98.7252 220.553 98.8983 220.77 99.0123 221.052C99.1283 221.334 99.1743 221.669 99.1503 222.057H98.5232V221.829C98.5192 221.453 98.4472 221.175 98.3072 220.995C98.1692 220.815 97.9582 220.725 97.6742 220.725C97.3602 220.725 97.1242 220.824 96.9662 221.022C96.8082 221.22 96.7292 221.506 96.7292 221.88C96.7292 222.236 96.8082 222.512 96.9662 222.708C97.1242 222.902 97.3523 222.999 97.6503 222.999C97.8463 222.999 98.0153 222.955 98.1573 222.867C98.3013 222.777 98.4132 222.649 98.4932 222.483L99.1083 222.678C98.9823 222.968 98.7912 223.193 98.5352 223.353C98.2792 223.511 97.9943 223.59 97.6803 223.59ZM96.5253 222.057V221.568H98.8383V222.057H96.5253ZM101.617 223.5C101.413 223.54 101.213 223.557 101.017 223.551C100.821 223.545 100.646 223.507 100.492 223.437C100.338 223.367 100.222 223.257 100.144 223.107C100.074 222.973 100.036 222.837 100.03 222.699C100.026 222.559 100.024 222.401 100.024 222.225V219.36H100.654V222.195C100.654 222.325 100.655 222.438 100.657 222.534C100.661 222.63 100.682 222.711 100.72 222.777C100.792 222.901 100.906 222.972 101.062 222.99C101.22 223.006 101.405 222.999 101.617 222.969V223.5ZM99.4032 220.764V220.26H101.617V220.764H99.4032ZM103.156 223.59C102.916 223.59 102.715 223.546 102.553 223.458C102.391 223.368 102.268 223.25 102.184 223.104C102.102 222.956 102.061 222.794 102.061 222.618C102.061 222.454 102.09 222.31 102.148 222.186C102.206 222.062 102.292 221.957 102.406 221.871C102.52 221.783 102.66 221.712 102.826 221.658C102.97 221.616 103.133 221.579 103.315 221.547C103.497 221.515 103.688 221.485 103.888 221.457C104.09 221.429 104.29 221.401 104.488 221.373L104.26 221.499C104.264 221.245 104.21 221.057 104.098 220.935C103.988 220.811 103.798 220.749 103.528 220.749C103.358 220.749 103.202 220.789 103.06 220.869C102.918 220.947 102.819 221.077 102.763 221.259L102.178 221.079C102.258 220.801 102.41 220.58 102.634 220.416C102.86 220.252 103.16 220.17 103.534 220.17C103.824 220.17 104.076 220.22 104.29 220.32C104.506 220.418 104.664 220.574 104.764 220.788C104.816 220.894 104.848 221.006 104.86 221.124C104.872 221.242 104.878 221.369 104.878 221.505V223.5H104.323V222.759L104.431 222.855C104.297 223.103 104.126 223.288 103.918 223.41C103.712 223.53 103.458 223.59 103.156 223.59ZM103.267 223.077C103.445 223.077 103.598 223.046 103.726 222.984C103.854 222.92 103.957 222.839 104.035 222.741C104.113 222.643 104.164 222.541 104.188 222.435C104.222 222.339 104.241 222.231 104.245 222.111C104.251 221.991 104.254 221.895 104.254 221.823L104.458 221.898C104.26 221.928 104.08 221.955 103.918 221.979C103.756 222.003 103.609 222.027 103.477 222.051C103.347 222.073 103.231 222.1 103.129 222.132C103.043 222.162 102.966 222.198 102.898 222.24C102.832 222.282 102.779 222.333 102.739 222.393C102.701 222.453 102.682 222.526 102.682 222.612C102.682 222.696 102.703 222.774 102.745 222.846C102.787 222.916 102.851 222.972 102.937 223.014C103.023 223.056 103.133 223.077 103.267 223.077ZM105.657 219.729V219.12H106.284V219.729H105.657ZM105.657 223.5V220.26H106.284V223.5H105.657ZM107.184 223.5V219.09H107.811V223.5H107.184ZM109.891 223.587C109.497 223.587 109.176 223.5 108.928 223.326C108.68 223.152 108.528 222.907 108.472 222.591L109.114 222.492C109.154 222.66 109.246 222.793 109.39 222.891C109.536 222.987 109.717 223.035 109.933 223.035C110.129 223.035 110.282 222.995 110.392 222.915C110.504 222.835 110.56 222.725 110.56 222.585C110.56 222.503 110.54 222.437 110.5 222.387C110.462 222.335 110.381 222.286 110.257 222.24C110.133 222.194 109.944 222.137 109.69 222.069C109.412 221.997 109.191 221.92 109.027 221.838C108.865 221.754 108.749 221.657 108.679 221.547C108.611 221.435 108.577 221.3 108.577 221.142C108.577 220.946 108.629 220.775 108.733 220.629C108.837 220.483 108.983 220.37 109.171 220.29C109.361 220.21 109.583 220.17 109.837 220.17C110.085 220.17 110.306 220.209 110.5 220.287C110.694 220.365 110.851 220.476 110.971 220.62C111.091 220.762 111.163 220.929 111.187 221.121L110.545 221.238C110.523 221.082 110.45 220.959 110.326 220.869C110.202 220.779 110.041 220.73 109.843 220.722C109.653 220.714 109.499 220.746 109.381 220.818C109.263 220.888 109.204 220.985 109.204 221.109C109.204 221.181 109.226 221.242 109.27 221.292C109.316 221.342 109.404 221.39 109.534 221.436C109.664 221.482 109.856 221.537 110.11 221.601C110.382 221.671 110.598 221.749 110.758 221.835C110.918 221.919 111.032 222.02 111.1 222.138C111.17 222.254 111.205 222.395 111.205 222.561C111.205 222.881 111.088 223.132 110.854 223.314C110.622 223.496 110.301 223.587 109.891 223.587Z" fill="#F9956B"/>
<path d="M186.669 223.34C186.239 223.34 185.876 223.245 185.58 223.055C185.284 222.863 185.06 222.598 184.908 222.26C184.756 221.922 184.68 221.532 184.68 221.09C184.68 220.648 184.756 220.258 184.908 219.92C185.06 219.582 185.284 219.318 185.58 219.128C185.876 218.936 186.239 218.84 186.669 218.84C187.171 218.84 187.581 218.969 187.899 219.227C188.217 219.483 188.435 219.827 188.553 220.259L188.103 220.376C188.011 220.034 187.846 219.763 187.608 219.563C187.37 219.363 187.057 219.263 186.669 219.263C186.331 219.263 186.05 219.34 185.826 219.494C185.602 219.648 185.433 219.863 185.319 220.139C185.207 220.413 185.149 220.73 185.145 221.09C185.143 221.45 185.198 221.767 185.31 222.041C185.424 222.315 185.594 222.53 185.82 222.686C186.048 222.84 186.331 222.917 186.669 222.917C187.057 222.917 187.37 222.817 187.608 222.617C187.846 222.415 188.011 222.144 188.103 221.804L188.553 221.921C188.435 222.353 188.217 222.698 187.899 222.956C187.581 223.212 187.171 223.34 186.669 223.34ZM190.195 223.25L188.707 218.93H189.166L190.483 222.749L191.809 218.93H192.268L190.78 223.25H190.195ZM193.817 223.25L192.329 218.93H192.788L194.105 222.749L195.431 218.93H195.89L194.402 223.25H193.817Z" fill="#999999"/>
<path d="M202.328 222.464L201.935 222.179L202.4 221.594L201.68 221.384L201.83 220.922L202.532 221.183L202.505 220.43H202.991L202.964 221.183L203.666 220.922L203.816 221.384L203.096 221.594L203.558 222.179L203.165 222.464L202.748 221.846L202.328 222.464ZM205.005 222.464L204.612 222.179L205.077 221.594L204.357 221.384L204.507 220.922L205.209 221.183L205.182 220.43H205.668L205.641 221.183L206.343 220.922L206.493 221.384L205.773 221.594L206.235 222.179L205.842 222.464L205.425 221.846L205.005 222.464ZM207.683 222.464L207.29 222.179L207.755 221.594L207.035 221.384L207.185 220.922L207.887 221.183L207.86 220.43H208.346L208.319 221.183L209.021 220.922L209.171 221.384L208.451 221.594L208.913 222.179L208.52 222.464L208.103 221.846L207.683 222.464Z" fill="#333333"/>
<path d="M217.25 236H58.25C56.0409 236 54.25 237.791 54.25 240V262.5C54.25 264.709 56.0409 266.5 58.25 266.5H217.25C219.459 266.5 221.25 264.709 221.25 262.5V240C221.25 237.791 219.459 236 217.25 236Z" fill="#FAFAFA"/>
<path d="M68.25 256.25C67.5584 256.25 66.9083 256.119 66.3 255.856C65.6916 255.594 65.1625 255.237 64.7125 254.788C64.2625 254.338 63.9063 253.808 63.644 253.2C63.3816 252.591 63.2503 251.941 63.25 251.25C63.25 250.558 63.3813 249.909 63.644 249.3C63.9066 248.692 64.2628 248.162 64.7125 247.712C65.1625 247.262 65.6916 246.906 66.3 246.644C66.9083 246.381 67.5584 246.25 68.25 246.25C68.9416 246.25 69.5917 246.381 70.2 246.644C70.8084 246.906 71.3375 247.263 71.7875 247.712C72.2375 248.162 72.5939 248.692 72.8565 249.3C73.1192 249.909 73.2503 250.558 73.25 251.25C73.25 251.941 73.1187 252.591 72.856 253.2C72.5934 253.808 72.2372 254.338 71.7875 254.788C71.3375 255.238 70.8084 255.594 70.2 255.857C69.5917 256.119 68.9416 256.25 68.25 256.25ZM68.25 255.25C69.3666 255.25 70.3125 254.862 71.0875 254.087C71.8625 253.312 72.25 252.366 72.25 251.25C72.25 250.8 72.177 250.366 72.031 249.95C71.885 249.533 71.6746 249.15 71.4 248.8L65.8 254.4C66.15 254.675 66.5334 254.885 66.95 255.031C67.3667 255.177 67.8 255.25 68.25 255.25ZM65.1 253.7L70.7 248.1C70.35 247.825 69.9666 247.614 69.55 247.469C69.1333 247.323 68.7 247.25 68.25 247.25C67.1334 247.25 66.1875 247.638 65.4125 248.413C64.6375 249.188 64.25 250.133 64.25 251.25C64.25 251.7 64.3229 252.134 64.4685 252.55C64.6142 252.967 64.8247 253.35 65.1 253.7Z" fill="#FF0000"/>
<path d="M78.7422 254V248.96H80.7232C81.0428 248.96 81.3112 249.026 81.5282 249.156C81.7452 249.287 81.9085 249.456 82.0182 249.664C82.1278 249.869 82.1827 250.086 82.1827 250.315C82.1827 250.592 82.1138 250.83 81.9762 251.029C81.8408 251.227 81.6577 251.362 81.4267 251.435L81.4197 251.263C81.7417 251.343 81.989 251.498 82.1617 251.729C82.3343 251.957 82.4207 252.225 82.4207 252.53C82.4207 252.827 82.3612 253.084 82.2422 253.304C82.1255 253.523 81.954 253.695 81.7277 253.818C81.5037 253.94 81.2318 254 80.9122 254H78.7422ZM79.4842 253.304H80.8002C80.9658 253.304 81.114 253.272 81.2447 253.209C81.3777 253.146 81.4815 253.056 81.5562 252.94C81.6332 252.821 81.6717 252.68 81.6717 252.516C81.6717 252.365 81.6378 252.228 81.5702 252.107C81.5048 251.983 81.4092 251.886 81.2832 251.816C81.1595 251.744 81.0137 251.708 80.8457 251.708H79.4842V253.304ZM79.4842 251.018H80.7127C80.848 251.018 80.9693 250.991 81.0767 250.938C81.1863 250.882 81.2727 250.802 81.3357 250.7C81.401 250.595 81.4337 250.469 81.4337 250.322C81.4337 250.126 81.3683 249.965 81.2377 249.839C81.107 249.713 80.932 249.65 80.7127 249.65H79.4842V251.018ZM83.1872 254V248.855H83.9187V254H83.1872ZM86.6112 254.105C86.2332 254.105 85.9054 254.02 85.6277 253.85C85.35 253.679 85.1354 253.445 84.9837 253.146C84.8344 252.845 84.7597 252.499 84.7597 252.107C84.7597 251.712 84.8367 251.366 84.9907 251.067C85.1447 250.766 85.3605 250.533 85.6382 250.367C85.9159 250.199 86.2402 250.115 86.6112 250.115C86.9892 250.115 87.317 250.2 87.5947 250.371C87.8724 250.541 88.087 250.776 88.2387 251.074C88.3904 251.373 88.4662 251.717 88.4662 252.107C88.4662 252.501 88.3892 252.849 88.2352 253.15C88.0835 253.448 87.8689 253.683 87.5912 253.853C87.3135 254.021 86.9869 254.105 86.6112 254.105ZM86.6112 253.416C86.9729 253.416 87.2424 253.294 87.4197 253.052C87.5994 252.807 87.6892 252.492 87.6892 252.107C87.6892 251.712 87.5982 251.397 87.4162 251.162C87.2365 250.924 86.9682 250.805 86.6112 250.805C86.3662 250.805 86.1644 250.861 86.0057 250.973C85.847 251.082 85.7292 251.235 85.6522 251.431C85.5752 251.625 85.5367 251.85 85.5367 252.107C85.5367 252.503 85.6277 252.821 85.8097 253.059C85.9917 253.297 86.2589 253.416 86.6112 253.416ZM90.8523 254.105C90.465 254.105 90.136 254.019 89.8653 253.846C89.5947 253.674 89.387 253.437 89.2423 253.136C89.1 252.835 89.0277 252.493 89.0253 252.11C89.0277 251.721 89.1023 251.376 89.2493 251.078C89.3963 250.777 89.6063 250.541 89.8793 250.371C90.1523 250.2 90.4802 250.115 90.8628 250.115C91.2758 250.115 91.6282 250.218 91.9198 250.423C92.2138 250.629 92.4075 250.91 92.5008 251.267L91.7728 251.477C91.7005 251.264 91.5815 251.1 91.4158 250.983C91.2525 250.864 91.0647 250.805 90.8523 250.805C90.612 250.805 90.4148 250.862 90.2608 250.976C90.1068 251.088 89.9925 251.242 89.9178 251.438C89.8432 251.634 89.8047 251.858 89.8023 252.11C89.8047 252.5 89.8933 252.815 90.0683 253.055C90.2457 253.296 90.507 253.416 90.8523 253.416C91.088 253.416 91.2782 253.362 91.4228 253.255C91.5698 253.145 91.6818 252.989 91.7588 252.786L92.5008 252.961C92.3772 253.329 92.173 253.613 91.8883 253.811C91.6037 254.007 91.2583 254.105 90.8523 254.105ZM93.2104 254L93.2139 248.96H93.9559V252.04L95.4397 250.22H96.3707L94.8027 252.11L96.5317 254H95.5377L93.9559 252.18V254H93.2104ZM100.39 254.105C99.8857 254.105 99.4562 253.996 99.1017 253.776C98.7472 253.555 98.4752 253.247 98.2862 252.852C98.0997 252.458 98.0062 252.001 98.0062 251.48C98.0062 250.96 98.0997 250.503 98.2862 250.108C98.4752 249.714 98.7472 249.407 99.1017 249.188C99.4562 248.966 99.8857 248.855 100.39 248.855C100.971 248.855 101.451 249.002 101.832 249.296C102.214 249.59 102.48 249.986 102.63 250.483L101.888 250.682C101.79 250.33 101.615 250.053 101.363 249.853C101.113 249.652 100.789 249.552 100.39 249.552C100.033 249.552 99.7352 249.632 99.4972 249.793C99.2592 249.954 99.0797 250.179 98.9582 250.469C98.8392 250.758 98.7797 251.095 98.7797 251.48C98.7772 251.865 98.8357 252.202 98.9547 252.492C99.0762 252.781 99.2557 253.006 99.4937 253.167C99.7342 253.328 100.033 253.409 100.39 253.409C100.789 253.409 101.113 253.308 101.363 253.108C101.615 252.905 101.79 252.628 101.888 252.278L102.63 252.478C102.48 252.975 102.214 253.37 101.832 253.664C101.451 253.958 100.971 254.105 100.39 254.105ZM104.467 254.105C104.187 254.105 103.952 254.054 103.763 253.951C103.574 253.846 103.431 253.709 103.333 253.538C103.237 253.366 103.189 253.177 103.189 252.971C103.189 252.78 103.223 252.612 103.291 252.467C103.359 252.323 103.459 252.2 103.592 252.1C103.725 251.997 103.888 251.914 104.082 251.851C104.25 251.802 104.44 251.759 104.652 251.722C104.865 251.684 105.088 251.649 105.321 251.617C105.557 251.584 105.79 251.551 106.021 251.519L105.755 251.666C105.76 251.369 105.697 251.15 105.566 251.008C105.438 250.863 105.216 250.791 104.901 250.791C104.703 250.791 104.521 250.837 104.355 250.931C104.189 251.022 104.074 251.173 104.008 251.386L103.326 251.176C103.419 250.851 103.597 250.594 103.858 250.402C104.122 250.211 104.472 250.115 104.908 250.115C105.246 250.115 105.54 250.174 105.79 250.29C106.042 250.405 106.226 250.587 106.343 250.836C106.404 250.96 106.441 251.091 106.455 251.228C106.469 251.366 106.476 251.514 106.476 251.673V254H105.828V253.136L105.954 253.248C105.798 253.537 105.599 253.753 105.356 253.895C105.116 254.035 104.819 254.105 104.467 254.105ZM104.596 253.507C104.804 253.507 104.983 253.471 105.132 253.398C105.281 253.324 105.401 253.229 105.492 253.115C105.583 253 105.643 252.881 105.671 252.758C105.711 252.646 105.733 252.52 105.737 252.38C105.744 252.24 105.748 252.128 105.748 252.044L105.986 252.131C105.755 252.166 105.545 252.198 105.356 252.226C105.167 252.254 104.995 252.282 104.841 252.31C104.69 252.335 104.554 252.367 104.435 252.404C104.335 252.439 104.245 252.481 104.166 252.53C104.089 252.579 104.027 252.639 103.98 252.709C103.936 252.779 103.914 252.864 103.914 252.964C103.914 253.062 103.938 253.153 103.987 253.237C104.036 253.319 104.111 253.384 104.211 253.433C104.312 253.482 104.44 253.507 104.596 253.507ZM107.385 254V250.22H108.036V251.137L107.945 251.018C107.991 250.897 108.052 250.786 108.127 250.686C108.201 250.583 108.288 250.499 108.386 250.434C108.481 250.364 108.588 250.31 108.704 250.273C108.823 250.233 108.945 250.21 109.068 250.203C109.192 250.193 109.311 250.199 109.425 250.22V250.906C109.302 250.874 109.164 250.864 109.012 250.878C108.863 250.892 108.725 250.94 108.599 251.022C108.48 251.099 108.386 251.192 108.316 251.302C108.248 251.411 108.199 251.534 108.169 251.669C108.138 251.802 108.123 251.943 108.123 252.093V254H107.385ZM111.525 254.105C111.173 254.105 110.868 254.018 110.612 253.843C110.357 253.668 110.16 253.43 110.02 253.129C109.882 252.825 109.814 252.485 109.814 252.107C109.814 251.726 109.884 251.387 110.024 251.088C110.164 250.787 110.362 250.55 110.619 250.378C110.878 250.203 111.184 250.115 111.539 250.115C111.896 250.115 112.196 250.203 112.439 250.378C112.684 250.55 112.868 250.787 112.992 251.088C113.118 251.389 113.181 251.729 113.181 252.107C113.181 252.485 113.118 252.824 112.992 253.125C112.866 253.426 112.68 253.665 112.435 253.843C112.19 254.018 111.887 254.105 111.525 254.105ZM111.627 253.444C111.867 253.444 112.063 253.387 112.215 253.272C112.366 253.158 112.477 253 112.547 252.8C112.617 252.599 112.652 252.368 112.652 252.107C112.652 251.845 112.616 251.614 112.544 251.414C112.474 251.213 112.364 251.057 112.215 250.945C112.068 250.833 111.88 250.777 111.651 250.777C111.408 250.777 111.209 250.836 111.053 250.955C110.896 251.074 110.78 251.234 110.703 251.435C110.628 251.635 110.591 251.859 110.591 252.107C110.591 252.356 110.628 252.583 110.703 252.786C110.78 252.986 110.894 253.146 111.046 253.265C111.2 253.384 111.393 253.444 111.627 253.444ZM112.652 254V251.281H112.568V248.96H113.303V254H112.652Z" fill="#121212"/>
<path d="M208.25 246H198.25C195.351 246 193 248.351 193 251.25C193 254.149 195.351 256.5 198.25 256.5H208.25C211.149 256.5 213.5 254.149 213.5 251.25C213.5 248.351 211.149 246 208.25 246Z" fill="white" stroke="#999999"/>
<path d="M201.75 251.25C201.75 249.317 200.183 247.75 198.25 247.75C196.317 247.75 194.75 249.317 194.75 251.25C194.75 253.183 196.317 254.75 198.25 254.75C200.183 254.75 201.75 253.183 201.75 251.25Z" fill="#121212"/>
<mask id="mask3_1235_10000" style="mask-type:luminance" maskUnits="userSpaceOnUse" x="44" y="24" width="188" height="55">
<path d="M44 24H231.5V79H44V24Z" fill="white"/>
</mask>
<g mask="url(#mask3_1235_10000)">
<path d="M44 24H231.5V79H44V24Z" fill="#FAFAFA"/>
<path d="M129.679 65.123C127.506 65.123 126.383 63.917 126.383 61.5928V61.5732C126.383 59.2539 127.506 58.043 129.664 58.043C131.612 58.043 132.686 58.9365 132.799 60.6943L131.363 60.9336V60.6846C131.324 59.1709 130.772 58.5166 129.664 58.5166C128.433 58.5166 127.847 59.3564 127.847 61.2168V61.3828C127.847 63.3408 128.521 64.2295 130.02 64.2295C131.309 64.2295 132.061 63.6289 132.222 62.374L132.867 62.4912C132.701 64.2393 131.612 65.123 129.679 65.123ZM135.084 65.1182C134.068 65.1182 133.497 64.6543 133.497 63.8682V63.834C133.497 62.8477 134.356 62.4814 135.777 62.2227L137.193 61.9639V61.2412C137.193 60.4648 136.866 60.1621 136.173 60.1621C135.362 60.1621 135.035 60.6211 135.059 61.8174L133.624 61.6611C133.595 60.416 134.439 59.7617 136.187 59.7617C137.847 59.7617 138.609 60.3037 138.609 61.4658V64.1025C138.609 64.4639 138.78 64.5029 139.171 64.3711L139.127 64.7422C138.931 65.001 138.663 65.1182 138.306 65.1182C137.467 65.1182 137.227 64.6982 137.369 63.707L137.271 63.6826C136.949 64.6104 136.134 65.1182 135.084 65.1182ZM135.738 64.4248C136.539 64.4248 137.193 63.8096 137.193 62.8916V62.3594L136.29 62.54C135.382 62.7158 134.932 62.9893 134.932 63.6484V63.6924C134.932 64.1465 135.206 64.4248 135.738 64.4248ZM141.202 65.001H139.781V59.874H141.207C141.212 60.3037 141.173 60.6748 141.012 61.666L141.109 61.7002C141.485 60.2744 142.012 59.8447 143.233 59.7129L143.399 60.8994C141.563 61.0264 141.202 61.3535 141.202 62.7939V65.001ZM145.972 65.0937C144.493 65.0937 143.721 64.2002 143.721 62.4961V62.3691C143.721 60.665 144.493 59.7812 145.972 59.7812C146.993 59.7812 147.716 60.2744 147.989 61.3437L148.087 61.3145C147.955 60.582 147.906 60.1133 147.906 59.5566V58.165H149.327V65.001H147.891C147.896 64.6885 147.955 64.2441 148.087 63.5508L147.984 63.5264C147.711 64.6006 146.993 65.0937 145.972 65.0937ZM146.495 64.4736C147.413 64.4736 147.906 63.7803 147.906 62.5986V62.2617C147.906 61.085 147.413 60.3867 146.495 60.3867C145.601 60.3867 145.157 60.9727 145.157 62.1982V62.6621C145.157 63.8877 145.601 64.4736 146.495 64.4736Z" fill="#121212"/>
<path opacity="0.2" d="M254.988 87.7215C233.664 72.9105 197.759 52.0148 148.949 41.4201C80.4631 26.5374 24.0362 40.0331 -3 48.4675" stroke="#F1DB8D" stroke-width="14" stroke-miterlimit="10" stroke-linecap="round" stroke-linejoin="round"/>
<path d="M63 67.5V55.5C63 54.9477 62.5523 54.5 62 54.5H50C49.4477 54.5 49 54.9477 49 55.5V67.5C49 68.0523 49.4477 68.5 50 68.5H62C62.5523 68.5 63 68.0523 63 67.5Z" fill="white"/>
<path d="M54.261 60.6256C54.0208 60.8659 53.8984 61.1832 53.8984 61.5005C53.8984 61.8178 54.0208 62.1352 54.261 62.3754L56.9777 65.092C57.1376 65.2519 57.4009 65.2519 57.5608 65.092C57.7207 64.9322 57.7207 64.6688 57.5608 64.509L54.8441 61.7923C54.6832 61.6313 54.6832 61.3697 54.8441 61.2087L57.5608 58.492C57.7207 58.3322 57.7207 58.0688 57.5608 57.909C57.4009 57.7491 57.1376 57.7491 56.9777 57.909L54.261 60.6256Z" fill="#121212" stroke="black" stroke-width="0.4"/>
</g>
<mask id="mask4_1235_10000" style="mask-type:luminance" maskUnits="userSpaceOnUse" x="44" y="24" width="188" height="55">
<path d="M44 24H231.5V79H44V24Z" fill="#E6E6E6"/>
</mask>
<g mask="url(#mask4_1235_10000)">
<path d="M231.5 78.5H44V79.5H231.5V78.5Z" fill="#E6E6E6"/>
</g>
</g>
<rect x="42" y="22" width="191.5" height="410" rx="14" stroke="black" stroke-width="4" shape-rendering="crispEdges"/>
</g>
<defs>
<filter id="filter0_d_1235_10000" x="0" y="0" width="275.5" height="494" filterUnits="userSpaceOnUse" color-interpolation-filters="sRGB">
<feFlood flood-opacity="0" result="BackgroundImageFix"/>
<feColorMatrix in="SourceAlpha" type="matrix" values="0 0 0 0 0 0 0 0 0 0 0 0 0 0 0 0 0 0 127 0" result="hardAlpha"/>
<feOffset dy="20"/>
<feGaussianBlur stdDeviation="20"/>
<feComposite in2="hardAlpha" operator="out"/>
<feColorMatrix type="matrix" values="0 0 0 0 0 0 0 0 0 0 0 0 0 0 0 0 0 0 0.4 0"/>
<feBlend mode="normal" in2="BackgroundImageFix" result="effect1_dropShadow_1235_10000"/>
<feBlend mode="normal" in="SourceGraphic" in2="effect1_dropShadow_1235_10000" result="shape"/>
</filter>
<clipPath id="clip0_1235_10000">
<rect x="44" y="24" width="187.5" height="406" rx="12" fill="white"/>
</clipPath>
</defs>
</svg>
