<svg width="17" height="18" viewBox="0 0 17 18" fill="none" xmlns="http://www.w3.org/2000/svg">
<path d="M12.206 10.7C12.274 10.139 12.325 9.578 12.325 9C12.325 8.422 12.274 7.861 12.206 7.3H15.079C15.215 7.844 15.3 8.4135 15.3 9C15.3 9.5865 15.215 10.156 15.079 10.7M10.7015 15.426C11.2115 14.4825 11.6025 13.4625 11.8745 12.4H14.382C13.5585 13.818 12.252 14.8922 10.7015 15.426ZM10.489 10.7H6.511C6.426 10.139 6.375 9.578 6.375 9C6.375 8.422 6.426 7.8525 6.511 7.3H10.489C10.5655 7.8525 10.625 8.422 10.625 9C10.625 9.578 10.5655 10.139 10.489 10.7ZM8.5 15.766C7.7945 14.746 7.225 13.6155 6.8765 12.4H10.1235C9.775 13.6155 9.2055 14.746 8.5 15.766ZM5.1 5.6H2.618C3.43303 4.17813 4.73858 3.10226 6.29 2.574C5.78 3.5175 5.3975 4.5375 5.1 5.6ZM2.618 12.4H5.1C5.3975 13.4625 5.78 14.4825 6.29 15.426C4.74183 14.8919 3.43812 13.8176 2.618 12.4ZM1.921 10.7C1.785 10.156 1.7 9.5865 1.7 9C1.7 8.4135 1.785 7.844 1.921 7.3H4.794C4.726 7.861 4.675 8.422 4.675 9C4.675 9.578 4.726 10.139 4.794 10.7M8.5 2.2255C9.2055 3.2455 9.775 4.3845 10.1235 5.6H6.8765C7.225 4.3845 7.7945 3.2455 8.5 2.2255ZM14.382 5.6H11.8745C11.6085 4.54724 11.2145 3.53101 10.7015 2.574C12.2655 3.1095 13.566 4.189 14.382 5.6ZM8.5 0.5C3.7995 0.5 0 4.325 0 9C0 11.2543 0.895533 13.4163 2.48959 15.0104C3.27889 15.7997 4.21592 16.4258 5.24719 16.853C6.27846 17.2801 7.38376 17.5 8.5 17.5C10.7543 17.5 12.9163 16.6045 14.5104 15.0104C16.1045 13.4163 17 11.2543 17 9C17 7.88376 16.7801 6.77846 16.353 5.74719C15.9258 4.71592 15.2997 3.77889 14.5104 2.98959C13.7211 2.20029 12.7841 1.57419 11.7528 1.14702C10.7215 0.719859 9.61624 0.5 8.5 0.5Z" fill="white"/>
<path d="M5.39423 4.25C4.48647 4.25 3.75 4.98647 3.75 5.89423V7.52885C3.75 7.96492 3.92323 8.38314 4.23158 8.69149C4.35794 8.81785 4.50274 8.92151 4.65965 8.99986C4.12042 9.26974 3.75 9.82737 3.75 10.4712V12.1058C3.75 12.5418 3.92323 12.9601 4.23158 13.2684C4.53994 13.5768 4.95815 13.75 5.39423 13.75H7.02885C7.46492 13.75 7.88314 13.5768 8.19149 13.2684C8.31792 13.142 8.42163 12.9971 8.5 12.8401C8.57837 12.9971 8.68208 13.142 8.80851 13.2684C9.11686 13.5768 9.53508 13.75 9.97115 13.75H11.6058C12.0418 13.75 12.4601 13.5768 12.7684 13.2684C13.0768 12.9601 13.25 12.5418 13.25 12.1058V10.4712C13.25 9.82737 12.8796 9.26974 12.3403 8.99986C12.4973 8.92151 12.6421 8.81785 12.7684 8.69149C13.0768 8.38314 13.25 7.96492 13.25 7.52885V5.89423C13.25 4.98647 12.5135 4.25 11.6058 4.25H9.97115C9.32748 4.25 8.76993 4.62029 8.5 5.15938C8.23007 4.62029 7.67252 4.25 7.02885 4.25H5.39423ZM8.5 9.73631C8.34077 9.4183 8.08146 9.15904 7.76342 8.99986C7.92034 8.92151 8.06514 8.81785 8.19149 8.69149C8.31792 8.56507 8.42163 8.42017 8.5 8.26315C8.57837 8.42017 8.68208 8.56507 8.80851 8.69149C8.93486 8.81785 9.07966 8.92151 9.23658 8.99986C8.91854 9.15904 8.65923 9.4183 8.5 9.73631ZM5.73077 7.19231V6.23077H6.69231V7.19231H5.73077ZM10.3077 7.19231V6.23077H11.2692V7.19231H10.3077ZM5.73077 11.7692V10.8077H6.69231V11.7692H5.73077ZM10.3077 11.7692V10.8077H11.2692V11.7692H10.3077Z" fill="white" stroke="white"/>
</svg>
