<svg width="17" height="18" viewBox="0 0 17 18" fill="none" xmlns="http://www.w3.org/2000/svg">
<path d="M12.206 10.7C12.274 10.139 12.325 9.578 12.325 9C12.325 8.422 12.274 7.861 12.206 7.3H15.079C15.215 7.844 15.3 8.4135 15.3 9C15.3 9.5865 15.215 10.156 15.079 10.7M10.7015 15.426C11.2115 14.4825 11.6025 13.4625 11.8745 12.4H14.382C13.5585 13.818 12.252 14.8922 10.7015 15.426ZM10.489 10.7H6.511C6.426 10.139 6.375 9.578 6.375 9C6.375 8.422 6.426 7.8525 6.511 7.3H10.489C10.5655 7.8525 10.625 8.422 10.625 9C10.625 9.578 10.5655 10.139 10.489 10.7ZM8.5 15.766C7.7945 14.746 7.225 13.6155 6.8765 12.4H10.1235C9.775 13.6155 9.2055 14.746 8.5 15.766ZM5.1 5.6H2.618C3.43303 4.17813 4.73858 3.10226 6.29 2.574C5.78 3.5175 5.3975 4.5375 5.1 5.6ZM2.618 12.4H5.1C5.3975 13.4625 5.78 14.4825 6.29 15.426C4.74183 14.8919 3.43812 13.8176 2.618 12.4ZM1.921 10.7C1.785 10.156 1.7 9.5865 1.7 9C1.7 8.4135 1.785 7.844 1.921 7.3H4.794C4.726 7.861 4.675 8.422 4.675 9C4.675 9.578 4.726 10.139 4.794 10.7M8.5 2.2255C9.2055 3.2455 9.775 4.3845 10.1235 5.6H6.8765C7.225 4.3845 7.7945 3.2455 8.5 2.2255ZM14.382 5.6H11.8745C11.6085 4.54724 11.2145 3.53101 10.7015 2.574C12.2655 3.1095 13.566 4.189 14.382 5.6ZM8.5 0.5C3.7995 0.5 0 4.325 0 9C0 11.2543 0.895533 13.4163 2.48959 15.0104C3.27889 15.7997 4.21592 16.4258 5.24719 16.853C6.27846 17.2801 7.38376 17.5 8.5 17.5C10.7543 17.5 12.9163 16.6045 14.5104 15.0104C16.1045 13.4163 17 11.2543 17 9C17 7.88376 16.7801 6.77846 16.353 5.74719C15.9258 4.71592 15.2997 3.77889 14.5104 2.98959C13.7211 2.20029 12.7841 1.57419 11.7528 1.14702C10.7215 0.719859 9.61624 0.5 8.5 0.5Z" fill="white"/>
</svg>
