<svg width="349" height="171" viewBox="0 0 349 171" fill="none" xmlns="http://www.w3.org/2000/svg">
<path d="M6.5 169.5C4 169.5 2 167.5 2 165C2 162.5 4 160.5 6.5 160.5C9 160.5 11 162.5 11 165C11 167.5 9 169.5 6.5 169.5Z" fill="white"/>
<path d="M11 165C11 167.5 9 169.5 6.5 169.5C4 169.5 2 167.5 2 165C2 162.5 4 160.5 6.5 160.5C9 160.5 11 162.5 11 165ZM11 165H237.71C248.755 165 257.71 156.046 257.71 145V31.9999C257.71 20.9542 266.664 11.9999 277.71 11.9999H281.5H304.75H328H347.5" stroke="#4D4D4D" stroke-width="3"/>
<rect x="237.5" y="75" width="45" height="31" rx="1.5" fill="white"/>
<rect x="237.5" y="75" width="45" height="31" rx="1.5" stroke="#4D4D4D" stroke-width="3"/>
<path d="M245.869 85.8153V84.4091H255.688V85.8153H251.571V97.5H249.986V85.8153H245.869ZM259.483 97.7301C258.861 97.7301 258.296 97.6129 257.789 97.3786C257.282 97.1399 256.879 96.7969 256.581 96.3494C256.282 95.8977 256.133 95.3523 256.133 94.7131C256.133 94.1506 256.244 93.6946 256.466 93.3452C256.687 92.9915 256.983 92.7145 257.354 92.5142C257.725 92.3139 258.134 92.1648 258.581 92.0668C259.033 91.9645 259.487 91.8835 259.943 91.8239C260.54 91.7472 261.023 91.6896 261.394 91.6513C261.769 91.6087 262.042 91.5384 262.212 91.4403C262.387 91.3423 262.474 91.1719 262.474 90.929V90.8778C262.474 90.2472 262.302 89.7571 261.956 89.4077C261.616 89.0582 261.098 88.8835 260.403 88.8835C259.683 88.8835 259.118 89.0412 258.709 89.3565C258.3 89.6719 258.013 90.0085 257.846 90.3665L256.415 89.8551C256.67 89.2585 257.011 88.794 257.437 88.4616C257.868 88.125 258.336 87.8906 258.844 87.7585C259.355 87.6222 259.858 87.554 260.352 87.554C260.667 87.554 261.03 87.5923 261.439 87.669C261.852 87.7415 262.251 87.8928 262.634 88.1229C263.022 88.353 263.344 88.7003 263.599 89.1648C263.855 89.6293 263.983 90.2514 263.983 91.0312V97.5H262.474V96.1705H262.398C262.295 96.3835 262.125 96.6115 261.886 96.8544C261.648 97.0973 261.33 97.304 260.934 97.4744C260.537 97.6449 260.054 97.7301 259.483 97.7301ZM259.713 96.375C260.309 96.375 260.812 96.2578 261.221 96.0234C261.635 95.7891 261.946 95.4865 262.155 95.1158C262.368 94.745 262.474 94.3551 262.474 93.946V92.5653C262.41 92.642 262.27 92.7124 262.052 92.7763C261.839 92.8359 261.592 92.8892 261.311 92.9361C261.034 92.9787 260.763 93.017 260.499 93.0511C260.239 93.081 260.028 93.1065 259.866 93.1278C259.474 93.179 259.108 93.2621 258.767 93.3771C258.43 93.4879 258.157 93.6562 257.949 93.8821C257.744 94.1037 257.642 94.4062 257.642 94.7898C257.642 95.3139 257.836 95.7102 258.224 95.9787C258.616 96.2429 259.112 96.375 259.713 96.375ZM266.736 101.182V87.6818H268.194V89.2415H268.373C268.483 89.071 268.637 88.8537 268.833 88.5895C269.033 88.321 269.319 88.0824 269.689 87.8736C270.064 87.6605 270.571 87.554 271.211 87.554C272.037 87.554 272.766 87.7607 273.397 88.174C274.027 88.5874 274.52 89.1733 274.873 89.9318C275.227 90.6903 275.404 91.5852 275.404 92.6165C275.404 93.6562 275.227 94.5575 274.873 95.3203C274.52 96.0788 274.029 96.6669 273.403 97.0845C272.777 97.4979 272.054 97.7045 271.236 97.7045C270.605 97.7045 270.1 97.6001 269.721 97.3913C269.342 97.1783 269.05 96.9375 268.846 96.669C268.641 96.3963 268.483 96.1705 268.373 95.9915H268.245V101.182H266.736ZM268.219 92.5909C268.219 93.3324 268.328 93.9865 268.545 94.5533C268.762 95.1158 269.08 95.5568 269.498 95.8764C269.915 96.1918 270.426 96.3494 271.032 96.3494C271.662 96.3494 272.189 96.1832 272.61 95.8509C273.037 95.5142 273.356 95.0625 273.569 94.4957C273.787 93.9247 273.895 93.2898 273.895 92.5909C273.895 91.9006 273.789 91.2784 273.576 90.7244C273.367 90.1662 273.049 89.7251 272.623 89.4013C272.201 89.0732 271.671 88.9091 271.032 88.9091C270.418 88.9091 269.902 89.0646 269.485 89.3757C269.067 89.6825 268.752 90.1129 268.539 90.6669C268.326 91.2166 268.219 91.858 268.219 92.5909Z" fill="black"/>
</svg>
