<svg width="1381" height="141" viewBox="0 0 1381 141" fill="none" xmlns="http://www.w3.org/2000/svg">
<path d="M106.001 135C106.001 137.5 108.001 139.5 110.501 139.5C113.001 139.5 115.001 137.5 115.001 135C115.001 132.5 113.001 130.5 110.501 130.5C108.001 130.5 106.001 132.5 106.001 135Z" fill="white"/>
<path d="M115.001 135C115.001 137.5 113.001 139.5 110.501 139.5C108.001 139.5 106.001 137.5 106.001 135C106.001 132.5 108.001 130.5 110.501 130.5C113.001 130.5 115.001 132.5 115.001 135ZM115.001 135H43.7109C32.6652 135 23.7109 126.046 23.7109 115V21.9999C23.7109 10.9542 32.6652 1.99991 43.7109 1.99991H47.5013H70.7513H1369.5L1370 30.9999" stroke="#4D4D4D" stroke-width="3"/>
<rect x="1.5" y="28.5" width="45" height="31" rx="1.5" fill="white"/>
<rect x="1.5" y="28.5" width="45" height="31" rx="1.5" stroke="#4D4D4D" stroke-width="3"/>
<path d="M9.86932 39.3153V37.9091H19.6875V39.3153H15.571V51H13.9858V39.3153H9.86932ZM23.4828 51.2301C22.8606 51.2301 22.296 51.1129 21.7889 50.8786C21.2818 50.6399 20.8791 50.2969 20.5808 49.8494C20.2825 49.3977 20.1333 48.8523 20.1333 48.2131C20.1333 47.6506 20.2441 47.1946 20.4657 46.8452C20.6873 46.4915 20.9835 46.2145 21.3542 46.0142C21.725 45.8139 22.1341 45.6648 22.5815 45.5668C23.0332 45.4645 23.487 45.3835 23.943 45.3239C24.5396 45.2472 25.0233 45.1896 25.394 45.1513C25.769 45.1087 26.0417 45.0384 26.2122 44.9403C26.3869 44.8423 26.4743 44.6719 26.4743 44.429V44.3778C26.4743 43.7472 26.3017 43.2571 25.9565 42.9077C25.6156 42.5582 25.0978 42.3835 24.4032 42.3835C23.6831 42.3835 23.1184 42.5412 22.7093 42.8565C22.3002 43.1719 22.0126 43.5085 21.8464 43.8665L20.4146 43.3551C20.6703 42.7585 21.0112 42.294 21.4373 41.9616C21.8677 41.625 22.3365 41.3906 22.8436 41.2585C23.3549 41.1222 23.8578 41.054 24.3521 41.054C24.6674 41.054 25.0297 41.0923 25.4387 41.169C25.8521 41.2415 26.2505 41.3928 26.6341 41.6229C27.0218 41.853 27.3436 42.2003 27.5993 42.6648C27.8549 43.1293 27.9828 43.7514 27.9828 44.5312V51H26.4743V49.6705H26.3976C26.2953 49.8835 26.1248 50.1115 25.8862 50.3544C25.6475 50.5973 25.3301 50.804 24.9338 50.9744C24.5375 51.1449 24.0538 51.2301 23.4828 51.2301ZM23.7129 49.875C24.3095 49.875 24.8123 49.7578 25.2214 49.5234C25.6348 49.2891 25.9458 48.9865 26.1547 48.6158C26.3677 48.245 26.4743 47.8551 26.4743 47.446V46.0653C26.4103 46.142 26.2697 46.2124 26.0524 46.2763C25.8393 46.3359 25.5922 46.3892 25.3109 46.4361C25.0339 46.4787 24.7633 46.517 24.4991 46.5511C24.2392 46.581 24.0282 46.6065 23.8663 46.6278C23.4743 46.679 23.1078 46.7621 22.7669 46.8771C22.4302 46.9879 22.1575 47.1562 21.9487 47.3821C21.7441 47.6037 21.6419 47.9062 21.6419 48.2898C21.6419 48.8139 21.8358 49.2102 22.2235 49.4787C22.6156 49.7429 23.112 49.875 23.7129 49.875ZM30.7362 54.6818V41.1818H32.1935V42.7415H32.3725C32.4833 42.571 32.6367 42.3537 32.8327 42.0895C33.033 41.821 33.3185 41.5824 33.6893 41.3736C34.0643 41.1605 34.5714 41.054 35.2106 41.054C36.0373 41.054 36.766 41.2607 37.3967 41.674C38.0273 42.0874 38.5195 42.6733 38.8732 43.4318C39.2269 44.1903 39.4038 45.0852 39.4038 46.1165C39.4038 47.1562 39.2269 48.0575 38.8732 48.8203C38.5195 49.5788 38.0295 50.1669 37.4031 50.5845C36.7766 50.9979 36.0543 51.2045 35.2362 51.2045C34.6055 51.2045 34.1005 51.1001 33.7212 50.8913C33.342 50.6783 33.0501 50.4375 32.8455 50.169C32.641 49.8963 32.4833 49.6705 32.3725 49.4915H32.2447V54.6818H30.7362ZM32.2191 46.0909C32.2191 46.8324 32.3278 47.4865 32.5451 48.0533C32.7624 48.6158 33.0799 49.0568 33.4975 49.3764C33.9151 49.6918 34.4265 49.8494 35.0316 49.8494C35.6623 49.8494 36.1886 49.6832 36.6104 49.3509C37.0366 49.0142 37.3562 48.5625 37.5692 47.9957C37.7866 47.4247 37.8952 46.7898 37.8952 46.0909C37.8952 45.4006 37.7887 44.7784 37.5756 44.2244C37.3668 43.6662 37.0494 43.2251 36.6232 42.9013C36.2013 42.5732 35.6708 42.4091 35.0316 42.4091C34.418 42.4091 33.9023 42.5646 33.4847 42.8757C33.0671 43.1825 32.7518 43.6129 32.5387 44.1669C32.3256 44.7166 32.2191 45.358 32.2191 46.0909Z" fill="black"/>
</svg>
