<svg width="221" height="171" viewBox="0 0 221 171" fill="none" xmlns="http://www.w3.org/2000/svg">
<path d="M6.5 169.5C4 169.5 2 167.5 2 165C2 162.5 4 160.5 6.5 160.5C9 160.5 11 162.5 11 165C11 167.5 9 169.5 6.5 169.5Z" fill="white"/>
<path d="M11 165C11 167.5 9 169.5 6.5 169.5C4 169.5 2 167.5 2 165C2 162.5 4 160.5 6.5 160.5C9 160.5 11 162.5 11 165ZM11 165H109.71C120.755 165 129.71 156.046 129.71 145V31.9999C129.71 20.9542 138.664 11.9999 149.71 11.9999H153.5H176.75H200H219.5" stroke="#4D4D4D" stroke-width="3"/>
<rect x="109.5" y="75" width="45" height="31" rx="1.5" fill="white"/>
<rect x="109.5" y="75" width="45" height="31" rx="1.5" stroke="#4D4D4D" stroke-width="3"/>
<path d="M117.869 85.8153V84.4091H127.688V85.8153H123.571V97.5H121.986V85.8153H117.869ZM131.483 97.7301C130.861 97.7301 130.296 97.6129 129.789 97.3786C129.282 97.1399 128.879 96.7969 128.581 96.3494C128.282 95.8977 128.133 95.3523 128.133 94.7131C128.133 94.1506 128.244 93.6946 128.466 93.3452C128.687 92.9915 128.983 92.7145 129.354 92.5142C129.725 92.3139 130.134 92.1648 130.581 92.0668C131.033 91.9645 131.487 91.8835 131.943 91.8239C132.54 91.7472 133.023 91.6896 133.394 91.6513C133.769 91.6087 134.042 91.5384 134.212 91.4403C134.387 91.3423 134.474 91.1719 134.474 90.929V90.8778C134.474 90.2472 134.302 89.7571 133.956 89.4077C133.616 89.0582 133.098 88.8835 132.403 88.8835C131.683 88.8835 131.118 89.0412 130.709 89.3565C130.3 89.6719 130.013 90.0085 129.846 90.3665L128.415 89.8551C128.67 89.2585 129.011 88.794 129.437 88.4616C129.868 88.125 130.336 87.8906 130.844 87.7585C131.355 87.6222 131.858 87.554 132.352 87.554C132.667 87.554 133.03 87.5923 133.439 87.669C133.852 87.7415 134.251 87.8928 134.634 88.1229C135.022 88.353 135.344 88.7003 135.599 89.1648C135.855 89.6293 135.983 90.2514 135.983 91.0312V97.5H134.474V96.1705H134.398C134.295 96.3835 134.125 96.6115 133.886 96.8544C133.648 97.0973 133.33 97.304 132.934 97.4744C132.537 97.6449 132.054 97.7301 131.483 97.7301ZM131.713 96.375C132.309 96.375 132.812 96.2578 133.221 96.0234C133.635 95.7891 133.946 95.4865 134.155 95.1158C134.368 94.745 134.474 94.3551 134.474 93.946V92.5653C134.41 92.642 134.27 92.7124 134.052 92.7763C133.839 92.8359 133.592 92.8892 133.311 92.9361C133.034 92.9787 132.763 93.017 132.499 93.0511C132.239 93.081 132.028 93.1065 131.866 93.1278C131.474 93.179 131.108 93.2621 130.767 93.3771C130.43 93.4879 130.157 93.6562 129.949 93.8821C129.744 94.1037 129.642 94.4062 129.642 94.7898C129.642 95.3139 129.836 95.7102 130.224 95.9787C130.616 96.2429 131.112 96.375 131.713 96.375ZM138.736 101.182V87.6818H140.194V89.2415H140.373C140.483 89.071 140.637 88.8537 140.833 88.5895C141.033 88.321 141.319 88.0824 141.689 87.8736C142.064 87.6605 142.571 87.554 143.211 87.554C144.037 87.554 144.766 87.7607 145.397 88.174C146.027 88.5874 146.52 89.1733 146.873 89.9318C147.227 90.6903 147.404 91.5852 147.404 92.6165C147.404 93.6562 147.227 94.5575 146.873 95.3203C146.52 96.0788 146.029 96.6669 145.403 97.0845C144.777 97.4979 144.054 97.7045 143.236 97.7045C142.605 97.7045 142.1 97.6001 141.721 97.3913C141.342 97.1783 141.05 96.9375 140.846 96.669C140.641 96.3963 140.483 96.1705 140.373 95.9915H140.245V101.182H138.736ZM140.219 92.5909C140.219 93.3324 140.328 93.9865 140.545 94.5533C140.762 95.1158 141.08 95.5568 141.498 95.8764C141.915 96.1918 142.426 96.3494 143.032 96.3494C143.662 96.3494 144.189 96.1832 144.61 95.8509C145.037 95.5142 145.356 95.0625 145.569 94.4957C145.787 93.9247 145.895 93.2898 145.895 92.5909C145.895 91.9006 145.789 91.2784 145.576 90.7244C145.367 90.1662 145.049 89.7251 144.623 89.4013C144.201 89.0732 143.671 88.9091 143.032 88.9091C142.418 88.9091 141.902 89.0646 141.485 89.3757C141.067 89.6825 140.752 90.1129 140.539 90.6669C140.326 91.2166 140.219 91.858 140.219 92.5909Z" fill="black"/>
</svg>
