<svg width="190" height="171" viewBox="0 0 190 171" fill="none" xmlns="http://www.w3.org/2000/svg">
<path d="M6.5 169.254C4 169.254 2 167.254 2 164.754C2 162.254 4 160.254 6.5 160.254C9 160.254 11 162.254 11 164.754C11 167.254 9 169.254 6.5 169.254Z" fill="white"/>
<path d="M11 164.754C11 167.254 9 169.254 6.5 169.254C4 169.254 2 167.254 2 164.754C2 162.254 4 160.254 6.5 160.254C9 160.254 11 162.254 11 164.754ZM11 164.754H78.7097C89.7554 164.754 98.7097 155.8 98.7097 144.754V31.7538C98.7097 20.7081 107.664 11.7538 118.71 11.7538H122.5H145.75H169H188.5" stroke="#4D4D4D" stroke-width="3"/>
<rect x="78.5" y="74.7539" width="45" height="31" rx="1.5" fill="white"/>
<rect x="78.5" y="74.7539" width="45" height="31" rx="1.5" stroke="#4D4D4D" stroke-width="3"/>
<path d="M86.8693 85.5692V84.163H96.6875V85.5692H92.571V97.2539H90.9858V85.5692H86.8693ZM100.483 97.484C99.8606 97.484 99.296 97.3668 98.7889 97.1325C98.2818 96.8938 97.8791 96.5508 97.5808 96.1033C97.2825 95.6516 97.1333 95.1062 97.1333 94.467C97.1333 93.9045 97.2441 93.4485 97.4657 93.0991C97.6873 92.7454 97.9835 92.4684 98.3542 92.2681C98.725 92.0678 99.1341 91.9187 99.5815 91.8207C100.033 91.7184 100.487 91.6374 100.943 91.5778C101.54 91.5011 102.023 91.4435 102.394 91.4052C102.769 91.3626 103.042 91.2923 103.212 91.1942C103.387 91.0962 103.474 90.9258 103.474 90.6829V90.6317C103.474 90.0011 103.302 89.511 102.956 89.1616C102.616 88.8121 102.098 88.6374 101.403 88.6374C100.683 88.6374 100.118 88.7951 99.7093 89.1104C99.3002 89.4258 99.0126 89.7624 98.8464 90.1204L97.4146 89.609C97.6703 89.0124 98.0112 88.5479 98.4373 88.2156C98.8677 87.8789 99.3365 87.6445 99.8436 87.5124C100.355 87.3761 100.858 87.3079 101.352 87.3079C101.667 87.3079 102.03 87.3462 102.439 87.4229C102.852 87.4954 103.251 87.6467 103.634 87.8768C104.022 88.1069 104.344 88.4542 104.599 88.9187C104.855 89.3832 104.983 90.0053 104.983 90.7852V97.2539H103.474V95.9244H103.398C103.295 96.1374 103.125 96.3654 102.886 96.6083C102.648 96.8512 102.33 97.0579 101.934 97.2283C101.537 97.3988 101.054 97.484 100.483 97.484ZM100.713 96.1289C101.309 96.1289 101.812 96.0117 102.221 95.7773C102.635 95.543 102.946 95.2404 103.155 94.8697C103.368 94.4989 103.474 94.109 103.474 93.6999V92.3192C103.41 92.396 103.27 92.4663 103.052 92.5302C102.839 92.5898 102.592 92.6431 102.311 92.69C102.034 92.7326 101.763 92.771 101.499 92.805C101.239 92.8349 101.028 92.8604 100.866 92.8817C100.474 92.9329 100.108 93.016 99.7669 93.131C99.4302 93.2418 99.1575 93.4102 98.9487 93.636C98.7441 93.8576 98.6419 94.1602 98.6419 94.5437C98.6419 95.0678 98.8358 95.4641 99.2235 95.7326C99.6156 95.9968 100.112 96.1289 100.713 96.1289ZM107.736 100.936V87.4357H109.194V88.9954H109.373C109.483 88.8249 109.637 88.6076 109.833 88.3434C110.033 88.0749 110.319 87.8363 110.689 87.6275C111.064 87.4144 111.571 87.3079 112.211 87.3079C113.037 87.3079 113.766 87.5146 114.397 87.9279C115.027 88.3413 115.52 88.9272 115.873 89.6857C116.227 90.4442 116.404 91.3391 116.404 92.3704C116.404 93.4102 116.227 94.3114 115.873 95.0742C115.52 95.8327 115.029 96.4208 114.403 96.8384C113.777 97.2518 113.054 97.4585 112.236 97.4585C111.605 97.4585 111.1 97.354 110.721 97.1452C110.342 96.9322 110.05 96.6914 109.846 96.4229C109.641 96.1502 109.483 95.9244 109.373 95.7454H109.245V100.936H107.736ZM109.219 92.3448C109.219 93.0863 109.328 93.7404 109.545 94.3072C109.762 94.8697 110.08 95.3107 110.498 95.6303C110.915 95.9457 111.426 96.1033 112.032 96.1033C112.662 96.1033 113.189 95.9371 113.61 95.6048C114.037 95.2681 114.356 94.8164 114.569 94.2496C114.787 93.6786 114.895 93.0437 114.895 92.3448C114.895 91.6545 114.789 91.0323 114.576 90.4783C114.367 89.9201 114.049 89.479 113.623 89.1552C113.201 88.8271 112.671 88.663 112.032 88.663C111.418 88.663 110.902 88.8185 110.485 89.1296C110.067 89.4364 109.752 89.8668 109.539 90.4208C109.326 90.9705 109.219 91.6119 109.219 92.3448Z" fill="black"/>
</svg>
