<svg width="531" height="102" viewBox="0 0 531 102" fill="none" xmlns="http://www.w3.org/2000/svg">
<path d="M6 91.0325C3.5 91.0325 1.5 93.0325 1.5 95.5325C1.5 98.0325 3.5 100.033 6 100.033C8.5 100.033 10.5 98.0325 10.5 95.5325C10.5 93.0325 8.5 91.0325 6 91.0325Z" fill="white"/>
<path d="M6 100.033C3.5 100.033 1.5 98.0325 1.5 95.5325C1.5 93.0325 3.5 91.0325 6 91.0325C8.5 91.0325 10.5 93.0325 10.5 95.5325C10.5 98.0325 8.5 100.033 6 100.033ZM6 100.033L5.99999 35.7422C5.99999 24.6965 14.9543 15.7422 26 15.7422L501.21 15.7422C511.035 15.7422 519 23.7072 519 33.5325V33.5325L519 32.7825L519 56.0325L519 59.5325" stroke="#4D4D4D" stroke-width="3"/>
<rect x="279" y="1.74219" width="47" height="31" rx="1.5" fill="white"/>
<rect x="279" y="1.74219" width="47" height="31" rx="1.5" stroke="#4D4D4D" stroke-width="3"/>
<path d="M287.369 12.5575V11.1513H297.188V12.5575H293.071V24.2422H291.486V12.5575H287.369ZM300.983 24.4723C300.361 24.4723 299.796 24.3551 299.289 24.1207C298.782 23.8821 298.379 23.5391 298.081 23.0916C297.782 22.6399 297.633 22.0945 297.633 21.4553C297.633 20.8928 297.744 20.4368 297.966 20.0874C298.187 19.7337 298.483 19.4567 298.854 19.2564C299.225 19.0561 299.634 18.907 300.081 18.8089C300.533 18.7067 300.987 18.6257 301.443 18.5661C302.04 18.4893 302.523 18.4318 302.894 18.3935C303.269 18.3509 303.542 18.2805 303.712 18.1825C303.887 18.0845 303.974 17.9141 303.974 17.6712V17.62C303.974 16.9893 303.802 16.4993 303.456 16.1499C303.116 15.8004 302.598 15.6257 301.903 15.6257C301.183 15.6257 300.618 15.7834 300.209 16.0987C299.8 16.4141 299.513 16.7507 299.346 17.1087L297.915 16.5973C298.17 16.0007 298.511 15.5362 298.937 15.2038C299.368 14.8672 299.836 14.6328 300.344 14.5007C300.855 14.3643 301.358 14.2962 301.852 14.2962C302.167 14.2962 302.53 14.3345 302.939 14.4112C303.352 14.4837 303.751 14.6349 304.134 14.8651C304.522 15.0952 304.844 15.4425 305.099 15.907C305.355 16.3714 305.483 16.9936 305.483 17.7734V24.2422H303.974V22.9126H303.898C303.795 23.1257 303.625 23.3537 303.386 23.5966C303.148 23.8395 302.83 24.0462 302.434 24.2166C302.037 24.3871 301.554 24.4723 300.983 24.4723ZM301.213 23.1172C301.809 23.1172 302.312 23 302.721 22.7656C303.135 22.5312 303.446 22.2287 303.655 21.858C303.868 21.4872 303.974 21.0973 303.974 20.6882V19.3075C303.91 19.3842 303.77 19.4545 303.552 19.5185C303.339 19.5781 303.092 19.6314 302.811 19.6783C302.534 19.7209 302.263 19.7592 301.999 19.7933C301.739 19.8232 301.528 19.8487 301.366 19.87C300.974 19.9212 300.608 20.0043 300.267 20.1193C299.93 20.2301 299.657 20.3984 299.449 20.6243C299.244 20.8459 299.142 21.1484 299.142 21.532C299.142 22.0561 299.336 22.4524 299.724 22.7209C300.116 22.9851 300.612 23.1172 301.213 23.1172ZM308.236 27.924V14.424H309.694V15.9837H309.873C309.983 15.8132 310.137 15.5959 310.333 15.3317C310.533 15.0632 310.819 14.8246 311.189 14.6158C311.564 14.4027 312.071 14.2962 312.711 14.2962C313.537 14.2962 314.266 14.5028 314.897 14.9162C315.527 15.3295 316.02 15.9155 316.373 16.674C316.727 17.4325 316.904 18.3274 316.904 19.3587C316.904 20.3984 316.727 21.2997 316.373 22.0625C316.02 22.821 315.529 23.4091 314.903 23.8267C314.277 24.2401 313.554 24.4467 312.736 24.4467C312.105 24.4467 311.6 24.3423 311.221 24.1335C310.842 23.9205 310.55 23.6797 310.346 23.4112C310.141 23.1385 309.983 22.9126 309.873 22.7337H309.745V27.924H308.236ZM309.719 19.3331C309.719 20.0746 309.828 20.7287 310.045 21.2955C310.262 21.858 310.58 22.299 310.998 22.6186C311.415 22.9339 311.926 23.0916 312.532 23.0916C313.162 23.0916 313.689 22.9254 314.11 22.593C314.537 22.2564 314.856 21.8047 315.069 21.2379C315.287 20.6669 315.395 20.032 315.395 19.3331C315.395 18.6428 315.289 18.0206 315.076 17.4666C314.867 16.9084 314.549 16.4673 314.123 16.1435C313.701 15.8153 313.171 15.6513 312.532 15.6513C311.918 15.6513 311.402 15.8068 310.985 16.1179C310.567 16.4247 310.252 16.8551 310.039 17.4091C309.826 17.9588 309.719 18.6001 309.719 19.3331Z" fill="black"/>
</svg>
