<svg width="311" height="95" viewBox="0 0 311 95" fill="none" xmlns="http://www.w3.org/2000/svg">
<path d="M6.5 11.254C4 11.254 2 9.254 2 6.754C2 4.254 4 2.254 6.5 2.254C9 2.254 11 4.254 11 6.754C11 9.254 9 11.254 6.5 11.254Z" fill="white"/>
<path d="M11 6.754C11 9.254 9 11.254 6.5 11.254C4 11.254 2 9.254 2 6.754C2 4.254 4 2.254 6.5 2.254C9 2.254 11 4.254 11 6.754ZM11 6.754H196.71C207.755 6.754 216.71 15.7083 216.71 26.754V63.7539C216.71 74.7996 225.664 83.7539 236.71 83.7539H240.5H263.75H287H309.5" stroke="#4D4D4D" stroke-width="3"/>
<rect x="194.5" y="26.7539" width="45" height="31" rx="1.5" fill="white"/>
<rect x="194.5" y="26.7539" width="45" height="31" rx="1.5" stroke="#4D4D4D" stroke-width="3"/>
<path d="M202.869 37.5692V36.163H212.688V37.5692H208.571V49.2539H206.986V37.5692H202.869ZM216.483 49.484C215.861 49.484 215.296 49.3668 214.789 49.1325C214.282 48.8938 213.879 48.5508 213.581 48.1033C213.282 47.6516 213.133 47.1062 213.133 46.467C213.133 45.9045 213.244 45.4485 213.466 45.0991C213.687 44.7454 213.983 44.4684 214.354 44.2681C214.725 44.0678 215.134 43.9187 215.581 43.8207C216.033 43.7184 216.487 43.6374 216.943 43.5778C217.54 43.5011 218.023 43.4435 218.394 43.4052C218.769 43.3626 219.042 43.2923 219.212 43.1942C219.387 43.0962 219.474 42.9258 219.474 42.6829V42.6317C219.474 42.0011 219.302 41.511 218.956 41.1616C218.616 40.8121 218.098 40.6374 217.403 40.6374C216.683 40.6374 216.118 40.7951 215.709 41.1104C215.3 41.4258 215.013 41.7624 214.846 42.1204L213.415 41.609C213.67 41.0124 214.011 40.5479 214.437 40.2156C214.868 39.8789 215.336 39.6445 215.844 39.5124C216.355 39.3761 216.858 39.3079 217.352 39.3079C217.667 39.3079 218.03 39.3462 218.439 39.4229C218.852 39.4954 219.251 39.6467 219.634 39.8768C220.022 40.1069 220.344 40.4542 220.599 40.9187C220.855 41.3832 220.983 42.0053 220.983 42.7852V49.2539H219.474V47.9244H219.398C219.295 48.1374 219.125 48.3654 218.886 48.6083C218.648 48.8512 218.33 49.0579 217.934 49.2283C217.537 49.3988 217.054 49.484 216.483 49.484ZM216.713 48.1289C217.309 48.1289 217.812 48.0117 218.221 47.7773C218.635 47.543 218.946 47.2404 219.155 46.8697C219.368 46.4989 219.474 46.109 219.474 45.6999V44.3192C219.41 44.396 219.27 44.4663 219.052 44.5302C218.839 44.5898 218.592 44.6431 218.311 44.69C218.034 44.7326 217.763 44.771 217.499 44.805C217.239 44.8349 217.028 44.8604 216.866 44.8817C216.474 44.9329 216.108 45.016 215.767 45.131C215.43 45.2418 215.157 45.4102 214.949 45.636C214.744 45.8576 214.642 46.1602 214.642 46.5437C214.642 47.0678 214.836 47.4641 215.224 47.7326C215.616 47.9968 216.112 48.1289 216.713 48.1289ZM223.736 52.9357V39.4357H225.194V40.9954H225.373C225.483 40.8249 225.637 40.6076 225.833 40.3434C226.033 40.0749 226.319 39.8363 226.689 39.6275C227.064 39.4144 227.571 39.3079 228.211 39.3079C229.037 39.3079 229.766 39.5146 230.397 39.9279C231.027 40.3413 231.52 40.9272 231.873 41.6857C232.227 42.4442 232.404 43.3391 232.404 44.3704C232.404 45.4102 232.227 46.3114 231.873 47.0742C231.52 47.8327 231.029 48.4208 230.403 48.8384C229.777 49.2518 229.054 49.4585 228.236 49.4585C227.605 49.4585 227.1 49.354 226.721 49.1452C226.342 48.9322 226.05 48.6914 225.846 48.4229C225.641 48.1502 225.483 47.9244 225.373 47.7454H225.245V52.9357H223.736ZM225.219 44.3448C225.219 45.0863 225.328 45.7404 225.545 46.3072C225.762 46.8697 226.08 47.3107 226.498 47.6303C226.915 47.9457 227.426 48.1033 228.032 48.1033C228.662 48.1033 229.189 47.9371 229.61 47.6048C230.037 47.2681 230.356 46.8164 230.569 46.2496C230.787 45.6786 230.895 45.0437 230.895 44.3448C230.895 43.6545 230.789 43.0323 230.576 42.4783C230.367 41.9201 230.049 41.479 229.623 41.1552C229.201 40.8271 228.671 40.663 228.032 40.663C227.418 40.663 226.902 40.8185 226.485 41.1296C226.067 41.4364 225.752 41.8668 225.539 42.4208C225.326 42.9705 225.219 43.6119 225.219 44.3448Z" fill="black"/>
</svg>
