<svg width="195" height="101" viewBox="0 0 195 101" fill="none" xmlns="http://www.w3.org/2000/svg">
<path d="M6.5 99.2539C4 99.2539 2 97.2539 2 94.7539C2 92.2539 4 90.2539 6.5 90.2539C9 90.2539 11 92.2539 11 94.7539C11 97.2539 9 99.2539 6.5 99.2539Z" fill="white"/>
<path d="M11 94.7539C11 97.2539 9 99.2539 6.5 99.2539C4 99.2539 2 97.2539 2 94.7539C2 92.2539 4 90.2539 6.5 90.2539C9 90.2539 11 92.2539 11 94.7539ZM11 94.7539H80.7097C91.7554 94.7539 100.71 85.7996 100.71 74.7539V31.7538C100.71 20.7081 109.664 11.7538 120.71 11.7538H124.5H147.75H171H193.5" stroke="#4D4D4D" stroke-width="3"/>
<rect x="80.5" y="41.7539" width="45" height="31" rx="1.5" fill="white"/>
<rect x="80.5" y="41.7539" width="45" height="31" rx="1.5" stroke="#4D4D4D" stroke-width="3"/>
<path d="M88.8693 52.5692V51.163H98.6875V52.5692H94.571V64.2539H92.9858V52.5692H88.8693ZM102.483 64.484C101.861 64.484 101.296 64.3668 100.789 64.1325C100.282 63.8938 99.8791 63.5508 99.5808 63.1033C99.2825 62.6516 99.1333 62.1062 99.1333 61.467C99.1333 60.9045 99.2441 60.4485 99.4657 60.0991C99.6873 59.7454 99.9835 59.4684 100.354 59.2681C100.725 59.0678 101.134 58.9187 101.581 58.8207C102.033 58.7184 102.487 58.6374 102.943 58.5778C103.54 58.5011 104.023 58.4435 104.394 58.4052C104.769 58.3626 105.042 58.2923 105.212 58.1942C105.387 58.0962 105.474 57.9258 105.474 57.6829V57.6317C105.474 57.0011 105.302 56.511 104.956 56.1616C104.616 55.8121 104.098 55.6374 103.403 55.6374C102.683 55.6374 102.118 55.7951 101.709 56.1104C101.3 56.4258 101.013 56.7624 100.846 57.1204L99.4146 56.609C99.6703 56.0124 100.011 55.5479 100.437 55.2156C100.868 54.8789 101.336 54.6445 101.844 54.5124C102.355 54.3761 102.858 54.3079 103.352 54.3079C103.667 54.3079 104.03 54.3462 104.439 54.4229C104.852 54.4954 105.251 54.6467 105.634 54.8768C106.022 55.1069 106.344 55.4542 106.599 55.9187C106.855 56.3832 106.983 57.0053 106.983 57.7852V64.2539H105.474V62.9244H105.398C105.295 63.1374 105.125 63.3654 104.886 63.6083C104.648 63.8512 104.33 64.0579 103.934 64.2283C103.537 64.3988 103.054 64.484 102.483 64.484ZM102.713 63.1289C103.309 63.1289 103.812 63.0117 104.221 62.7773C104.635 62.543 104.946 62.2404 105.155 61.8697C105.368 61.4989 105.474 61.109 105.474 60.6999V59.3192C105.41 59.396 105.27 59.4663 105.052 59.5302C104.839 59.5898 104.592 59.6431 104.311 59.69C104.034 59.7326 103.763 59.771 103.499 59.805C103.239 59.8349 103.028 59.8604 102.866 59.8817C102.474 59.9329 102.108 60.016 101.767 60.131C101.43 60.2418 101.157 60.4102 100.949 60.636C100.744 60.8576 100.642 61.1602 100.642 61.5437C100.642 62.0678 100.836 62.4641 101.224 62.7326C101.616 62.9968 102.112 63.1289 102.713 63.1289ZM109.736 67.9357V54.4357H111.194V55.9954H111.373C111.483 55.8249 111.637 55.6076 111.833 55.3434C112.033 55.0749 112.319 54.8363 112.689 54.6275C113.064 54.4144 113.571 54.3079 114.211 54.3079C115.037 54.3079 115.766 54.5146 116.397 54.9279C117.027 55.3413 117.52 55.9272 117.873 56.6857C118.227 57.4442 118.404 58.3391 118.404 59.3704C118.404 60.4102 118.227 61.3114 117.873 62.0742C117.52 62.8327 117.029 63.4208 116.403 63.8384C115.777 64.2518 115.054 64.4585 114.236 64.4585C113.605 64.4585 113.1 64.354 112.721 64.1452C112.342 63.9322 112.05 63.6914 111.846 63.4229C111.641 63.1502 111.483 62.9244 111.373 62.7454H111.245V67.9357H109.736ZM111.219 59.3448C111.219 60.0863 111.328 60.7404 111.545 61.3072C111.762 61.8697 112.08 62.3107 112.498 62.6303C112.915 62.9457 113.426 63.1033 114.032 63.1033C114.662 63.1033 115.189 62.9371 115.61 62.6048C116.037 62.2681 116.356 61.8164 116.569 61.2496C116.787 60.6786 116.895 60.0437 116.895 59.3448C116.895 58.6545 116.789 58.0323 116.576 57.4783C116.367 56.9201 116.049 56.479 115.623 56.1552C115.201 55.8271 114.671 55.663 114.032 55.663C113.418 55.663 112.902 55.8185 112.485 56.1296C112.067 56.4364 111.752 56.8668 111.539 57.4208C111.326 57.9705 111.219 58.6119 111.219 59.3448Z" fill="black"/>
</svg>
