<svg width="323" height="266" viewBox="0 0 323 266" fill="none" xmlns="http://www.w3.org/2000/svg">
<g filter="url(#filter0_d_1235_10482)">
<g clip-path="url(#clip0_1235_10482)">
<mask id="mask0_1235_10482" style="mask-type:luminance" maskUnits="userSpaceOnUse" x="46" y="26" width="231" height="500">
<path d="M276.634 26H46V526H276.634V26Z" fill="white"/>
</mask>
<g mask="url(#mask0_1235_10482)">
<path d="M276.634 26H46V526H276.634V26Z" fill="white"/>
<path d="M80.3631 117.664C80.9163 117.664 81.3819 117.85 81.7598 118.223C82.1378 118.596 82.3267 119.053 82.3267 119.595C82.3267 120.137 82.1378 120.595 81.7598 120.967C81.3819 121.34 80.9163 121.526 80.3631 121.526H79.3526V123.416H78.2188V117.664H80.3631ZM80.3631 120.466C80.6041 120.466 80.804 120.384 80.9629 120.22C81.1217 120.05 81.2011 119.842 81.2011 119.595C81.2011 119.343 81.1217 119.135 80.9629 118.971C80.804 118.806 80.6041 118.724 80.3631 118.724H79.3526V120.466H80.3631ZM84.1515 120.014C84.2501 119.751 84.4117 119.554 84.6362 119.423C84.8663 119.291 85.121 119.225 85.4003 119.225V120.409C85.0772 120.37 84.7869 120.436 84.5294 120.606C84.2775 120.775 84.1515 121.058 84.1515 121.452V123.416H83.0916V119.308H84.1515V120.014ZM89.5321 122.906C89.1103 123.322 88.5955 123.531 87.9875 123.531C87.3795 123.531 86.8646 123.322 86.4429 122.906C86.0266 122.484 85.8185 121.97 85.8185 121.362C85.8185 120.754 86.0266 120.241 86.4429 119.825C86.8646 119.403 87.3795 119.193 87.9875 119.193C88.5955 119.193 89.1103 119.403 89.5321 119.825C89.9538 120.241 90.1647 120.754 90.1647 121.362C90.1647 121.97 89.9538 122.484 89.5321 122.906ZM87.1905 122.175C87.4041 122.389 87.6698 122.495 87.9875 122.495C88.3051 122.495 88.5708 122.389 88.7844 122.175C88.998 121.961 89.1048 121.69 89.1048 121.362C89.1048 121.033 88.998 120.762 88.7844 120.548C88.5708 120.335 88.3051 120.228 87.9875 120.228C87.6698 120.228 87.4041 120.335 87.1905 120.548C86.9824 120.762 86.8783 121.033 86.8783 121.362C86.8783 121.69 86.9824 121.961 87.1905 122.175ZM94.1885 117.664H95.2483V123.416H94.1885V122.931C93.8763 123.331 93.4326 123.531 92.8575 123.531C92.3043 123.531 91.8305 123.322 91.4361 122.906C91.0472 122.484 90.8528 121.97 90.8528 121.362C90.8528 120.754 91.0472 120.241 91.4361 119.825C91.8305 119.403 92.3043 119.193 92.8575 119.193C93.4326 119.193 93.8763 119.393 94.1885 119.792V117.664ZM92.2331 122.2C92.4521 122.413 92.726 122.52 93.0547 122.52C93.3833 122.52 93.6544 122.413 93.868 122.2C94.0817 121.981 94.1885 121.701 94.1885 121.362C94.1885 121.022 94.0817 120.745 93.868 120.532C93.6544 120.313 93.3833 120.203 93.0547 120.203C92.726 120.203 92.4521 120.313 92.2331 120.532C92.0195 120.745 91.9126 121.022 91.9126 121.362C91.9126 121.701 92.0195 121.981 92.2331 122.2ZM99.0932 119.308H100.153V123.416H99.0932V122.956C98.8358 123.339 98.4277 123.531 97.869 123.531C97.4199 123.531 97.0474 123.38 96.7517 123.079C96.4614 122.778 96.3162 122.361 96.3162 121.83V119.308H97.3761V121.698C97.3761 121.973 97.45 122.183 97.5979 122.331C97.7458 122.474 97.943 122.545 98.1895 122.545C98.4633 122.545 98.6824 122.46 98.8467 122.29C99.0111 122.12 99.0932 121.866 99.0932 121.526V119.308ZM103.243 123.531C102.625 123.531 102.107 123.322 101.691 122.906C101.28 122.49 101.074 121.975 101.074 121.362C101.074 120.748 101.28 120.233 101.691 119.817C102.107 119.401 102.625 119.193 103.243 119.193C103.643 119.193 104.008 119.288 104.336 119.48C104.665 119.672 104.914 119.929 105.084 120.252L104.172 120.787C104.09 120.617 103.964 120.483 103.794 120.384C103.63 120.285 103.443 120.236 103.235 120.236C102.918 120.236 102.655 120.343 102.447 120.556C102.238 120.765 102.134 121.033 102.134 121.362C102.134 121.685 102.238 121.953 102.447 122.167C102.655 122.375 102.918 122.479 103.235 122.479C103.449 122.479 103.638 122.433 103.802 122.339C103.972 122.241 104.098 122.106 104.18 121.937L105.1 122.463C104.919 122.786 104.665 123.046 104.336 123.243C104.008 123.435 103.643 123.531 103.243 123.531ZM108.175 120.326H107.246V122.035C107.246 122.178 107.282 122.282 107.353 122.348C107.425 122.413 107.529 122.451 107.665 122.463C107.803 122.468 107.972 122.466 108.175 122.454V123.416C107.446 123.498 106.932 123.429 106.63 123.21C106.334 122.991 106.186 122.599 106.186 122.035V120.326H105.472V119.308H106.186V118.478L107.246 118.157V119.308H108.175V120.326ZM113.702 117.664C114.491 117.664 115.148 117.941 115.674 118.494C116.205 119.048 116.471 119.73 116.471 120.54C116.471 121.35 116.205 122.032 115.674 122.586C115.148 123.139 114.491 123.416 113.702 123.416H111.418V117.664H113.702ZM113.702 122.331C114.201 122.331 114.606 122.167 114.918 121.838C115.23 121.504 115.387 121.071 115.387 120.54C115.387 120.009 115.23 119.579 114.918 119.25C114.606 118.916 114.201 118.749 113.702 118.749H112.552V122.331H113.702ZM118.286 121.797C118.428 122.312 118.814 122.569 119.444 122.569C119.85 122.569 120.157 122.433 120.364 122.159L121.219 122.652C120.814 123.238 120.216 123.531 119.428 123.531C118.749 123.531 118.203 123.325 117.793 122.914C117.382 122.504 117.177 121.986 117.177 121.362C117.177 120.743 117.38 120.228 117.784 119.817C118.19 119.401 118.711 119.193 119.346 119.193C119.948 119.193 120.444 119.401 120.833 119.817C121.227 120.233 121.424 120.748 121.424 121.362C121.424 121.498 121.411 121.644 121.383 121.797H118.286ZM118.269 120.975H120.364C120.304 120.696 120.178 120.488 119.986 120.351C119.8 120.214 119.587 120.146 119.346 120.146C119.061 120.146 118.826 120.22 118.639 120.368C118.453 120.51 118.33 120.713 118.269 120.975ZM124.558 120.326H123.63V122.035C123.63 122.178 123.665 122.282 123.736 122.348C123.808 122.413 123.912 122.451 124.049 122.463C124.186 122.468 124.355 122.466 124.558 122.454V123.416C123.83 123.498 123.315 123.429 123.013 123.21C122.718 122.991 122.57 122.599 122.57 122.035V120.326H121.855V119.308H122.57V118.478L123.63 118.157V119.308H124.558V120.326ZM128.463 119.308H129.523V123.416H128.463V122.931C128.145 123.331 127.699 123.531 127.124 123.531C126.576 123.531 126.105 123.322 125.711 122.906C125.322 122.484 125.128 121.97 125.128 121.362C125.128 120.754 125.322 120.241 125.711 119.825C126.105 119.403 126.576 119.193 127.124 119.193C127.699 119.193 128.145 119.393 128.463 119.792V119.308ZM126.508 122.2C126.722 122.413 126.993 122.52 127.321 122.52C127.65 122.52 127.921 122.413 128.135 122.2C128.354 121.981 128.463 121.701 128.463 121.362C128.463 121.022 128.354 120.745 128.135 120.532C127.921 120.313 127.65 120.203 127.321 120.203C126.993 120.203 126.722 120.313 126.508 120.532C126.294 120.745 126.188 121.022 126.188 121.362C126.188 121.701 126.294 121.981 126.508 122.2ZM131.174 118.815C130.999 118.815 130.846 118.752 130.714 118.626C130.588 118.494 130.525 118.341 130.525 118.166C130.525 117.99 130.588 117.837 130.714 117.706C130.846 117.574 130.999 117.508 131.174 117.508C131.355 117.508 131.509 117.574 131.634 117.706C131.766 117.837 131.831 117.99 131.831 118.166C131.831 118.341 131.766 118.494 131.634 118.626C131.509 118.752 131.355 118.815 131.174 118.815ZM130.648 123.416V119.308H131.708V123.416H130.648ZM132.843 123.416V117.418H133.902V123.416H132.843ZM135.983 120.474C135.983 120.584 136.054 120.674 136.196 120.745C136.344 120.811 136.522 120.872 136.73 120.926C136.938 120.975 137.147 121.041 137.355 121.123C137.563 121.2 137.738 121.332 137.881 121.518C138.029 121.704 138.103 121.937 138.103 122.216C138.103 122.638 137.944 122.964 137.626 123.194C137.314 123.419 136.922 123.531 136.451 123.531C135.607 123.531 135.032 123.205 134.726 122.553L135.646 122.035C135.766 122.392 136.034 122.569 136.451 122.569C136.829 122.569 137.018 122.451 137.018 122.216C137.018 122.106 136.944 122.019 136.796 121.953C136.654 121.882 136.478 121.819 136.27 121.764C136.062 121.71 135.854 121.641 135.646 121.559C135.438 121.477 135.26 121.348 135.112 121.173C134.969 120.992 134.898 120.767 134.898 120.499C134.898 120.093 135.046 119.776 135.342 119.546C135.643 119.311 136.016 119.193 136.459 119.193C136.793 119.193 137.097 119.269 137.371 119.423C137.645 119.571 137.861 119.784 138.02 120.064L137.117 120.556C136.985 120.277 136.766 120.137 136.459 120.137C136.322 120.137 136.207 120.167 136.114 120.228C136.026 120.288 135.983 120.37 135.983 120.474Z" fill="#1A1A1A"/>
<path d="M144.008 121.656H262.552" stroke="#B7B7B7" stroke-width="2"/>
<path d="M60.0859 121.656H71.823" stroke="#B7B7B7" stroke-width="2"/>
<path d="M62.9931 146.422C63.5244 146.422 63.9653 146.6 64.3159 146.956C64.6719 147.306 64.8499 147.745 64.8499 148.27C64.8499 148.791 64.6719 149.229 64.3159 149.585C63.9653 149.941 63.5244 150.119 62.9931 150.119H61.6703V152.173H60.9062V146.422H62.9931ZM62.9931 149.404C63.3108 149.404 63.5737 149.297 63.7818 149.084C63.99 148.865 64.094 148.594 64.094 148.27C64.094 147.942 63.99 147.671 63.7818 147.457C63.5737 147.243 63.3108 147.137 62.9931 147.137H61.6703V149.404H62.9931ZM66.305 148.755C66.5405 148.246 66.9678 147.991 67.5867 147.991V148.739C67.2361 148.722 66.9349 148.816 66.6829 149.018C66.431 149.221 66.305 149.547 66.305 149.996V152.173H65.5902V148.065H66.305V148.755ZM71.5286 151.655C71.1068 152.072 70.5946 152.28 69.9922 152.28C69.3896 152.28 68.8775 152.072 68.4558 151.655C68.0395 151.239 67.8314 150.727 67.8314 150.119C67.8314 149.511 68.0395 148.999 68.4558 148.583C68.8775 148.167 69.3896 147.958 69.9922 147.958C70.5946 147.958 71.1068 148.167 71.5286 148.583C71.9503 148.999 72.1612 149.511 72.1612 150.119C72.1612 150.727 71.9503 151.239 71.5286 151.655ZM69.9922 151.582C70.403 151.582 70.748 151.442 71.0274 151.162C71.3067 150.883 71.4464 150.535 71.4464 150.119C71.4464 149.703 71.3067 149.355 71.0274 149.076C70.748 148.796 70.403 148.657 69.9922 148.657C69.5868 148.657 69.2445 148.796 68.9652 149.076C68.6858 149.355 68.5462 149.703 68.5462 150.119C68.5462 150.535 68.6858 150.883 68.9652 151.162C69.2445 151.442 69.5868 151.582 69.9922 151.582ZM76.4052 146.422H77.12V152.173H76.4052V151.466C76.0492 152.009 75.5316 152.28 74.8524 152.28C74.2773 152.28 73.7871 152.072 73.3817 151.655C72.9764 151.233 72.7737 150.722 72.7737 150.119C72.7737 149.516 72.9764 149.007 73.3817 148.591C73.7871 148.169 74.2773 147.958 74.8524 147.958C75.5316 147.958 76.0492 148.229 76.4052 148.772V146.422ZM74.9428 151.59C75.3591 151.59 75.7068 151.45 75.9862 151.171C76.2655 150.886 76.4052 150.535 76.4052 150.119C76.4052 149.703 76.2655 149.355 75.9862 149.076C75.7068 148.791 75.3591 148.648 74.9428 148.648C74.532 148.648 74.1869 148.791 73.9075 149.076C73.6282 149.355 73.4885 149.703 73.4885 150.119C73.4885 150.535 73.6282 150.886 73.9075 151.171C74.1869 151.45 74.532 151.59 74.9428 151.59ZM81.0375 148.065H81.7523V152.173H81.0375V151.582C80.7472 152.047 80.3036 152.28 79.7065 152.28C79.2245 152.28 78.8384 152.129 78.548 151.828C78.2578 151.521 78.1126 151.108 78.1126 150.587V148.065H78.8274V150.546C78.8274 150.88 78.9178 151.141 79.0985 151.327C79.2793 151.508 79.5285 151.598 79.8462 151.598C80.2022 151.598 80.4898 151.488 80.7088 151.269C80.928 151.045 81.0375 150.702 81.0375 150.242V148.065ZM84.7713 152.28C84.1523 152.28 83.6375 152.074 83.2267 151.664C82.8159 151.248 82.6105 150.732 82.6105 150.119C82.6105 149.506 82.8159 148.993 83.2267 148.583C83.6375 148.167 84.1523 147.958 84.7713 147.958C85.1766 147.958 85.5408 148.057 85.864 148.254C86.1871 148.446 86.4281 148.706 86.587 149.035L85.9872 149.38C85.8831 149.161 85.7216 148.985 85.5025 148.854C85.2889 148.722 85.0451 148.657 84.7713 148.657C84.3605 148.657 84.0154 148.796 83.7361 149.076C83.4622 149.355 83.3253 149.703 83.3253 150.119C83.3253 150.53 83.4622 150.875 83.7361 151.154C84.0154 151.434 84.3605 151.573 84.7713 151.573C85.0451 151.573 85.2916 151.51 85.5107 151.384C85.7298 151.253 85.8969 151.077 86.0119 150.858L86.6199 151.212C86.4446 151.535 86.1926 151.795 85.864 151.992C85.5354 152.184 85.1711 152.28 84.7713 152.28ZM89.5603 148.755H88.4676V150.982C88.4676 151.184 88.506 151.33 88.5826 151.417C88.6648 151.499 88.788 151.543 88.9523 151.549C89.1166 151.549 89.3193 151.543 89.5603 151.532V152.173C88.9359 152.255 88.4786 152.206 88.1882 152.025C87.898 151.839 87.7528 151.491 87.7528 150.982V148.755H86.9394V148.065H87.7528V147.128L88.4676 146.915V148.065H89.5603V148.755ZM96.1325 146.422H96.8966V152.173H96.2804L93.3227 147.876V152.173H92.5586V146.422H93.1748L96.1325 150.711V146.422ZM101.454 148.065H102.169V152.173H101.454V151.466C101.098 152.009 100.581 152.28 99.9014 152.28C99.3263 152.28 98.8361 152.072 98.4308 151.655C98.0255 151.233 97.8228 150.722 97.8228 150.119C97.8228 149.516 98.0255 149.007 98.4308 148.591C98.8361 148.169 99.3263 147.958 99.9014 147.958C100.581 147.958 101.098 148.229 101.454 148.772V148.065ZM99.9918 151.59C100.408 151.59 100.756 151.45 101.035 151.171C101.315 150.886 101.454 150.535 101.454 150.119C101.454 149.703 101.315 149.355 101.035 149.076C100.756 148.791 100.408 148.648 99.9918 148.648C99.581 148.648 99.2359 148.791 98.9566 149.076C98.6773 149.355 98.5376 149.703 98.5376 150.119C98.5376 150.535 98.6773 150.886 98.9566 151.171C99.2359 151.45 99.581 151.59 99.9918 151.59ZM107.689 147.958C108.149 147.958 108.521 148.109 108.806 148.41C109.091 148.706 109.233 149.108 109.233 149.618V152.173H108.518V149.643C108.518 149.325 108.436 149.079 108.272 148.903C108.108 148.728 107.889 148.64 107.615 148.64C107.308 148.64 107.061 148.744 106.875 148.952C106.694 149.155 106.604 149.467 106.604 149.889V152.173H105.889V149.643C105.889 149.325 105.81 149.079 105.651 148.903C105.498 148.728 105.287 148.64 105.018 148.64C104.717 148.64 104.465 148.744 104.263 148.952C104.065 149.161 103.967 149.473 103.967 149.889V152.173H103.252V148.065H103.967V148.616C104.246 148.177 104.654 147.958 105.191 147.958C105.744 147.958 106.147 148.191 106.399 148.657C106.683 148.191 107.113 147.958 107.689 147.958ZM110.726 150.448C110.797 150.814 110.964 151.1 111.227 151.302C111.495 151.505 111.824 151.606 112.213 151.606C112.755 151.606 113.149 151.406 113.396 151.006L114.004 151.351C113.604 151.971 113.001 152.28 112.196 152.28C111.544 152.28 111.013 152.077 110.602 151.672C110.197 151.261 109.994 150.743 109.994 150.119C109.994 149.5 110.194 148.985 110.594 148.574C110.994 148.164 111.511 147.958 112.147 147.958C112.75 147.958 113.24 148.172 113.618 148.599C114.001 149.021 114.193 149.53 114.193 150.127C114.193 150.231 114.184 150.338 114.168 150.448H110.726ZM112.147 148.632C111.764 148.632 111.446 148.742 111.194 148.961C110.942 149.174 110.786 149.462 110.726 149.823H113.47C113.409 149.434 113.256 149.138 113.01 148.936C112.763 148.733 112.476 148.632 112.147 148.632Z" fill="#1A1A1A"/>
<path d="M254.33 161.27H68.2975C63.922 161.27 60.375 164.817 60.375 169.192V186.211C60.375 190.586 63.922 194.133 68.2975 194.133H254.33C258.706 194.133 262.253 190.586 262.253 186.211V169.192C262.253 164.817 258.706 161.27 254.33 161.27Z" fill="white"/>
<path d="M72.7734 180.928V174.952H74.7925C75.2612 174.952 75.6444 175.037 75.942 175.206C76.2415 175.374 76.4632 175.6 76.6072 175.886C76.7511 176.172 76.8231 176.491 76.8231 176.843C76.8231 177.195 76.7511 177.515 76.6072 177.803C76.4652 178.091 76.2454 178.32 75.9478 178.492C75.6502 178.661 75.269 178.745 74.8041 178.745H73.3569V178.104H74.7808C75.1017 178.104 75.3594 178.048 75.5539 177.937C75.7484 177.826 75.8895 177.676 75.977 177.487C76.0665 177.297 76.1112 177.082 76.1112 176.843C76.1112 176.604 76.0665 176.39 75.977 176.201C75.8895 176.013 75.7474 175.865 75.551 175.757C75.3545 175.649 75.0939 175.594 74.7691 175.594H73.497V180.928H72.7734ZM77.8953 180.928V176.446H78.5605V177.123H78.6072C78.6889 176.901 78.8367 176.722 79.0507 176.583C79.2646 176.445 79.5058 176.376 79.7742 176.376C79.8248 176.376 79.888 176.377 79.9639 176.379C80.0398 176.381 80.0971 176.384 80.136 176.388V177.088C80.1126 177.082 80.0592 177.074 79.9756 177.062C79.8939 177.048 79.8073 177.041 79.7159 177.041C79.498 177.041 79.3035 177.087 79.1324 177.179C78.9631 177.268 78.8289 177.392 78.7297 177.552C78.6325 177.709 78.5838 177.889 78.5838 178.092V180.928H77.8953ZM82.6364 181.021C82.2318 181.021 81.8768 180.925 81.5714 180.732C81.268 180.54 81.0307 180.27 80.8596 179.924C80.6903 179.578 80.6057 179.173 80.6057 178.71C80.6057 178.243 80.6903 177.836 80.8596 177.487C81.0307 177.139 81.268 176.87 81.5714 176.676C81.8768 176.484 82.2318 176.388 82.6364 176.388C83.041 176.388 83.395 176.484 83.6984 176.676C84.0038 176.87 84.241 177.139 84.4103 177.487C84.5815 177.836 84.667 178.243 84.667 178.71C84.667 179.173 84.5815 179.578 84.4103 179.924C84.241 180.27 84.0038 180.54 83.6984 180.732C83.395 180.925 83.041 181.021 82.6364 181.021ZM82.6364 180.402C82.9437 180.402 83.1966 180.324 83.395 180.166C83.5934 180.009 83.7402 179.801 83.8355 179.544C83.9308 179.288 83.9785 179.01 83.9785 178.71C83.9785 178.411 83.9308 178.132 83.8355 177.873C83.7402 177.614 83.5934 177.405 83.395 177.246C83.1966 177.086 82.9437 177.006 82.6364 177.006C82.3291 177.006 82.0762 177.086 81.8778 177.246C81.6794 177.405 81.5326 177.614 81.4372 177.873C81.3419 178.132 81.2943 178.411 81.2943 178.71C81.2943 179.01 81.3419 179.288 81.4372 179.544C81.5326 179.801 81.6794 180.009 81.8778 180.166C82.0762 180.324 82.3291 180.402 82.6364 180.402ZM87.4103 181.021C87.0369 181.021 86.7072 180.926 86.4213 180.738C86.1354 180.547 85.9116 180.279 85.7502 179.933C85.5888 179.584 85.5081 179.173 85.5081 178.699C85.5081 178.228 85.5888 177.82 85.7502 177.473C85.9116 177.127 86.1363 176.86 86.4241 176.671C86.7121 176.482 87.0446 176.388 87.422 176.388C87.7138 176.388 87.9442 176.436 88.1135 176.534C88.2846 176.629 88.4149 176.738 88.5044 176.861C88.5959 176.981 88.6668 177.08 88.7174 177.158H88.7757V174.952H89.4643V180.928H88.7991V180.239H88.7174C88.6668 180.321 88.5949 180.424 88.5015 180.548C88.4081 180.671 88.2749 180.781 88.1018 180.878C87.9287 180.973 87.6982 181.021 87.4103 181.021ZM87.5037 180.402C87.7799 180.402 88.0133 180.33 88.2039 180.186C88.3945 180.041 88.5394 179.84 88.6386 179.583C88.7378 179.324 88.7874 179.026 88.7874 178.687C88.7874 178.352 88.7388 178.06 88.6415 177.808C88.5443 177.556 88.4004 177.36 88.2098 177.219C88.0191 177.077 87.7838 177.006 87.5037 177.006C87.2119 177.006 86.9688 177.081 86.7743 177.231C86.5817 177.379 86.4368 177.58 86.3396 177.835C86.2443 178.088 86.1966 178.372 86.1966 178.687C86.1966 179.006 86.2452 179.296 86.3425 179.556C86.4417 179.815 86.5875 180.021 86.7801 180.175C86.9746 180.327 87.2158 180.402 87.5037 180.402ZM93.6452 179.095V176.446H94.3338V180.928H93.6452V180.169H93.5986C93.4935 180.396 93.3301 180.59 93.1084 180.75C92.8866 180.907 92.6065 180.986 92.2681 180.986C91.9881 180.986 91.7391 180.925 91.5212 180.802C91.3034 180.678 91.1322 180.491 91.0077 180.242C90.8832 179.991 90.821 179.675 90.821 179.294V176.446H91.5095V179.247C91.5095 179.574 91.601 179.834 91.7838 180.029C91.9686 180.223 92.204 180.321 92.4899 180.321C92.661 180.321 92.8351 180.277 93.0121 180.189C93.191 180.102 93.3408 179.968 93.4614 179.787C93.5839 179.606 93.6452 179.375 93.6452 179.095ZM97.4155 181.021C96.9954 181.021 96.6336 180.922 96.3301 180.723C96.0267 180.525 95.7933 180.252 95.63 179.904C95.4665 179.556 95.3848 179.158 95.3848 178.71C95.3848 178.255 95.4685 177.854 95.6358 177.505C95.805 177.155 96.0403 176.882 96.3418 176.685C96.6453 176.487 96.9993 176.388 97.4038 176.388C97.7189 176.388 98.0029 176.446 98.2558 176.563C98.5087 176.679 98.7158 176.843 98.8772 177.053C99.0386 177.263 99.1388 177.508 99.1777 177.789H98.4892C98.4366 177.584 98.32 177.403 98.1391 177.246C97.9601 177.086 97.7189 177.006 97.4155 177.006C97.1471 177.006 96.9117 177.076 96.7094 177.216C96.5091 177.354 96.3525 177.55 96.2397 177.803C96.1288 178.054 96.0734 178.348 96.0734 178.687C96.0734 179.033 96.1278 179.335 96.2368 179.591C96.3477 179.848 96.5033 180.047 96.7036 180.189C96.9059 180.331 97.1432 180.402 97.4155 180.402C97.5944 180.402 97.7568 180.371 97.9027 180.309C98.0486 180.247 98.1722 180.158 98.2733 180.041C98.3744 179.924 98.4464 179.784 98.4892 179.621H99.1777C99.1388 179.885 99.0426 180.123 98.8889 180.335C98.7372 180.546 98.5359 180.713 98.2849 180.837C98.036 180.96 97.7462 181.021 97.4155 181.021ZM102.133 176.446V177.03H99.8108V176.446H102.133ZM100.488 175.372H101.176V179.644C101.176 179.838 101.204 179.985 101.261 180.081C101.319 180.177 101.393 180.241 101.483 180.274C101.574 180.305 101.67 180.321 101.772 180.321C101.847 180.321 101.91 180.317 101.958 180.309C102.007 180.299 102.046 180.291 102.075 180.286L102.215 180.904C102.168 180.922 102.103 180.939 102.019 180.957C101.936 180.976 101.83 180.986 101.701 180.986C101.507 180.986 101.316 180.944 101.13 180.861C100.945 180.777 100.791 180.649 100.669 180.478C100.548 180.307 100.488 180.091 100.488 179.831V175.372ZM110.311 174.952V180.928H109.611L106.355 176.236H106.297V180.928H105.573V174.952H106.273L109.541 179.655H109.599V174.952H110.311ZM112.984 181.033C112.7 181.033 112.443 180.979 112.212 180.872C111.98 180.763 111.796 180.607 111.66 180.402C111.524 180.196 111.456 179.948 111.456 179.655C111.456 179.399 111.506 179.191 111.608 179.031C111.709 178.87 111.844 178.743 112.013 178.652C112.182 178.56 112.369 178.492 112.573 178.448C112.78 178.401 112.987 178.364 113.195 178.337C113.467 178.302 113.687 178.276 113.857 178.258C114.028 178.239 114.153 178.206 114.23 178.162C114.31 178.117 114.35 178.039 114.35 177.928V177.905C114.35 177.617 114.271 177.394 114.114 177.234C113.958 177.074 113.722 176.995 113.405 176.995C113.076 176.995 112.818 177.067 112.632 177.21C112.445 177.354 112.314 177.508 112.237 177.672L111.584 177.438C111.701 177.166 111.856 176.954 112.051 176.802C112.247 176.648 112.462 176.541 112.693 176.481C112.926 176.419 113.156 176.388 113.381 176.388C113.525 176.388 113.69 176.405 113.878 176.441C114.066 176.473 114.248 176.543 114.423 176.648C114.6 176.753 114.747 176.911 114.864 177.123C114.98 177.335 115.038 177.619 115.038 177.975V180.928H114.35V180.321H114.315C114.268 180.418 114.19 180.522 114.082 180.633C113.973 180.744 113.828 180.838 113.647 180.916C113.466 180.994 113.245 181.033 112.984 181.033ZM113.089 180.414C113.362 180.414 113.591 180.361 113.778 180.254C113.967 180.146 114.109 180.009 114.204 179.84C114.301 179.67 114.35 179.492 114.35 179.306V178.675C114.321 178.71 114.257 178.742 114.158 178.771C114.06 178.798 113.947 178.823 113.819 178.844C113.693 178.864 113.569 178.881 113.449 178.897C113.33 178.911 113.233 178.922 113.16 178.932C112.981 178.955 112.814 178.993 112.658 179.046C112.504 179.096 112.379 179.173 112.284 179.276C112.191 179.377 112.144 179.516 112.144 179.691C112.144 179.93 112.233 180.111 112.41 180.233C112.589 180.354 112.815 180.414 113.089 180.414ZM116.295 180.928V176.446H116.96V177.146H117.019C117.112 176.907 117.263 176.722 117.471 176.589C117.679 176.455 117.929 176.388 118.221 176.388C118.517 176.388 118.763 176.455 118.959 176.589C119.158 176.722 119.312 176.907 119.423 177.146H119.47C119.584 176.915 119.757 176.731 119.986 176.595C120.216 176.457 120.491 176.388 120.812 176.388C121.213 176.388 121.54 176.513 121.795 176.764C122.05 177.013 122.177 177.401 122.177 177.928V180.928H121.489V177.928C121.489 177.598 121.398 177.361 121.217 177.219C121.037 177.077 120.824 177.006 120.578 177.006C120.263 177.006 120.019 177.102 119.846 177.292C119.673 177.481 119.587 177.72 119.587 178.01V180.928H118.886V177.858C118.886 177.604 118.804 177.398 118.638 177.243C118.473 177.085 118.26 177.006 117.999 177.006C117.82 177.006 117.653 177.054 117.497 177.149C117.344 177.245 117.219 177.377 117.124 177.546C117.031 177.713 116.984 177.907 116.984 178.127V180.928H116.295ZM125.315 181.021C124.883 181.021 124.511 180.926 124.197 180.735C123.886 180.543 123.646 180.274 123.477 179.93C123.31 179.584 123.226 179.181 123.226 178.722C123.226 178.263 123.31 177.858 123.477 177.508C123.646 177.156 123.882 176.882 124.183 176.685C124.486 176.487 124.841 176.388 125.245 176.388C125.479 176.388 125.709 176.426 125.936 176.504C126.164 176.583 126.371 176.709 126.558 176.884C126.744 177.057 126.893 177.286 127.004 177.573C127.115 177.858 127.17 178.21 127.17 178.628V178.921H123.716V178.325H126.47C126.47 178.072 126.42 177.847 126.319 177.648C126.22 177.45 126.078 177.293 125.893 177.179C125.71 177.064 125.494 177.006 125.245 177.006C124.971 177.006 124.733 177.074 124.533 177.21C124.335 177.345 124.182 177.52 124.075 177.736C123.968 177.952 123.915 178.183 123.915 178.43V178.827C123.915 179.165 123.973 179.452 124.089 179.688C124.209 179.921 124.373 180.099 124.583 180.222C124.793 180.342 125.037 180.402 125.315 180.402C125.496 180.402 125.659 180.377 125.805 180.327C125.953 180.274 126.081 180.196 126.187 180.093C126.294 179.988 126.377 179.858 126.435 179.702L127.101 179.889C127.031 180.115 126.913 180.313 126.747 180.484C126.582 180.654 126.378 180.786 126.135 180.881C125.892 180.975 125.618 181.021 125.315 181.021ZM132.408 181.021C131.976 181.021 131.604 180.926 131.29 180.735C130.979 180.543 130.739 180.274 130.57 179.93C130.402 179.584 130.319 179.181 130.319 178.722C130.319 178.263 130.402 177.858 130.57 177.508C130.739 177.156 130.974 176.882 131.275 176.685C131.579 176.487 131.933 176.388 132.338 176.388C132.571 176.388 132.802 176.426 133.029 176.504C133.257 176.583 133.464 176.709 133.65 176.884C133.837 177.057 133.986 177.286 134.097 177.573C134.208 177.858 134.263 178.21 134.263 178.628V178.921H130.809V178.325H133.563C133.563 178.072 133.513 177.847 133.412 177.648C133.312 177.45 133.17 177.293 132.986 177.179C132.802 177.064 132.587 177.006 132.338 177.006C132.064 177.006 131.826 177.074 131.626 177.21C131.427 177.345 131.275 177.52 131.168 177.736C131.061 177.952 131.007 178.183 131.007 178.43V178.827C131.007 179.165 131.065 179.452 131.182 179.688C131.301 179.921 131.466 180.099 131.675 180.222C131.885 180.342 132.129 180.402 132.408 180.402C132.589 180.402 132.752 180.377 132.898 180.327C133.045 180.274 133.173 180.196 133.28 180.093C133.387 179.988 133.47 179.858 133.528 179.702L134.193 179.889C134.124 180.115 134.006 180.313 133.84 180.484C133.675 180.654 133.471 180.786 133.227 180.881C132.984 180.975 132.711 181.021 132.408 181.021ZM135.812 180.975C135.669 180.975 135.545 180.923 135.442 180.82C135.339 180.716 135.287 180.593 135.287 180.449C135.287 180.305 135.339 180.182 135.442 180.078C135.545 179.976 135.669 179.924 135.812 179.924C135.956 179.924 136.08 179.976 136.183 180.078C136.286 180.182 136.338 180.305 136.338 180.449C136.338 180.544 136.314 180.632 136.265 180.712C136.218 180.791 136.155 180.855 136.075 180.904C135.997 180.951 135.91 180.975 135.812 180.975ZM139.382 182.702C139.05 182.702 138.764 182.659 138.524 182.573C138.285 182.489 138.086 182.379 137.926 182.24C137.769 182.104 137.643 181.959 137.55 181.803L138.098 181.418C138.16 181.499 138.24 181.593 138.335 181.698C138.43 181.805 138.561 181.897 138.726 181.975C138.893 182.055 139.112 182.095 139.382 182.095C139.744 182.095 140.043 182.007 140.278 181.832C140.513 181.657 140.631 181.383 140.631 181.009V180.099H140.572C140.522 180.181 140.45 180.282 140.356 180.402C140.266 180.521 140.133 180.627 139.96 180.72C139.789 180.812 139.557 180.858 139.266 180.858C138.904 180.858 138.579 180.772 138.291 180.601C138.005 180.43 137.778 180.181 137.611 179.854C137.446 179.527 137.364 179.13 137.364 178.664C137.364 178.205 137.444 177.805 137.605 177.465C137.767 177.122 137.991 176.858 138.28 176.671C138.567 176.482 138.9 176.388 139.277 176.388C139.569 176.388 139.801 176.436 139.972 176.534C140.145 176.629 140.277 176.738 140.368 176.861C140.462 176.981 140.534 177.08 140.584 177.158H140.655V176.446H141.32V181.056C141.32 181.441 141.232 181.754 141.057 181.996C140.884 182.239 140.65 182.416 140.356 182.529C140.065 182.644 139.74 182.702 139.382 182.702ZM139.359 180.239C139.635 180.239 139.869 180.176 140.059 180.05C140.25 179.923 140.395 179.741 140.494 179.504C140.593 179.267 140.643 178.983 140.643 178.652C140.643 178.329 140.594 178.044 140.497 177.797C140.399 177.55 140.256 177.357 140.065 177.216C139.874 177.076 139.639 177.006 139.359 177.006C139.067 177.006 138.824 177.08 138.629 177.228C138.437 177.376 138.292 177.574 138.195 177.823C138.099 178.072 138.052 178.348 138.052 178.652C138.052 178.963 138.101 179.238 138.197 179.477C138.297 179.715 138.443 179.902 138.635 180.038C138.83 180.172 139.071 180.239 139.359 180.239ZM149.722 174.952V180.928H149.022L145.766 176.236H145.707V180.928H144.984V174.952H145.685L148.952 179.655H149.01V174.952H149.722ZM151.077 180.928V176.446H151.766V180.928H151.077ZM151.427 175.699C151.293 175.699 151.177 175.654 151.079 175.562C150.984 175.47 150.937 175.361 150.937 175.232C150.937 175.104 150.984 174.994 151.079 174.903C151.177 174.811 151.293 174.766 151.427 174.766C151.561 174.766 151.676 174.811 151.771 174.903C151.868 174.994 151.917 175.104 151.917 175.232C151.917 175.361 151.868 175.47 151.771 175.562C151.676 175.654 151.561 175.699 151.427 175.699ZM153.668 179.294L153.656 178.442H153.797L155.757 176.446H156.609L154.52 178.558H154.462L153.668 179.294ZM153.027 180.928V174.952H153.715V180.928H153.027ZM155.874 180.928L154.124 178.71L154.614 178.232L156.749 180.928H155.874ZM159.19 181.021C158.758 181.021 158.386 180.926 158.072 180.735C157.761 180.543 157.521 180.274 157.352 179.93C157.185 179.584 157.101 179.181 157.101 178.722C157.101 178.263 157.185 177.858 157.352 177.508C157.521 177.156 157.756 176.882 158.058 176.685C158.361 176.487 158.715 176.388 159.12 176.388C159.353 176.388 159.584 176.426 159.811 176.504C160.039 176.583 160.246 176.709 160.433 176.884C160.619 177.057 160.768 177.286 160.879 177.573C160.99 177.858 161.045 178.21 161.045 178.628V178.921H157.591V178.325H160.345C160.345 178.072 160.295 177.847 160.193 177.648C160.094 177.45 159.952 177.293 159.767 177.179C159.585 177.064 159.369 177.006 159.12 177.006C158.845 177.006 158.608 177.074 158.408 177.21C158.21 177.345 158.057 177.52 157.95 177.736C157.843 177.952 157.79 178.183 157.79 178.43V178.827C157.79 179.165 157.848 179.452 157.964 179.688C158.083 179.921 158.247 180.099 158.457 180.222C158.668 180.342 158.912 180.402 159.19 180.402C159.371 180.402 159.534 180.377 159.68 180.327C159.828 180.274 159.955 180.196 160.062 180.093C160.169 179.988 160.252 179.858 160.31 179.702L160.976 179.889C160.905 180.115 160.788 180.313 160.622 180.484C160.457 180.654 160.253 180.786 160.01 180.881C159.767 180.975 159.493 181.021 159.19 181.021ZM164.742 180.928H163.983L166.178 174.952H166.925L169.118 180.928H168.36L166.574 175.898H166.528L164.742 180.928ZM165.022 178.594H168.079V179.235H165.022V178.594ZM170.004 180.928V176.446H170.693V180.928H170.004ZM170.354 175.699C170.22 175.699 170.104 175.654 170.007 175.562C169.912 175.47 169.864 175.361 169.864 175.232C169.864 175.104 169.912 174.994 170.007 174.903C170.104 174.811 170.22 174.766 170.354 174.766C170.489 174.766 170.603 174.811 170.699 174.903C170.795 174.994 170.844 175.104 170.844 175.232C170.844 175.361 170.795 175.47 170.699 175.562C170.603 175.654 170.489 175.699 170.354 175.699ZM171.954 180.928V176.446H172.619V177.123H172.666C172.747 176.901 172.895 176.722 173.109 176.583C173.323 176.445 173.564 176.376 173.832 176.376C173.883 176.376 173.946 176.377 174.022 176.379C174.098 176.381 174.155 176.384 174.195 176.388V177.088C174.171 177.082 174.118 177.074 174.034 177.062C173.952 177.048 173.866 177.041 173.774 177.041C173.557 177.041 173.362 177.087 173.19 177.179C173.021 177.268 172.887 177.392 172.788 177.552C172.691 177.709 172.642 177.889 172.642 178.092V180.928H171.954ZM177.415 174.952H178.278L180.309 179.912H180.379L182.409 174.952H183.273V180.928H182.597V176.388H182.538L180.67 180.928H180.017L178.15 176.388H178.092V180.928H177.415V174.952ZM185.949 181.033C185.665 181.033 185.408 180.979 185.176 180.872C184.945 180.763 184.761 180.607 184.625 180.402C184.489 180.196 184.42 179.948 184.42 179.655C184.42 179.399 184.471 179.191 184.572 179.031C184.673 178.87 184.808 178.743 184.978 178.652C185.147 178.56 185.334 178.492 185.538 178.448C185.744 178.401 185.952 178.364 186.159 178.337C186.432 178.302 186.652 178.276 186.822 178.258C186.993 178.239 187.118 178.206 187.195 178.162C187.275 178.117 187.315 178.039 187.315 177.928V177.905C187.315 177.617 187.236 177.394 187.078 177.234C186.923 177.074 186.686 176.995 186.369 176.995C186.041 176.995 185.783 177.067 185.597 177.21C185.41 177.354 185.278 177.508 185.203 177.672L184.549 177.438C184.666 177.166 184.821 176.954 185.016 176.802C185.212 176.648 185.426 176.541 185.658 176.481C185.891 176.419 186.121 176.388 186.346 176.388C186.49 176.388 186.655 176.405 186.842 176.441C187.031 176.473 187.213 176.543 187.388 176.648C187.565 176.753 187.712 176.911 187.828 177.123C187.945 177.335 188.003 177.619 188.003 177.975V180.928H187.315V180.321H187.28C187.233 180.418 187.155 180.522 187.047 180.633C186.937 180.744 186.793 180.838 186.612 180.916C186.431 180.994 186.21 181.033 185.949 181.033ZM186.054 180.414C186.327 180.414 186.556 180.361 186.743 180.254C186.932 180.146 187.074 180.009 187.169 179.84C187.266 179.67 187.315 179.492 187.315 179.306V178.675C187.285 178.71 187.222 178.742 187.122 178.771C187.025 178.798 186.912 178.823 186.784 178.844C186.658 178.864 186.534 178.881 186.413 178.897C186.295 178.911 186.198 178.922 186.125 178.932C185.946 178.955 185.778 178.993 185.622 179.046C185.469 179.096 185.344 179.173 185.249 179.276C185.156 179.377 185.109 179.516 185.109 179.691C185.109 179.93 185.197 180.111 185.375 180.233C185.554 180.354 185.78 180.414 186.054 180.414ZM189.774 176.446L190.847 178.279L191.921 176.446H192.714L191.267 178.687L192.714 180.928H191.921L190.847 179.189L189.774 180.928H188.98L190.404 178.687L188.98 176.446H189.774Z" fill="#696969"/>
<path d="M254.33 161.27H68.2975C63.922 161.27 60.375 164.817 60.375 169.192V186.211C60.375 190.586 63.922 194.133 68.2975 194.133H254.33C258.706 194.133 262.253 190.586 262.253 186.211V169.192C262.253 164.817 258.706 161.27 254.33 161.27Z" stroke="#EAEAEA"/>
<path d="M63.5774 215.66C62.7065 215.66 61.9862 215.373 61.4166 214.797C60.8524 214.222 60.5703 213.516 60.5703 212.678C60.5703 211.84 60.8524 211.133 61.4166 210.558C61.9862 209.983 62.7065 209.695 63.5774 209.695C64.1032 209.695 64.5852 209.821 65.0234 210.073C65.467 210.325 65.8121 210.665 66.0586 211.092L65.3931 211.478C65.2288 211.161 64.9823 210.908 64.6536 210.722C64.3305 210.53 63.9717 210.435 63.5774 210.435C62.9146 210.435 62.3723 210.648 61.9506 211.076C61.5343 211.503 61.3262 212.037 61.3262 212.678C61.3262 213.313 61.5343 213.844 61.9506 214.272C62.3723 214.699 62.9146 214.912 63.5774 214.912C63.9717 214.912 64.3305 214.819 64.6536 214.633C64.9823 214.441 65.2288 214.189 65.3931 213.877L66.0586 214.255C65.8176 214.682 65.4752 215.025 65.0316 215.282C64.5879 215.534 64.1032 215.66 63.5774 215.66ZM70.2353 211.445H70.9501V215.553H70.2353V214.847C69.8794 215.389 69.3617 215.66 68.6825 215.66C68.1074 215.66 67.6172 215.452 67.2119 215.036C66.8066 214.614 66.6039 214.102 66.6039 213.499C66.6039 212.897 66.8066 212.387 67.2119 211.971C67.6172 211.549 68.1074 211.338 68.6825 211.338C69.3617 211.338 69.8794 211.61 70.2353 212.152V211.445ZM68.7729 214.97C69.1892 214.97 69.537 214.83 69.8163 214.551C70.0957 214.266 70.2353 213.915 70.2353 213.499C70.2353 213.083 70.0957 212.735 69.8163 212.456C69.537 212.171 69.1892 212.029 68.7729 212.029C68.3621 212.029 68.017 212.171 67.7377 212.456C67.4583 212.735 67.3187 213.083 67.3187 213.499C67.3187 213.915 67.4583 214.266 67.7377 214.551C68.017 214.83 68.3621 214.97 68.7729 214.97ZM74.2678 212.135H73.1751V214.362C73.1751 214.564 73.2134 214.71 73.2901 214.797C73.3723 214.88 73.4955 214.924 73.6599 214.929C73.8242 214.929 74.0268 214.924 74.2678 214.912V215.553C73.6434 215.635 73.1861 215.586 72.8958 215.405C72.6055 215.219 72.4603 214.871 72.4603 214.362V212.135H71.647V211.445H72.4603V210.509L73.1751 210.295V211.445H74.2678V212.135ZM75.4066 213.828C75.4779 214.195 75.6449 214.48 75.9078 214.682C76.1762 214.885 76.5049 214.986 76.8937 214.986C77.436 214.986 77.8303 214.786 78.0768 214.387L78.6848 214.732C78.285 215.351 77.6825 215.66 76.8773 215.66C76.2255 215.66 75.6942 215.458 75.2834 215.052C74.8781 214.641 74.6754 214.124 74.6754 213.499C74.6754 212.88 74.8754 212.366 75.2752 211.955C75.6751 211.544 76.1927 211.338 76.828 211.338C77.4305 211.338 77.9207 211.552 78.2987 211.979C78.6821 212.401 78.8738 212.911 78.8738 213.508C78.8738 213.611 78.8656 213.718 78.8491 213.828H75.4066ZM76.828 212.012C76.4446 212.012 76.1269 212.122 75.8749 212.341C75.623 212.554 75.4669 212.842 75.4066 213.204H78.1508C78.0906 212.814 77.9372 212.519 77.6907 212.316C77.4442 212.114 77.1566 212.012 76.828 212.012ZM83.0971 211.445H83.8036V215.381C83.8036 215.989 83.5982 216.46 83.1875 216.794C82.7767 217.134 82.2837 217.303 81.7086 217.303C81.2485 217.303 80.8514 217.216 80.5173 217.04C80.1831 216.871 79.9312 216.624 79.7614 216.301L80.3858 215.948C80.6103 216.408 81.0568 216.638 81.725 216.638C82.1522 216.638 82.4863 216.526 82.7274 216.301C82.9738 216.076 83.0971 215.77 83.0971 215.381V214.797C82.7356 215.345 82.2207 215.619 81.5525 215.619C80.9664 215.619 80.4707 215.411 80.0654 214.995C79.66 214.579 79.4574 214.071 79.4574 213.475C79.4574 212.878 79.66 212.374 80.0654 211.963C80.4707 211.547 80.9664 211.338 81.5525 211.338C82.2262 211.338 82.741 211.61 83.0971 212.152V211.445ZM80.5912 214.518C80.8705 214.797 81.2183 214.937 81.6346 214.937C82.0509 214.937 82.3987 214.797 82.6781 214.518C82.9574 214.239 83.0971 213.891 83.0971 213.475C83.0971 213.064 82.9574 212.719 82.6781 212.439C82.3987 212.16 82.0509 212.02 81.6346 212.02C81.2183 212.02 80.8705 212.16 80.5912 212.439C80.3119 212.719 80.1722 213.064 80.1722 213.475C80.1722 213.891 80.3119 214.239 80.5912 214.518ZM88.3537 215.036C87.932 215.452 87.4198 215.66 86.8173 215.66C86.2149 215.66 85.7027 215.452 85.2809 215.036C84.8647 214.62 84.6565 214.107 84.6565 213.499C84.6565 212.891 84.8647 212.379 85.2809 211.963C85.7027 211.547 86.2149 211.338 86.8173 211.338C87.4198 211.338 87.932 211.547 88.3537 211.963C88.7755 212.379 88.9863 212.891 88.9863 213.499C88.9863 214.107 88.7755 214.62 88.3537 215.036ZM86.8173 214.962C87.2281 214.962 87.5732 214.822 87.8525 214.543C88.1319 214.263 88.2715 213.915 88.2715 213.499C88.2715 213.083 88.1319 212.735 87.8525 212.456C87.5732 212.177 87.2281 212.037 86.8173 212.037C86.412 212.037 86.0697 212.177 85.7903 212.456C85.511 212.735 85.3713 213.083 85.3713 213.499C85.3713 213.915 85.511 214.263 85.7903 214.543C86.0697 214.822 86.412 214.962 86.8173 214.962ZM90.5438 212.135C90.7793 211.626 91.2065 211.371 91.8255 211.371V212.119C91.475 212.103 91.1737 212.196 90.9217 212.398C90.6698 212.601 90.5438 212.927 90.5438 213.376V215.553H89.829V211.445H90.5438V212.135ZM95.4805 211.445H96.2446L94.5686 215.808C94.3933 216.273 94.1468 216.627 93.8291 216.868C93.5169 217.114 93.1554 217.224 92.7446 217.196V216.531C93.2485 216.569 93.6182 216.29 93.8538 215.693L93.9277 215.537L92.1366 211.445H92.9007L94.2974 214.666L95.4805 211.445Z" fill="#1A1A1A"/>
<path d="M254.33 224.652H68.2975C63.922 224.652 60.375 228.199 60.375 232.575V249.594C60.375 253.969 63.922 257.516 68.2975 257.516H254.33C258.706 257.516 262.253 253.969 262.253 249.594V232.575C262.253 228.199 258.706 224.652 254.33 224.652Z" fill="white"/>
<path d="M75.1298 240.998V241.64H72.5156V240.998H75.1298ZM79.7024 239.826C79.6674 239.53 79.5254 239.3 79.2764 239.137C79.0275 238.974 78.7221 238.892 78.3603 238.892C78.0958 238.892 77.8643 238.935 77.6659 239.02C77.4694 239.106 77.3158 239.224 77.2049 239.373C77.096 239.523 77.0416 239.693 77.0416 239.884C77.0416 240.043 77.0795 240.181 77.1554 240.295C77.2331 240.408 77.3324 240.502 77.4529 240.578C77.5735 240.652 77.7 240.714 77.8322 240.762C77.9645 240.809 78.086 240.847 78.1969 240.876L78.8038 241.039C78.9594 241.08 79.1325 241.137 79.3231 241.208C79.5157 241.281 79.6995 241.379 79.8745 241.503C80.0515 241.626 80.1974 241.783 80.3122 241.976C80.427 242.168 80.4843 242.405 80.4843 242.685C80.4843 243.008 80.3997 243.299 80.2305 243.56C80.0632 243.82 79.8182 244.028 79.4953 244.181C79.1743 244.335 78.7843 244.412 78.3253 244.412C77.8974 244.412 77.5268 244.343 77.2137 244.205C76.9025 244.067 76.6574 243.874 76.4785 243.627C76.3015 243.38 76.2013 243.093 76.1779 242.766H76.9248C76.9443 242.992 77.0201 243.179 77.1524 243.327C77.2866 243.472 77.4558 243.582 77.6601 243.653C77.8663 243.724 78.088 243.758 78.3253 243.758C78.6015 243.758 78.8495 243.714 79.0693 243.624C79.2891 243.533 79.4632 243.406 79.5916 243.245C79.7199 243.082 79.7841 242.891 79.7841 242.673C79.7841 242.475 79.7287 242.313 79.6178 242.189C79.5069 242.065 79.361 241.963 79.1802 241.886C78.9993 241.808 78.8038 241.739 78.5937 241.681L77.8585 241.471C77.3917 241.337 77.0221 241.145 76.7498 240.896C76.4775 240.647 76.3413 240.322 76.3413 239.919C76.3413 239.585 76.4318 239.292 76.6127 239.043C76.7955 238.793 77.0406 238.598 77.3479 238.46C77.6572 238.32 78.0024 238.25 78.3836 238.25C78.7688 238.25 79.1111 238.319 79.4106 238.457C79.7102 238.593 79.9475 238.78 80.1225 239.018C80.2995 239.255 80.3929 239.524 80.4027 239.826H79.7024ZM83.4595 244.4C83.0277 244.4 82.6552 244.305 82.3421 244.114C82.0309 243.922 81.7907 243.653 81.6214 243.309C81.4542 242.963 81.3706 242.56 81.3706 242.101C81.3706 241.642 81.4542 241.238 81.6214 240.887C81.7907 240.535 82.026 240.261 82.3275 240.065C82.6309 239.866 82.9849 239.767 83.3895 239.767C83.6229 239.767 83.8534 239.806 84.081 239.884C84.3086 239.962 84.5157 240.088 84.7024 240.263C84.8892 240.436 85.038 240.665 85.1488 240.952C85.2597 241.238 85.3152 241.59 85.3152 242.008V242.3H81.8607V241.704H84.6149C84.6149 241.451 84.5643 241.226 84.4632 241.028C84.364 240.829 84.222 240.673 84.0372 240.558C83.8544 240.443 83.6385 240.386 83.3895 240.386C83.1153 240.386 82.8779 240.454 82.6777 240.59C82.4792 240.724 82.3265 240.899 82.2196 241.115C82.1126 241.331 82.0591 241.562 82.0591 241.809V242.206C82.0591 242.545 82.1174 242.832 82.2342 243.067C82.3528 243.3 82.5172 243.478 82.7272 243.601C82.9373 243.721 83.1814 243.782 83.4595 243.782C83.6404 243.782 83.8038 243.756 83.9497 243.706C84.0976 243.653 84.225 243.576 84.3319 243.472C84.4389 243.367 84.5216 243.237 84.5799 243.082L85.2451 243.268C85.1751 243.494 85.0574 243.692 84.8921 243.863C84.7268 244.033 84.5226 244.165 84.2794 244.26C84.0363 244.354 83.763 244.4 83.4595 244.4ZM87.0511 238.332V244.307H86.3626V238.332H87.0511ZM90.1912 244.4C89.7593 244.4 89.3869 244.305 89.0737 244.114C88.7625 243.922 88.5223 243.653 88.3531 243.309C88.1858 242.963 88.1022 242.56 88.1022 242.101C88.1022 241.642 88.1858 241.238 88.3531 240.887C88.5223 240.535 88.7576 240.261 89.0592 240.065C89.3626 239.866 89.7166 239.767 90.1211 239.767C90.3546 239.767 90.5851 239.806 90.8126 239.884C91.0402 239.962 91.2474 240.088 91.4341 240.263C91.6208 240.436 91.7696 240.665 91.8805 240.952C91.9913 241.238 92.0468 241.59 92.0468 242.008V242.3H88.5923V241.704H91.3466C91.3466 241.451 91.296 241.226 91.1948 241.028C91.0956 240.829 90.9537 240.673 90.7689 240.558C90.586 240.443 90.3701 240.386 90.1211 240.386C89.8469 240.386 89.6096 240.454 89.4093 240.59C89.2109 240.724 89.0582 240.899 88.9512 241.115C88.8442 241.331 88.7907 241.562 88.7907 241.809V242.206C88.7907 242.545 88.8491 242.832 88.9658 243.067C89.0845 243.3 89.2488 243.478 89.4589 243.601C89.6689 243.721 89.913 243.782 90.1912 243.782C90.3721 243.782 90.5355 243.756 90.6814 243.706C90.8292 243.653 90.9566 243.576 91.0635 243.472C91.1705 243.367 91.2532 243.237 91.3115 243.082L91.9768 243.268C91.9067 243.494 91.789 243.692 91.6237 243.863C91.4584 244.033 91.2542 244.165 91.0111 244.26C90.7679 244.354 90.4946 244.4 90.1912 244.4ZM94.9147 244.4C94.4946 244.4 94.1329 244.301 93.8294 244.103C93.526 243.904 93.2926 243.631 93.1292 243.283C92.9658 242.935 92.8841 242.537 92.8841 242.09C92.8841 241.634 92.9677 241.233 93.135 240.884C93.3042 240.535 93.5396 240.261 93.8411 240.065C94.1445 239.866 94.4985 239.767 94.9031 239.767C95.2182 239.767 95.5022 239.826 95.7551 239.942C96.0079 240.059 96.215 240.222 96.3765 240.433C96.5379 240.643 96.6381 240.887 96.677 241.168H95.9885C95.9359 240.964 95.8192 240.782 95.6383 240.625C95.4594 240.465 95.2182 240.386 94.9147 240.386C94.6464 240.386 94.411 240.455 94.2087 240.596C94.0084 240.734 93.8518 240.93 93.739 241.182C93.6281 241.433 93.5727 241.728 93.5727 242.066C93.5727 242.413 93.6271 242.714 93.736 242.971C93.8469 243.228 94.0025 243.427 94.2029 243.569C94.4052 243.711 94.6424 243.782 94.9147 243.782C95.0937 243.782 95.2561 243.751 95.402 243.688C95.5479 243.626 95.6714 243.537 95.7725 243.42C95.8737 243.303 95.9457 243.163 95.9885 243H96.677C96.6381 243.264 96.5418 243.502 96.3882 243.715C96.2365 243.925 96.0351 244.092 95.7842 244.217C95.5352 244.339 95.2454 244.4 94.9147 244.4ZM99.6325 239.826V240.409H97.3101V239.826H99.6325ZM97.987 238.752H98.6755V243.023C98.6755 243.218 98.7038 243.364 98.7602 243.461C98.8185 243.556 98.8924 243.62 98.9819 243.653C99.0733 243.684 99.1696 243.7 99.2707 243.7C99.3466 243.7 99.4089 243.696 99.4575 243.688C99.5061 243.678 99.545 243.671 99.5742 243.665L99.7142 244.283C99.6676 244.301 99.6024 244.319 99.5187 244.336C99.4351 244.356 99.3291 244.365 99.2007 244.365C99.0062 244.365 98.8156 244.323 98.6289 244.24C98.4441 244.156 98.2905 244.029 98.1679 243.857C98.0473 243.687 97.987 243.471 97.987 243.21V238.752ZM107.881 240.199H107.157C107.114 239.991 107.039 239.808 106.932 239.65C106.827 239.493 106.699 239.36 106.547 239.254C106.397 239.145 106.231 239.063 106.048 239.009C105.866 238.954 105.675 238.927 105.476 238.927C105.115 238.927 104.787 239.018 104.493 239.201C104.201 239.384 103.969 239.653 103.796 240.009C103.625 240.365 103.539 240.802 103.539 241.319C103.539 241.837 103.625 242.273 103.796 242.629C103.969 242.985 104.201 243.255 104.493 243.437C104.787 243.62 105.115 243.712 105.476 243.712C105.675 243.712 105.866 243.684 106.048 243.63C106.231 243.576 106.397 243.495 106.547 243.388C106.699 243.279 106.827 243.146 106.932 242.988C107.039 242.829 107.114 242.646 107.157 242.44H107.881C107.826 242.745 107.727 243.018 107.583 243.259C107.439 243.501 107.26 243.706 107.046 243.875C106.832 244.042 106.592 244.17 106.326 244.257C106.061 244.345 105.778 244.389 105.476 244.389C104.967 244.389 104.514 244.264 104.117 244.015C103.72 243.766 103.408 243.412 103.18 242.953C102.953 242.494 102.839 241.95 102.839 241.319C102.839 240.689 102.953 240.144 103.18 239.685C103.408 239.227 103.72 238.873 104.117 238.623C104.514 238.374 104.967 238.25 105.476 238.25C105.778 238.25 106.061 238.294 106.326 238.381C106.592 238.469 106.832 238.597 107.046 238.766C107.26 238.934 107.439 239.138 107.583 239.379C107.727 239.619 107.826 239.891 107.881 240.199ZM110.275 244.412C109.991 244.412 109.734 244.359 109.502 244.252C109.27 244.143 109.087 243.986 108.951 243.782C108.815 243.576 108.746 243.327 108.746 243.035C108.746 242.778 108.797 242.57 108.898 242.41C108.999 242.249 109.134 242.123 109.303 242.031C109.473 241.94 109.66 241.871 109.864 241.827C110.07 241.781 110.277 241.744 110.485 241.716C110.758 241.681 110.978 241.655 111.148 241.637C111.319 241.618 111.443 241.586 111.521 241.541C111.601 241.496 111.641 241.418 111.641 241.308V241.284C111.641 240.996 111.562 240.773 111.404 240.613C111.249 240.454 111.012 240.374 110.695 240.374C110.367 240.374 110.109 240.446 109.922 240.59C109.735 240.734 109.604 240.887 109.528 241.051L108.875 240.817C108.992 240.545 109.147 240.333 109.342 240.181C109.538 240.028 109.752 239.921 109.984 239.86C110.217 239.798 110.447 239.767 110.672 239.767C110.816 239.767 110.981 239.785 111.168 239.82C111.357 239.853 111.539 239.922 111.714 240.027C111.891 240.132 112.038 240.291 112.154 240.502C112.271 240.714 112.329 240.998 112.329 241.354V244.307H111.641V243.7H111.606C111.559 243.798 111.481 243.901 111.372 244.012C111.263 244.123 111.118 244.218 110.938 244.295C110.756 244.373 110.536 244.412 110.275 244.412ZM110.38 243.793C110.653 243.793 110.882 243.74 111.069 243.633C111.258 243.526 111.4 243.388 111.495 243.219C111.592 243.049 111.641 242.871 111.641 242.685V242.055C111.611 242.09 111.547 242.121 111.448 242.151C111.351 242.178 111.238 242.202 111.11 242.224C110.983 242.243 110.86 242.261 110.739 242.276C110.62 242.29 110.524 242.302 110.45 242.311C110.271 242.335 110.104 242.373 109.948 242.425C109.795 242.475 109.67 242.552 109.575 242.656C109.482 242.756 109.435 242.895 109.435 243.07C109.435 243.309 109.523 243.49 109.701 243.613C109.88 243.733 110.106 243.793 110.38 243.793ZM115.535 239.826V240.409H113.212V239.826H115.535ZM113.89 238.752H114.578V243.023C114.578 243.218 114.606 243.364 114.663 243.461C114.721 243.556 114.795 243.62 114.884 243.653C114.976 243.684 115.072 243.7 115.173 243.7C115.249 243.7 115.311 243.696 115.36 243.688C115.408 243.678 115.447 243.671 115.476 243.665L115.617 244.283C115.57 244.301 115.505 244.319 115.421 244.336C115.337 244.356 115.232 244.365 115.103 244.365C114.908 244.365 114.718 244.323 114.531 244.24C114.346 244.156 114.193 244.029 114.07 243.857C113.949 243.687 113.89 243.471 113.89 243.21V238.752ZM118.401 244.4C117.969 244.4 117.597 244.305 117.284 244.114C116.973 243.922 116.732 243.653 116.563 243.309C116.396 242.963 116.312 242.56 116.312 242.101C116.312 241.642 116.396 241.238 116.563 240.887C116.732 240.535 116.968 240.261 117.269 240.065C117.573 239.866 117.927 239.767 118.332 239.767C118.565 239.767 118.795 239.806 119.023 239.884C119.251 239.962 119.458 240.088 119.644 240.263C119.831 240.436 119.98 240.665 120.091 240.952C120.202 241.238 120.257 241.59 120.257 242.008V242.3H116.803V241.704H119.557C119.557 241.451 119.506 241.226 119.405 241.028C119.306 240.829 119.164 240.673 118.979 240.558C118.796 240.443 118.58 240.386 118.332 240.386C118.057 240.386 117.82 240.454 117.62 240.59C117.421 240.724 117.269 240.899 117.161 241.115C117.055 241.331 117.001 241.562 117.001 241.809V242.206C117.001 242.545 117.059 242.832 117.176 243.067C117.295 243.3 117.459 243.478 117.669 243.601C117.879 243.721 118.123 243.782 118.401 243.782C118.582 243.782 118.746 243.756 118.891 243.706C119.039 243.653 119.167 243.576 119.274 243.472C119.381 243.367 119.464 243.237 119.522 243.082L120.187 243.268C120.117 243.494 119.999 243.692 119.834 243.863C119.668 244.033 119.464 244.165 119.221 244.26C118.978 244.354 118.705 244.4 118.401 244.4ZM123.113 246.081C122.781 246.081 122.495 246.038 122.256 245.952C122.016 245.869 121.817 245.758 121.657 245.62C121.5 245.484 121.374 245.338 121.281 245.182L121.83 244.797C121.892 244.879 121.971 244.972 122.066 245.077C122.161 245.184 122.292 245.276 122.457 245.354C122.624 245.434 122.843 245.474 123.113 245.474C123.475 245.474 123.774 245.386 124.009 245.211C124.245 245.036 124.362 244.762 124.362 244.389V243.478H124.304C124.253 243.56 124.181 243.661 124.088 243.782C123.996 243.9 123.864 244.006 123.691 244.1C123.52 244.191 123.289 244.237 122.996 244.237C122.635 244.237 122.31 244.151 122.022 243.98C121.736 243.809 121.51 243.56 121.343 243.233C121.177 242.907 121.094 242.509 121.094 242.043C121.094 241.584 121.175 241.184 121.337 240.844C121.498 240.501 121.722 240.237 122.011 240.05C122.299 239.862 122.631 239.767 123.008 239.767C123.3 239.767 123.532 239.816 123.703 239.913C123.876 240.008 124.008 240.117 124.1 240.24C124.193 240.36 124.265 240.46 124.316 240.538H124.386V239.826H125.05V244.435C125.05 244.82 124.963 245.134 124.788 245.375C124.615 245.618 124.381 245.796 124.088 245.908C123.796 246.023 123.471 246.081 123.113 246.081ZM123.09 243.619C123.366 243.619 123.6 243.555 123.79 243.429C123.981 243.302 124.126 243.12 124.225 242.883C124.324 242.646 124.374 242.362 124.374 242.031C124.374 241.708 124.325 241.423 124.228 241.176C124.131 240.93 123.986 240.736 123.796 240.596C123.606 240.455 123.37 240.386 123.09 240.386C122.798 240.386 122.555 240.46 122.361 240.607C122.168 240.755 122.023 240.954 121.926 241.202C121.83 241.451 121.783 241.728 121.783 242.031C121.783 242.342 121.832 242.617 121.929 242.857C122.028 243.094 122.174 243.281 122.367 243.417C122.561 243.551 122.802 243.619 123.09 243.619ZM128.131 244.4C127.727 244.4 127.372 244.304 127.067 244.112C126.763 243.919 126.526 243.65 126.355 243.303C126.185 242.957 126.101 242.552 126.101 242.09C126.101 241.623 126.185 241.215 126.355 240.867C126.526 240.519 126.763 240.249 127.067 240.056C127.372 239.863 127.727 239.767 128.131 239.767C128.536 239.767 128.89 239.863 129.194 240.056C129.499 240.249 129.736 240.519 129.905 240.867C130.077 241.215 130.163 241.623 130.163 242.09C130.163 242.552 130.077 242.957 129.905 243.303C129.736 243.65 129.499 243.919 129.194 244.112C128.89 244.304 128.536 244.4 128.131 244.4ZM128.131 243.782C128.439 243.782 128.692 243.703 128.89 243.545C129.089 243.388 129.235 243.181 129.331 242.924C129.426 242.667 129.474 242.389 129.474 242.09C129.474 241.79 129.426 241.511 129.331 241.252C129.235 240.994 129.089 240.785 128.89 240.625C128.692 240.465 128.439 240.386 128.131 240.386C127.824 240.386 127.572 240.465 127.373 240.625C127.175 240.785 127.028 240.994 126.932 241.252C126.837 241.511 126.789 241.79 126.789 242.09C126.789 242.389 126.837 242.667 126.932 242.924C127.028 243.181 127.175 243.388 127.373 243.545C127.572 243.703 127.824 243.782 128.131 243.782ZM131.214 244.307V239.826H131.878V240.502H131.925C132.007 240.281 132.155 240.101 132.368 239.962C132.583 239.825 132.824 239.755 133.092 239.755C133.143 239.755 133.206 239.756 133.282 239.758C133.358 239.761 133.415 239.764 133.454 239.767V240.467C133.431 240.461 133.377 240.453 133.293 240.441C133.212 240.427 133.126 240.421 133.034 240.421C132.816 240.421 132.621 240.467 132.451 240.558C132.281 240.647 132.147 240.772 132.048 240.931C131.951 241.089 131.902 241.269 131.902 241.471V244.307H131.214ZM134.85 245.988C134.734 245.988 134.63 245.978 134.538 245.958C134.447 245.941 134.383 245.923 134.349 245.906L134.523 245.299C134.691 245.342 134.839 245.357 134.967 245.346C135.095 245.334 135.209 245.276 135.308 245.174C135.41 245.072 135.502 244.908 135.586 244.68L135.714 244.33L134.056 239.826H134.803L136.04 243.397H136.087L137.324 239.826H138.071L136.169 244.961C136.083 245.192 135.977 245.384 135.851 245.535C135.725 245.689 135.577 245.803 135.41 245.877C135.245 245.951 135.058 245.988 134.85 245.988ZM141.547 241.424V242.066H138.933V241.424H141.547Z" fill="#696969"/>
<path d="M247.475 241.562L245.992 239.586H243.797C243.422 239.586 243.234 240.04 243.5 240.306L245.527 242.332C245.851 242.657 246.379 242.657 246.704 242.332L247.475 241.562Z" fill="#1A1A1A"/>
<path d="M248.437 239.586H246L247.483 241.562L248.739 240.306C249.001 240.04 248.813 239.586 248.437 239.586Z" fill="#1A1A1A"/>
<path d="M254.33 224.652H68.2975C63.922 224.652 60.375 228.199 60.375 232.575V249.594C60.375 253.969 63.922 257.516 68.2975 257.516H254.33C258.706 257.516 262.253 253.969 262.253 249.594V232.575C262.253 228.199 258.706 224.652 254.33 224.652Z" stroke="#EAEAEA"/>
<path d="M276.634 26H46V93.4883H276.634V26Z" fill="white"/>
<path d="M276.634 26H46V104.638H276.634V26Z" fill="white"/>
<path d="M129.257 84.2281C128.525 84.2281 127.924 84.0215 127.454 83.6084C126.985 83.1952 126.75 82.6412 126.75 81.9464V77.5239H128.036V81.8431C128.036 82.1874 128.134 82.4597 128.327 82.66C128.528 82.8603 128.838 82.9605 129.257 82.9605C129.677 82.9605 129.984 82.8603 130.177 82.66C130.378 82.4597 130.478 82.1874 130.478 81.8431V77.5239H131.773V81.9464C131.773 82.6412 131.539 83.1952 131.069 83.6084C130.6 84.0215 129.996 84.2281 129.257 84.2281ZM135.617 79.2704C136.249 79.2704 136.788 79.5114 137.232 79.9934C137.683 80.4691 137.908 81.0544 137.908 81.7492C137.908 82.4441 137.683 83.0325 137.232 83.5145C136.788 83.9903 136.249 84.2281 135.617 84.2281C134.96 84.2281 134.452 83.9996 134.096 83.5427V85.9746H132.884V79.4018H134.096V79.9558C134.452 79.4988 134.96 79.2704 135.617 79.2704ZM134.462 82.707C134.706 82.9511 135.016 83.0732 135.391 83.0732C135.767 83.0732 136.077 82.9511 136.321 82.707C136.572 82.4566 136.697 82.1373 136.697 81.7492C136.697 81.3611 136.572 81.045 136.321 80.8009C136.077 80.5505 135.767 80.4253 135.391 80.4253C135.016 80.4253 134.706 80.5505 134.462 80.8009C134.218 81.045 134.096 81.3611 134.096 81.7492C134.096 82.1373 134.218 82.4566 134.462 82.707ZM138.762 84.0966V77.2422H139.974V84.0966H138.762ZM145.082 83.5145C144.6 83.9903 144.012 84.2281 143.317 84.2281C142.622 84.2281 142.033 83.9903 141.552 83.5145C141.076 83.0325 140.838 82.4441 140.838 81.7492C140.838 81.0544 141.076 80.4691 141.552 79.9934C142.033 79.5114 142.622 79.2704 143.317 79.2704C144.012 79.2704 144.6 79.5114 145.082 79.9934C145.564 80.4691 145.805 81.0544 145.805 81.7492C145.805 82.4441 145.564 83.0325 145.082 83.5145ZM142.406 82.6788C142.65 82.9229 142.954 83.045 143.317 83.045C143.68 83.045 143.984 82.9229 144.228 82.6788C144.472 82.4347 144.594 82.1248 144.594 81.7492C144.594 81.3736 144.472 81.0638 144.228 80.8197C143.984 80.5755 143.68 80.4535 143.317 80.4535C142.954 80.4535 142.65 80.5755 142.406 80.8197C142.168 81.0638 142.049 81.3736 142.049 81.7492C142.049 82.1248 142.168 82.4347 142.406 82.6788ZM150.225 79.4018H151.437V84.0966H150.225V83.5427C149.862 83.9996 149.352 84.2281 148.695 84.2281C148.069 84.2281 147.531 83.9903 147.08 83.5145C146.636 83.0325 146.413 82.4441 146.413 81.7492C146.413 81.0544 146.636 80.4691 147.08 79.9934C147.531 79.5114 148.069 79.2704 148.695 79.2704C149.352 79.2704 149.862 79.4988 150.225 79.9558V79.4018ZM147.991 82.707C148.235 82.9511 148.545 83.0732 148.92 83.0732C149.296 83.0732 149.606 82.9511 149.85 82.707C150.1 82.4566 150.225 82.1373 150.225 81.7492C150.225 81.3611 150.1 81.045 149.85 80.8009C149.606 80.5505 149.296 80.4253 148.92 80.4253C148.545 80.4253 148.235 80.5505 147.991 80.8009C147.746 81.045 147.624 81.3611 147.624 81.7492C147.624 82.1373 147.746 82.4566 147.991 82.707ZM156.094 77.5239H157.305V84.0966H156.094V83.5427C155.737 83.9996 155.23 84.2281 154.573 84.2281C153.94 84.2281 153.399 83.9903 152.948 83.5145C152.504 83.0325 152.282 82.4441 152.282 81.7492C152.282 81.0544 152.504 80.4691 152.948 79.9934C153.399 79.5114 153.94 79.2704 154.573 79.2704C155.23 79.2704 155.737 79.4988 156.094 79.9558V77.5239ZM153.859 82.707C154.109 82.9511 154.423 83.0732 154.798 83.0732C155.174 83.0732 155.484 82.9511 155.728 82.707C155.972 82.4566 156.094 82.1373 156.094 81.7492C156.094 81.3611 155.972 81.045 155.728 80.8009C155.484 80.5505 155.174 80.4253 154.798 80.4253C154.423 80.4253 154.109 80.5505 153.859 80.8009C153.615 81.045 153.493 81.3611 153.493 81.7492C153.493 82.1373 153.615 82.4566 153.859 82.707ZM163.267 77.5239C163.9 77.5239 164.431 77.7367 164.863 78.1624C165.295 78.588 165.511 79.1107 165.511 79.7304C165.511 80.3502 165.295 80.8729 164.863 81.2985C164.431 81.7242 163.9 81.937 163.267 81.937H162.112V84.0966H160.816V77.5239H163.267ZM163.267 80.7258C163.543 80.7258 163.771 80.6319 163.952 80.4441C164.134 80.25 164.225 80.0121 164.225 79.7304C164.225 79.4425 164.134 79.2046 163.952 79.0168C163.771 78.829 163.543 78.7351 163.267 78.7351H162.112V80.7258H163.267ZM167.409 80.2093C167.522 79.9089 167.707 79.6835 167.963 79.5333C168.226 79.383 168.517 79.3079 168.836 79.3079V80.66C168.467 80.6162 168.135 80.6913 167.841 80.8854C167.553 81.0795 167.409 81.4018 167.409 81.8525V84.0966H166.198V79.4018H167.409V80.2093ZM173.37 83.5145C172.888 83.9903 172.3 84.2281 171.605 84.2281C170.91 84.2281 170.322 83.9903 169.84 83.5145C169.364 83.0325 169.126 82.4441 169.126 81.7492C169.126 81.0544 169.364 80.4691 169.84 79.9934C170.322 79.5114 170.91 79.2704 171.605 79.2704C172.3 79.2704 172.888 79.5114 173.37 79.9934C173.853 80.4691 174.093 81.0544 174.093 81.7492C174.093 82.4441 173.853 83.0325 173.37 83.5145ZM170.694 82.6788C170.938 82.9229 171.242 83.045 171.605 83.045C171.968 83.045 172.272 82.9229 172.516 82.6788C172.76 82.4347 172.882 82.1248 172.882 81.7492C172.882 81.3736 172.76 81.0638 172.516 80.8197C172.272 80.5755 171.968 80.4535 171.605 80.4535C171.242 80.4535 170.938 80.5755 170.694 80.8197C170.457 81.0638 170.337 81.3736 170.337 81.7492C170.337 82.1248 170.457 82.4347 170.694 82.6788ZM178.504 77.5239H179.715V84.0966H178.504V83.5427C178.147 83.9996 177.64 84.2281 176.983 84.2281C176.351 84.2281 175.809 83.9903 175.359 83.5145C174.914 83.0325 174.692 82.4441 174.692 81.7492C174.692 81.0544 174.914 80.4691 175.359 79.9934C175.809 79.5114 176.351 79.2704 176.983 79.2704C177.64 79.2704 178.147 79.4988 178.504 79.9558V77.5239ZM176.269 82.707C176.52 82.9511 176.833 83.0732 177.208 83.0732C177.584 83.0732 177.894 82.9511 178.138 82.707C178.382 82.4566 178.504 82.1373 178.504 81.7492C178.504 81.3611 178.382 81.045 178.138 80.8009C177.894 80.5505 177.584 80.4253 177.208 80.4253C176.833 80.4253 176.52 80.5505 176.269 80.8009C176.025 81.045 175.903 81.3611 175.903 81.7492C175.903 82.1373 176.025 82.4566 176.269 82.707ZM183.922 79.4018H185.133V84.0966H183.922V83.5708C183.628 84.009 183.161 84.2281 182.523 84.2281C182.009 84.2281 181.584 84.056 181.246 83.7117C180.914 83.3674 180.748 82.8917 180.748 82.2844V79.4018H181.96V82.1342C181.96 82.4472 182.044 82.6882 182.213 82.8572C182.382 83.0199 182.607 83.1013 182.889 83.1013C183.202 83.1013 183.452 83.0043 183.64 82.8103C183.828 82.6162 183.922 82.3251 183.922 81.937V79.4018ZM188.477 84.2281C187.77 84.2281 187.178 83.9903 186.702 83.5145C186.233 83.0387 185.998 82.4503 185.998 81.7492C185.998 81.0481 186.233 80.4597 186.702 79.984C187.178 79.5082 187.77 79.2704 188.477 79.2704C188.934 79.2704 189.35 79.3799 189.726 79.599C190.102 79.8181 190.387 80.1123 190.58 80.4816L189.538 81.092C189.444 80.8979 189.3 80.7445 189.106 80.6319C188.918 80.5192 188.706 80.4628 188.468 80.4628C188.105 80.4628 187.805 80.5849 187.566 80.829C187.329 81.0669 187.21 81.3736 187.21 81.7492C187.21 82.1185 187.329 82.4253 187.566 82.6694C187.805 82.9073 188.105 83.0262 188.468 83.0262C188.712 83.0262 188.928 82.973 189.116 82.8666C189.31 82.7539 189.454 82.6006 189.548 82.4065L190.599 83.0074C190.393 83.3768 190.102 83.6741 189.726 83.8995C189.35 84.1185 188.934 84.2281 188.477 84.2281ZM193.925 80.5661H192.864V82.5192C192.864 82.6819 192.905 82.8009 192.987 82.876C193.068 82.9511 193.187 82.9949 193.343 83.0074C193.5 83.0137 193.694 83.0106 193.925 82.9981V84.0966C193.093 84.1905 192.505 84.1123 192.16 83.8619C191.822 83.6115 191.653 83.164 191.653 82.5192V80.5661H190.836V79.4018H191.653V78.4535L192.864 78.0873V79.4018H193.925V80.5661Z" fill="#1A1A1A"/>
<path fill-rule="evenodd" clip-rule="evenodd" d="M234.97 37.7344H235.557C235.88 37.7344 236.143 37.9971 236.143 38.3212V41.8424C236.143 42.1665 235.88 42.4292 235.557 42.4292H234.97C234.646 42.4292 234.383 42.1665 234.383 41.8424V38.3212C234.383 37.9971 234.646 37.7344 234.97 37.7344Z" fill="#D1D1D6"/>
<path fill-rule="evenodd" clip-rule="evenodd" d="M232.329 38.9102H232.916C233.24 38.9102 233.503 39.1729 233.503 39.497V41.8444C233.503 42.1685 233.24 42.4313 232.916 42.4313H232.329C232.005 42.4313 231.742 42.1685 231.742 41.8444V39.497C231.742 39.1729 232.005 38.9102 232.329 38.9102Z" fill="#D1D1D6"/>
<path fill-rule="evenodd" clip-rule="evenodd" d="M229.681 39.7891H230.267C230.591 39.7891 230.854 40.0518 230.854 40.3759V41.8431C230.854 42.1672 230.591 42.4299 230.267 42.4299H229.681C229.357 42.4299 229.094 42.1672 229.094 41.8431V40.3759C229.094 40.0518 229.357 39.7891 229.681 39.7891Z" fill="#D1D1D6"/>
<path fill-rule="evenodd" clip-rule="evenodd" d="M237.61 36.5625H238.197C238.521 36.5625 238.784 36.8252 238.784 37.1494V41.8442C238.784 42.1683 238.521 42.431 238.197 42.431H237.61C237.286 42.431 237.023 42.1683 237.023 41.8442V37.1494C237.023 36.8252 237.286 36.5625 237.61 36.5625Z" fill="#3C3C43" fill-opacity="0.18"/>
<path fill-rule="evenodd" clip-rule="evenodd" d="M234.97 37.7344H235.557C235.88 37.7344 236.143 37.9971 236.143 38.3212V41.8424C236.143 42.1665 235.88 42.4292 235.557 42.4292H234.97C234.646 42.4292 234.383 42.1665 234.383 41.8424V38.3212C234.383 37.9971 234.646 37.7344 234.97 37.7344Z" fill="black"/>
<path fill-rule="evenodd" clip-rule="evenodd" d="M232.329 38.9102H232.916C233.24 38.9102 233.503 39.1729 233.503 39.497V41.8444C233.503 42.1685 233.24 42.4313 232.916 42.4313H232.329C232.005 42.4313 231.742 42.1685 231.742 41.8444V39.497C231.742 39.1729 232.005 38.9102 232.329 38.9102Z" fill="black"/>
<path fill-rule="evenodd" clip-rule="evenodd" d="M229.681 39.7891H230.267C230.591 39.7891 230.854 40.0518 230.854 40.3759V41.8431C230.854 42.1672 230.591 42.4299 230.267 42.4299H229.681C229.357 42.4299 229.094 42.1672 229.094 41.8431V40.3759C229.094 40.0518 229.357 39.7891 229.681 39.7891Z" fill="black"/>
<path d="M246.78 40.6367C247.155 40.6367 247.52 40.7353 247.841 40.9233L247.971 40.9995C248.07 41.0573 248.088 41.1925 248.007 41.2732L246.895 42.3817C246.827 42.4497 246.716 42.4497 246.648 42.3817L245.544 41.2803C245.463 41.2 245.48 41.0655 245.578 41.0073L245.706 40.9307C246.031 40.738 246.4 40.6367 246.78 40.6367Z" fill="black"/>
<path d="M246.786 38.6016C247.72 38.6016 248.616 38.9112 249.346 39.4848L249.45 39.5659C249.532 39.6305 249.539 39.7523 249.465 39.8261L248.802 40.4879C248.74 40.5491 248.643 40.5561 248.573 40.5044L248.492 40.4443C247.999 40.0777 247.404 39.8811 246.786 39.8811C246.164 39.8811 245.566 40.0802 245.071 40.4509L244.99 40.5116C244.92 40.5637 244.823 40.5568 244.761 40.4955L244.098 39.834C244.024 39.7602 244.031 39.6388 244.113 39.5741L244.215 39.4929C244.948 38.9143 245.848 38.6016 246.786 38.6016Z" fill="black"/>
<path d="M246.78 36.5625C248.261 36.5625 249.678 37.0852 250.8 38.0431L250.895 38.1249C250.973 38.191 250.977 38.3087 250.905 38.3806L250.244 39.0401C250.179 39.104 250.077 39.1086 250.008 39.0505L249.926 38.982C249.043 38.2437 247.936 37.8421 246.78 37.8421C245.619 37.8421 244.509 38.2464 243.624 38.9894L243.543 39.0582C243.473 39.1165 243.371 39.1122 243.306 39.0482L242.645 38.3887C242.573 38.3169 242.577 38.1994 242.655 38.1332L242.75 38.0514C243.873 37.0883 245.294 36.5625 246.78 36.5625Z" fill="#3C3C43" fill-opacity="0.3"/>
<path d="M258.695 40.1296H260.54L259.575 42.6197C259.436 42.9788 259.814 43.1658 260.059 42.878L263.041 39.3252C263.102 39.254 263.132 39.1827 263.132 39.1055C263.132 38.969 263.023 38.8681 262.875 38.8681H261.03L261.992 36.375C262.131 36.0188 261.753 35.8288 261.511 36.1168L258.525 39.6695C258.464 39.7437 258.438 39.8119 258.438 39.8891C258.438 40.0286 258.547 40.1296 258.695 40.1296Z" fill="black"/>
<path d="M260.376 36.5634H255.511C254.862 36.5634 254.337 37.0889 254.337 37.7371V41.2583C254.337 41.9065 254.862 42.432 255.511 42.432H259.026C258.958 42.6216 258.947 42.8298 259.002 43.0188H255.511C254.538 43.0188 253.75 42.2306 253.75 41.2583V37.7371C253.75 36.7648 254.538 35.9766 255.511 35.9766H260.87L260.376 36.5634Z" fill="#3C3C43" fill-opacity="0.6"/>
<path d="M261.204 42.432H265.484C266.132 42.432 266.658 41.9065 266.658 41.2583V37.7371C266.658 37.0889 266.132 36.5634 265.484 36.5634H262.552C262.621 36.373 262.631 36.1651 262.576 35.9766H265.484C266.456 35.9766 267.244 36.7648 267.244 37.7371V41.2583C267.244 42.2306 266.456 43.0188 265.484 43.0188H260.711L261.204 42.432Z" fill="#3C3C43" fill-opacity="0.6"/>
<path d="M267.828 38.3242C268.152 38.3242 268.415 38.587 268.415 38.9111V40.0848C268.415 40.4089 268.152 40.6716 267.828 40.6716V38.3242Z" fill="#3C3C43" fill-opacity="0.6"/>
<path d="M259.881 37.1484L258.079 39.2934L258.076 39.2969C257.951 39.4501 257.856 39.6453 257.856 39.8873C257.856 40.3889 258.267 40.7146 258.7 40.7146H259.689L259.251 41.8433H255.509C255.185 41.8433 254.922 41.5805 254.922 41.2564V37.7353C254.922 37.4112 255.185 37.1484 255.509 37.1484H259.881Z" fill="#34C759"/>
<path d="M68.2226 42.4841C69.8001 42.4841 70.7371 41.2505 70.7371 39.1615C70.7371 38.375 70.5866 37.7131 70.2987 37.2016C69.8817 36.4064 69.1639 35.9766 68.257 35.9766C66.9074 35.9766 65.9531 36.8835 65.9531 38.1558C65.9531 39.3507 66.8127 40.2189 67.9948 40.2189C68.7212 40.2189 69.3101 39.8794 69.6024 39.2905H69.6152C69.6152 39.2905 69.6324 39.2905 69.6368 39.2905C69.6453 39.2905 69.6754 39.2905 69.6754 39.2905C69.6754 40.709 69.1381 41.5557 68.2312 41.5557C67.6982 41.5557 67.2856 41.2634 67.1437 40.7949H66.0391C66.2239 41.8136 67.0879 42.4841 68.2226 42.4841ZM68.2613 39.3378C67.5478 39.3378 67.0406 38.8306 67.0406 38.1214C67.0406 37.4294 67.5735 36.9007 68.2656 36.9007C68.9576 36.9007 69.4906 37.4379 69.4906 38.1386C69.4906 38.8306 68.9705 39.3378 68.2613 39.3378Z" fill="black"/>
<path d="M72.5471 42.4214C72.9554 42.4214 73.2348 42.1291 73.2348 41.7423C73.2348 41.3511 72.9554 41.0632 72.5471 41.0632C72.1431 41.0632 71.8594 41.3511 71.8594 41.7423C71.8594 42.1291 72.1431 42.4214 72.5471 42.4214ZM72.5471 39.1977C72.9554 39.1977 73.2348 38.9097 73.2348 38.5229C73.2348 38.1318 72.9554 37.8438 72.5471 37.8438C72.1431 37.8438 71.8594 38.1318 71.8594 38.5229C71.8594 38.9097 72.1431 39.1977 72.5471 39.1977Z" fill="black"/>
<path d="M77.2647 42.3352H78.3263V41.1789H79.1645V40.2419H78.3263V36.1328H76.7618C75.6657 37.7833 74.7932 39.163 74.2344 40.1903V41.1789H77.2647V42.3352ZM75.2617 40.2032C75.9838 38.9309 76.6285 37.9123 77.2217 37.0355H77.2819V40.2677H75.2617V40.2032Z" fill="black"/>
<path d="M81.5224 42.3352H82.6314V36.1328H81.5267L79.9062 37.2676V38.3335L81.4493 37.2504H81.5224V42.3352Z" fill="black"/>
<path d="M62.6096 81.3356L65.9664 77.9788C66.1934 77.7519 66.569 77.7519 66.7959 77.9788C67.0228 78.2057 67.0228 78.5813 66.7959 78.8082L64.4406 81.1635H72.414C72.7349 81.1635 73.0009 81.4295 73.0009 81.7503C73.0009 82.0711 72.7349 82.3372 72.414 82.3372H64.4406L66.7959 84.6923C67.0228 84.9194 67.0228 85.295 66.7959 85.5221C66.6785 85.6395 66.5298 85.6941 66.3812 85.6941C66.2325 85.6941 66.0838 85.6395 65.9664 85.5221L62.6096 82.165C62.5001 82.0555 62.4375 81.9068 62.4375 81.7503C62.4375 81.5938 62.5001 81.4452 62.6096 81.3356Z" fill="#292D32"/>
</g>
</g>
<rect x="43" y="23" width="236.634" height="506" rx="23" stroke="black" stroke-width="6" shape-rendering="crispEdges"/>
</g>
<defs>
<filter id="filter0_d_1235_10482" x="0" y="0" width="322.633" height="592" filterUnits="userSpaceOnUse" color-interpolation-filters="sRGB">
<feFlood flood-opacity="0" result="BackgroundImageFix"/>
<feColorMatrix in="SourceAlpha" type="matrix" values="0 0 0 0 0 0 0 0 0 0 0 0 0 0 0 0 0 0 127 0" result="hardAlpha"/>
<feOffset dy="20"/>
<feGaussianBlur stdDeviation="20"/>
<feComposite in2="hardAlpha" operator="out"/>
<feColorMatrix type="matrix" values="0 0 0 0 0 0 0 0 0 0 0 0 0 0 0 0 0 0 0.4 0"/>
<feBlend mode="normal" in2="BackgroundImageFix" result="effect1_dropShadow_1235_10482"/>
<feBlend mode="normal" in="SourceGraphic" in2="effect1_dropShadow_1235_10482" result="shape"/>
</filter>
<clipPath id="clip0_1235_10482">
<rect x="46" y="26" width="230.634" height="500" rx="20" fill="white"/>
</clipPath>
</defs>
</svg>
