<svg width="323" height="266" viewBox="0 0 323 266" fill="none" xmlns="http://www.w3.org/2000/svg">
<g filter="url(#filter0_d_1235_10583)">
<g clip-path="url(#clip0_1235_10583)">
<mask id="mask0_1235_10583" style="mask-type:luminance" maskUnits="userSpaceOnUse" x="46" y="26" width="231" height="1742">
<path d="M276.634 26H46V1767.78H276.634V26Z" fill="white"/>
</mask>
<g mask="url(#mask0_1235_10583)">
<path d="M276.634 26H46V1767.78H276.634V26Z" fill="white"/>
<mask id="mask1_1235_10583" style="mask-type:luminance" maskUnits="userSpaceOnUse" x="60" y="103" width="203" height="46">
<path d="M262.551 103.469H60.0859V148.657H262.551V103.469Z" fill="white"/>
</mask>
<g mask="url(#mask1_1235_10583)">
<path d="M60.0859 108.24C60.0859 106.569 60.0859 105.733 60.4163 105.097C60.6947 104.561 61.1317 104.124 61.6676 103.846C62.3035 103.516 63.139 103.516 64.8101 103.516H257.827C259.497 103.516 260.333 103.516 260.969 103.846C261.505 104.124 261.942 104.561 262.22 105.097C262.551 105.733 262.551 106.569 262.551 108.24V120.31C262.551 130.337 262.551 135.35 260.568 139.165C258.898 142.381 256.277 145.003 253.061 146.673C249.245 148.655 244.232 148.655 234.206 148.655H88.431C78.4048 148.655 73.3916 148.655 69.5758 146.673C66.3603 145.003 63.7385 142.381 62.0681 139.165C60.0859 135.35 60.0859 130.337 60.0859 120.31V108.24Z" fill="#1A1A1A"/>
<path d="M126 113.55V112.43H130.451V113.55H128.911V117.551H127.54V113.55H126ZM135.695 114.99C135.695 115.561 135.585 116.042 135.363 116.433C135.141 116.824 134.842 117.119 134.465 117.321C134.089 117.521 133.668 117.621 133.205 117.621C132.738 117.621 132.316 117.52 131.94 117.319C131.564 117.115 131.266 116.818 131.044 116.429C130.824 116.037 130.714 115.557 130.714 114.99C130.714 114.42 130.824 113.94 131.044 113.55C131.266 113.158 131.564 112.862 131.94 112.662C132.316 112.46 132.738 112.359 133.205 112.359C133.668 112.359 134.089 112.46 134.465 112.662C134.842 112.862 135.141 113.158 135.363 113.55C135.585 113.94 135.695 114.42 135.695 114.99ZM134.265 114.99C134.265 114.684 134.224 114.425 134.143 114.215C134.062 114.004 133.943 113.844 133.785 113.735C133.628 113.625 133.435 113.57 133.205 113.57C132.975 113.57 132.781 113.625 132.622 113.735C132.465 113.844 132.346 114.004 132.265 114.215C132.184 114.425 132.144 114.684 132.144 114.99C132.144 115.297 132.184 115.557 132.265 115.768C132.346 115.979 132.465 116.138 132.622 116.248C132.781 116.356 132.975 116.411 133.205 116.411C133.435 116.411 133.628 116.356 133.785 116.248C133.943 116.138 134.062 115.979 134.143 115.768C134.224 115.557 134.265 115.297 134.265 114.99ZM135.958 113.55V112.43H140.41V113.55H138.869V117.551H137.499V113.55H135.958ZM141.617 117.551H140.116L141.807 112.43H143.708L145.398 117.551H143.897L142.777 113.84H142.737L141.617 117.551ZM141.337 115.531H144.158V116.571H141.337V115.531ZM145.891 117.551V112.43H147.282V116.431H149.352V117.551H145.891ZM151.317 117.551V112.43H153.528C153.908 112.43 154.241 112.505 154.526 112.655C154.811 112.805 155.033 113.015 155.191 113.287C155.35 113.559 155.429 113.877 155.429 114.24C155.429 114.607 155.347 114.925 155.184 115.193C155.022 115.461 154.795 115.668 154.501 115.813C154.209 115.959 153.868 116.031 153.478 116.031H152.158V114.95H153.198C153.362 114.95 153.501 114.922 153.616 114.865C153.732 114.807 153.822 114.724 153.883 114.618C153.947 114.511 153.978 114.385 153.978 114.24C153.978 114.094 153.947 113.969 153.883 113.865C153.822 113.76 153.732 113.68 153.616 113.625C153.501 113.568 153.362 113.54 153.198 113.54H152.708V117.551H151.317ZM156.63 117.551H155.129L156.82 112.43H158.721L160.411 117.551H158.91L157.79 113.84H157.75L156.63 117.551ZM156.35 115.531H159.171V116.571H156.35V115.531ZM163.989 114.12C163.968 114.032 163.934 113.954 163.887 113.888C163.84 113.819 163.782 113.762 163.712 113.715C163.644 113.667 163.563 113.631 163.472 113.608C163.382 113.582 163.283 113.57 163.174 113.57C162.941 113.57 162.742 113.626 162.577 113.737C162.413 113.849 162.288 114.01 162.201 114.22C162.116 114.43 162.074 114.684 162.074 114.98C162.074 115.281 162.115 115.537 162.197 115.751C162.278 115.964 162.4 116.128 162.562 116.241C162.724 116.354 162.924 116.411 163.164 116.411C163.376 116.411 163.552 116.38 163.692 116.318C163.834 116.257 163.94 116.169 164.009 116.056C164.08 115.943 164.114 115.809 164.114 115.656L164.354 115.68H163.184V114.69H165.455V115.4C165.455 115.868 165.356 116.267 165.157 116.598C164.961 116.929 164.689 117.182 164.342 117.359C163.997 117.534 163.601 117.621 163.154 117.621C162.656 117.621 162.218 117.515 161.842 117.304C161.465 117.092 161.17 116.79 160.958 116.399C160.749 116.007 160.644 115.541 160.644 115C160.644 114.577 160.708 114.202 160.836 113.875C160.966 113.548 161.146 113.273 161.376 113.047C161.606 112.821 161.872 112.65 162.174 112.535C162.476 112.418 162.799 112.359 163.144 112.359C163.448 112.359 163.729 112.403 163.989 112.49C164.251 112.575 164.482 112.696 164.683 112.855C164.884 113.011 165.046 113.197 165.17 113.412C165.293 113.628 165.369 113.863 165.395 114.12H163.989ZM166.103 117.551V112.43H169.795V113.55H167.494V114.43H169.604V115.551H167.494V116.431H169.785V117.551H166.103ZM173.288 112.43L174.338 116.041H174.378L175.428 112.43H176.999L175.308 117.551H173.408L171.717 112.43H173.288ZM178.883 112.43V117.551H177.492V112.43H178.883ZM179.542 117.551V112.43H183.232V113.55H180.932V114.43H183.043V115.551H180.932V116.431H183.222V117.551H179.542ZM185.222 117.551L183.712 112.43H185.263L185.963 115.581H186.003L186.833 112.43H188.053L188.884 115.591H188.924L189.624 112.43H191.174L189.664 117.551H188.333L187.464 114.69H187.423L186.553 117.551H185.222ZM194.303 114.03C194.29 113.863 194.227 113.733 194.116 113.64C194.005 113.547 193.838 113.5 193.613 113.5C193.469 113.5 193.352 113.517 193.26 113.552C193.17 113.586 193.103 113.632 193.06 113.69C193.017 113.748 192.994 113.815 192.992 113.89C192.989 113.952 193 114.008 193.025 114.058C193.052 114.106 193.093 114.15 193.15 114.19C193.207 114.229 193.279 114.264 193.368 114.295C193.456 114.327 193.561 114.355 193.683 114.381L194.103 114.47C194.386 114.53 194.629 114.609 194.831 114.708C195.032 114.806 195.198 114.922 195.326 115.055C195.454 115.187 195.549 115.335 195.609 115.501C195.67 115.666 195.702 115.846 195.704 116.041C195.702 116.378 195.617 116.663 195.451 116.896C195.284 117.129 195.046 117.307 194.736 117.429C194.427 117.551 194.056 117.611 193.623 117.611C193.178 117.611 192.789 117.545 192.457 117.414C192.127 117.282 191.87 117.079 191.687 116.806C191.505 116.531 191.414 116.179 191.412 115.751H192.732C192.741 115.908 192.78 116.039 192.85 116.146C192.92 116.253 193.018 116.334 193.145 116.388C193.273 116.443 193.426 116.471 193.603 116.471C193.751 116.471 193.876 116.453 193.975 116.416C194.076 116.379 194.151 116.328 194.203 116.263C194.255 116.199 194.281 116.124 194.283 116.041C194.281 115.963 194.255 115.894 194.205 115.836C194.157 115.775 194.077 115.723 193.965 115.676C193.854 115.628 193.703 115.582 193.513 115.541L193.002 115.43C192.549 115.332 192.191 115.168 191.93 114.938C191.67 114.706 191.54 114.39 191.542 113.99C191.54 113.665 191.627 113.381 191.802 113.138C191.979 112.892 192.223 112.702 192.535 112.565C192.849 112.428 193.208 112.359 193.613 112.359C194.026 112.359 194.384 112.429 194.685 112.567C194.988 112.706 195.22 112.9 195.383 113.152C195.549 113.402 195.632 113.695 195.633 114.03H194.303Z" fill="white"/>
<path d="M143.893 133.255L141.896 132.786L142.552 127.243H148.892V129.195H144.601L144.355 131.348C144.474 131.278 144.675 131.196 144.958 131.102C145.246 131.003 145.564 130.953 145.912 130.953C146.448 130.953 146.923 131.035 147.335 131.199C147.752 131.358 148.105 131.594 148.393 131.907C148.681 132.215 148.897 132.594 149.041 133.046C149.19 133.498 149.264 134.015 149.264 134.596C149.264 135.063 149.187 135.515 149.034 135.952C148.885 136.384 148.653 136.774 148.341 137.122C148.033 137.465 147.643 137.738 147.171 137.941C146.699 138.14 146.141 138.239 145.494 138.239C145.013 138.239 144.544 138.165 144.087 138.016C143.629 137.867 143.217 137.653 142.849 137.375C142.487 137.092 142.199 136.752 141.986 136.354C141.777 135.952 141.675 135.502 141.68 135.006H144.206C144.22 135.269 144.283 135.498 144.392 135.691C144.501 135.885 144.648 136.036 144.831 136.146C145.02 136.25 145.236 136.302 145.48 136.302C145.728 136.302 145.934 136.252 146.098 136.153C146.262 136.054 146.391 135.917 146.486 135.743C146.58 135.57 146.647 135.371 146.687 135.147C146.726 134.919 146.746 134.678 146.746 134.425C146.746 134.157 146.716 133.915 146.657 133.702C146.602 133.489 146.513 133.307 146.389 133.158C146.264 133.004 146.103 132.887 145.905 132.808C145.71 132.729 145.477 132.689 145.204 132.689C144.841 132.689 144.556 132.751 144.347 132.875C144.139 132.999 143.987 133.126 143.893 133.255ZM153.217 136.198L153.202 137.792C153.202 138.393 153.052 138.987 152.755 139.573C152.462 140.159 152.102 140.638 151.675 141.011L150.401 140.415C150.505 140.186 150.619 139.955 150.743 139.722C150.868 139.493 150.974 139.235 151.064 138.947C151.153 138.659 151.197 138.321 151.197 137.934V136.198H153.217ZM162.548 131.675V133.657C162.548 134.437 162.456 135.115 162.273 135.691C162.094 136.267 161.835 136.744 161.497 137.122C161.165 137.499 160.767 137.78 160.305 137.963C159.844 138.147 159.334 138.239 158.778 138.239C158.331 138.239 157.914 138.182 157.527 138.068C157.139 137.949 156.789 137.77 156.476 137.532C156.168 137.288 155.902 136.985 155.679 136.623C155.455 136.26 155.284 135.833 155.165 135.341C155.045 134.844 154.986 134.283 154.986 133.657V131.675C154.986 130.891 155.075 130.213 155.254 129.642C155.438 129.066 155.699 128.588 156.037 128.211C156.374 127.834 156.774 127.553 157.236 127.369C157.698 127.185 158.207 127.094 158.763 127.094C159.21 127.094 159.625 127.153 160.007 127.272C160.395 127.387 160.745 127.566 161.058 127.809C161.371 128.047 161.636 128.348 161.855 128.711C162.079 129.073 162.25 129.503 162.369 129.999C162.489 130.491 162.548 131.05 162.548 131.675ZM160.037 133.963V131.355C160.037 131.007 160.017 130.705 159.978 130.446C159.943 130.188 159.888 129.969 159.814 129.79C159.744 129.612 159.658 129.468 159.553 129.358C159.449 129.244 159.329 129.162 159.195 129.113C159.066 129.058 158.922 129.03 158.763 129.03C158.565 129.03 158.386 129.073 158.227 129.157C158.073 129.237 157.941 129.366 157.832 129.544C157.723 129.723 157.638 129.962 157.579 130.26C157.524 130.558 157.497 130.923 157.497 131.355V133.963C157.497 134.316 157.514 134.623 157.549 134.887C157.589 135.145 157.643 135.366 157.713 135.55C157.787 135.729 157.876 135.875 157.981 135.989C158.085 136.098 158.204 136.178 158.339 136.228C158.473 136.277 158.619 136.302 158.778 136.302C158.972 136.302 159.146 136.262 159.3 136.183C159.454 136.104 159.585 135.975 159.695 135.796C159.809 135.612 159.893 135.371 159.948 135.073C160.007 134.77 160.037 134.4 160.037 133.963ZM171.551 131.675V133.657C171.551 134.437 171.46 135.115 171.276 135.691C171.097 136.267 170.839 136.744 170.501 137.122C170.168 137.499 169.771 137.78 169.309 137.963C168.847 138.147 168.338 138.239 167.782 138.239C167.335 138.239 166.918 138.182 166.53 138.068C166.143 137.949 165.793 137.77 165.48 137.532C165.172 137.288 164.906 136.985 164.682 136.623C164.459 136.26 164.287 135.833 164.168 135.341C164.049 134.844 163.99 134.283 163.99 133.657V131.675C163.99 130.891 164.079 130.213 164.258 129.642C164.442 129.066 164.702 128.588 165.04 128.211C165.378 127.834 165.778 127.553 166.24 127.369C166.702 127.185 167.21 127.094 167.767 127.094C168.214 127.094 168.629 127.153 169.011 127.272C169.398 127.387 169.749 127.566 170.061 127.809C170.375 128.047 170.64 128.348 170.859 128.711C171.082 129.073 171.254 129.503 171.373 129.999C171.492 130.491 171.551 131.05 171.551 131.675ZM169.041 133.963V131.355C169.041 131.007 169.021 130.705 168.981 130.446C168.946 130.188 168.892 129.969 168.817 129.79C168.748 129.612 168.661 129.468 168.557 129.358C168.452 129.244 168.333 129.162 168.199 129.113C168.07 129.058 167.926 129.03 167.767 129.03C167.568 129.03 167.389 129.073 167.23 129.157C167.077 129.237 166.945 129.366 166.835 129.544C166.726 129.723 166.642 129.962 166.582 130.26C166.528 130.558 166.5 130.923 166.5 131.355V133.963C166.5 134.316 166.518 134.623 166.552 134.887C166.592 135.145 166.647 135.366 166.716 135.55C166.791 135.729 166.88 135.875 166.984 135.989C167.089 136.098 167.208 136.178 167.342 136.228C167.476 136.277 167.623 136.302 167.782 136.302C167.976 136.302 168.149 136.262 168.303 136.183C168.457 136.104 168.589 135.975 168.698 135.796C168.812 135.612 168.897 135.371 168.952 135.073C169.011 134.77 169.041 134.4 169.041 133.963ZM180.555 131.675V133.657C180.555 134.437 180.463 135.115 180.28 135.691C180.101 136.267 179.842 136.744 179.504 137.122C179.172 137.499 178.774 137.78 178.312 137.963C177.851 138.147 177.342 138.239 176.785 138.239C176.338 138.239 175.921 138.182 175.534 138.068C175.146 137.949 174.796 137.77 174.483 137.532C174.175 137.288 173.909 136.985 173.686 136.623C173.463 136.26 173.291 135.833 173.172 135.341C173.053 134.844 172.993 134.283 172.993 133.657V131.675C172.993 130.891 173.082 130.213 173.261 129.642C173.445 129.066 173.706 128.588 174.044 128.211C174.381 127.834 174.781 127.553 175.243 127.369C175.705 127.185 176.214 127.094 176.77 127.094C177.217 127.094 177.632 127.153 178.014 127.272C178.402 127.387 178.752 127.566 179.065 127.809C179.378 128.047 179.643 128.348 179.862 128.711C180.086 129.073 180.257 129.503 180.376 129.999C180.496 130.491 180.555 131.05 180.555 131.675ZM178.044 133.963V131.355C178.044 131.007 178.024 130.705 177.985 130.446C177.95 130.188 177.895 129.969 177.821 129.79C177.751 129.612 177.665 129.468 177.56 129.358C177.456 129.244 177.337 129.162 177.203 129.113C177.074 129.058 176.929 129.03 176.77 129.03C176.572 129.03 176.393 129.073 176.234 129.157C176.08 129.237 175.949 129.366 175.839 129.544C175.73 129.723 175.645 129.962 175.586 130.26C175.531 130.558 175.504 130.923 175.504 131.355V133.963C175.504 134.316 175.521 134.623 175.556 134.887C175.596 135.145 175.651 135.366 175.72 135.55C175.794 135.729 175.883 135.875 175.988 135.989C176.092 136.098 176.212 136.178 176.346 136.228C176.48 136.277 176.626 136.302 176.785 136.302C176.979 136.302 177.153 136.262 177.307 136.183C177.461 136.104 177.592 135.975 177.702 135.796C177.816 135.612 177.901 135.371 177.955 135.073C178.014 134.77 178.044 134.4 178.044 133.963Z" fill="white"/>
<g opacity="0.5">
<path d="M242.969 113.896V134.851C242.969 135.502 243.493 136.025 244.145 136.025H257.341C259.851 136.025 265.554 133.287 265.554 127.356V106.401C265.554 105.749 265.03 105.227 264.378 105.227H252.55C249.813 105.227 242.969 107.736 242.969 113.896Z" fill="#F2F2F2" fill-opacity="0.2"/>
<path d="M243.031 113.899V134.854C243.031 135.473 243.529 135.969 244.149 135.969H257.345C258.583 135.969 260.624 135.291 262.355 133.872C264.084 132.455 265.499 130.303 265.499 127.359V106.404C265.499 105.785 265.001 105.289 264.382 105.289H252.554C251.198 105.289 248.814 105.912 246.77 107.303C244.727 108.693 243.031 110.844 243.031 113.899Z" stroke="#F2F2F2" stroke-opacity="0.2" stroke-width="0.201052"/>
<path d="M233.781 122.056V186.515C233.781 187.167 234.306 187.66 234.958 187.66H248.154C250.663 187.66 256.367 184.923 256.367 178.991V114.532C256.367 113.88 255.843 113.387 255.191 113.387H243.363C240.626 113.387 233.781 115.896 233.781 122.056Z" fill="#F9F9F9" fill-opacity="0.1"/>
<path d="M233.844 122.055V186.514C233.844 187.131 234.34 187.601 234.961 187.601H248.157C249.396 187.601 251.436 186.923 253.167 185.504C254.896 184.087 256.311 181.935 256.311 178.99V114.532C256.311 113.914 255.816 113.445 255.195 113.445H243.367C242.01 113.445 239.627 114.069 237.582 115.46C235.54 116.85 233.844 119.001 233.844 122.055Z" stroke="white" stroke-opacity="0.1" stroke-width="0.201052"/>
<path d="M219.125 146.825V186.502C219.125 187.153 219.65 187.662 220.302 187.662H233.498C236.007 187.662 241.71 184.924 241.71 178.993V139.316C241.71 138.664 241.187 138.156 240.535 138.156H228.707C225.969 138.156 219.125 140.666 219.125 146.825Z" fill="#F2F2F2" fill-opacity="0.2"/>
<path d="M219.188 146.821V186.497C219.188 187.115 219.685 187.598 220.305 187.598H233.501C234.739 187.598 236.78 186.92 238.511 185.501C240.24 184.084 241.655 181.932 241.655 178.988V139.311C241.655 138.693 241.158 138.211 240.538 138.211H228.71C227.354 138.211 224.97 138.834 222.926 140.226C220.883 141.615 219.188 143.767 219.188 146.821Z" stroke="white" stroke-opacity="0.1" stroke-width="0.201052"/>
</g>
</g>
<mask id="mask2_1235_10583" style="mask-type:luminance" maskUnits="userSpaceOnUse" x="268" y="103" width="203" height="46">
<path d="M470.887 103.469H268.422V148.657H470.887V103.469Z" fill="white"/>
</mask>
<g mask="url(#mask2_1235_10583)">
<path d="M268.422 108.24C268.422 106.569 268.422 105.733 268.752 105.097C269.03 104.561 269.468 104.124 270.003 103.846C270.64 103.516 271.475 103.516 273.146 103.516H466.162C467.833 103.516 468.669 103.516 469.305 103.846C469.841 104.124 470.278 104.561 470.556 105.097C470.887 105.733 470.887 106.569 470.887 108.24V120.31C470.887 130.337 470.887 135.35 468.904 139.165C467.234 142.381 464.613 145.003 461.397 146.673C457.581 148.655 452.568 148.655 442.542 148.655H296.767C286.741 148.655 281.728 148.655 277.912 146.673C274.696 145.003 272.074 142.381 270.404 139.165C268.422 135.35 268.422 130.337 268.422 120.31V108.24Z" fill="#1335A5"/>
</g>
<path d="M162.659 155.109H148.099C147.134 155.109 146.352 155.892 146.352 156.856C146.352 157.821 147.134 158.604 148.099 158.604H162.659C163.624 158.604 164.406 157.821 164.406 156.856C164.406 155.892 163.624 155.109 162.659 155.109Z" fill="#969696"/>
<path d="M168.552 158.713C169.547 158.713 170.354 157.906 170.354 156.911C170.354 155.916 169.547 155.109 168.552 155.109C167.557 155.109 166.75 155.916 166.75 156.911C166.75 157.906 167.557 158.713 168.552 158.713Z" fill="#969696"/>
<path d="M174.505 158.713C175.5 158.713 176.307 157.906 176.307 156.911C176.307 155.916 175.5 155.109 174.505 155.109C173.51 155.109 172.703 155.916 172.703 156.911C172.703 157.906 173.51 158.713 174.505 158.713Z" fill="#969696"/>
<path d="M109.377 178.875H65.9501C62.8711 178.875 60.375 181.371 60.375 184.45V193.84C60.375 196.919 62.8711 199.415 65.9501 199.415H109.377C112.456 199.415 114.952 196.919 114.952 193.84V184.45C114.952 181.371 112.456 178.875 109.377 178.875Z" fill="#FAFAFA"/>
<path d="M68.295 191.786H67.3047L69.1078 186.664H70.2532L72.0587 191.786H71.0684L69.7005 187.714H69.6604L68.295 191.786ZM68.3275 189.777H71.0284V190.523H68.3275V189.777ZM73.5986 186.664V191.786H72.6933V186.664H73.5986ZM75.4348 186.664V191.786H74.5295V186.664H75.4348ZM80.936 188.072C80.9126 187.854 80.8143 187.684 80.6408 187.562C80.4691 187.44 80.2457 187.379 79.9707 187.379C79.7772 187.379 79.6114 187.408 79.473 187.467C79.3346 187.525 79.2287 187.604 79.1554 187.704C79.082 187.804 79.0445 187.919 79.0428 188.047C79.0428 188.154 79.067 188.246 79.1154 188.324C79.1654 188.403 79.2329 188.469 79.318 188.524C79.4029 188.578 79.4972 188.623 79.6005 188.659C79.7039 188.696 79.8081 188.727 79.9131 188.752L80.3932 188.873C80.5867 188.917 80.7726 188.978 80.9509 189.055C81.131 189.131 81.2919 189.228 81.4336 189.345C81.577 189.462 81.6904 189.603 81.7737 189.767C81.8571 189.932 81.8988 190.126 81.8988 190.348C81.8988 190.648 81.8221 190.912 81.6687 191.141C81.5153 191.367 81.2935 191.544 81.0035 191.673C80.715 191.8 80.3658 191.863 79.9556 191.863C79.5572 191.863 79.2112 191.801 78.9178 191.678C78.6261 191.555 78.3976 191.375 78.2326 191.138C78.0692 190.901 77.9809 190.613 77.9675 190.273H78.8803C78.8936 190.451 78.9486 190.6 79.0454 190.718C79.142 190.836 79.2679 190.925 79.4229 190.983C79.5797 191.042 79.7547 191.07 79.9481 191.07C80.1499 191.07 80.3266 191.04 80.4783 190.98C80.6317 190.919 80.7517 190.834 80.8384 190.725C80.9251 190.615 80.9693 190.487 80.9709 190.34C80.9693 190.207 80.9301 190.097 80.8534 190.01C80.7768 189.922 80.6692 189.848 80.5308 189.79C80.3941 189.73 80.234 189.676 80.0506 189.63L79.468 189.48C79.0462 189.371 78.7127 189.208 78.4677 188.988C78.2242 188.766 78.1025 188.471 78.1025 188.104C78.1025 187.803 78.1842 187.539 78.3476 187.311C78.5127 187.085 78.7369 186.909 79.0204 186.784C79.3038 186.657 79.6247 186.594 79.9832 186.594C80.3466 186.594 80.665 186.657 80.9384 186.784C81.2136 186.909 81.4295 187.083 81.5861 187.307C81.7429 187.529 81.8237 187.783 81.8288 188.072H80.936ZM84.604 187.945V188.645H82.3958V187.945H84.604ZM82.941 187.024H83.8462V190.63C83.8462 190.752 83.8646 190.846 83.9013 190.911C83.9396 190.973 83.9896 191.017 84.0513 191.04C84.113 191.064 84.1813 191.076 84.2564 191.076C84.3131 191.076 84.3647 191.071 84.4114 191.063C84.4598 191.054 84.4965 191.047 84.5215 191.04L84.674 191.748C84.6256 191.765 84.5565 191.783 84.4664 191.803C84.3781 191.823 84.2697 191.835 84.1414 191.838C83.9146 191.845 83.7104 191.811 83.5286 191.736C83.3469 191.659 83.2027 191.54 83.096 191.381C82.991 191.221 82.9393 191.02 82.941 190.78V187.024ZM86.4665 191.863C86.2231 191.863 86.0038 191.82 85.8087 191.733C85.6154 191.645 85.462 191.515 85.3486 191.343C85.2369 191.171 85.181 190.959 85.181 190.708C85.181 190.491 85.2211 190.312 85.3011 190.17C85.3811 190.029 85.4903 189.915 85.6287 189.83C85.7671 189.745 85.9229 189.681 86.0964 189.637C86.2714 189.593 86.4523 189.56 86.639 189.54C86.8641 189.517 87.0466 189.496 87.1867 189.478C87.3268 189.458 87.4285 189.428 87.4918 189.387C87.5568 189.345 87.5893 189.282 87.5893 189.195V189.18C87.5893 188.992 87.5334 188.845 87.4218 188.742C87.3101 188.639 87.1492 188.587 86.9391 188.587C86.7174 188.587 86.5415 188.635 86.4114 188.732C86.2831 188.829 86.1964 188.943 86.1513 189.075L85.3061 188.955C85.3728 188.721 85.4828 188.526 85.6362 188.37C85.7896 188.211 85.9772 188.093 86.1989 188.015C86.4206 187.935 86.6657 187.894 86.9341 187.894C87.1192 187.894 87.3034 187.916 87.4868 187.959C87.6702 188.003 87.8377 188.074 87.9894 188.175C88.1412 188.273 88.2628 188.407 88.3546 188.577C88.4479 188.747 88.4946 188.96 88.4946 189.215V191.786H87.6244V191.258H87.5943C87.5393 191.365 87.4618 191.465 87.3617 191.558C87.2634 191.649 87.1392 191.724 86.9891 191.78C86.8408 191.836 86.6665 191.863 86.4665 191.863ZM86.7015 191.198C86.8833 191.198 87.0408 191.162 87.1742 191.09C87.3076 191.017 87.4101 190.921 87.4818 190.8C87.5552 190.68 87.5918 190.549 87.5918 190.408V189.955C87.5635 189.978 87.5151 190 87.4468 190.02C87.3801 190.04 87.305 190.057 87.2217 190.073C87.1384 190.088 87.0558 190.101 86.9741 190.113C86.8924 190.124 86.8216 190.134 86.7616 190.142C86.6265 190.161 86.5056 190.191 86.3989 190.233C86.2922 190.274 86.208 190.333 86.1464 190.408C86.0847 190.481 86.0538 190.576 86.0538 190.693C86.0538 190.86 86.1147 190.985 86.2364 191.07C86.3581 191.155 86.5131 191.198 86.7015 191.198ZM91.323 187.945V188.645H89.1148V187.945H91.323ZM89.66 187.024H90.5653V190.63C90.5653 190.752 90.5836 190.846 90.6203 190.911C90.6586 190.973 90.7087 191.017 90.7704 191.04C90.832 191.064 90.9004 191.076 90.9754 191.076C91.0321 191.076 91.0838 191.071 91.1305 191.063C91.1788 191.054 91.2155 191.047 91.2405 191.04L91.3931 191.748C91.3447 191.765 91.2755 191.783 91.1855 191.803C91.0971 191.823 90.9887 191.835 90.8604 191.838C90.6336 191.845 90.4294 191.811 90.2476 191.736C90.066 191.659 89.9218 191.54 89.815 191.381C89.71 191.221 89.6583 191.02 89.66 190.78V187.024ZM95.0611 188.96L94.2359 189.05C94.2125 188.966 94.1717 188.888 94.1133 188.815C94.0566 188.741 93.9799 188.682 93.8832 188.637C93.7865 188.592 93.6681 188.57 93.5281 188.57C93.3397 188.57 93.1813 188.61 93.0529 188.692C92.9262 188.774 92.8637 188.88 92.8654 189.01C92.8637 189.121 92.9046 189.212 92.9879 189.282C93.0729 189.353 93.213 189.41 93.408 189.455L94.0633 189.595C94.4267 189.674 94.6968 189.797 94.8735 189.968C95.0519 190.138 95.142 190.36 95.1436 190.635C95.142 190.877 95.0711 191.09 94.931 191.276C94.7927 191.459 94.6001 191.602 94.3533 191.706C94.1066 191.809 93.8232 191.861 93.5031 191.861C93.0329 191.861 92.6545 191.762 92.3677 191.566C92.081 191.367 91.9101 191.091 91.855 190.738L92.7378 190.653C92.7779 190.826 92.8629 190.957 92.993 191.046C93.123 191.134 93.2922 191.178 93.5006 191.178C93.7157 191.178 93.8882 191.134 94.0182 191.046C94.15 190.957 94.2158 190.848 94.2158 190.718C94.2158 190.608 94.1733 190.517 94.0883 190.445C94.0049 190.374 93.8749 190.319 93.6982 190.28L93.043 190.142C92.6745 190.066 92.4019 189.936 92.2252 189.755C92.0485 189.571 91.9609 189.34 91.9626 189.06C91.9609 188.823 92.0251 188.618 92.1552 188.445C92.2868 188.27 92.4694 188.134 92.7028 188.039C92.9379 187.943 93.2089 187.894 93.5156 187.894C93.9657 187.894 94.32 187.99 94.5785 188.182C94.8385 188.374 94.9994 188.633 95.0611 188.96Z" fill="#1A1A1A"/>
<path d="M104.881 189.624L103.398 187.648H101.203C100.828 187.648 100.64 188.102 100.906 188.369L102.933 190.395C103.257 190.719 103.785 190.719 104.11 190.395L104.881 189.624Z" fill="#1A1A1A"/>
<path d="M105.828 187.648H103.391L104.874 189.624L106.13 188.369C106.391 188.102 106.203 187.648 105.828 187.648Z" fill="#1A1A1A"/>
<path d="M109.377 178.875H65.9501C62.8711 178.875 60.375 181.371 60.375 184.45V193.84C60.375 196.919 62.8711 199.415 65.9501 199.415H109.377C112.456 199.415 114.952 196.919 114.952 193.84V184.45C114.952 181.371 112.456 178.875 109.377 178.875Z" stroke="#DFDFDF"/>
<path d="M256.685 178.875H151.638C148.559 178.875 146.062 181.371 146.062 184.45V193.84C146.062 196.919 148.559 199.415 151.638 199.415H256.685C259.764 199.415 262.26 196.919 262.26 193.84V184.45C262.26 181.371 259.764 178.875 256.685 178.875Z" fill="#FAFAFA"/>
<path d="M155.337 186.664H156.257V190.265C156.255 190.595 156.185 190.88 156.047 191.118C155.908 191.355 155.715 191.537 155.467 191.665C155.22 191.792 154.932 191.855 154.604 191.855C154.304 191.855 154.034 191.802 153.794 191.696C153.555 191.587 153.366 191.427 153.226 191.215C153.086 191.004 153.016 190.74 153.016 190.425H153.939C153.941 190.564 153.97 190.683 154.029 190.783C154.089 190.883 154.171 190.959 154.276 191.013C154.381 191.066 154.502 191.093 154.639 191.093C154.787 191.093 154.913 191.062 155.017 191C155.12 190.937 155.198 190.844 155.252 190.721C155.307 190.597 155.335 190.445 155.337 190.265V186.664ZM158.329 191.863C158.085 191.863 157.866 191.82 157.671 191.733C157.477 191.645 157.324 191.515 157.211 191.343C157.1 191.171 157.043 190.959 157.043 190.708C157.043 190.491 157.084 190.312 157.164 190.17C157.243 190.029 157.352 189.915 157.491 189.83C157.629 189.745 157.786 189.681 157.959 189.637C158.134 189.593 158.315 189.56 158.502 189.54C158.726 189.517 158.909 189.496 159.049 189.478C159.189 189.458 159.291 189.428 159.354 189.387C159.419 189.345 159.452 189.282 159.452 189.195V189.18C159.452 188.992 159.396 188.845 159.284 188.742C159.172 188.639 159.012 188.587 158.801 188.587C158.58 188.587 158.404 188.635 158.274 188.732C158.145 188.829 158.058 188.943 158.014 189.075L157.168 188.955C157.235 188.721 157.345 188.526 157.499 188.37C157.652 188.211 157.84 188.093 158.061 188.015C158.283 187.935 158.528 187.894 158.797 187.894C158.982 187.894 159.166 187.916 159.349 187.959C159.533 188.003 159.7 188.074 159.852 188.175C160.003 188.273 160.125 188.407 160.217 188.577C160.31 188.747 160.357 188.96 160.357 189.215V191.786H159.487V191.258H159.457C159.402 191.365 159.324 191.465 159.224 191.558C159.126 191.649 159.002 191.724 158.851 191.78C158.703 191.836 158.529 191.863 158.329 191.863ZM158.564 191.198C158.746 191.198 158.903 191.162 159.037 191.09C159.17 191.017 159.273 190.921 159.344 190.8C159.418 190.68 159.454 190.549 159.454 190.408V189.955C159.426 189.978 159.378 190 159.309 190.02C159.243 190.04 159.168 190.057 159.084 190.073C159.001 190.088 158.918 190.101 158.837 190.113C158.755 190.124 158.684 190.134 158.624 190.142C158.489 190.161 158.368 190.191 158.262 190.233C158.155 190.274 158.07 190.333 158.009 190.408C157.947 190.481 157.916 190.576 157.916 190.693C157.916 190.86 157.977 190.985 158.099 191.07C158.22 191.155 158.375 191.198 158.564 191.198ZM162.172 189.535V191.786H161.267V187.945H162.132V188.597H162.178C162.266 188.382 162.407 188.211 162.6 188.084C162.795 187.958 163.036 187.894 163.323 187.894C163.588 187.894 163.819 187.951 164.016 188.064C164.214 188.178 164.367 188.342 164.476 188.557C164.586 188.772 164.64 189.033 164.638 189.34V191.786H163.733V189.48C163.733 189.223 163.666 189.022 163.533 188.877C163.401 188.732 163.219 188.659 162.985 188.659C162.827 188.659 162.686 188.695 162.563 188.765C162.441 188.833 162.345 188.932 162.275 189.062C162.207 189.192 162.172 189.35 162.172 189.535ZM169.379 186.664V191.786H168.451V187.567H168.421L167.223 188.332V187.482L168.496 186.664H169.379ZM171.47 191.086L171.438 191.361C171.414 191.571 171.372 191.784 171.313 192C171.254 192.219 171.192 192.42 171.127 192.603C171.062 192.787 171.01 192.931 170.97 193.036H170.36C170.383 192.934 170.415 192.796 170.455 192.621C170.496 192.446 170.536 192.249 170.575 192.031C170.613 191.812 170.639 191.591 170.652 191.365L170.669 191.086H171.47ZM174.063 191.786V191.115L175.841 189.372C176.011 189.201 176.152 189.048 176.266 188.915C176.379 188.782 176.464 188.652 176.521 188.527C176.578 188.402 176.606 188.269 176.606 188.127C176.606 187.965 176.569 187.827 176.496 187.712C176.422 187.595 176.321 187.505 176.193 187.442C176.065 187.378 175.919 187.347 175.756 187.347C175.587 187.347 175.44 187.382 175.313 187.452C175.186 187.52 175.088 187.618 175.018 187.745C174.949 187.871 174.915 188.022 174.915 188.197H174.033C174.033 187.872 174.107 187.589 174.255 187.349C174.404 187.109 174.608 186.923 174.868 186.792C175.129 186.66 175.43 186.594 175.768 186.594C176.112 186.594 176.414 186.658 176.673 186.787C176.933 186.915 177.135 187.091 177.279 187.314C177.423 187.537 177.496 187.793 177.496 188.08C177.496 188.271 177.459 188.459 177.386 188.645C177.313 188.83 177.183 189.034 176.999 189.26C176.815 189.485 176.557 189.757 176.226 190.077L175.343 190.975V191.01H177.574V191.786H174.063ZM180.33 191.883C179.918 191.883 179.564 191.779 179.269 191.571C178.976 191.361 178.75 191.058 178.591 190.663C178.435 190.266 178.357 189.789 178.357 189.23C178.358 188.671 178.438 188.196 178.594 187.804C178.753 187.411 178.978 187.111 179.271 186.904C179.567 186.698 179.919 186.594 180.33 186.594C180.74 186.594 181.093 186.698 181.388 186.904C181.682 187.111 181.908 187.411 182.065 187.804C182.223 188.198 182.303 188.673 182.303 189.23C182.303 189.79 182.223 190.269 182.065 190.665C181.908 191.06 181.682 191.362 181.388 191.571C181.094 191.779 180.742 191.883 180.33 191.883ZM180.33 191.1C180.65 191.1 180.902 190.943 181.087 190.628C181.274 190.311 181.368 189.845 181.368 189.23C181.368 188.823 181.325 188.481 181.24 188.205C181.155 187.928 181.035 187.719 180.88 187.579C180.725 187.438 180.541 187.367 180.33 187.367C180.011 187.367 179.759 187.525 179.574 187.842C179.389 188.157 179.296 188.62 179.294 189.23C179.293 189.638 179.334 189.982 179.417 190.26C179.502 190.539 179.622 190.749 179.777 190.89C179.932 191.03 180.116 191.1 180.33 191.1ZM183.134 191.786V191.115L184.912 189.372C185.082 189.201 185.223 189.048 185.337 188.915C185.45 188.782 185.535 188.652 185.592 188.527C185.649 188.402 185.677 188.269 185.677 188.127C185.677 187.965 185.64 187.827 185.567 187.712C185.493 187.595 185.393 187.505 185.264 187.442C185.136 187.378 184.99 187.347 184.827 187.347C184.658 187.347 184.511 187.382 184.384 187.452C184.257 187.52 184.159 187.618 184.089 187.745C184.02 187.871 183.986 188.022 183.986 188.197H183.104C183.104 187.872 183.178 187.589 183.326 187.349C183.475 187.109 183.679 186.923 183.939 186.792C184.2 186.66 184.501 186.594 184.839 186.594C185.183 186.594 185.485 186.658 185.745 186.787C186.004 186.915 186.206 187.091 186.35 187.314C186.494 187.537 186.567 187.793 186.567 188.08C186.567 188.271 186.53 188.459 186.457 188.645C186.384 188.83 186.254 189.034 186.07 189.26C185.886 189.485 185.629 189.757 185.297 190.077L184.414 190.975V191.01H186.645V191.786H183.134ZM189.345 191.855C188.986 191.855 188.665 191.794 188.385 191.671C188.107 191.547 187.887 191.375 187.725 191.155C187.563 190.935 187.477 190.681 187.468 190.392H188.408C188.416 190.531 188.462 190.652 188.546 190.755C188.629 190.857 188.74 190.936 188.878 190.993C189.016 191.05 189.171 191.078 189.343 191.078C189.527 191.078 189.689 191.046 189.831 190.983C189.973 190.918 190.083 190.828 190.164 190.713C190.243 190.598 190.283 190.465 190.281 190.315C190.283 190.16 190.243 190.023 190.161 189.905C190.079 189.787 189.961 189.694 189.806 189.627C189.652 189.561 189.468 189.527 189.25 189.527H188.798V188.812H189.25C189.429 188.812 189.585 188.782 189.718 188.72C189.853 188.658 189.959 188.571 190.036 188.459C190.112 188.346 190.15 188.215 190.148 188.067C190.15 187.922 190.118 187.796 190.051 187.689C189.986 187.581 189.894 187.497 189.773 187.436C189.655 187.377 189.516 187.347 189.355 187.347C189.199 187.347 189.054 187.375 188.921 187.432C188.787 187.489 188.679 187.569 188.598 187.674C188.516 187.777 188.473 187.901 188.468 188.044H187.575C187.582 187.757 187.664 187.506 187.823 187.289C187.983 187.071 188.196 186.901 188.463 186.779C188.73 186.656 189.029 186.594 189.361 186.594C189.702 186.594 189.999 186.658 190.251 186.787C190.504 186.913 190.7 187.084 190.838 187.299C190.977 187.515 191.046 187.752 191.046 188.012C191.048 188.3 190.963 188.542 190.791 188.737C190.621 188.932 190.398 189.06 190.121 189.12V189.16C190.481 189.21 190.757 189.343 190.949 189.56C191.142 189.775 191.238 190.043 191.236 190.363C191.236 190.649 191.155 190.906 190.991 191.133C190.83 191.358 190.606 191.534 190.321 191.663C190.037 191.792 189.712 191.855 189.345 191.855ZM196.18 188.852V189.597H193.874V188.852H196.18ZM198.919 191.786V186.664H202.2V187.442H199.847V188.832H201.975V189.61H199.847V191.786H198.919ZM204.423 191.861C204.039 191.861 203.706 191.78 203.426 191.621C203.147 191.459 202.933 191.23 202.783 190.935C202.633 190.638 202.558 190.289 202.558 189.888C202.558 189.492 202.633 189.145 202.783 188.847C202.935 188.547 203.146 188.314 203.418 188.147C203.69 187.979 204.009 187.894 204.376 187.894C204.613 187.894 204.836 187.933 205.046 188.009C205.258 188.084 205.445 188.201 205.607 188.36C205.77 188.518 205.898 188.72 205.992 188.965C206.085 189.208 206.132 189.498 206.132 189.835V190.113H202.983V189.502H205.264C205.262 189.329 205.225 189.175 205.151 189.04C205.078 188.903 204.975 188.796 204.844 188.717C204.713 188.639 204.562 188.6 204.388 188.6C204.203 188.6 204.041 188.645 203.901 188.735C203.761 188.823 203.652 188.94 203.573 189.085C203.497 189.228 203.458 189.386 203.456 189.557V190.09C203.456 190.313 203.497 190.505 203.578 190.665C203.66 190.824 203.774 190.945 203.921 191.03C204.068 191.114 204.239 191.155 204.436 191.155C204.568 191.155 204.687 191.137 204.794 191.1C204.901 191.062 204.993 191.006 205.071 190.933C205.149 190.86 205.209 190.769 205.249 190.66L206.094 190.755C206.041 190.979 205.939 191.174 205.789 191.34C205.641 191.506 205.45 191.634 205.219 191.726C204.987 191.816 204.722 191.861 204.423 191.861ZM206.938 191.786V186.664H207.843V188.58H207.88C207.927 188.486 207.993 188.387 208.078 188.282C208.163 188.175 208.278 188.084 208.423 188.009C208.568 187.933 208.753 187.894 208.978 187.894C209.275 187.894 209.543 187.97 209.781 188.122C210.021 188.272 210.211 188.495 210.351 188.79C210.493 189.083 210.564 189.444 210.564 189.87C210.564 190.292 210.495 190.65 210.356 190.945C210.218 191.24 210.029 191.466 209.791 191.621C209.553 191.776 209.283 191.853 208.98 191.853C208.76 191.853 208.578 191.817 208.433 191.743C208.288 191.67 208.171 191.581 208.083 191.478C207.996 191.373 207.929 191.274 207.88 191.181H207.828V191.786H206.938ZM207.825 189.865C207.825 190.114 207.86 190.331 207.931 190.517C208.002 190.705 208.105 190.85 208.238 190.955C208.373 191.059 208.536 191.11 208.728 191.11C208.928 191.11 209.095 191.057 209.231 190.951C209.366 190.842 209.468 190.695 209.536 190.507C209.606 190.319 209.641 190.105 209.641 189.865C209.641 189.627 209.607 189.415 209.539 189.23C209.47 189.045 209.368 188.9 209.233 188.794C209.098 188.689 208.93 188.637 208.728 188.637C208.534 188.637 208.371 188.688 208.236 188.79C208.1 188.891 207.998 189.034 207.928 189.218C207.86 189.401 207.825 189.617 207.825 189.865ZM213.07 191.786V191.115L214.848 189.372C215.018 189.201 215.16 189.048 215.273 188.915C215.387 188.782 215.472 188.652 215.529 188.527C215.585 188.402 215.614 188.269 215.614 188.127C215.614 187.965 215.577 187.827 215.503 187.712C215.43 187.595 215.329 187.505 215.2 187.442C215.073 187.378 214.926 187.347 214.763 187.347C214.595 187.347 214.447 187.382 214.32 187.452C214.194 187.52 214.095 187.618 214.026 187.745C213.957 187.871 213.923 188.022 213.923 188.197H213.04C213.04 187.872 213.114 187.589 213.263 187.349C213.411 187.109 213.615 186.923 213.875 186.792C214.137 186.66 214.437 186.594 214.776 186.594C215.119 186.594 215.421 186.658 215.681 186.787C215.941 186.915 216.143 187.091 216.286 187.314C216.431 187.537 216.504 187.793 216.504 188.08C216.504 188.271 216.467 188.459 216.394 188.645C216.32 188.83 216.191 189.034 216.006 189.26C215.823 189.485 215.565 189.757 215.233 190.077L214.351 190.975V191.01H216.581V191.786H213.07ZM219.282 191.855C218.922 191.855 218.602 191.794 218.322 191.671C218.043 191.547 217.823 191.375 217.662 191.155C217.5 190.935 217.414 190.681 217.404 190.392H218.344C218.352 190.531 218.398 190.652 218.482 190.755C218.565 190.857 218.676 190.936 218.814 190.993C218.953 191.05 219.108 191.078 219.28 191.078C219.463 191.078 219.625 191.046 219.767 190.983C219.909 190.918 220.02 190.828 220.1 190.713C220.18 190.598 220.219 190.465 220.218 190.315C220.219 190.16 220.179 190.023 220.097 189.905C220.016 189.787 219.897 189.694 219.742 189.627C219.589 189.561 219.404 189.527 219.187 189.527H218.735V188.812H219.187C219.365 188.812 219.522 188.782 219.655 188.72C219.79 188.658 219.896 188.571 219.972 188.459C220.049 188.346 220.087 188.215 220.085 188.067C220.087 187.922 220.054 187.796 219.987 187.689C219.922 187.581 219.83 187.497 219.71 187.436C219.591 187.377 219.452 187.347 219.292 187.347C219.135 187.347 218.99 187.375 218.857 187.432C218.723 187.489 218.616 187.569 218.534 187.674C218.453 187.777 218.409 187.901 218.404 188.044H217.512C217.518 187.757 217.601 187.506 217.759 187.289C217.919 187.071 218.132 186.901 218.399 186.779C218.666 186.656 218.965 186.594 219.297 186.594C219.639 186.594 219.936 186.658 220.188 186.787C220.441 186.913 220.637 187.084 220.775 187.299C220.914 187.515 220.983 187.752 220.983 188.012C220.985 188.3 220.899 188.542 220.727 188.737C220.557 188.932 220.334 189.06 220.057 189.12V189.16C220.418 189.21 220.693 189.343 220.885 189.56C221.078 189.775 221.174 190.043 221.173 190.363C221.173 190.649 221.091 190.906 220.928 191.133C220.766 191.358 220.543 191.534 220.257 191.663C219.974 191.792 219.649 191.855 219.282 191.855ZM222.953 191.086L222.92 191.361C222.897 191.571 222.855 191.784 222.795 192C222.737 192.219 222.675 192.42 222.61 192.603C222.545 192.787 222.493 192.931 222.452 193.036H221.843C221.865 192.934 221.897 192.796 221.938 192.621C221.979 192.446 222.019 192.249 222.057 192.031C222.095 191.812 222.121 191.591 222.135 191.365L222.152 191.086H222.953ZM225.546 191.786V191.115L227.323 189.372C227.493 189.201 227.635 189.048 227.749 188.915C227.862 188.782 227.947 188.652 228.004 188.527C228.06 188.402 228.088 188.269 228.088 188.127C228.088 187.965 228.052 187.827 227.979 187.712C227.905 187.595 227.804 187.505 227.676 187.442C227.548 187.378 227.402 187.347 227.239 187.347C227.07 187.347 226.922 187.382 226.796 187.452C226.669 187.52 226.571 187.618 226.5 187.745C226.432 187.871 226.398 188.022 226.398 188.197H225.515C225.515 187.872 225.59 187.589 225.738 187.349C225.887 187.109 226.091 186.923 226.351 186.792C226.612 186.66 226.912 186.594 227.251 186.594C227.594 186.594 227.896 186.658 228.156 186.787C228.416 186.915 228.618 187.091 228.762 187.314C228.906 187.537 228.979 187.793 228.979 188.08C228.979 188.271 228.942 188.459 228.869 188.645C228.796 188.83 228.666 189.034 228.481 189.26C228.298 189.485 228.04 189.757 227.709 190.077L226.825 190.975V191.01H229.057V191.786H225.546ZM231.813 191.883C231.401 191.883 231.047 191.779 230.752 191.571C230.459 191.361 230.233 191.058 230.074 190.663C229.918 190.266 229.839 189.789 229.839 189.23C229.841 188.671 229.92 188.196 230.077 187.804C230.235 187.411 230.461 187.111 230.754 186.904C231.05 186.698 231.402 186.594 231.813 186.594C232.222 186.594 232.575 186.698 232.87 186.904C233.165 187.111 233.391 187.411 233.548 187.804C233.706 188.198 233.786 188.673 233.786 189.23C233.786 189.79 233.706 190.269 233.548 190.665C233.391 191.06 233.165 191.362 232.87 191.571C232.577 191.779 232.224 191.883 231.813 191.883ZM231.813 191.1C232.132 191.1 232.385 190.943 232.57 190.628C232.757 190.311 232.85 189.845 232.85 189.23C232.85 188.823 232.808 188.481 232.723 188.205C232.638 187.928 232.517 187.719 232.362 187.579C232.208 187.438 232.024 187.367 231.813 187.367C231.494 187.367 231.242 187.525 231.057 187.842C230.872 188.157 230.779 188.62 230.777 189.23C230.776 189.638 230.816 189.982 230.899 190.26C230.985 190.539 231.105 190.749 231.26 190.89C231.415 191.03 231.599 191.1 231.813 191.1ZM234.617 191.786V191.115L236.394 189.372C236.564 189.201 236.706 189.048 236.82 188.915C236.933 188.782 237.018 188.652 237.075 188.527C237.131 188.402 237.159 188.269 237.159 188.127C237.159 187.965 237.123 187.827 237.05 187.712C236.976 187.595 236.875 187.505 236.747 187.442C236.619 187.378 236.473 187.347 236.31 187.347C236.141 187.347 235.993 187.382 235.867 187.452C235.74 187.52 235.642 187.618 235.572 187.745C235.503 187.871 235.469 188.022 235.469 188.197H234.587C234.587 187.872 234.661 187.589 234.809 187.349C234.958 187.109 235.162 186.923 235.422 186.792C235.683 186.66 235.983 186.594 236.322 186.594C236.665 186.594 236.967 186.658 237.227 186.787C237.487 186.915 237.689 187.091 237.833 187.314C237.977 187.537 238.05 187.793 238.05 188.08C238.05 188.271 238.013 188.459 237.94 188.645C237.867 188.83 237.737 189.034 237.553 189.26C237.369 189.485 237.111 189.757 236.78 190.077L235.897 190.975V191.01H238.128V191.786H234.617ZM240.828 191.855C240.468 191.855 240.148 191.794 239.868 191.671C239.59 191.547 239.37 191.375 239.208 191.155C239.046 190.935 238.96 190.681 238.951 190.392H239.891C239.899 190.531 239.945 190.652 240.028 190.755C240.111 190.857 240.222 190.936 240.361 190.993C240.499 191.05 240.654 191.078 240.826 191.078C241.009 191.078 241.172 191.046 241.314 190.983C241.455 190.918 241.566 190.828 241.646 190.713C241.726 190.598 241.765 190.465 241.764 190.315C241.765 190.16 241.725 190.023 241.644 189.905C241.562 189.787 241.443 189.694 241.289 189.627C241.135 189.561 240.95 189.527 240.733 189.527H240.281V188.812H240.733C240.912 188.812 241.068 188.782 241.201 188.72C241.336 188.658 241.442 188.571 241.519 188.459C241.595 188.346 241.633 188.215 241.631 188.067C241.633 187.922 241.6 187.796 241.534 187.689C241.469 187.581 241.376 187.497 241.256 187.436C241.138 187.377 240.999 187.347 240.838 187.347C240.682 187.347 240.537 187.375 240.403 187.432C240.27 187.489 240.162 187.569 240.081 187.674C239.999 187.777 239.956 187.901 239.95 188.044H239.058C239.064 187.757 239.147 187.506 239.306 187.289C239.465 187.071 239.679 186.901 239.946 186.779C240.212 186.656 240.512 186.594 240.843 186.594C241.185 186.594 241.482 186.658 241.734 186.787C241.987 186.913 242.183 187.084 242.321 187.299C242.46 187.515 242.529 187.752 242.529 188.012C242.53 188.3 242.446 188.542 242.274 188.737C242.104 188.932 241.881 189.06 241.604 189.12V189.16C241.964 189.21 242.24 189.343 242.431 189.56C242.625 189.775 242.72 190.043 242.719 190.363C242.719 190.649 242.637 190.906 242.474 191.133C242.312 191.358 242.089 191.534 241.804 191.663C241.52 191.792 241.195 191.855 240.828 191.855Z" fill="#1A1A1A"/>
<path d="M252.178 189.624L250.695 187.648H248.5C248.125 187.648 247.937 188.102 248.203 188.369L250.23 190.395C250.554 190.719 251.082 190.719 251.407 190.395L252.178 189.624Z" fill="#1A1A1A"/>
<path d="M253.133 187.648H250.695L252.178 189.624L253.434 188.369C253.696 188.102 253.508 187.648 253.133 187.648Z" fill="#1A1A1A"/>
<path d="M256.685 178.875H151.638C148.559 178.875 146.062 181.371 146.062 184.45V193.84C146.062 196.919 148.559 199.415 151.638 199.415H256.685C259.764 199.415 262.26 196.919 262.26 193.84V184.45C262.26 181.371 259.764 178.875 256.685 178.875Z" stroke="#DFDFDF"/>
<path d="M260.793 217.605H63.0227C61.8884 217.605 60.9688 218.525 60.9688 219.659V391.021C60.9688 392.155 61.8884 393.075 63.0227 393.075H260.793C261.927 393.075 262.847 392.155 262.847 391.021V219.659C262.847 218.525 261.927 217.605 260.793 217.605Z" fill="#FAFAFA" stroke="#F5F5F5"/>
<path d="M185.344 264.655V264.1H188.647V264.655H187.316V268.369H186.674V264.655H185.344ZM190.211 268.433C189.911 268.433 189.649 268.365 189.425 268.227C189.202 268.089 189.028 267.897 188.904 267.65C188.781 267.402 188.719 267.113 188.719 266.783C188.719 266.451 188.781 266.16 188.904 265.911C189.028 265.663 189.202 265.47 189.425 265.332C189.649 265.195 189.911 265.126 190.211 265.126C190.511 265.126 190.773 265.195 190.997 265.332C191.221 265.47 191.394 265.663 191.518 265.911C191.641 266.16 191.703 266.451 191.703 266.783C191.703 267.113 191.641 267.402 191.518 267.65C191.394 267.897 191.221 268.089 190.997 268.227C190.773 268.365 190.511 268.433 190.211 268.433ZM190.213 267.91C190.408 267.91 190.569 267.859 190.696 267.756C190.824 267.653 190.919 267.517 190.98 267.345C191.043 267.174 191.074 266.986 191.074 266.781C191.074 266.576 191.043 266.389 190.98 266.218C190.919 266.046 190.824 265.907 190.696 265.804C190.569 265.699 190.408 265.647 190.213 265.647C190.017 265.647 189.855 265.699 189.726 265.804C189.598 265.907 189.503 266.046 189.44 266.218C189.379 266.389 189.348 266.576 189.348 266.781C189.348 266.986 189.379 267.174 189.44 267.345C189.503 267.517 189.598 267.653 189.726 267.756C189.855 267.859 190.017 267.91 190.213 267.91ZM193.893 265.167V265.668H192.145V265.167H193.893ZM192.614 264.401H193.236V267.429C193.236 267.549 193.255 267.64 193.291 267.702C193.327 267.761 193.374 267.802 193.431 267.825C193.489 267.846 193.552 267.856 193.62 267.856C193.67 267.856 193.714 267.853 193.752 267.846C193.789 267.839 193.818 267.833 193.839 267.829L193.951 268.343C193.915 268.358 193.864 268.372 193.797 268.385C193.73 268.4 193.647 268.409 193.547 268.41C193.383 268.413 193.23 268.384 193.088 268.323C192.947 268.262 192.832 268.167 192.745 268.039C192.657 267.911 192.614 267.751 192.614 267.558V264.401ZM195.514 268.44C195.311 268.44 195.128 268.402 194.963 268.327C194.8 268.251 194.67 268.14 194.574 267.995C194.479 267.851 194.432 267.674 194.432 267.464C194.432 267.284 194.467 267.135 194.536 267.018C194.606 266.902 194.7 266.809 194.818 266.741C194.936 266.673 195.068 266.622 195.214 266.587C195.36 266.552 195.508 266.526 195.659 266.508C195.851 266.485 196.007 266.467 196.127 266.454C196.246 266.438 196.333 266.414 196.387 266.38C196.441 266.347 196.468 266.293 196.468 266.218V266.203C196.468 266.021 196.417 265.88 196.314 265.78C196.213 265.68 196.061 265.63 195.86 265.63C195.65 265.63 195.485 265.677 195.364 265.77C195.245 265.862 195.162 265.964 195.116 266.076L194.53 265.943C194.6 265.748 194.701 265.592 194.834 265.472C194.969 265.351 195.124 265.264 195.299 265.209C195.474 265.154 195.658 265.126 195.851 265.126C195.979 265.126 196.115 265.141 196.258 265.172C196.402 265.201 196.537 265.255 196.662 265.335C196.789 265.413 196.892 265.527 196.973 265.674C197.053 265.82 197.094 266.009 197.094 266.243V268.369H196.485V267.931H196.46C196.419 268.012 196.359 268.091 196.279 268.169C196.198 268.247 196.094 268.311 195.968 268.362C195.842 268.414 195.691 268.44 195.514 268.44ZM195.65 267.939C195.821 267.939 195.969 267.905 196.091 267.837C196.215 267.769 196.309 267.68 196.373 267.571C196.438 267.46 196.471 267.34 196.471 267.214V266.802C196.448 266.823 196.405 266.845 196.341 266.864C196.279 266.882 196.207 266.898 196.127 266.912C196.046 266.924 195.968 266.936 195.891 266.947C195.814 266.957 195.751 266.965 195.699 266.973C195.578 266.988 195.468 267.014 195.368 267.049C195.269 267.086 195.19 267.137 195.13 267.206C195.072 267.272 195.043 267.362 195.043 267.473C195.043 267.627 195.1 267.744 195.214 267.823C195.328 267.9 195.473 267.939 195.65 267.939ZM198.547 264.1V268.369H197.924V264.1H198.547ZM202.286 268.433C201.986 268.433 201.725 268.365 201.5 268.227C201.277 268.089 201.103 267.897 200.98 267.65C200.856 267.402 200.794 267.113 200.794 266.783C200.794 266.451 200.856 266.16 200.98 265.911C201.103 265.663 201.277 265.47 201.5 265.332C201.725 265.195 201.986 265.126 202.286 265.126C202.587 265.126 202.848 265.195 203.072 265.332C203.296 265.47 203.469 265.663 203.593 265.911C203.716 266.16 203.779 266.451 203.779 266.783C203.779 267.113 203.716 267.402 203.593 267.65C203.469 267.897 203.296 268.089 203.072 268.227C202.848 268.365 202.587 268.433 202.286 268.433ZM202.289 267.91C202.483 267.91 202.644 267.859 202.772 267.756C202.899 267.653 202.994 267.517 203.056 267.345C203.118 267.174 203.149 266.986 203.149 266.781C203.149 266.576 203.118 266.389 203.056 266.218C202.994 266.046 202.899 265.907 202.772 265.804C202.644 265.699 202.483 265.647 202.289 265.647C202.093 265.647 201.93 265.699 201.801 265.804C201.673 265.907 201.578 266.046 201.515 266.218C201.454 266.389 201.424 266.576 201.424 266.781C201.424 266.986 201.454 267.174 201.515 267.345C201.578 267.517 201.673 267.653 201.801 267.756C201.93 267.859 202.093 267.91 202.289 267.91ZM205.097 266.468V268.369H204.474V265.167H205.072V265.688H205.112C205.185 265.519 205.301 265.383 205.458 265.28C205.616 265.177 205.816 265.126 206.056 265.126C206.274 265.126 206.465 265.172 206.629 265.264C206.793 265.354 206.92 265.488 207.01 265.668C207.101 265.847 207.146 266.069 207.146 266.333V268.369H206.523V266.407C206.523 266.176 206.462 265.994 206.341 265.864C206.221 265.732 206.054 265.666 205.843 265.666C205.699 265.666 205.57 265.697 205.458 265.759C205.347 265.822 205.258 265.914 205.193 266.035C205.129 266.154 205.097 266.299 205.097 266.468ZM208.604 264.1V268.369H207.982V264.1H208.604ZM209.443 268.369V265.167H210.066V268.369H209.443ZM209.757 264.674C209.649 264.674 209.556 264.637 209.478 264.565C209.402 264.492 209.364 264.404 209.364 264.303C209.364 264.2 209.402 264.112 209.478 264.04C209.556 263.967 209.649 263.93 209.757 263.93C209.866 263.93 209.958 263.967 210.034 264.04C210.113 264.112 210.151 264.2 210.151 264.303C210.151 264.404 210.113 264.492 210.034 264.565C209.958 264.637 209.866 264.674 209.757 264.674ZM211.527 266.468V268.369H210.904V265.167H211.502V265.688H211.542C211.615 265.519 211.731 265.383 211.888 265.28C212.046 265.177 212.246 265.126 212.486 265.126C212.704 265.126 212.895 265.172 213.059 265.264C213.223 265.354 213.35 265.488 213.441 265.668C213.531 265.847 213.576 266.069 213.576 266.333V268.369H212.953V266.407C212.953 266.176 212.892 265.994 212.772 265.864C212.651 265.732 212.485 265.666 212.273 265.666C212.129 265.666 212 265.697 211.888 265.759C211.777 265.822 211.688 265.914 211.623 266.035C211.559 266.154 211.527 266.299 211.527 266.468ZM215.791 268.433C215.476 268.433 215.204 268.366 214.976 268.231C214.75 268.095 214.575 267.904 214.451 267.658C214.329 267.411 214.268 267.121 214.268 266.789C214.268 266.461 214.329 266.172 214.451 265.922C214.575 265.672 214.747 265.477 214.968 265.336C215.191 265.196 215.45 265.126 215.747 265.126C215.928 265.126 216.103 265.156 216.273 265.215C216.442 265.275 216.594 265.369 216.729 265.497C216.864 265.625 216.97 265.791 217.048 265.995C217.125 266.198 217.165 266.444 217.165 266.735V266.956H214.62V266.489H216.554C216.554 266.325 216.52 266.18 216.454 266.054C216.387 265.926 216.293 265.825 216.172 265.751C216.053 265.677 215.913 265.641 215.752 265.641C215.577 265.641 215.424 265.684 215.293 265.77C215.164 265.855 215.064 265.966 214.993 266.103C214.924 266.24 214.889 266.387 214.889 266.547V266.912C214.889 267.126 214.926 267.308 215.002 267.458C215.078 267.608 215.184 267.723 215.32 267.802C215.456 267.88 215.615 267.919 215.797 267.919C215.915 267.919 216.023 267.902 216.121 267.869C216.218 267.834 216.301 267.782 216.372 267.714C216.444 267.646 216.498 267.562 216.535 267.462L217.125 267.568C217.078 267.742 216.993 267.894 216.871 268.025C216.75 268.154 216.598 268.255 216.414 268.327C216.232 268.398 216.024 268.433 215.791 268.433ZM221.808 265.949L221.243 266.049C221.219 265.977 221.182 265.908 221.13 265.843C221.08 265.778 221.012 265.724 220.926 265.683C220.84 265.641 220.732 265.62 220.603 265.62C220.426 265.62 220.279 265.66 220.161 265.738C220.043 265.816 219.984 265.917 219.984 266.041C219.984 266.148 220.024 266.234 220.103 266.299C220.182 266.365 220.31 266.418 220.486 266.46L220.995 266.576C221.29 266.644 221.509 266.75 221.654 266.891C221.798 267.033 221.87 267.217 221.87 267.443C221.87 267.635 221.814 267.806 221.703 267.956C221.594 268.105 221.44 268.221 221.243 268.306C221.047 268.391 220.82 268.433 220.561 268.433C220.203 268.433 219.911 268.357 219.684 268.204C219.458 268.05 219.319 267.831 219.267 267.548L219.87 267.456C219.907 267.613 219.984 267.732 220.101 267.812C220.218 267.892 220.37 267.931 220.557 267.931C220.762 267.931 220.925 267.889 221.047 267.804C221.169 267.718 221.23 267.613 221.23 267.489C221.23 267.389 221.193 267.305 221.118 267.237C221.044 267.169 220.931 267.117 220.778 267.083L220.236 266.964C219.938 266.896 219.717 266.788 219.574 266.639C219.432 266.49 219.361 266.302 219.361 266.074C219.361 265.885 219.414 265.72 219.519 265.578C219.625 265.437 219.771 265.326 219.957 265.247C220.143 265.166 220.357 265.126 220.597 265.126C220.943 265.126 221.215 265.201 221.414 265.351C221.613 265.5 221.744 265.699 221.808 265.949ZM224.05 265.167V265.668H222.301V265.167H224.05ZM222.77 264.401H223.393V267.429C223.393 267.549 223.411 267.64 223.447 267.702C223.483 267.761 223.53 267.802 223.587 267.825C223.645 267.846 223.709 267.856 223.777 267.856C223.827 267.856 223.87 267.853 223.908 267.846C223.945 267.839 223.975 267.833 223.995 267.829L224.108 268.343C224.072 268.358 224.02 268.372 223.953 268.385C223.887 268.4 223.804 268.409 223.703 268.41C223.54 268.413 223.387 268.384 223.245 268.323C223.103 268.262 222.989 268.167 222.901 268.039C222.814 267.911 222.77 267.751 222.77 267.558V264.401ZM226.053 268.433C225.753 268.433 225.491 268.365 225.267 268.227C225.043 268.089 224.87 267.897 224.746 267.65C224.623 267.402 224.561 267.113 224.561 266.783C224.561 266.451 224.623 266.16 224.746 265.911C224.87 265.663 225.043 265.47 225.267 265.332C225.491 265.195 225.753 265.126 226.053 265.126C226.353 265.126 226.615 265.195 226.838 265.332C227.062 265.47 227.236 265.663 227.36 265.911C227.483 266.16 227.545 266.451 227.545 266.783C227.545 267.113 227.483 267.402 227.36 267.65C227.236 267.897 227.062 268.089 226.838 268.227C226.615 268.365 226.353 268.433 226.053 268.433ZM226.055 267.91C226.249 267.91 226.411 267.859 226.539 267.756C226.666 267.653 226.76 267.517 226.822 267.345C226.884 267.174 226.915 266.986 226.915 266.781C226.915 266.576 226.884 266.389 226.822 266.218C226.76 266.046 226.666 265.907 226.539 265.804C226.411 265.699 226.249 265.647 226.055 265.647C225.859 265.647 225.696 265.699 225.567 265.804C225.439 265.907 225.344 266.046 225.282 266.218C225.221 266.389 225.19 266.576 225.19 266.781C225.19 266.986 225.221 267.174 225.282 267.345C225.344 267.517 225.439 267.653 225.567 267.756C225.696 267.859 225.859 267.91 226.055 267.91ZM228.24 268.369V265.167H228.843V265.676H228.876C228.935 265.504 229.037 265.369 229.185 265.269C229.333 265.17 229.501 265.12 229.689 265.12C229.728 265.12 229.773 265.121 229.826 265.124C229.881 265.127 229.923 265.13 229.953 265.135V265.73C229.928 265.723 229.884 265.715 229.82 265.707C229.756 265.698 229.692 265.693 229.628 265.693C229.481 265.693 229.35 265.724 229.235 265.786C229.121 265.848 229.03 265.933 228.963 266.043C228.897 266.152 228.864 266.275 228.864 266.414V268.369H228.24ZM231.757 268.433C231.442 268.433 231.171 268.366 230.943 268.231C230.716 268.095 230.542 267.904 230.418 267.658C230.296 267.411 230.235 267.121 230.235 266.789C230.235 266.461 230.296 266.172 230.418 265.922C230.542 265.672 230.713 265.477 230.935 265.336C231.157 265.196 231.417 265.126 231.714 265.126C231.895 265.126 232.07 265.156 232.239 265.215C232.409 265.275 232.561 265.369 232.695 265.497C232.83 265.625 232.936 265.791 233.015 265.995C233.092 266.198 233.131 266.444 233.131 266.735V266.956H230.587V266.489H232.52C232.52 266.325 232.487 266.18 232.421 266.054C232.354 265.926 232.26 265.825 232.139 265.751C232.02 265.677 231.88 265.641 231.718 265.641C231.543 265.641 231.39 265.684 231.26 265.77C231.131 265.855 231.03 265.966 230.959 266.103C230.89 266.24 230.855 266.387 230.855 266.547V266.912C230.855 267.126 230.893 267.308 230.968 267.458C231.044 267.608 231.151 267.723 231.287 267.802C231.423 267.88 231.582 267.919 231.764 267.919C231.882 267.919 231.99 267.902 232.087 267.869C232.184 267.834 232.269 267.782 232.339 267.714C232.41 267.646 232.464 267.562 232.502 267.462L233.091 267.568C233.044 267.742 232.959 267.894 232.837 268.025C232.716 268.154 232.564 268.255 232.381 268.327C232.199 268.398 231.991 268.433 231.757 268.433ZM238.114 265.167L236.953 268.369H236.286L235.124 265.167H235.792L236.603 267.631H236.637L237.445 265.167H238.114ZM238.699 268.369V265.167H239.323V268.369H238.699ZM239.015 264.674C238.906 264.674 238.813 264.637 238.735 264.565C238.658 264.492 238.62 264.404 238.62 264.303C238.62 264.2 238.658 264.112 238.735 264.04C238.813 263.967 238.906 263.93 239.015 263.93C239.122 263.93 239.215 263.967 239.292 264.04C239.369 264.112 239.408 264.2 239.408 264.303C239.408 264.404 239.369 264.492 239.292 264.565C239.215 264.637 239.122 264.674 239.015 264.674ZM242.56 265.949L241.995 266.049C241.971 265.977 241.934 265.908 241.882 265.843C241.833 265.778 241.765 265.724 241.678 265.683C241.592 265.641 241.485 265.62 241.355 265.62C241.179 265.62 241.032 265.66 240.914 265.738C240.795 265.816 240.736 265.917 240.736 266.041C240.736 266.148 240.776 266.234 240.855 266.299C240.934 266.365 241.062 266.418 241.238 266.46L241.747 266.576C242.042 266.644 242.261 266.75 242.405 266.891C242.55 267.033 242.622 267.217 242.622 267.443C242.622 267.635 242.567 267.806 242.455 267.956C242.346 268.105 242.192 268.221 241.995 268.306C241.799 268.391 241.572 268.433 241.313 268.433C240.955 268.433 240.662 268.357 240.436 268.204C240.209 268.05 240.071 267.831 240.019 267.548L240.621 267.456C240.659 267.613 240.736 267.732 240.853 267.812C240.969 267.892 241.122 267.931 241.309 267.931C241.513 267.931 241.677 267.889 241.799 267.804C241.921 267.718 241.982 267.613 241.982 267.489C241.982 267.389 241.945 267.305 241.87 267.237C241.796 267.169 241.683 267.117 241.53 267.083L240.988 266.964C240.689 266.896 240.469 266.788 240.326 266.639C240.184 266.49 240.113 266.302 240.113 266.074C240.113 265.885 240.166 265.72 240.272 265.578C240.377 265.437 240.523 265.326 240.709 265.247C240.895 265.166 241.108 265.126 241.349 265.126C241.695 265.126 241.967 265.201 242.166 265.351C242.364 265.5 242.496 265.699 242.56 265.949ZM243.307 268.369V265.167H243.931V268.369H243.307ZM243.622 264.674C243.513 264.674 243.421 264.637 243.343 264.565C243.266 264.492 243.228 264.404 243.228 264.303C243.228 264.2 243.266 264.112 243.343 264.04C243.421 263.967 243.513 263.93 243.622 263.93C243.73 263.93 243.823 263.967 243.899 264.04C243.977 264.112 244.016 264.2 244.016 264.303C244.016 264.404 243.977 264.492 243.899 264.565C243.823 264.637 243.73 264.674 243.622 264.674ZM246.263 265.167V265.668H244.515V265.167H246.263ZM244.983 264.401H245.607V267.429C245.607 267.549 245.624 267.64 245.661 267.702C245.697 267.761 245.743 267.802 245.8 267.825C245.858 267.846 245.922 267.856 245.99 267.856C246.04 267.856 246.084 267.853 246.121 267.846C246.159 267.839 246.188 267.833 246.209 267.829L246.321 268.343C246.285 268.358 246.234 268.372 246.167 268.385C246.1 268.4 246.017 268.409 245.917 268.41C245.753 268.413 245.6 268.384 245.459 268.323C245.317 268.262 245.202 268.167 245.115 268.039C245.027 267.911 244.983 267.751 244.983 267.558V264.401Z" fill="#808080"/>
<path d="M228.363 253.232H229.185V258.983H228.24V254.242L227.082 254.571L226.852 253.766L228.363 253.232ZM231.552 257.997L230.977 260.133H230.237L230.566 257.997H231.552ZM232.231 258.983V258.244L234.235 256.198C234.723 255.71 234.967 255.289 234.967 254.933C234.967 254.653 234.881 254.437 234.712 254.283C234.548 254.124 234.337 254.045 234.079 254.045C233.597 254.045 233.241 254.283 233.011 254.76L232.214 254.292C232.395 253.908 232.65 253.618 232.978 253.421C233.307 253.224 233.671 253.125 234.071 253.125C234.575 253.125 235.008 253.284 235.369 253.602C235.731 253.919 235.911 254.352 235.911 254.9C235.911 255.486 235.586 256.11 234.934 256.773L233.636 258.071H236.018V258.983H232.231ZM240.492 258.276C240.098 258.819 239.545 259.09 238.833 259.09C238.12 259.09 237.565 258.819 237.165 258.276C236.771 257.734 236.573 257.011 236.573 256.107C236.573 255.204 236.771 254.481 237.165 253.938C237.565 253.396 238.12 253.125 238.833 253.125C239.545 253.125 240.098 253.396 240.492 253.938C240.892 254.481 241.092 255.204 241.092 256.107C241.092 257.011 240.892 257.734 240.492 258.276ZM238.833 258.17C239.26 258.17 239.586 257.992 239.81 257.636C240.035 257.279 240.147 256.77 240.147 256.107C240.147 255.445 240.035 254.935 239.81 254.579C239.586 254.223 239.26 254.045 238.833 254.045C238.411 254.045 238.085 254.223 237.855 254.579C237.63 254.935 237.518 255.445 237.518 256.107C237.518 256.77 237.63 257.279 237.855 257.636C238.085 257.992 238.411 258.17 238.833 258.17ZM246.045 257.069V257.948H245.388V258.983H244.435V257.948H241.609V257.069L243.589 253.232H244.616L242.636 257.069H244.435V255.573H245.388V257.069H246.045Z" fill="#1A1A1A"/>
<path d="M222.057 257.806C223.03 257.806 223.818 257.018 223.818 256.046C223.818 255.073 223.03 254.285 222.057 254.285C221.085 254.285 220.297 255.073 220.297 256.046C220.297 257.018 221.085 257.806 222.057 257.806Z" fill="#0058CF"/>
<path d="M153.976 226.117H71.8162C70.5197 226.117 69.4688 227.168 69.4688 228.465V237.854C69.4688 239.151 70.5197 240.202 71.8162 240.202H153.976C155.272 240.202 156.323 239.151 156.323 237.854V228.465C156.323 227.168 155.272 226.117 153.976 226.117Z" fill="#F0F0F0"/>
<path d="M73.1707 231.78L75.935 233.199L76.3289 233.401C76.7194 233.597 77.0684 233.054 76.6745 232.855L73.9102 231.436L73.5197 231.233C73.1293 231.037 72.7803 231.581 73.1707 231.78Z" fill="#808080"/>
<path d="M73 231.508V234.741C73.0009 234.796 73.0174 234.849 73.0477 234.896C73.0779 234.943 73.1211 234.982 73.1728 235.009L76.3448 236.628C76.7353 236.827 77.0842 236.28 76.6903 236.084L73.5218 234.469L73.6911 234.741V231.508C73.6911 231.424 73.6547 231.343 73.5898 231.284C73.5251 231.225 73.4372 231.191 73.3455 231.191C73.2539 231.191 73.166 231.225 73.1012 231.284C73.0364 231.343 73 231.424 73 231.508Z" fill="#808080"/>
<path d="M79.5178 231.233L76.7535 232.652L76.3561 232.855C75.9691 233.054 76.3181 233.597 76.7016 233.401L79.466 231.982L79.8633 231.78C80.2538 231.581 79.9048 231.037 79.5178 231.233Z" fill="#808080"/>
<path d="M79.3467 231.508V234.747L79.516 234.473L76.3405 236.09C75.9535 236.286 76.3025 236.833 76.6861 236.634L79.865 235.009C79.9172 234.982 79.9606 234.943 79.9909 234.895C80.0213 234.847 80.0374 234.793 80.0378 234.738V231.508C80.0378 231.424 80.0014 231.343 79.9365 231.284C79.8717 231.225 79.7839 231.191 79.6922 231.191C79.6006 231.191 79.5127 231.225 79.4479 231.284C79.3831 231.343 79.3467 231.424 79.3467 231.508Z" fill="#808080"/>
<path d="M76.1719 233.117V236.366C76.1719 236.45 76.2083 236.53 76.2731 236.59C76.3379 236.649 76.4258 236.682 76.5174 236.682C76.6091 236.682 76.697 236.649 76.7618 236.59C76.8266 236.53 76.863 236.45 76.863 236.366V233.117C76.863 233.033 76.8266 232.952 76.7618 232.893C76.697 232.834 76.6091 232.801 76.5174 232.801C76.4258 232.801 76.3379 232.834 76.2731 232.893C76.2083 232.952 76.1719 233.033 76.1719 233.117Z" fill="#808080"/>
<path d="M79.87 231.233L77.185 229.842C77.0146 229.728 76.8143 229.657 76.6045 229.637C76.4048 229.653 76.213 229.716 76.0481 229.82L74.4828 230.585L73.1731 231.233C72.7791 231.425 73.1282 231.972 73.5186 231.779L76.1863 230.468L76.4352 230.348C76.4697 230.329 76.5423 230.272 76.5872 230.272C76.6321 230.272 76.7254 230.329 76.7738 230.357L78.27 231.131L79.521 231.779C79.5999 231.817 79.6918 231.826 79.7774 231.803C79.863 231.78 79.9357 231.728 79.9803 231.658C80.0249 231.587 80.038 231.503 80.0168 231.424C79.9955 231.345 79.9417 231.276 79.8665 231.233H79.87Z" fill="#808080"/>
<path d="M86.999 234.868C86.5061 235.361 85.9028 235.607 85.1892 235.607C84.4755 235.607 83.8699 235.361 83.3723 234.868C82.8793 234.37 82.6328 233.765 82.6328 233.051C82.6328 232.337 82.8793 231.734 83.3723 231.241C83.8699 230.744 84.4755 230.495 85.1892 230.495C85.9028 230.495 86.5061 230.744 86.999 231.241C87.4967 231.734 87.7455 232.337 87.7455 233.051C87.7455 233.765 87.4967 234.37 86.999 234.868ZM83.9427 234.319C84.2807 234.652 84.6962 234.819 85.1892 234.819C85.6821 234.819 86.0953 234.652 86.4286 234.319C86.7666 233.981 86.9356 233.558 86.9356 233.051C86.9356 232.544 86.7666 232.124 86.4286 231.79C86.0953 231.452 85.6821 231.283 85.1892 231.283C84.6962 231.283 84.2807 231.452 83.9427 231.79C83.6093 232.124 83.4427 232.544 83.4427 233.051C83.4427 233.558 83.6093 233.981 83.9427 234.319ZM90.4279 231.903C90.8316 231.903 91.1579 232.032 91.4068 232.29C91.6556 232.549 91.78 232.903 91.78 233.354V235.516H91.0194V233.431C91.0194 233.168 90.949 232.967 90.8082 232.826C90.6673 232.685 90.4748 232.614 90.2307 232.614C89.9631 232.614 89.7471 232.699 89.5828 232.868C89.4185 233.032 89.3363 233.286 89.3363 233.629V235.516H88.5758V231.995H89.3363V232.445C89.5664 232.084 89.9302 231.903 90.4279 231.903ZM92.7397 235.516V230.375H93.5003V235.516H92.7397ZM95.2426 231.326C95.1487 231.42 95.036 231.467 94.9045 231.467C94.7731 231.467 94.658 231.42 94.5595 231.326C94.4656 231.227 94.4186 231.112 94.4186 230.981C94.4186 230.849 94.4656 230.736 94.5595 230.643C94.6534 230.544 94.7684 230.495 94.9045 230.495C95.0407 230.495 95.1557 230.544 95.2496 230.643C95.3435 230.736 95.3904 230.849 95.3904 230.981C95.3904 231.112 95.3411 231.227 95.2426 231.326ZM94.5242 235.516V231.995H95.2848V235.516H94.5242ZM98.1609 231.903C98.5646 231.903 98.8909 232.032 99.1397 232.29C99.3886 232.549 99.513 232.903 99.513 233.354V235.516H98.7524V233.431C98.7524 233.168 98.682 232.967 98.5411 232.826C98.4003 232.685 98.2078 232.614 97.9637 232.614C97.6961 232.614 97.4801 232.699 97.3158 232.868C97.1515 233.032 97.0693 233.286 97.0693 233.629V235.516H96.3088V231.995H97.0693V232.445C97.2994 232.084 97.6632 231.903 98.1609 231.903ZM101.071 234.079C101.128 234.347 101.257 234.553 101.459 234.699C101.661 234.84 101.907 234.91 102.198 234.91C102.602 234.91 102.905 234.765 103.107 234.474L103.733 234.84C103.386 235.352 102.872 235.607 102.191 235.607C101.618 235.607 101.156 235.434 100.804 235.086C100.452 234.734 100.276 234.29 100.276 233.755C100.276 233.229 100.449 232.79 100.797 232.438C101.144 232.082 101.59 231.903 102.135 231.903C102.651 231.903 103.074 232.084 103.402 232.445C103.736 232.807 103.902 233.246 103.902 233.762C103.902 233.842 103.893 233.948 103.874 234.079H101.071ZM101.064 233.459H103.135C103.083 233.173 102.963 232.957 102.776 232.812C102.592 232.666 102.377 232.593 102.128 232.593C101.846 232.593 101.611 232.671 101.423 232.826C101.236 232.981 101.116 233.192 101.064 233.459ZM108.304 235.607C107.83 235.607 107.426 235.499 107.093 235.283C106.764 235.067 106.534 234.772 106.403 234.396L107.1 233.988C107.297 234.542 107.706 234.819 108.325 234.819C108.63 234.819 108.858 234.76 109.008 234.643C109.163 234.521 109.241 234.363 109.241 234.171C109.241 233.969 109.159 233.816 108.994 233.713C108.83 233.605 108.539 233.488 108.121 233.361C107.886 233.29 107.696 233.225 107.551 233.164C107.405 233.103 107.25 233.018 107.086 232.91C106.926 232.798 106.807 232.659 106.727 232.495C106.647 232.33 106.607 232.138 106.607 231.917C106.607 231.481 106.762 231.136 107.072 230.882C107.382 230.624 107.755 230.495 108.192 230.495C108.586 230.495 108.931 230.591 109.227 230.783C109.522 230.976 109.75 231.241 109.91 231.579L109.227 231.974C109.02 231.513 108.675 231.283 108.192 231.283C107.957 231.283 107.769 231.34 107.628 231.452C107.487 231.56 107.417 231.708 107.417 231.896C107.417 232.079 107.487 232.225 107.628 232.333C107.774 232.436 108.034 232.546 108.41 232.664C108.598 232.725 108.734 232.772 108.818 232.805C108.907 232.833 109.03 232.88 109.184 232.945C109.344 233.011 109.464 233.077 109.544 233.143C109.623 233.208 109.708 233.29 109.797 233.389C109.891 233.488 109.957 233.6 109.994 233.727C110.032 233.854 110.051 233.997 110.051 234.157C110.051 234.603 109.889 234.957 109.565 235.22C109.245 235.478 108.825 235.607 108.304 235.607ZM112.701 232.727H111.828V234.417C111.828 234.563 111.861 234.668 111.927 234.734C111.993 234.795 112.089 234.83 112.216 234.84C112.347 234.844 112.509 234.842 112.701 234.833V235.516C112.119 235.586 111.701 235.537 111.448 235.368C111.194 235.194 111.068 234.877 111.068 234.417V232.727H110.42V231.995H111.068V231.234L111.828 231.009V231.995H112.701V232.727ZM115.049 235.607C114.533 235.607 114.094 235.429 113.733 235.072C113.371 234.715 113.19 234.276 113.19 233.755C113.19 233.234 113.371 232.795 113.733 232.438C114.094 232.082 114.533 231.903 115.049 231.903C115.571 231.903 116.01 232.082 116.366 232.438C116.728 232.795 116.909 233.234 116.909 233.755C116.909 234.276 116.728 234.715 116.366 235.072C116.01 235.429 115.571 235.607 115.049 235.607ZM114.268 234.551C114.479 234.762 114.74 234.868 115.049 234.868C115.359 234.868 115.62 234.762 115.831 234.551C116.042 234.34 116.148 234.075 116.148 233.755C116.148 233.436 116.042 233.171 115.831 232.96C115.62 232.748 115.359 232.643 115.049 232.643C114.74 232.643 114.479 232.748 114.268 232.96C114.057 233.171 113.951 233.436 113.951 233.755C113.951 234.075 114.057 234.34 114.268 234.551ZM118.498 232.586C118.69 232.15 119.052 231.931 119.582 231.931V232.755C119.291 232.737 119.038 232.807 118.822 232.967C118.606 233.121 118.498 233.38 118.498 233.741V235.516H117.737V231.995H118.498V232.586ZM120.718 234.079C120.775 234.347 120.904 234.553 121.106 234.699C121.308 234.84 121.554 234.91 121.845 234.91C122.249 234.91 122.552 234.765 122.754 234.474L123.38 234.84C123.033 235.352 122.519 235.607 121.838 235.607C121.265 235.607 120.803 235.434 120.451 235.086C120.099 234.734 119.923 234.29 119.923 233.755C119.923 233.229 120.096 232.79 120.444 232.438C120.791 232.082 121.237 231.903 121.782 231.903C122.298 231.903 122.721 232.084 123.049 232.445C123.383 232.807 123.549 233.246 123.549 233.762C123.549 233.842 123.54 233.948 123.521 234.079H120.718ZM120.711 233.459H122.782C122.73 233.173 122.611 232.957 122.423 232.812C122.24 232.666 122.024 232.593 121.775 232.593C121.493 232.593 121.258 232.671 121.071 232.826C120.883 232.981 120.763 233.192 120.711 233.459ZM127.564 235.516L125.853 230.586H126.74L128.05 234.537L129.367 230.586H130.247L128.536 235.516H127.564ZM131.446 231.326C131.352 231.42 131.24 231.467 131.108 231.467C130.977 231.467 130.862 231.42 130.763 231.326C130.669 231.227 130.622 231.112 130.622 230.981C130.622 230.849 130.669 230.736 130.763 230.643C130.857 230.544 130.972 230.495 131.108 230.495C131.244 230.495 131.359 230.544 131.453 230.643C131.547 230.736 131.594 230.849 131.594 230.981C131.594 231.112 131.545 231.227 131.446 231.326ZM130.728 235.516V231.995H131.488V235.516H130.728ZM133.174 232.967C133.174 233.084 133.238 233.178 133.365 233.248C133.496 233.314 133.653 233.373 133.836 233.424C134.024 233.471 134.212 233.528 134.4 233.593C134.588 233.659 134.745 233.772 134.872 233.931C135.003 234.086 135.069 234.283 135.069 234.523C135.069 234.861 134.937 235.126 134.674 235.319C134.416 235.511 134.09 235.607 133.696 235.607C133.348 235.607 133.05 235.535 132.801 235.389C132.552 235.244 132.372 235.042 132.259 234.783L132.914 234.403C133.036 234.741 133.297 234.91 133.696 234.91C134.095 234.91 134.294 234.779 134.294 234.516C134.294 234.403 134.228 234.312 134.097 234.241C133.97 234.171 133.813 234.112 133.625 234.065C133.442 234.013 133.257 233.955 133.069 233.889C132.881 233.823 132.721 233.715 132.59 233.565C132.463 233.41 132.4 233.215 132.4 232.981C132.4 232.657 132.522 232.396 132.766 232.199C133.015 232.002 133.322 231.903 133.689 231.903C133.98 231.903 134.238 231.969 134.463 232.1C134.693 232.227 134.869 232.406 134.991 232.636L134.351 232.995C134.228 232.727 134.008 232.593 133.689 232.593C133.543 232.593 133.421 232.626 133.322 232.692C133.224 232.753 133.174 232.844 133.174 232.967ZM136.555 231.326C136.461 231.42 136.349 231.467 136.217 231.467C136.086 231.467 135.971 231.42 135.872 231.326C135.778 231.227 135.731 231.112 135.731 230.981C135.731 230.849 135.778 230.736 135.872 230.643C135.966 230.544 136.081 230.495 136.217 230.495C136.353 230.495 136.468 230.544 136.562 230.643C136.656 230.736 136.703 230.849 136.703 230.981C136.703 231.112 136.654 231.227 136.555 231.326ZM135.837 235.516V231.995H136.598V235.516H135.837ZM139.586 232.727H138.713V234.417C138.713 234.563 138.746 234.668 138.812 234.734C138.878 234.795 138.974 234.83 139.101 234.84C139.232 234.844 139.394 234.842 139.586 234.833V235.516C139.004 235.586 138.586 235.537 138.333 235.368C138.079 235.194 137.953 234.877 137.953 234.417V232.727H137.305V231.995H137.953V231.234L138.713 231.009V231.995H139.586V232.727Z" fill="#808080"/>
<path fill-rule="evenodd" clip-rule="evenodd" d="M152.706 233.158C152.706 235.048 151.173 236.581 149.282 236.581C147.392 236.581 145.859 235.048 145.859 233.158C145.859 231.267 147.392 229.734 149.282 229.734C151.173 229.734 152.706 231.267 152.706 233.158ZM149.625 231.446C149.625 231.635 149.472 231.788 149.282 231.788C149.094 231.788 148.94 231.635 148.94 231.446C148.94 231.257 149.094 231.104 149.282 231.104C149.472 231.104 149.625 231.257 149.625 231.446ZM148.94 232.216C148.798 232.216 148.684 232.331 148.684 232.473C148.684 232.615 148.798 232.73 148.94 232.73H149.026V234.869C149.026 235.011 149.141 235.126 149.282 235.126C149.425 235.126 149.54 235.011 149.54 234.869V232.473C149.54 232.331 149.425 232.216 149.282 232.216H148.94Z" fill="#808080"/>
<path d="M276.634 26H46V50.6479H276.634V26Z" fill="white"/>
<path fill-rule="evenodd" clip-rule="evenodd" d="M234.97 37.7344H235.557C235.88 37.7344 236.143 37.9971 236.143 38.3212V41.8424C236.143 42.1665 235.88 42.4292 235.557 42.4292H234.97C234.646 42.4292 234.383 42.1665 234.383 41.8424V38.3212C234.383 37.9971 234.646 37.7344 234.97 37.7344Z" fill="#D1D1D6"/>
<path fill-rule="evenodd" clip-rule="evenodd" d="M232.329 38.9102H232.916C233.24 38.9102 233.503 39.1729 233.503 39.497V41.8444C233.503 42.1685 233.24 42.4313 232.916 42.4313H232.329C232.005 42.4313 231.742 42.1685 231.742 41.8444V39.497C231.742 39.1729 232.005 38.9102 232.329 38.9102Z" fill="#D1D1D6"/>
<path fill-rule="evenodd" clip-rule="evenodd" d="M229.681 39.7891H230.267C230.591 39.7891 230.854 40.0518 230.854 40.3759V41.8431C230.854 42.1672 230.591 42.4299 230.267 42.4299H229.681C229.357 42.4299 229.094 42.1672 229.094 41.8431V40.3759C229.094 40.0518 229.357 39.7891 229.681 39.7891Z" fill="#D1D1D6"/>
<path fill-rule="evenodd" clip-rule="evenodd" d="M237.61 36.5625H238.197C238.521 36.5625 238.784 36.8252 238.784 37.1494V41.8442C238.784 42.1683 238.521 42.431 238.197 42.431H237.61C237.286 42.431 237.023 42.1683 237.023 41.8442V37.1494C237.023 36.8252 237.286 36.5625 237.61 36.5625Z" fill="#3C3C43" fill-opacity="0.18"/>
<path fill-rule="evenodd" clip-rule="evenodd" d="M234.97 37.7344H235.557C235.88 37.7344 236.143 37.9971 236.143 38.3212V41.8424C236.143 42.1665 235.88 42.4292 235.557 42.4292H234.97C234.646 42.4292 234.383 42.1665 234.383 41.8424V38.3212C234.383 37.9971 234.646 37.7344 234.97 37.7344Z" fill="black"/>
<path fill-rule="evenodd" clip-rule="evenodd" d="M232.329 38.9102H232.916C233.24 38.9102 233.503 39.1729 233.503 39.497V41.8444C233.503 42.1685 233.24 42.4313 232.916 42.4313H232.329C232.005 42.4313 231.742 42.1685 231.742 41.8444V39.497C231.742 39.1729 232.005 38.9102 232.329 38.9102Z" fill="black"/>
<path fill-rule="evenodd" clip-rule="evenodd" d="M229.681 39.7891H230.267C230.591 39.7891 230.854 40.0518 230.854 40.3759V41.8431C230.854 42.1672 230.591 42.4299 230.267 42.4299H229.681C229.357 42.4299 229.094 42.1672 229.094 41.8431V40.3759C229.094 40.0518 229.357 39.7891 229.681 39.7891Z" fill="black"/>
<path d="M246.78 40.6367C247.155 40.6367 247.52 40.7353 247.841 40.9233L247.971 40.9995C248.07 41.0573 248.088 41.1925 248.007 41.2732L246.895 42.3817C246.827 42.4497 246.716 42.4497 246.648 42.3817L245.544 41.2803C245.463 41.2 245.48 41.0655 245.578 41.0073L245.706 40.9307C246.031 40.738 246.4 40.6367 246.78 40.6367Z" fill="black"/>
<path d="M246.786 38.6016C247.72 38.6016 248.616 38.9112 249.346 39.4848L249.45 39.5659C249.532 39.6305 249.539 39.7523 249.465 39.8261L248.802 40.4879C248.74 40.5491 248.643 40.5561 248.573 40.5044L248.492 40.4443C247.999 40.0777 247.404 39.8811 246.786 39.8811C246.164 39.8811 245.566 40.0802 245.071 40.4509L244.99 40.5116C244.92 40.5637 244.823 40.5568 244.761 40.4955L244.098 39.834C244.024 39.7602 244.031 39.6388 244.113 39.5741L244.215 39.4929C244.948 38.9143 245.848 38.6016 246.786 38.6016Z" fill="black"/>
<path d="M246.78 36.5625C248.261 36.5625 249.678 37.0852 250.8 38.0431L250.895 38.1249C250.973 38.191 250.977 38.3087 250.905 38.3806L250.244 39.0401C250.179 39.104 250.077 39.1086 250.008 39.0505L249.926 38.982C249.043 38.2437 247.936 37.8421 246.78 37.8421C245.619 37.8421 244.509 38.2464 243.624 38.9894L243.543 39.0582C243.473 39.1165 243.371 39.1122 243.306 39.0482L242.645 38.3887C242.573 38.3169 242.577 38.1994 242.655 38.1332L242.75 38.0514C243.873 37.0883 245.294 36.5625 246.78 36.5625Z" fill="#3C3C43" fill-opacity="0.3"/>
<path d="M258.695 40.1296H260.54L259.575 42.6197C259.436 42.9788 259.814 43.1658 260.059 42.878L263.041 39.3252C263.102 39.254 263.132 39.1827 263.132 39.1055C263.132 38.969 263.023 38.8681 262.875 38.8681H261.03L261.992 36.375C262.131 36.0188 261.753 35.8288 261.511 36.1168L258.525 39.6695C258.464 39.7437 258.438 39.8119 258.438 39.8891C258.438 40.0286 258.547 40.1296 258.695 40.1296Z" fill="black"/>
<path d="M260.376 36.5634H255.511C254.862 36.5634 254.337 37.0889 254.337 37.7371V41.2583C254.337 41.9065 254.862 42.432 255.511 42.432H259.026C258.958 42.6216 258.947 42.8298 259.002 43.0188H255.511C254.538 43.0188 253.75 42.2306 253.75 41.2583V37.7371C253.75 36.7648 254.538 35.9766 255.511 35.9766H260.87L260.376 36.5634Z" fill="#3C3C43" fill-opacity="0.6"/>
<path d="M261.204 42.432H265.484C266.132 42.432 266.658 41.9065 266.658 41.2583V37.7371C266.658 37.0889 266.132 36.5634 265.484 36.5634H262.552C262.621 36.373 262.631 36.1651 262.576 35.9766H265.484C266.456 35.9766 267.244 36.7648 267.244 37.7371V41.2583C267.244 42.2306 266.456 43.0188 265.484 43.0188H260.711L261.204 42.432Z" fill="#3C3C43" fill-opacity="0.6"/>
<path d="M267.828 38.3242C268.152 38.3242 268.415 38.587 268.415 38.9111V40.0848C268.415 40.4089 268.152 40.6716 267.828 40.6716V38.3242Z" fill="#3C3C43" fill-opacity="0.6"/>
<path d="M259.881 37.1484L258.079 39.2934L258.076 39.2969C257.951 39.4501 257.856 39.6453 257.856 39.8873C257.856 40.3889 258.267 40.7146 258.7 40.7146H259.689L259.251 41.8433H255.509C255.185 41.8433 254.922 41.5805 254.922 41.2564V37.7353C254.922 37.4112 255.185 37.1484 255.509 37.1484H259.881Z" fill="#34C759"/>
<path d="M68.2226 42.4841C69.8001 42.4841 70.7371 41.2505 70.7371 39.1615C70.7371 38.375 70.5866 37.7131 70.2987 37.2016C69.8817 36.4064 69.1639 35.9766 68.257 35.9766C66.9074 35.9766 65.9531 36.8835 65.9531 38.1558C65.9531 39.3507 66.8127 40.2189 67.9948 40.2189C68.7212 40.2189 69.3101 39.8794 69.6024 39.2905H69.6152C69.6152 39.2905 69.6324 39.2905 69.6368 39.2905C69.6453 39.2905 69.6754 39.2905 69.6754 39.2905C69.6754 40.709 69.1381 41.5557 68.2312 41.5557C67.6982 41.5557 67.2856 41.2634 67.1437 40.7949H66.0391C66.2239 41.8136 67.0879 42.4841 68.2226 42.4841ZM68.2613 39.3378C67.5478 39.3378 67.0406 38.8306 67.0406 38.1214C67.0406 37.4294 67.5735 36.9007 68.2656 36.9007C68.9576 36.9007 69.4906 37.4379 69.4906 38.1386C69.4906 38.8306 68.9705 39.3378 68.2613 39.3378Z" fill="black"/>
<path d="M72.5471 42.4214C72.9554 42.4214 73.2348 42.1291 73.2348 41.7423C73.2348 41.3511 72.9554 41.0632 72.5471 41.0632C72.1431 41.0632 71.8594 41.3511 71.8594 41.7423C71.8594 42.1291 72.1431 42.4214 72.5471 42.4214ZM72.5471 39.1977C72.9554 39.1977 73.2348 38.9097 73.2348 38.5229C73.2348 38.1318 72.9554 37.8438 72.5471 37.8438C72.1431 37.8438 71.8594 38.1318 71.8594 38.5229C71.8594 38.9097 72.1431 39.1977 72.5471 39.1977Z" fill="black"/>
<path d="M77.2647 42.3352H78.3263V41.1789H79.1645V40.2419H78.3263V36.1328H76.7618C75.6657 37.7833 74.7932 39.163 74.2344 40.1903V41.1789H77.2647V42.3352ZM75.2617 40.2032C75.9838 38.9309 76.6285 37.9123 77.2217 37.0355H77.2819V40.2677H75.2617V40.2032Z" fill="black"/>
<path d="M81.5224 42.3352H82.6314V36.1328H81.5267L79.9062 37.2676V38.3335L81.4493 37.2504H81.5224V42.3352Z" fill="black"/>
<path d="M276.047 50.6484H46V98.7705H276.047V50.6484Z" fill="white"/>
<path d="M63.3909 80.1637L66.7477 76.8069C66.9746 76.58 67.3501 76.58 67.5771 76.8069C67.804 77.0339 67.804 77.4094 67.5771 77.6363L65.2219 79.9916H73.1953C73.5161 79.9916 73.7821 80.2576 73.7821 80.5785C73.7821 80.8992 73.5161 81.1653 73.1953 81.1653H65.2219L67.5771 83.5205C67.804 83.7475 67.804 84.1231 67.5771 84.3499C67.4597 84.4673 67.3111 84.5221 67.1624 84.5221C67.0137 84.5221 66.8651 84.4673 66.7477 84.3499L63.3909 80.9931C63.2813 80.8836 63.2188 80.7349 63.2188 80.5785C63.2188 80.4219 63.2813 80.2733 63.3909 80.1637Z" fill="#292D32"/>
<path d="M152.723 83.0583C152.072 83.0583 151.524 82.9144 151.08 82.6264C150.635 82.3322 150.322 81.9347 150.141 81.4339L151.249 80.786C151.505 81.4558 152.009 81.7907 152.76 81.7907C153.124 81.7907 153.389 81.725 153.558 81.5935C153.727 81.4621 153.812 81.2962 153.812 81.0959C153.812 80.8643 153.709 80.6859 153.502 80.5607C153.296 80.4292 152.926 80.2884 152.394 80.1382C152.1 80.0505 151.85 79.9629 151.643 79.8752C151.443 79.7876 151.239 79.6718 151.033 79.5278C150.833 79.3776 150.679 79.1898 150.573 78.9644C150.466 78.7391 150.413 78.4762 150.413 78.1757C150.413 77.581 150.622 77.1084 151.042 76.7579C151.468 76.4011 151.978 76.2227 152.573 76.2227C153.105 76.2227 153.571 76.3541 153.972 76.617C154.378 76.8737 154.695 77.2336 154.92 77.6968L153.831 78.3259C153.568 77.7626 153.148 77.4809 152.573 77.4809C152.303 77.4809 152.091 77.5435 151.934 77.6687C151.784 77.7876 151.709 77.9441 151.709 78.1381C151.709 78.3447 151.793 78.5137 151.962 78.6452C152.138 78.7704 152.469 78.9081 152.958 79.0583C153.158 79.121 153.308 79.171 153.408 79.2086C153.514 79.2399 153.655 79.2931 153.831 79.3682C154.012 79.437 154.15 79.5028 154.244 79.5654C154.344 79.628 154.457 79.7125 154.582 79.8189C154.707 79.9253 154.801 80.0349 154.864 80.1475C154.932 80.2602 154.989 80.398 155.033 80.5607C155.083 80.7172 155.108 80.8893 155.108 81.0771C155.108 81.6843 154.885 82.1663 154.441 82.5231C154.003 82.8799 153.43 83.0583 152.723 83.0583ZM158.445 79.3964H157.384V81.3494C157.384 81.5122 157.424 81.6311 157.506 81.7062C157.587 81.7813 157.706 81.8252 157.862 81.8377C158.019 81.844 158.213 81.8408 158.445 81.8283V82.9269C157.612 83.0208 157.023 82.9426 156.679 82.6921C156.341 82.4417 156.172 81.9942 156.172 81.3494V79.3964H155.355V78.232H156.172V77.2837L157.384 76.9175V78.232H158.445V79.3964ZM162.72 78.232H163.931V82.9269H162.72V82.3729C162.357 82.8299 161.847 83.0583 161.189 83.0583C160.563 83.0583 160.025 82.8205 159.574 82.3447C159.13 81.8627 158.908 81.2743 158.908 80.5795C158.908 79.8846 159.13 79.2994 159.574 78.8236C160.025 78.3416 160.563 78.1006 161.189 78.1006C161.847 78.1006 162.357 78.3291 162.72 78.786V78.232ZM160.485 81.5372C160.729 81.7813 161.039 81.9034 161.415 81.9034C161.79 81.9034 162.1 81.7813 162.344 81.5372C162.595 81.2868 162.72 80.9676 162.72 80.5795C162.72 80.1914 162.595 79.8752 162.344 79.6311C162.1 79.3807 161.79 79.2555 161.415 79.2555C161.039 79.2555 160.729 79.3807 160.485 79.6311C160.241 79.8752 160.119 80.1914 160.119 80.5795C160.119 80.9676 160.241 81.2868 160.485 81.5372ZM167.715 79.3964H166.654V81.3494C166.654 81.5122 166.695 81.6311 166.776 81.7062C166.857 81.7813 166.976 81.8252 167.133 81.8377C167.289 81.844 167.483 81.8408 167.715 81.8283V82.9269C166.882 83.0208 166.294 82.9426 165.95 82.6921C165.612 82.4417 165.443 81.9942 165.443 81.3494V79.3964H164.626V78.232H165.443V77.2837L166.654 76.9175V78.232H167.715V79.3964ZM169.585 79.5654C169.585 79.6906 169.667 79.7938 169.83 79.8752C169.999 79.9504 170.202 80.0192 170.44 80.0818C170.678 80.1382 170.916 80.2133 171.154 80.3072C171.391 80.3948 171.592 80.545 171.754 80.7579C171.923 80.9707 172.008 81.2367 172.008 81.556C172.008 82.038 171.827 82.4105 171.463 82.6734C171.107 82.93 170.659 83.0583 170.121 83.0583C169.156 83.0583 168.499 82.6859 168.149 81.941L169.2 81.3494C169.338 81.7563 169.645 81.9597 170.121 81.9597C170.553 81.9597 170.769 81.8252 170.769 81.556C170.769 81.4308 170.684 81.3306 170.515 81.2555C170.352 81.1741 170.152 81.1022 169.914 81.0396C169.676 80.9769 169.438 80.8987 169.2 80.8048C168.963 80.7109 168.759 80.5638 168.59 80.3635C168.428 80.1569 168.346 79.9003 168.346 79.5935C168.346 79.1303 168.515 78.7673 168.853 78.5043C169.198 78.2352 169.623 78.1006 170.13 78.1006C170.512 78.1006 170.86 78.1882 171.172 78.3635C171.485 78.5325 171.733 78.7766 171.914 79.0959L170.881 79.6593C170.731 79.34 170.48 79.1804 170.13 79.1804C169.973 79.1804 169.842 79.2149 169.736 79.2837C169.635 79.3525 169.585 79.4464 169.585 79.5654Z" fill="#1A1A1A"/>
</g>
</g>
<rect x="43" y="23" width="236.634" height="506" rx="23" stroke="black" stroke-width="6" shape-rendering="crispEdges"/>
</g>
<defs>
<filter id="filter0_d_1235_10583" x="0" y="0" width="322.633" height="592" filterUnits="userSpaceOnUse" color-interpolation-filters="sRGB">
<feFlood flood-opacity="0" result="BackgroundImageFix"/>
<feColorMatrix in="SourceAlpha" type="matrix" values="0 0 0 0 0 0 0 0 0 0 0 0 0 0 0 0 0 0 127 0" result="hardAlpha"/>
<feOffset dy="20"/>
<feGaussianBlur stdDeviation="20"/>
<feComposite in2="hardAlpha" operator="out"/>
<feColorMatrix type="matrix" values="0 0 0 0 0 0 0 0 0 0 0 0 0 0 0 0 0 0 0.4 0"/>
<feBlend mode="normal" in2="BackgroundImageFix" result="effect1_dropShadow_1235_10583"/>
<feBlend mode="normal" in="SourceGraphic" in2="effect1_dropShadow_1235_10583" result="shape"/>
</filter>
<clipPath id="clip0_1235_10583">
<rect x="46" y="26" width="230.634" height="500" rx="20" fill="white"/>
</clipPath>
</defs>
</svg>
