<svg width="157" height="40" viewBox="0 0 157 40" fill="none" xmlns="http://www.w3.org/2000/svg">
<g clip-path="url(#clip0_1235_9546)">
<mask id="mask0_1235_9546" style="mask-type:luminance" maskUnits="userSpaceOnUse" x="0" y="0" width="39" height="39">
<path d="M38.8571 0H0V38.8571H38.8571V0Z" fill="white"/>
</mask>
<g mask="url(#mask0_1235_9546)">
<path d="M34.9714 0H3.88571C1.73969 0 0 1.73969 0 3.88571V34.9714C0 37.1175 1.73969 38.8571 3.88571 38.8571H34.9714C37.1175 38.8571 38.8571 37.1175 38.8571 34.9714V3.88571C38.8571 1.73969 37.1175 0 34.9714 0Z" fill="#FFAD0F"/>
<path d="M9.23351 9.23751L9.2346 9.23641C9.47678 8.99485 9.78585 8.83535 10.1159 8.77419C10.4492 8.71245 10.7933 8.75301 11.1031 8.89053L29.1167 16.8967C29.4148 17.0295 29.6686 17.2469 29.8454 17.5212C30.0222 17.7956 30.1153 18.1155 30.1131 18.4418C30.1109 18.768 30.0138 19.0868 29.8333 19.3587C29.6531 19.6307 29.3972 19.8442 29.0974 19.9732L29.0961 19.9738L22.7071 22.7106L19.9724 29.0964C19.9725 29.096 19.9724 29.0966 19.9724 29.0964C19.8442 29.397 19.6308 29.6543 19.3589 29.8356C19.0867 30.017 18.7675 30.115 18.4405 30.1174C18.1134 30.1199 17.7927 30.0269 17.5179 29.8498C17.243 29.6725 17.0259 29.419 16.8932 29.1202C16.8933 29.1203 16.8931 29.12 16.8932 29.1202L8.88763 11.1079C8.88768 11.108 8.88758 11.1078 8.88763 11.1079C8.74947 10.7979 8.70842 10.4528 8.77015 10.119C8.83191 9.78513 8.99346 9.47774 9.23351 9.23751Z" fill="#262626"/>
<path d="M19.9724 29.0964L22.7071 22.7106L29.0961 19.9738L29.0974 19.9732C29.3972 19.8442 29.6531 19.6307 29.8333 19.3587C30.0138 19.0868 30.1109 18.768 30.1131 18.4418C30.1153 18.1155 30.0222 17.7956 29.8454 17.5212C29.6686 17.2469 29.4157 17.03 29.1177 16.8972L11.1031 8.89053C10.7933 8.75301 10.4492 8.71245 10.1159 8.77419C9.78585 8.83535 9.47678 8.99485 9.2346 9.23641L9.23351 9.23751C8.99346 9.47774 8.83191 9.78513 8.77015 10.119C8.70842 10.4528 8.74947 10.7979 8.88763 11.1079M19.9724 29.0964C19.9724 29.0966 19.9725 29.096 19.9724 29.0964ZM19.9724 29.0964C19.8442 29.397 19.6308 29.6543 19.3589 29.8356C19.0867 30.017 18.7675 30.115 18.4405 30.1174C18.1134 30.1199 17.7927 30.0269 17.5179 29.8498C17.243 29.6725 17.0259 29.419 16.8932 29.1202M8.88763 11.1079L16.8932 29.1202M8.88763 11.1079C8.88758 11.1078 8.88768 11.108 8.88763 11.1079ZM16.8932 29.1202C16.8931 29.12 16.8933 29.1203 16.8932 29.1202Z" stroke="white" stroke-width="2"/>
</g>
<path d="M51.5625 4.34312H57.6151C59.017 4.34312 60.2604 4.60521 61.3454 5.12941C62.4303 5.6536 63.2714 6.39721 63.8688 7.36026C64.4662 8.32331 64.7648 9.45093 64.7648 10.7431C64.7648 12.0353 64.4662 13.1629 63.8688 14.126C63.2714 15.0891 62.4303 15.8326 61.3454 16.3568C60.2604 16.8811 59.017 17.1431 57.6151 17.1431H51.5625V4.34312ZM57.4688 14.254C58.5659 14.254 59.4436 13.9431 60.1019 13.3214C60.7724 12.6997 61.1076 11.8403 61.1076 10.7431C61.1076 9.64598 60.7724 8.78655 60.1019 8.16483C59.4436 7.54312 58.5659 7.23226 57.4688 7.23226H55.1831V14.254H57.4688ZM71.808 14.6563C72.2834 14.6563 72.6918 14.5892 73.0331 14.4551C73.3866 14.3211 73.7401 14.1016 74.0937 13.7968L75.904 15.6985C74.9652 16.7713 73.5634 17.3077 71.6983 17.3077C70.5401 17.3077 69.5223 17.0883 68.6446 16.6494C67.7668 16.2105 67.0841 15.6011 66.5964 14.8208C66.1211 14.0406 65.8834 13.1568 65.8834 12.1694C65.8834 11.1942 66.1211 10.3225 66.5964 9.55455C67.072 8.77435 67.7241 8.16484 68.5531 7.72598C69.3943 7.28712 70.3329 7.06769 71.3691 7.06769C72.3321 7.06769 73.2098 7.26883 74.0023 7.67112C74.8068 8.06121 75.4468 8.64026 75.9223 9.40826C76.3977 10.1641 76.6354 11.0662 76.6354 12.1145L69.5588 13.4677C69.9367 14.26 70.6864 14.6563 71.808 14.6563ZM71.3874 9.53626C70.79 9.53626 70.3024 9.72521 69.9246 10.1031C69.5466 10.4688 69.3332 10.9991 69.2846 11.694L73.3074 10.9077C73.1855 10.4932 72.9538 10.1641 72.6126 9.92026C72.2712 9.66426 71.8628 9.53626 71.3874 9.53626ZM81.8395 17.3077C81.0105 17.3077 80.1938 17.2163 79.3892 17.0334C78.5847 16.8383 77.9385 16.5885 77.451 16.2837L78.4933 13.9065C78.9442 14.1869 79.4807 14.4125 80.1024 14.5831C80.7241 14.7416 81.3396 14.8208 81.9492 14.8208C82.5099 14.8208 82.9062 14.766 83.1378 14.6563C83.3816 14.5343 83.5035 14.3637 83.5035 14.1443C83.5035 13.9248 83.3573 13.7725 83.0647 13.6871C82.7842 13.5896 82.3332 13.4982 81.7115 13.4128C80.9191 13.3153 80.2425 13.1873 79.6818 13.0288C79.1333 12.8703 78.6578 12.5777 78.2555 12.1511C77.8533 11.7245 77.6521 11.1271 77.6521 10.3591C77.6521 9.72521 77.841 9.16446 78.219 8.67683C78.5968 8.17703 79.1454 7.78693 79.8647 7.50655C80.5961 7.21398 81.4677 7.06769 82.4795 7.06769C83.1987 7.06769 83.9119 7.14083 84.619 7.28712C85.3259 7.43341 85.9172 7.64064 86.3927 7.90883L85.3504 10.2677C84.4727 9.78007 83.5218 9.53626 82.4978 9.53626C81.9492 9.53626 81.547 9.60332 81.291 9.73741C81.035 9.85932 80.907 10.0239 80.907 10.2311C80.907 10.4627 81.0471 10.6273 81.3275 10.7248C81.6079 10.8102 82.0711 10.9016 82.7173 10.9991C83.5339 11.121 84.2105 11.2612 84.747 11.4197C85.2833 11.5782 85.7465 11.8708 86.1367 12.2974C86.539 12.7119 86.7401 13.2971 86.7401 14.0528C86.7401 14.6745 86.5511 15.2353 86.1733 15.7351C85.7953 16.2228 85.2345 16.6068 84.491 16.8871C83.7595 17.1675 82.8756 17.3077 81.8395 17.3077ZM88.2373 7.23226H91.7115V17.1431H88.2373V7.23226ZM89.9744 6.13512C89.3404 6.13512 88.8284 5.95835 88.4384 5.60483C88.0482 5.25131 87.8532 4.81246 87.8532 4.28826C87.8532 3.76407 88.0482 3.32521 88.4384 2.97169C88.8284 2.61817 89.3404 2.44141 89.9744 2.44141C90.6082 2.44141 91.1202 2.61207 91.5104 2.95341C91.9005 3.28255 92.0955 3.70921 92.0955 4.23341C92.0955 4.78198 91.9005 5.23912 91.5104 5.60483C91.1202 5.95835 90.6082 6.13512 89.9744 6.13512ZM104.63 7.23226V15.3328C104.63 17.1736 104.13 18.5511 103.131 19.4654C102.131 20.3919 100.692 20.8551 98.8151 20.8551C97.8399 20.8551 96.9256 20.7454 96.0722 20.526C95.2189 20.3065 94.4936 19.9835 93.8962 19.5568L95.1579 17.1248C95.5602 17.454 96.0662 17.71 96.6757 17.8928C97.2974 18.0879 97.9069 18.1854 98.5042 18.1854C99.4185 18.1854 100.089 17.9843 100.516 17.582C100.942 17.1797 101.156 16.5823 101.156 15.79V15.4608C100.485 16.2411 99.5039 16.6311 98.2117 16.6311C97.3339 16.6311 96.5233 16.436 95.7796 16.046C95.036 15.6437 94.4448 15.0829 94.0059 14.3637C93.5671 13.6323 93.3476 12.7911 93.3476 11.8403C93.3476 10.9016 93.5671 10.0726 94.0059 9.35341C94.4448 8.62198 95.036 8.06121 95.7796 7.67112C96.5233 7.26883 97.3339 7.06769 98.2117 7.06769C99.6257 7.06769 100.662 7.52483 101.32 8.43912V7.23226H104.63ZM99.0345 13.87C99.6562 13.87 100.168 13.6811 100.571 13.3031C100.985 12.9252 101.192 12.4376 101.192 11.8403C101.192 11.2429 100.991 10.7614 100.589 10.3957C100.187 10.0178 99.6684 9.82884 99.0345 9.82884C98.4006 9.82884 97.8764 10.0178 97.4619 10.3957C97.0596 10.7614 96.8585 11.2429 96.8585 11.8403C96.8585 12.4376 97.0657 12.9252 97.4802 13.3031C97.8947 13.6811 98.4128 13.87 99.0345 13.87ZM113.317 7.06769C114.549 7.06769 115.536 7.43341 116.279 8.16483C117.036 8.89626 117.413 9.9995 117.413 11.4745V17.1431H113.939V12.0414C113.939 10.6883 113.396 10.0117 112.311 10.0117C111.714 10.0117 111.233 10.2067 110.867 10.5968C110.513 10.9869 110.337 11.572 110.337 12.3523V17.1431H106.862V7.23226H110.172V8.31112C110.562 7.90883 111.025 7.60407 111.562 7.39684C112.098 7.17741 112.683 7.06769 113.317 7.06769ZM66.5385 22.3728C68.0502 22.3728 69.2265 22.8239 70.0676 23.726C70.921 24.6159 71.3476 25.908 71.3476 27.6025V35.4288H67.7271V27.7123C67.7271 26.9443 67.5259 26.3652 67.1236 25.9751C66.7214 25.5728 66.185 25.3717 65.5145 25.3717C64.7953 25.3717 64.2223 25.5851 63.7956 26.0117C63.3811 26.4262 63.1739 27.054 63.1739 27.8951V35.4288H59.5534V27.7123C59.5534 26.9443 59.3644 26.3652 58.9865 25.9751C58.6208 25.5728 58.1148 25.3717 57.4688 25.3717C56.7739 25.3717 56.2193 25.5851 55.8048 26.0117C55.3903 26.4262 55.1831 27.054 55.1831 27.8951V35.4288H51.5625V22.6288H55.0734V24.0551C55.4634 23.5065 55.9633 23.092 56.5728 22.8117C57.1945 22.5191 57.9137 22.3728 58.7305 22.3728C59.5716 22.3728 60.3031 22.5252 60.9248 22.83C61.5587 23.1348 62.0707 23.5797 62.4608 24.1648C62.8996 23.5797 63.4726 23.1348 64.1796 22.83C64.8867 22.5252 65.673 22.3728 66.5385 22.3728ZM73.648 25.518H77.1223V35.4288H73.648V25.518ZM75.3851 24.4208C74.7512 24.4208 74.2392 24.244 73.8491 23.8905C73.459 23.5371 73.264 23.0982 73.264 22.574C73.264 22.0497 73.459 21.6109 73.8491 21.2574C74.2392 20.9039 74.7512 20.7271 75.3851 20.7271C76.019 20.7271 76.531 20.8977 76.9211 21.2391C77.3112 21.5683 77.5063 21.9949 77.5063 22.5191C77.5063 23.0677 77.3112 23.5248 76.9211 23.8905C76.531 24.244 76.019 24.4208 75.3851 24.4208ZM85.6704 35.4288L83.8967 32.8323L81.995 35.4288H78.2281L81.995 30.4734L78.3378 25.518H82.251L84.0064 28.0231L85.835 25.518H89.5104L85.8532 30.3454L89.6384 35.4288H85.6704ZM95.3895 35.5934C94.3289 35.5934 93.372 35.374 92.5186 34.9351C91.6654 34.4963 90.9949 33.8868 90.5072 33.1065C90.0318 32.3263 89.7941 31.4425 89.7941 30.4551C89.7941 29.4799 90.0318 28.6022 90.5072 27.822C90.9949 27.0417 91.6592 26.4383 92.5003 26.0117C93.3537 25.5728 94.3168 25.3534 95.3895 25.3534C96.4623 25.3534 97.4254 25.5728 98.2786 26.0117C99.132 26.4383 99.7963 27.0417 100.272 27.822C100.747 28.59 100.985 29.4677 100.985 30.4551C100.985 31.4425 100.747 32.3263 100.272 33.1065C99.7963 33.8868 99.132 34.4963 98.2786 34.9351C97.4254 35.374 96.4623 35.5934 95.3895 35.5934ZM95.3895 32.8323C95.9991 32.8323 96.4989 32.6251 96.8889 32.2105C97.2791 31.7839 97.4741 31.1988 97.4741 30.4551C97.4741 29.7237 97.2791 29.1508 96.8889 28.7363C96.4989 28.3217 95.9991 28.1145 95.3895 28.1145C94.78 28.1145 94.2802 28.3217 93.8901 28.7363C93.5 29.1508 93.3049 29.7237 93.3049 30.4551C93.3049 31.1988 93.5 31.7839 93.8901 32.2105C94.2802 32.6251 94.78 32.8323 95.3895 32.8323ZM106.453 35.5934C105.234 35.5934 104.283 35.2825 103.6 34.6608C102.93 34.0269 102.594 33.1248 102.594 31.9545V21.8608H106.069V31.7717C106.069 32.1374 106.16 32.4177 106.343 32.6128C106.538 32.8079 106.806 32.9054 107.148 32.9054C107.428 32.9054 107.69 32.8445 107.934 32.7225L108.08 35.3374C107.556 35.508 107.013 35.5934 106.453 35.5934ZM114.122 35.5934C113.061 35.5934 112.104 35.374 111.251 34.9351C110.397 34.4963 109.727 33.8868 109.239 33.1065C108.764 32.3263 108.526 31.4425 108.526 30.4551C108.526 29.4799 108.764 28.6022 109.239 27.822C109.727 27.0417 110.391 26.4383 111.233 26.0117C112.086 25.5728 113.049 25.3534 114.122 25.3534C115.195 25.3534 116.158 25.5728 117.011 26.0117C117.864 26.4383 118.528 27.0417 119.004 27.822C119.479 28.59 119.717 29.4677 119.717 30.4551C119.717 31.4425 119.479 32.3263 119.004 33.1065C118.528 33.8868 117.864 34.4963 117.011 34.9351C116.158 35.374 115.195 35.5934 114.122 35.5934ZM114.122 32.8323C114.732 32.8323 115.231 32.6251 115.621 32.2105C116.012 31.7839 116.206 31.1988 116.206 30.4551C116.206 29.7237 116.012 29.1508 115.621 28.7363C115.231 28.3217 114.732 28.1145 114.122 28.1145C113.512 28.1145 113.012 28.3217 112.622 28.7363C112.232 29.1508 112.037 29.7237 112.037 30.4551C112.037 31.1988 112.232 31.7839 112.622 32.2105C113.012 32.6251 113.512 32.8323 114.122 32.8323ZM131.988 25.518V33.6185C131.988 35.4593 131.487 36.8368 130.488 37.7511C129.488 38.6776 128.049 39.1408 126.173 39.1408C125.197 39.1408 124.283 39.0311 123.43 38.8117C122.576 38.5923 121.851 38.2692 121.254 37.8425L122.516 35.4105C122.918 35.7397 123.423 35.9957 124.033 36.1785C124.655 36.3736 125.264 36.4711 125.862 36.4711C126.776 36.4711 127.446 36.27 127.873 35.8677C128.3 35.4654 128.513 34.868 128.513 34.0757V33.7465C127.843 34.5268 126.861 34.9168 125.569 34.9168C124.692 34.9168 123.88 34.7217 123.137 34.3317C122.393 33.9294 121.803 33.3686 121.364 32.6494C120.925 31.918 120.705 31.0768 120.705 30.126C120.705 29.1873 120.925 28.3583 121.364 27.6391C121.803 26.9077 122.393 26.3469 123.137 25.9568C123.88 25.5545 124.692 25.3534 125.569 25.3534C126.983 25.3534 128.02 25.8105 128.678 26.7248V25.518H131.988ZM126.392 32.1557C127.014 32.1557 127.526 31.9668 127.928 31.5888C128.342 31.2109 128.55 30.7233 128.55 30.126C128.55 29.5286 128.349 29.0471 127.947 28.6814C127.544 28.3035 127.025 28.1145 126.392 28.1145C125.758 28.1145 125.233 28.3035 124.82 28.6814C124.417 29.0471 124.216 29.5286 124.216 30.126C124.216 30.7233 124.423 31.2109 124.838 31.5888C125.252 31.9668 125.771 32.1557 126.392 32.1557ZM134.22 25.518H137.694V35.4288H134.22V25.518ZM135.957 24.4208C135.323 24.4208 134.811 24.244 134.421 23.8905C134.03 23.5371 133.836 23.0982 133.836 22.574C133.836 22.0497 134.03 21.6109 134.421 21.2574C134.811 20.9039 135.323 20.7271 135.957 20.7271C136.59 20.7271 137.102 20.8977 137.493 21.2391C137.883 21.5683 138.078 21.9949 138.078 22.5191C138.078 23.0677 137.883 23.5248 137.493 23.8905C137.102 24.244 136.59 24.4208 135.957 24.4208ZM143.553 35.5934C142.725 35.5934 141.908 35.502 141.103 35.3191C140.299 35.124 139.653 34.8742 139.165 34.5694L140.207 32.1923C140.659 32.4726 141.195 32.6982 141.816 32.8688C142.438 33.0273 143.054 33.1065 143.663 33.1065C144.224 33.1065 144.621 33.0517 144.852 32.942C145.096 32.82 145.217 32.6494 145.217 32.43C145.217 32.2105 145.071 32.0582 144.779 31.9728C144.499 31.8753 144.047 31.7839 143.425 31.6985C142.633 31.6011 141.957 31.4731 141.396 31.3145C140.847 31.156 140.372 30.8635 139.969 30.4368C139.567 30.0102 139.366 29.4128 139.366 28.6448C139.366 28.0109 139.556 27.4502 139.933 26.9625C140.311 26.4628 140.86 26.0726 141.579 25.7923C142.31 25.4997 143.182 25.3534 144.193 25.3534C144.913 25.3534 145.627 25.4265 146.333 25.5728C147.04 25.7191 147.631 25.9263 148.107 26.1945L147.064 28.5534C146.187 28.0657 145.236 27.822 144.212 27.822C143.663 27.822 143.261 27.8891 143.005 28.0231C142.749 28.1451 142.621 28.3096 142.621 28.5168C142.621 28.7485 142.761 28.9131 143.041 29.0105C143.323 29.0959 143.785 29.1873 144.431 29.2848C145.248 29.4068 145.925 29.5469 146.461 29.7054C146.998 29.8639 147.461 30.1565 147.851 30.5831C148.253 30.9976 148.454 31.5828 148.454 32.3385C148.454 32.9603 148.265 33.5211 147.887 34.0208C147.51 34.5085 146.949 34.8925 146.205 35.1728C145.473 35.4532 144.59 35.5934 143.553 35.5934ZM156.333 35.0265C156.04 35.2094 155.681 35.3496 155.254 35.4471C154.84 35.5446 154.395 35.5934 153.919 35.5934C152.628 35.5934 151.633 35.2765 150.939 34.6425C150.256 34.0086 149.915 33.0639 149.915 31.8083V23.3054H153.389V25.8837H155.638V28.4803H153.389V31.7717C153.389 32.1374 153.48 32.4177 153.663 32.6128C153.846 32.8079 154.096 32.9054 154.413 32.9054C154.815 32.9054 155.169 32.8017 155.473 32.5945L156.333 35.0265Z" fill="white"/>
</g>
<defs>
<clipPath id="clip0_1235_9546">
<rect width="156.571" height="40" fill="white"/>
</clipPath>
</defs>
</svg>
