<svg width="421" height="91" viewBox="0 0 421 91" fill="none" xmlns="http://www.w3.org/2000/svg">
<path d="M6.5 79.957C4 79.957 2 81.957 2 84.457C2 86.957 4 88.957 6.5 88.957C9 88.957 11 86.957 11 84.457C11 81.957 9 79.957 6.5 79.957Z" fill="white"/>
<path d="M6.5 88.957C4 88.957 2 86.957 2 84.457C2 81.957 4 79.957 6.5 79.957C9 79.957 11 81.957 11 84.457C11 86.957 9 88.957 6.5 88.957ZM6.5 88.957L6.49999 36.6667C6.49999 25.621 15.4543 16.6667 26.5 16.6667L405.71 16.6667C407.803 16.6667 409.5 18.3637 409.5 20.457V20.457L409.5 13.707L409.5 26.957L409.5 46.457" stroke="#4D4D4D" stroke-width="3"/>
<rect x="55.9609" y="1.5" width="47" height="31" rx="1.5" fill="white"/>
<rect x="55.9609" y="1.5" width="47" height="31" rx="1.5" stroke="#4D4D4D" stroke-width="3"/>
<path d="M64.3303 12.3153V10.9091H74.1484V12.3153H70.032V24H68.4467V12.3153H64.3303ZM77.9437 24.2301C77.3216 24.2301 76.7569 24.1129 76.2498 23.8786C75.7427 23.6399 75.34 23.2969 75.0417 22.8494C74.7434 22.3977 74.5943 21.8523 74.5943 21.2131C74.5943 20.6506 74.7051 20.1946 74.9267 19.8452C75.1483 19.4915 75.4444 19.2145 75.8152 19.0142C76.1859 18.8139 76.595 18.6648 77.0424 18.5668C77.4941 18.4645 77.948 18.3835 78.4039 18.3239C79.0005 18.2472 79.4842 18.1896 79.8549 18.1513C80.2299 18.1087 80.5027 18.0384 80.6731 17.9403C80.8478 17.8423 80.9352 17.6719 80.9352 17.429V17.3778C80.9352 16.7472 80.7626 16.2571 80.4174 15.9077C80.0765 15.5582 79.5588 15.3835 78.8642 15.3835C78.144 15.3835 77.5794 15.5412 77.1703 15.8565C76.7612 16.1719 76.4735 16.5085 76.3074 16.8665L74.8755 16.3551C75.1312 15.7585 75.4721 15.294 75.8983 14.9616C76.3287 14.625 76.7974 14.3906 77.3045 14.2585C77.8159 14.1222 78.3187 14.054 78.813 14.054C79.1284 14.054 79.4906 14.0923 79.8997 14.169C80.313 14.2415 80.7115 14.3928 81.095 14.6229C81.4828 14.853 81.8045 15.2003 82.0602 15.6648C82.3159 16.1293 82.4437 16.7514 82.4437 17.5312V24H80.9352V22.6705H80.8585C80.7562 22.8835 80.5858 23.1115 80.3471 23.3544C80.1085 23.5973 79.791 23.804 79.3947 23.9744C78.9984 24.1449 78.5147 24.2301 77.9437 24.2301ZM78.1738 22.875C78.7704 22.875 79.2733 22.7578 79.6824 22.5234C80.0957 22.2891 80.4068 21.9865 80.6156 21.6158C80.8287 21.245 80.9352 20.8551 80.9352 20.446V19.0653C80.8713 19.142 80.7306 19.2124 80.5133 19.2763C80.3002 19.3359 80.0531 19.3892 79.7718 19.4361C79.4949 19.4787 79.2243 19.517 78.9601 19.5511C78.7001 19.581 78.4892 19.6065 78.3272 19.6278C77.9352 19.679 77.5687 19.7621 77.2278 19.8771C76.8912 19.9879 76.6184 20.1562 76.4096 20.3821C76.2051 20.6037 76.1028 20.9062 76.1028 21.2898C76.1028 21.8139 76.2967 22.2102 76.6845 22.4787C77.0765 22.7429 77.573 22.875 78.1738 22.875ZM85.1971 27.6818V14.1818H86.6545V15.7415H86.8335C86.9442 15.571 87.0977 15.3537 87.2937 15.0895C87.494 14.821 87.7795 14.5824 88.1502 14.3736C88.5252 14.1605 89.0323 14.054 89.6715 14.054C90.4982 14.054 91.2269 14.2607 91.8576 14.674C92.4883 15.0874 92.9805 15.6733 93.3342 16.4318C93.6879 17.1903 93.8647 18.0852 93.8647 19.1165C93.8647 20.1562 93.6879 21.0575 93.3342 21.8203C92.9805 22.5788 92.4904 23.1669 91.864 23.5845C91.2376 23.9979 90.5153 24.2045 89.6971 24.2045C89.0664 24.2045 88.5614 24.1001 88.1822 23.8913C87.8029 23.6783 87.511 23.4375 87.3065 23.169C87.1019 22.8963 86.9442 22.6705 86.8335 22.4915H86.7056V27.6818H85.1971ZM86.68 19.0909C86.68 19.8324 86.7887 20.4865 87.006 21.0533C87.2234 21.6158 87.5408 22.0568 87.9585 22.3764C88.3761 22.6918 88.8874 22.8494 89.4925 22.8494C90.1232 22.8494 90.6495 22.6832 91.0714 22.3509C91.4975 22.0142 91.8171 21.5625 92.0302 20.9957C92.2475 20.4247 92.3562 19.7898 92.3562 19.0909C92.3562 18.4006 92.2496 17.7784 92.0366 17.2244C91.8278 16.6662 91.5103 16.2251 91.0842 15.9013C90.6623 15.5732 90.1317 15.4091 89.4925 15.4091C88.8789 15.4091 88.3633 15.5646 87.9457 15.8757C87.5281 16.1825 87.2127 16.6129 86.9996 17.1669C86.7866 17.7166 86.68 18.358 86.68 19.0909Z" fill="black"/>
</svg>
