<svg width="120" height="171" viewBox="0 0 120 171" fill="none" xmlns="http://www.w3.org/2000/svg">
<path d="M6.5 169.5C4 169.5 2 167.5 2 165C2 162.5 4 160.5 6.5 160.5C9 160.5 11 162.5 11 165C11 167.5 9 169.5 6.5 169.5Z" fill="white"/>
<path d="M11 165C11 167.5 9 169.5 6.5 169.5C4 169.5 2 167.5 2 165C2 162.5 4 160.5 6.5 160.5C9 160.5 11 162.5 11 165ZM11 165H38.7097C49.7554 165 58.7097 156.046 58.7097 145V31.9999C58.7097 20.9542 67.664 11.9999 78.7097 11.9999H82.5H75.75H99H118.5" stroke="#4D4D4D" stroke-width="3"/>
<rect x="35.5" y="75" width="47" height="31" rx="1.5" fill="white"/>
<rect x="35.5" y="75" width="47" height="31" rx="1.5" stroke="#4D4D4D" stroke-width="3"/>
<path d="M43.8693 85.8153V84.4091H53.6875V85.8153H49.571V97.5H47.9858V85.8153H43.8693ZM57.4828 97.7301C56.8606 97.7301 56.296 97.6129 55.7889 97.3786C55.2818 97.1399 54.8791 96.7969 54.5808 96.3494C54.2825 95.8977 54.1333 95.3523 54.1333 94.7131C54.1333 94.1506 54.2441 93.6946 54.4657 93.3452C54.6873 92.9915 54.9835 92.7145 55.3542 92.5142C55.725 92.3139 56.1341 92.1648 56.5815 92.0668C57.0332 91.9645 57.487 91.8835 57.943 91.8239C58.5396 91.7472 59.0233 91.6896 59.394 91.6513C59.769 91.6087 60.0417 91.5384 60.2122 91.4403C60.3869 91.3423 60.4743 91.1719 60.4743 90.929V90.8778C60.4743 90.2472 60.3017 89.7571 59.9565 89.4077C59.6156 89.0582 59.0978 88.8835 58.4032 88.8835C57.6831 88.8835 57.1184 89.0412 56.7093 89.3565C56.3002 89.6719 56.0126 90.0085 55.8464 90.3665L54.4146 89.8551C54.6703 89.2585 55.0112 88.794 55.4373 88.4616C55.8677 88.125 56.3365 87.8906 56.8436 87.7585C57.3549 87.6222 57.8578 87.554 58.3521 87.554C58.6674 87.554 59.0297 87.5923 59.4387 87.669C59.8521 87.7415 60.2505 87.8928 60.6341 88.1229C61.0218 88.353 61.3436 88.7003 61.5993 89.1648C61.8549 89.6293 61.9828 90.2514 61.9828 91.0312V97.5H60.4743V96.1705H60.3976C60.2953 96.3835 60.1248 96.6115 59.8862 96.8544C59.6475 97.0973 59.3301 97.304 58.9338 97.4744C58.5375 97.6449 58.0538 97.7301 57.4828 97.7301ZM57.7129 96.375C58.3095 96.375 58.8123 96.2578 59.2214 96.0234C59.6348 95.7891 59.9458 95.4865 60.1547 95.1158C60.3677 94.745 60.4743 94.3551 60.4743 93.946V92.5653C60.4103 92.642 60.2697 92.7124 60.0524 92.7763C59.8393 92.8359 59.5922 92.8892 59.3109 92.9361C59.0339 92.9787 58.7633 93.017 58.4991 93.0511C58.2392 93.081 58.0282 93.1065 57.8663 93.1278C57.4743 93.179 57.1078 93.2621 56.7669 93.3771C56.4302 93.4879 56.1575 93.6562 55.9487 93.8821C55.7441 94.1037 55.6419 94.4062 55.6419 94.7898C55.6419 95.3139 55.8358 95.7102 56.2235 95.9787C56.6156 96.2429 57.112 96.375 57.7129 96.375ZM64.7362 101.182V87.6818H66.1935V89.2415H66.3725C66.4833 89.071 66.6367 88.8537 66.8327 88.5895C67.033 88.321 67.3185 88.0824 67.6893 87.8736C68.0643 87.6605 68.5714 87.554 69.2106 87.554C70.0373 87.554 70.766 87.7607 71.3967 88.174C72.0273 88.5874 72.5195 89.1733 72.8732 89.9318C73.2269 90.6903 73.4038 91.5852 73.4038 92.6165C73.4038 93.6562 73.2269 94.5575 72.8732 95.3203C72.5195 96.0788 72.0295 96.6669 71.4031 97.0845C70.7766 97.4979 70.0543 97.7045 69.2362 97.7045C68.6055 97.7045 68.1005 97.6001 67.7212 97.3913C67.342 97.1783 67.0501 96.9375 66.8455 96.669C66.641 96.3963 66.4833 96.1705 66.3725 95.9915H66.2447V101.182H64.7362ZM66.2191 92.5909C66.2191 93.3324 66.3278 93.9865 66.5451 94.5533C66.7624 95.1158 67.0799 95.5568 67.4975 95.8764C67.9151 96.1918 68.4265 96.3494 69.0316 96.3494C69.6623 96.3494 70.1886 96.1832 70.6104 95.8509C71.0366 95.5142 71.3562 95.0625 71.5692 94.4957C71.7866 93.9247 71.8952 93.2898 71.8952 92.5909C71.8952 91.9006 71.7887 91.2784 71.5756 90.7244C71.3668 90.1662 71.0494 89.7251 70.6232 89.4013C70.2013 89.0732 69.6708 88.9091 69.0316 88.9091C68.418 88.9091 67.9023 89.0646 67.4847 89.3757C67.0671 89.6825 66.7518 90.1129 66.5387 90.6669C66.3256 91.2166 66.2191 91.858 66.2191 92.5909Z" fill="black"/>
</svg>
