<svg width="136" height="34" viewBox="0 0 136 34" fill="none" xmlns="http://www.w3.org/2000/svg">
<path d="M6.5 21C4 21 2 19 2 16.5C2 14 4 12 6.5 12C9 12 11 14 11 16.5C11 19 9 21 6.5 21Z" fill="white"/>
<path d="M11 16.5C11 19 9 21 6.5 21C4 21 2 19 2 16.5C2 14 4 12 6.5 12C9 12 11 14 11 16.5ZM11 16.5H96.7097L120.5 16.4999H113.75H115H134.5" stroke="#4D4D4D" stroke-width="3"/>
<rect x="53.5" y="1.5" width="47" height="31" rx="1.5" fill="white"/>
<rect x="53.5" y="1.5" width="47" height="31" rx="1.5" stroke="#4D4D4D" stroke-width="3"/>
<path d="M61.8693 12.3153V10.9091H71.6875V12.3153H67.571V24H65.9858V12.3153H61.8693ZM75.4828 24.2301C74.8606 24.2301 74.296 24.1129 73.7889 23.8786C73.2818 23.6399 72.8791 23.2969 72.5808 22.8494C72.2825 22.3977 72.1333 21.8523 72.1333 21.2131C72.1333 20.6506 72.2441 20.1946 72.4657 19.8452C72.6873 19.4915 72.9835 19.2145 73.3542 19.0142C73.725 18.8139 74.1341 18.6648 74.5815 18.5668C75.0332 18.4645 75.487 18.3835 75.943 18.3239C76.5396 18.2472 77.0233 18.1896 77.394 18.1513C77.769 18.1087 78.0417 18.0384 78.2122 17.9403C78.3869 17.8423 78.4743 17.6719 78.4743 17.429V17.3778C78.4743 16.7472 78.3017 16.2571 77.9565 15.9077C77.6156 15.5582 77.0978 15.3835 76.4032 15.3835C75.6831 15.3835 75.1184 15.5412 74.7093 15.8565C74.3002 16.1719 74.0126 16.5085 73.8464 16.8665L72.4146 16.3551C72.6703 15.7585 73.0112 15.294 73.4373 14.9616C73.8677 14.625 74.3365 14.3906 74.8436 14.2585C75.3549 14.1222 75.8578 14.054 76.3521 14.054C76.6674 14.054 77.0297 14.0923 77.4387 14.169C77.8521 14.2415 78.2505 14.3928 78.6341 14.6229C79.0218 14.853 79.3436 15.2003 79.5993 15.6648C79.8549 16.1293 79.9828 16.7514 79.9828 17.5312V24H78.4743V22.6705H78.3976C78.2953 22.8835 78.1248 23.1115 77.8862 23.3544C77.6475 23.5973 77.3301 23.804 76.9338 23.9744C76.5375 24.1449 76.0538 24.2301 75.4828 24.2301ZM75.7129 22.875C76.3095 22.875 76.8123 22.7578 77.2214 22.5234C77.6348 22.2891 77.9458 21.9865 78.1547 21.6158C78.3677 21.245 78.4743 20.8551 78.4743 20.446V19.0653C78.4103 19.142 78.2697 19.2124 78.0524 19.2763C77.8393 19.3359 77.5922 19.3892 77.3109 19.4361C77.0339 19.4787 76.7633 19.517 76.4991 19.5511C76.2392 19.581 76.0282 19.6065 75.8663 19.6278C75.4743 19.679 75.1078 19.7621 74.7669 19.8771C74.4302 19.9879 74.1575 20.1562 73.9487 20.3821C73.7441 20.6037 73.6419 20.9062 73.6419 21.2898C73.6419 21.8139 73.8358 22.2102 74.2235 22.4787C74.6156 22.7429 75.112 22.875 75.7129 22.875ZM82.7362 27.6818V14.1818H84.1935V15.7415H84.3725C84.4833 15.571 84.6367 15.3537 84.8327 15.0895C85.033 14.821 85.3185 14.5824 85.6893 14.3736C86.0643 14.1605 86.5714 14.054 87.2106 14.054C88.0373 14.054 88.766 14.2607 89.3967 14.674C90.0273 15.0874 90.5195 15.6733 90.8732 16.4318C91.2269 17.1903 91.4038 18.0852 91.4038 19.1165C91.4038 20.1562 91.2269 21.0575 90.8732 21.8203C90.5195 22.5788 90.0295 23.1669 89.4031 23.5845C88.7766 23.9979 88.0543 24.2045 87.2362 24.2045C86.6055 24.2045 86.1005 24.1001 85.7212 23.8913C85.342 23.6783 85.0501 23.4375 84.8455 23.169C84.641 22.8963 84.4833 22.6705 84.3725 22.4915H84.2447V27.6818H82.7362ZM84.2191 19.0909C84.2191 19.8324 84.3278 20.4865 84.5451 21.0533C84.7624 21.6158 85.0799 22.0568 85.4975 22.3764C85.9151 22.6918 86.4265 22.8494 87.0316 22.8494C87.6623 22.8494 88.1886 22.6832 88.6104 22.3509C89.0366 22.0142 89.3562 21.5625 89.5692 20.9957C89.7866 20.4247 89.8952 19.7898 89.8952 19.0909C89.8952 18.4006 89.7887 17.7784 89.5756 17.2244C89.3668 16.6662 89.0494 16.2251 88.6232 15.9013C88.2013 15.5732 87.6708 15.4091 87.0316 15.4091C86.418 15.4091 85.9023 15.5646 85.4847 15.8757C85.0671 16.1825 84.7518 16.6129 84.5387 17.1669C84.3256 17.7166 84.2191 18.358 84.2191 19.0909Z" fill="black"/>
</svg>
