<svg width="278" height="136" viewBox="0 0 278 136" fill="none" xmlns="http://www.w3.org/2000/svg">
<path d="M6.5 21.5001C4 21.5001 2 19.5001 2 17.0001C2 14.5001 4 12.5001 6.5 12.5001C9 12.5001 11 14.5001 11 17.0001C11 19.5001 9 21.5001 6.5 21.5001Z" fill="white"/>
<path d="M11 17.0001C11 19.5001 9 21.5001 6.5 21.5001C4 21.5001 2 19.5001 2 17.0001C2 14.5001 4 12.5001 6.5 12.5001C9 12.5001 11 14.5001 11 17.0001ZM11 17.0001H218.71C229.755 17.0001 238.71 25.9544 238.71 37.0001V104C238.71 115.046 247.664 124 258.71 124H262.5H255.75H257H276.5" stroke="#4D4D4D" stroke-width="3"/>
<rect x="165.5" y="2" width="47" height="31" rx="1.5" fill="white"/>
<rect x="165.5" y="2" width="47" height="31" rx="1.5" stroke="#4D4D4D" stroke-width="3"/>
<path d="M173.869 12.8153V11.4091H183.688V12.8153H179.571V24.5H177.986V12.8153H173.869ZM187.483 24.7301C186.861 24.7301 186.296 24.6129 185.789 24.3786C185.282 24.1399 184.879 23.7969 184.581 23.3494C184.282 22.8977 184.133 22.3523 184.133 21.7131C184.133 21.1506 184.244 20.6946 184.466 20.3452C184.687 19.9915 184.983 19.7145 185.354 19.5142C185.725 19.3139 186.134 19.1648 186.581 19.0668C187.033 18.9645 187.487 18.8835 187.943 18.8239C188.54 18.7472 189.023 18.6896 189.394 18.6513C189.769 18.6087 190.042 18.5384 190.212 18.4403C190.387 18.3423 190.474 18.1719 190.474 17.929V17.8778C190.474 17.2472 190.302 16.7571 189.956 16.4077C189.616 16.0582 189.098 15.8835 188.403 15.8835C187.683 15.8835 187.118 16.0412 186.709 16.3565C186.3 16.6719 186.013 17.0085 185.846 17.3665L184.415 16.8551C184.67 16.2585 185.011 15.794 185.437 15.4616C185.868 15.125 186.336 14.8906 186.844 14.7585C187.355 14.6222 187.858 14.554 188.352 14.554C188.667 14.554 189.03 14.5923 189.439 14.669C189.852 14.7415 190.251 14.8928 190.634 15.1229C191.022 15.353 191.344 15.7003 191.599 16.1648C191.855 16.6293 191.983 17.2514 191.983 18.0312V24.5H190.474V23.1705H190.398C190.295 23.3835 190.125 23.6115 189.886 23.8544C189.648 24.0973 189.33 24.304 188.934 24.4744C188.537 24.6449 188.054 24.7301 187.483 24.7301ZM187.713 23.375C188.309 23.375 188.812 23.2578 189.221 23.0234C189.635 22.7891 189.946 22.4865 190.155 22.1158C190.368 21.745 190.474 21.3551 190.474 20.946V19.5653C190.41 19.642 190.27 19.7124 190.052 19.7763C189.839 19.8359 189.592 19.8892 189.311 19.9361C189.034 19.9787 188.763 20.017 188.499 20.0511C188.239 20.081 188.028 20.1065 187.866 20.1278C187.474 20.179 187.108 20.2621 186.767 20.3771C186.43 20.4879 186.157 20.6562 185.949 20.8821C185.744 21.1037 185.642 21.4062 185.642 21.7898C185.642 22.3139 185.836 22.7102 186.224 22.9787C186.616 23.2429 187.112 23.375 187.713 23.375ZM194.736 28.1818V14.6818H196.194V16.2415H196.373C196.483 16.071 196.637 15.8537 196.833 15.5895C197.033 15.321 197.319 15.0824 197.689 14.8736C198.064 14.6605 198.571 14.554 199.211 14.554C200.037 14.554 200.766 14.7607 201.397 15.174C202.027 15.5874 202.52 16.1733 202.873 16.9318C203.227 17.6903 203.404 18.5852 203.404 19.6165C203.404 20.6562 203.227 21.5575 202.873 22.3203C202.52 23.0788 202.029 23.6669 201.403 24.0845C200.777 24.4979 200.054 24.7045 199.236 24.7045C198.605 24.7045 198.1 24.6001 197.721 24.3913C197.342 24.1783 197.05 23.9375 196.846 23.669C196.641 23.3963 196.483 23.1705 196.373 22.9915H196.245V28.1818H194.736ZM196.219 19.5909C196.219 20.3324 196.328 20.9865 196.545 21.5533C196.762 22.1158 197.08 22.5568 197.498 22.8764C197.915 23.1918 198.426 23.3494 199.032 23.3494C199.662 23.3494 200.189 23.1832 200.61 22.8509C201.037 22.5142 201.356 22.0625 201.569 21.4957C201.787 20.9247 201.895 20.2898 201.895 19.5909C201.895 18.9006 201.789 18.2784 201.576 17.7244C201.367 17.1662 201.049 16.7251 200.623 16.4013C200.201 16.0732 199.671 15.9091 199.032 15.9091C198.418 15.9091 197.902 16.0646 197.485 16.3757C197.067 16.6825 196.752 17.1129 196.539 17.6669C196.326 18.2166 196.219 18.858 196.219 19.5909Z" fill="black"/>
</svg>
