<svg width="18" height="22" viewBox="0 0 18 22" fill="none" xmlns="http://www.w3.org/2000/svg">
<path d="M14.2244 11.6505C14.2006 9.07207 16.3897 7.81767 16.4898 7.75927C15.25 5.99687 13.3284 5.75607 12.6531 5.73687C11.0392 5.57127 9.47365 6.67847 8.6515 6.67847C7.81294 6.67847 6.5469 5.75287 5.1824 5.78007C3.42651 5.80647 1.78386 6.79767 0.882944 8.33687C-0.976324 11.4753 0.410332 16.0873 2.19165 18.6241C3.08272 19.8665 4.12394 21.2537 5.48681 21.2049C6.82013 21.1513 7.31818 20.3761 8.92719 20.3761C10.5214 20.3761 10.9891 21.2049 12.3791 21.1737C13.81 21.1513 14.7109 19.9257 15.5708 18.6721C16.6006 17.2481 17.0141 15.8457 17.0305 15.7737C16.9969 15.7625 14.2515 14.7409 14.2244 11.6505Z" fill="white"/>
<path d="M11.5988 4.06807C12.3159 3.19367 12.8065 2.00407 12.6703 0.796875C11.6324 0.841675 10.3344 1.49688 9.58688 2.35208C8.92555 3.10567 8.33478 4.34087 8.4874 5.50247C9.65334 5.58727 10.8505 4.92887 11.5988 4.06807Z" fill="white"/>
</svg>
