<svg width="19" height="22" viewBox="0 0 19 22" fill="none" xmlns="http://www.w3.org/2000/svg">
<path d="M0.411762 1.03134C0.170736 1.27734 0.03125 1.66034 0.03125 2.15634V19.8483C0.03125 20.3443 0.170736 20.7273 0.411762 20.9733L0.47125 21.0273L10.6394 11.1173V10.8833L0.47125 0.973341L0.411762 1.03134Z" fill="url(#paint0_linear_1235_8117)"/>
<path d="M14.0263 14.4219L10.6406 11.1169V10.8829L14.0304 7.57787L14.1063 7.62088L18.1206 9.84787C19.2663 10.4799 19.2663 11.5199 18.1206 12.1559L14.1063 14.3789L14.0263 14.4219V14.4219Z" fill="url(#paint1_linear_1235_8117)"/>
<path d="M14.1074 14.378L10.6418 10.999L0.414062 20.972C0.794575 21.362 1.41509 21.409 2.12073 21.019L14.1074 14.378" fill="url(#paint2_linear_1235_8117)"/>
<path d="M14.1074 7.621L2.12073 0.980002C1.41509 0.594002 0.794575 0.641 0.414062 1.031L10.6418 11L14.1074 7.621Z" fill="url(#paint3_linear_1235_8117)"/>
<defs>
<linearGradient id="paint0_linear_1235_8117" x1="9.73664" y1="20.0326" x2="-3.68498" y2="6.26683" gradientUnits="userSpaceOnUse">
<stop stop-color="#00A0FF"/>
<stop offset="0.0066" stop-color="#00A1FF"/>
<stop offset="0.2601" stop-color="#00BEFF"/>
<stop offset="0.5122" stop-color="#00D2FF"/>
<stop offset="0.7604" stop-color="#00DFFF"/>
<stop offset="1" stop-color="#00E3FF"/>
</linearGradient>
<linearGradient id="paint1_linear_1235_8117" x1="19.6124" y1="10.9988" x2="-0.241423" y2="10.9988" gradientUnits="userSpaceOnUse">
<stop stop-color="#FFE000"/>
<stop offset="0.4087" stop-color="#FFBD00"/>
<stop offset="0.7754" stop-color="#FFA500"/>
<stop offset="1" stop-color="#FF9C00"/>
</linearGradient>
<linearGradient id="paint2_linear_1235_8117" x1="12.2229" y1="9.16212" x2="-5.97793" y2="-9.50537" gradientUnits="userSpaceOnUse">
<stop stop-color="#FF3A44"/>
<stop offset="1" stop-color="#C31162"/>
</linearGradient>
<linearGradient id="paint3_linear_1235_8117" x1="-2.16046" y1="26.859" x2="5.96702" y2="18.5232" gradientUnits="userSpaceOnUse">
<stop stop-color="#32A071"/>
<stop offset="0.0685" stop-color="#2DA771"/>
<stop offset="0.4762" stop-color="#15CF74"/>
<stop offset="0.8009" stop-color="#06E775"/>
<stop offset="1" stop-color="#00F076"/>
</linearGradient>
</defs>
</svg>
