<svg width="144" height="43" viewBox="0 0 144 43" fill="none" xmlns="http://www.w3.org/2000/svg">
<path d="M120.439 41.3138C119.54 41.3138 118.631 41.1241 117.779 40.7227C115.001 39.4068 113.942 36.3308 115.412 33.8485L132.613 4.82758C134.085 2.34529 137.531 1.39949 140.307 2.71285C143.085 4.0287 144.143 7.10468 142.673 9.58696L125.473 38.6079C124.452 40.3322 122.477 41.3138 120.439 41.3138Z" fill="#FFA74E"/>
<path d="M67.1412 6.69164C66.4969 3.42841 69.2097 0.429633 72.8568 0.266771C72.7637 0.262288 72.6778 0.257812 72.579 0.257812C72.1623 0.257812 71.7579 0.298654 71.3618 0.377346C69.7881 0.686636 68.4114 1.58461 67.6109 2.87556L67.26 3.44683L64.0089 8.70476L63.87 8.93038L51.5897 28.7872L48.8926 14.4817L48.1551 10.5869L47.7685 8.53094L47.3669 6.40725C47.3061 6.09348 47.228 5.78469 47.1242 5.48686C46.6545 4.10327 45.748 2.90496 44.5609 2.00697C43.8028 1.43122 42.9315 0.979983 41.9871 0.684638C41.1258 0.411208 40.2014 0.260301 39.2341 0.260301C39.1153 0.260301 39.0065 0.264777 38.8877 0.269259C38.6958 0.273742 38.4967 0.287192 38.3092 0.309604C38.2462 0.314087 38.186 0.323551 38.1252 0.328033C37.9031 0.354928 37.6856 0.388793 37.4658 0.434115C37.3776 0.452045 37.2917 0.469981 37.203 0.487911C36.986 0.537717 36.7741 0.593997 36.5593 0.65974C36.4963 0.67767 36.4304 0.700079 36.3674 0.720499C36.3317 0.729464 36.3038 0.738425 36.2737 0.75237C36.2179 0.765818 36.1699 0.783751 36.1197 0.804171C36.0567 0.826584 36.0009 0.853478 35.9351 0.873898C35.8319 0.914739 35.7331 0.953091 35.6321 0.997915C35.5133 1.04772 35.4001 1.09952 35.2863 1.1538C35.2026 1.19913 35.1217 1.23748 35.0436 1.2823C34.9248 1.33908 34.8116 1.40682 34.6978 1.47654C34.637 1.50792 34.579 1.54178 34.5232 1.57814C34.3692 1.67078 34.218 1.77687 34.0685 1.87847C33.9854 1.93923 33.8995 2.00248 33.8164 2.06773C33.7556 2.10857 33.7026 2.1514 33.6468 2.2007C33.5866 2.25051 33.528 2.30231 33.4677 2.35212C33.4069 2.40192 33.3489 2.4582 33.2881 2.51249C33.1899 2.60961 33.0912 2.70174 32.9952 2.79886C32.9501 2.83971 32.9171 2.88254 32.8814 2.92288C32.7983 3.00655 32.7174 3.09472 32.6444 3.18935C32.6293 3.20728 32.6087 3.2257 32.5986 3.24114C32.5105 3.34722 32.4246 3.44882 32.3459 3.55939C32.3309 3.5818 32.3108 3.60919 32.2907 3.6341C32.197 3.76708 32.106 3.90454 32.0179 4.04001L28.8304 9.13807L16.5602 28.7872L14.075 15.1929L12.1878 4.85682C11.9507 3.53001 11.1876 2.3815 10.1093 1.56221C9.031 0.742915 7.63919 0.257812 6.13358 0.257812C2.3174 0.257812 -0.567196 3.33627 0.0949605 6.69164L4.79754 30.4885L4.96714 31.3507L5.83849 35.7375C6.23512 37.7372 7.40656 39.4704 9.05108 40.7001C10.69 41.9343 12.802 42.6589 15.0802 42.6589C18.4947 42.6589 21.6371 41.0004 23.2911 38.3329L23.5538 37.9085L36.8243 16.434L36.933 16.2577L36.9732 16.434L40.9869 35.8033C41.8074 39.7747 45.69 42.6564 50.2085 42.6564H50.4506C52.4739 42.6564 54.4012 42.0767 55.9799 41.0522C55.99 41.0477 55.995 41.0433 56 41.0388C57.0783 40.33 57.9954 39.4116 58.6671 38.3284L59.9099 36.3197L69.8183 20.2884L68.1314 11.7533L67.1312 6.68965L67.1412 6.69164Z" fill="url(#paint0_linear_1235_8033)"/>
<path d="M126.307 37.2762C126.297 37.3076 126.229 37.4615 126.168 37.6079L125.724 38.3281C125.699 38.3729 125.668 38.4158 125.641 38.4566C125.59 38.5263 125.542 38.5986 125.497 38.6733C125.481 38.6957 125.466 38.7181 125.451 38.7385C124.812 39.646 123.996 40.4244 123.052 41.0425C123.052 41.0425 123.047 41.047 123.037 41.0515C121.458 42.0829 119.533 42.6607 117.507 42.6607H117.265C112.746 42.6607 108.867 39.772 108.038 35.8025L104.025 16.4333L103.99 16.2575L103.881 16.4288L90.6105 37.9083L90.3477 38.3326C89.704 39.3725 88.8326 40.2506 87.8146 40.9459C87.6757 41.0425 87.5317 41.1351 87.385 41.2233C87.2411 41.3115 87.0922 41.3946 86.9455 41.4758C86.2866 41.8304 85.5743 42.1034 84.8419 42.3021C83.9755 42.5367 83.0634 42.6607 82.1341 42.6607C80.7144 42.6607 79.3583 42.3788 78.1411 41.8598C77.8984 41.7537 77.6557 41.6432 77.4237 41.5231C77.1911 41.3991 76.969 41.2706 76.7465 41.1351C76.5295 40.9977 76.3175 40.8532 76.1128 40.6974C76.009 40.6187 75.9058 40.537 75.8071 40.4628C75.2135 39.9752 74.688 39.4223 74.2535 38.8177C73.7436 38.1065 73.342 37.3191 73.087 36.4729C73.0134 36.2293 72.9481 35.9853 72.9002 35.7348L72.0338 31.3479L69.8516 20.2877L72.4299 16.1085L75.1176 11.7531C75.1176 11.7531 75.1176 11.7486 75.1226 11.7441L77.5726 7.78112C78.0624 6.98474 78.29 6.1495 78.29 5.33071C78.29 4.29924 77.9285 3.30164 77.2948 2.4689C76.3504 1.22576 74.794 0.345707 72.9102 0.262034C73.0084 0.253069 73.1021 0.253066 73.2031 0.253066C74.7081 0.253066 76.0977 0.740659 77.1788 1.55746C77.2719 1.62719 77.3656 1.70389 77.4566 1.78308C77.4917 1.81446 77.5297 1.84384 77.5648 1.8802C78.0652 2.33144 78.4769 2.85738 78.7775 3.44159C78.8177 3.5163 78.8557 3.59301 78.8858 3.66722C78.9845 3.89283 79.0727 4.12343 79.1435 4.36249C79.1893 4.52735 79.2272 4.68523 79.2573 4.85457C80.4394 11.3377 81.2527 17.8731 82.8007 24.289C82.8057 24.307 82.8113 24.3294 82.8163 24.3453L83.6218 28.7845L83.6849 28.6784L95.8943 9.13283L95.915 9.09697L96.1069 8.79665L97.5461 6.48817L99.0796 4.03278C99.1147 3.9765 99.1527 3.91773 99.1934 3.86145C99.1984 3.84801 99.2084 3.83904 99.2185 3.8251C99.2586 3.75985 99.3016 3.69212 99.3473 3.62687C99.3725 3.59948 99.3926 3.57707 99.4076 3.55217C99.4863 3.4416 99.5722 3.34 99.6603 3.23391C99.6703 3.21598 99.6854 3.19805 99.706 3.18012C99.7791 3.09196 99.86 2.99933 99.9431 2.91366C99.9738 2.87282 100.012 2.83447 100.052 2.78964C100.151 2.69701 100.249 2.59989 100.35 2.50277C100.411 2.44898 100.464 2.39668 100.529 2.34289C100.59 2.29308 100.643 2.24129 100.708 2.19148C100.764 2.14168 100.817 2.09885 100.878 2.05851C100.956 1.99277 101.042 1.92951 101.13 1.86875C101.176 1.83737 101.219 1.80798 101.269 1.77611C101.348 1.71983 101.429 1.66554 101.512 1.61175C101.532 1.59781 101.557 1.57988 101.58 1.56643C101.641 1.53007 101.699 1.4962 101.759 1.46482C101.815 1.42896 101.873 1.39958 101.928 1.36323C101.984 1.32737 102.042 1.29798 102.103 1.27059C102.186 1.22576 102.267 1.18741 102.35 1.14657C102.464 1.09029 102.578 1.036 102.697 0.986197C102.795 0.941372 102.894 0.903029 103 0.862189C103.06 0.839777 103.118 0.812882 103.184 0.792462C103.209 0.779015 103.234 0.769548 103.257 0.765065C103.282 0.751618 103.313 0.742655 103.335 0.738172C103.365 0.729207 103.396 0.71576 103.424 0.706795C103.492 0.683885 103.552 0.66147 103.621 0.645532C103.724 0.614155 103.828 0.584774 103.932 0.55788C104.045 0.521522 104.164 0.496618 104.283 0.469723C104.361 0.451794 104.442 0.437847 104.525 0.419917C104.633 0.393022 104.742 0.375087 104.851 0.363632C104.959 0.345702 105.068 0.327283 105.177 0.313835C105.24 0.309353 105.301 0.300383 105.361 0.2959C105.553 0.273488 105.747 0.264026 105.944 0.255061C106.058 0.250579 106.172 0.246094 106.285 0.246094C107.25 0.246094 108.177 0.397508 109.039 0.67044C109.988 0.966283 110.859 1.422 111.618 1.99276C112.805 2.89125 113.711 4.08956 114.181 5.47265C114.285 5.76849 114.366 6.07729 114.424 6.39355L114.825 8.51674L115.212 10.5727L115.944 14.468L118.048 25.5979C118.048 25.6114 118.048 25.6248 118.053 25.6383C118.306 27.2744 118.533 28.9199 118.934 30.5331C119.543 32.9885 120.478 36.6059 123.642 37.3216C124.519 37.5198 125.454 37.477 126.32 37.2648L126.307 37.2762Z" fill="url(#paint1_linear_1235_8033)"/>
<path d="M23.4846 38.037C22.6663 39.2831 21.6331 40.463 20.2798 41.2664C18.7541 42.1714 16.9278 42.6589 15.0992 42.6589C12.8237 42.6589 10.7118 41.9323 9.07003 40.6981C7.42831 39.4679 6.25684 37.7347 5.85742 35.7355L4.98886 31.3482L0.118915 6.69164C-0.545472 3.33627 2.34191 0.257812 6.1553 0.257812C7.65812 0.257812 9.05274 0.742921 10.1288 1.56022C11.2093 2.38151 11.9697 3.5325 12.2095 4.85732C13.3966 11.3564 14.5815 17.8535 15.7686 24.3526C16.4078 27.8549 16.342 31.9643 17.9966 35.2365C18.9131 37.0489 21.1104 38.7457 23.4846 38.037Z" fill="url(#paint2_linear_1235_8033)"/>
<path d="M59.2633 37.2783C59.2432 37.3346 59.0206 37.8356 59.0028 37.8625C58.8315 38.1404 58.6218 38.3974 58.45 38.6753C57.4927 40.2208 55.5855 41.568 53.7898 42.2678C51.9361 42.99 49.8246 43.2021 47.8493 42.7912C44.2674 42.0466 41.3633 39.3208 40.719 36.089L39.8499 31.7021C39.6731 30.8106 39.499 29.9191 39.3222 29.0276C38.9457 27.1255 38.5697 25.223 38.1959 23.3204C37.8473 21.5603 37.5014 19.7982 37.1528 18.0376C36.779 16.142 36.5871 14.2016 35.8547 12.3777C35.3744 11.1819 34.604 9.88198 33.437 9.11498C31.9978 8.16918 30.3181 8.48495 28.8125 9.12843C29.7497 7.91667 30.4313 6.56247 31.2146 5.26504C32 3.96712 32.9171 2.69908 34.2124 1.78516C37.5165 -0.546221 42.8182 -0.187125 45.6743 2.53423C47.1091 3.90188 47.3897 6.21035 47.7227 7.98192C48.7257 13.3255 49.746 18.6671 50.7211 24.0157C51.1177 26.1912 51.3425 28.3936 51.8781 30.5486C52.4867 32.9995 53.421 36.6194 56.5857 37.3371C57.462 37.5353 58.3942 37.4905 59.2633 37.2783Z" fill="url(#paint3_linear_1235_8033)"/>
<path d="M67.3906 3.2304C67.5067 3.01823 67.6305 2.81751 67.7694 2.63672C67.7164 2.71591 67.6607 2.79261 67.6099 2.87379L67.3906 3.2304Z" fill="url(#paint4_linear_1235_8033)"/>
<path d="M68.9685 1.41797C68.7616 1.57386 68.5647 1.7407 68.3828 1.91901C68.5697 1.72975 68.7688 1.5624 68.9685 1.41797Z" fill="url(#paint5_linear_1235_8033)"/>
<path d="M68.9609 1.41923C69.2889 1.17319 69.6248 0.980949 69.9533 0.832031C69.5997 0.994894 69.2689 1.19311 68.9609 1.41923Z" fill="url(#paint6_linear_1235_8033)"/>
<path d="M72.7441 0.263709C72.6934 0.258728 72.6454 0.258731 72.5901 0.258731C72.3826 0.258731 72.1785 0.270183 71.9766 0.288113C72.4412 0.236316 72.7414 0.258731 72.7414 0.258731L72.7441 0.263709Z" fill="url(#paint7_linear_1235_8033)"/>
<path d="M126.297 37.2772C126.287 37.3091 126.219 37.4625 126.158 37.6089C126.098 37.7329 126.05 37.848 126.04 37.8664C125.911 38.0696 125.767 38.2634 125.628 38.4596C125.577 38.5298 125.529 38.602 125.484 38.6763C125.468 38.6992 125.453 38.7216 125.438 38.742C124.473 40.2631 122.592 41.5809 120.826 42.2712C118.97 42.9914 116.861 43.2035 114.886 42.7927C111.301 42.0501 108.397 39.3217 107.753 36.0879L106.882 31.701C106.882 31.701 103.936 16.7844 103.868 16.4343C103.517 14.6652 103.28 12.9638 102.383 11.3277C102.042 10.7047 101.635 10.1065 101.1 9.60798C100.486 9.0417 99.7035 8.61736 98.8193 8.53817C97.809 8.44154 96.796 8.72792 95.8945 9.10495C95.8794 9.11391 95.8588 9.11839 95.8438 9.12736C95.9274 9.02127 96.0083 8.91519 96.0864 8.80462C96.6219 8.06651 97.0766 7.28357 97.5262 6.49615C97.7633 6.08526 97.9959 5.67437 98.2436 5.26597C98.5314 4.79232 98.8371 4.32066 99.1729 3.86943C99.1779 3.85548 99.188 3.84652 99.198 3.83307C99.7715 3.06358 100.431 2.35485 101.241 1.78658C101.319 1.7298 101.4 1.67551 101.484 1.62172C101.504 1.60827 101.529 1.58985 101.552 1.5764C101.666 1.50667 101.78 1.43445 101.898 1.37319C101.954 1.33733 102.012 1.30795 102.073 1.28106C102.156 1.23573 102.237 1.19738 102.32 1.15654C102.345 1.14558 102.368 1.13412 102.393 1.12267C102.542 1.05045 102.694 0.985214 102.848 0.924451C102.888 0.908514 102.929 0.890583 102.969 0.874645C103.03 0.852233 103.088 0.82484 103.154 0.804918C103.179 0.790973 103.204 0.782004 103.227 0.777521C103.252 0.764074 103.283 0.755111 103.305 0.750628C103.336 0.741663 103.366 0.727722 103.394 0.718757C103.462 0.696345 103.522 0.673926 103.59 0.657988C103.694 0.626611 103.797 0.597225 103.901 0.569832C104.015 0.533972 104.133 0.509074 104.252 0.482179C104.331 0.463752 104.411 0.450303 104.495 0.432373C104.603 0.405478 104.712 0.387055 104.821 0.376098C104.929 0.35767 105.037 0.339739 105.146 0.326291C107.879 -0.0278233 110.819 0.741666 112.698 2.53316C114.128 3.90081 114.411 6.20728 114.747 7.98084C115.747 13.3269 116.767 18.664 117.742 24.0171C117.841 24.5475 117.926 25.0775 118.015 25.6124C118.015 25.6258 118.015 25.6398 118.02 25.6532C118.273 27.2893 118.5 28.9344 118.902 30.5481C119.51 33.003 120.445 36.6208 123.61 37.336C124.486 37.5347 125.42 37.4919 126.287 37.2797L126.297 37.2772Z" fill="url(#paint8_linear_1235_8033)"/>
<path d="M134.43 3.2304C134.546 3.01823 134.67 2.81751 134.808 2.63672C134.755 2.71591 134.7 2.79261 134.65 2.87379L134.43 3.2304Z" fill="url(#paint9_linear_1235_8033)"/>
<path d="M136 1.42188C135.793 1.57727 135.596 1.74461 135.414 1.92291C135.601 1.73315 135.801 1.56631 136 1.42188Z" fill="url(#paint10_linear_1235_8033)"/>
<path d="M135.992 1.41923C136.32 1.17319 136.657 0.980949 136.985 0.832031C136.631 0.994894 136.3 1.19311 135.992 1.41923Z" fill="url(#paint11_linear_1235_8033)"/>
<path d="M139.775 0.263388C139.725 0.258905 139.677 0.258904 139.621 0.258904C139.414 0.258904 139.21 0.269858 139.008 0.288286C139.472 0.235991 139.775 0.263388 139.775 0.263388Z" fill="url(#paint12_linear_1235_8033)"/>
<path d="M90.4879 38.0322C89.7053 39.111 88.9042 40.142 87.7852 40.9364C87.6463 41.0335 87.4973 41.1261 87.3512 41.2138C87.3305 41.2322 87.3054 41.2456 87.2826 41.2591C87.1593 41.3293 87.0355 41.4015 86.9116 41.4668C86.2472 41.8254 85.5299 42.0988 84.7924 42.3015C83.911 42.5321 82.9967 42.6561 82.0746 42.6561C80.6448 42.6561 79.2737 42.3737 78.0509 41.8548C77.8088 41.7487 77.5611 41.6381 77.329 41.5141C77.0964 41.3901 76.8694 41.2616 76.6468 41.1261C76.4298 40.9882 76.2173 40.8437 76.0081 40.6838C75.9043 40.6047 75.8006 40.5235 75.7024 40.4488C75.1088 39.9547 74.5833 39.4063 74.1387 38.7947C73.6233 38.0795 73.2217 37.2871 72.9667 36.4345C72.8936 36.1904 72.8278 35.9469 72.7798 35.6919L71.9035 31.2776L69.7112 20.1522L68.0494 11.755C67.2611 8.09682 64.0156 8.70843 64.0156 8.70843L67.2662 3.44602L67.617 2.87525C67.8848 2.44643 68.2106 2.06044 68.5922 1.72873C68.6429 1.67893 68.6909 1.64058 68.7411 1.59576C69.777 0.674861 71.176 0.0791929 72.7547 0.0089676C72.7648 0.0089676 72.7748 0.00448514 72.7849 0.0089676C72.8886 2.67524e-06 72.9818 0 73.0827 0C74.5984 0 75.9925 0.487595 77.0814 1.31336C77.2152 1.41497 77.3441 1.52104 77.4679 1.63609C77.9728 2.08733 78.3873 2.61328 78.6902 3.20695C78.7303 3.28116 78.7683 3.35786 78.7989 3.43257C78.9021 3.66267 78.9858 3.89725 79.0566 4.13183C79.1018 4.29918 79.1398 4.45906 79.1699 4.6264C80.362 11.1479 83.3325 27.1234 83.6304 28.5991C84.0571 30.7836 84.5804 32.9635 85.6409 34.8885C86.5479 36.5336 88.3135 38.0815 90.4957 38.0322H90.4879Z" fill="url(#paint13_linear_1235_8033)"/>
<defs>
<linearGradient id="paint0_linear_1235_8033" x1="-24.3953" y1="43.7556" x2="103.587" y2="-23.6131" gradientUnits="userSpaceOnUse">
<stop offset="0.04" stop-color="#FFA74E"/>
<stop offset="0.22" stop-color="#FE8358"/>
<stop offset="0.35" stop-color="#FEAF4B"/>
<stop offset="0.4" stop-color="#FFC446"/>
<stop offset="0.6" stop-color="#FE9753"/>
<stop offset="0.68" stop-color="#FFC446"/>
<stop offset="0.8" stop-color="#FFC047"/>
<stop offset="0.95" stop-color="#FFA54F"/>
</linearGradient>
<linearGradient id="paint1_linear_1235_8033" x1="51.9639" y1="40.0768" x2="137.726" y2="-5.06639" gradientUnits="userSpaceOnUse">
<stop offset="0.04" stop-color="#FFA74E"/>
<stop offset="0.22" stop-color="#FE8358"/>
<stop offset="0.35" stop-color="#FEAF4B"/>
<stop offset="0.4" stop-color="#FFC446"/>
<stop offset="0.6" stop-color="#FE9753"/>
<stop offset="0.68" stop-color="#FFC446"/>
<stop offset="0.8" stop-color="#FFC047"/>
<stop offset="0.95" stop-color="#FFA54F"/>
</linearGradient>
<linearGradient id="paint2_linear_1235_8033" x1="3.77109" y1="-0.705419" x2="13.1874" y2="40.0284" gradientUnits="userSpaceOnUse">
<stop stop-color="#10D9F0"/>
<stop offset="1" stop-color="#6E47FF"/>
</linearGradient>
<linearGradient id="paint3_linear_1235_8033" x1="50.1047" y1="48.467" x2="41.0009" y2="0.982025" gradientUnits="userSpaceOnUse">
<stop stop-color="#10D9F0"/>
<stop offset="1" stop-color="#6E47FF"/>
</linearGradient>
<linearGradient id="paint4_linear_1235_8033" x1="67.3906" y1="2.93455" x2="67.7694" y2="2.93455" gradientUnits="userSpaceOnUse">
<stop stop-color="#FE8358"/>
<stop offset="1" stop-color="#FFC446"/>
</linearGradient>
<linearGradient id="paint5_linear_1235_8033" x1="68.3828" y1="1.66849" x2="68.9685" y2="1.66849" gradientUnits="userSpaceOnUse">
<stop stop-color="#FE8358"/>
<stop offset="1" stop-color="#FFC446"/>
</linearGradient>
<linearGradient id="paint6_linear_1235_8033" x1="68.9609" y1="1.12538" x2="69.9533" y2="1.12538" gradientUnits="userSpaceOnUse">
<stop stop-color="#FE8358"/>
<stop offset="1" stop-color="#FFC446"/>
</linearGradient>
<linearGradient id="paint7_linear_1235_8033" x1="71.9766" y1="0.272674" x2="72.7441" y2="0.272674" gradientUnits="userSpaceOnUse">
<stop stop-color="#FE8358"/>
<stop offset="1" stop-color="#FFC446"/>
</linearGradient>
<linearGradient id="paint8_linear_1235_8033" x1="118.773" y1="53.1691" x2="105.48" y2="-11.6252" gradientUnits="userSpaceOnUse">
<stop stop-color="#10D9F0"/>
<stop offset="1" stop-color="#6E47FF"/>
</linearGradient>
<linearGradient id="paint9_linear_1235_8033" x1="134.43" y1="-13.266" x2="134.808" y2="-13.266" gradientUnits="userSpaceOnUse">
<stop stop-color="#FE8358"/>
<stop offset="1" stop-color="#FFC446"/>
</linearGradient>
<linearGradient id="paint10_linear_1235_8033" x1="135.414" y1="1.67239" x2="136" y2="1.67239" gradientUnits="userSpaceOnUse">
<stop stop-color="#FE8358"/>
<stop offset="1" stop-color="#FFC446"/>
</linearGradient>
<linearGradient id="paint11_linear_1235_8033" x1="135.992" y1="1.12538" x2="136.985" y2="1.12538" gradientUnits="userSpaceOnUse">
<stop stop-color="#FE8358"/>
<stop offset="1" stop-color="#FFC446"/>
</linearGradient>
<linearGradient id="paint12_linear_1235_8033" x1="139.008" y1="0.272349" x2="139.775" y2="0.272349" gradientUnits="userSpaceOnUse">
<stop stop-color="#FE8358"/>
<stop offset="1" stop-color="#FFC446"/>
</linearGradient>
<linearGradient id="paint13_linear_1235_8033" x1="72.535" y1="-0.00199241" x2="79.4909" y2="43.2076" gradientUnits="userSpaceOnUse">
<stop stop-color="#10D9F0"/>
<stop offset="1" stop-color="#6E47FF"/>
</linearGradient>
</defs>
</svg>
