<svg width="180" height="44" viewBox="0 0 180 44" fill="none" xmlns="http://www.w3.org/2000/svg">
<path d="M113.362 4.47474C112.745 4.47474 112.188 4.04676 112.048 3.41788C111.887 2.69129 112.345 1.9702 113.071 1.8092L121.078 0.0326311C121.804 -0.129751 122.525 0.329872 122.686 1.05646C122.847 1.78305 122.389 2.50414 121.663 2.66514L113.657 4.44308C113.559 4.4651 113.46 4.47611 113.364 4.47611L113.362 4.47474Z" fill="#FFA74E"/>
<path d="M95.3159 33.2822C94.8263 33.2822 94.3313 33.1666 93.8679 32.9216C92.3552 32.1194 91.7791 30.2437 92.5794 28.73L101.944 11.0331C102.746 9.5194 104.621 8.94281 106.133 9.74371C107.645 10.546 108.221 12.4216 107.421 13.9354L98.0565 31.6322C97.5009 32.6836 96.4256 33.2822 95.3159 33.2822Z" fill="#FFA74E"/>
<path d="M0 31.7967L2.88225 26.3665C5.09207 27.8569 8.59724 28.8174 11.8632 28.8174C15.3697 28.8174 16.9057 27.8569 16.9057 26.3184C16.9057 22.6662 3.21778 25.6936 3.21778 16.947C3.21778 11.1316 8.64537 7.86328 16.1852 7.86328C19.7866 7.86328 23.3894 8.68069 25.7422 10.0265L23.0525 15.5049C20.6515 14.0145 17.8174 13.5343 15.4165 13.5343C11.958 13.5343 10.422 14.6874 10.422 16.0814C10.422 19.8782 24.0618 16.8507 24.0618 25.4528C24.0618 31.3646 18.4912 34.4884 11.0463 34.4884C6.48369 34.4884 2.16169 33.3352 0 31.7967Z" fill="#090548"/>
<path d="M121.554 9.57812L120.519 14.667L116.657 34.1019H109.211L113.094 14.5707L113.719 11.5501L121.554 9.57812Z" fill="#090548"/>
<path d="M152.05 19.4447C152.05 28.1445 145.758 34.4884 137.737 34.4884C133.992 34.4884 131.061 33.287 129.381 30.6435L126.835 43.4276H119.344L126.355 8.24722H133.463L132.935 10.7944C135.001 8.92014 137.691 7.86328 140.86 7.86328C146.864 7.86328 152.051 12.0921 152.051 19.4461L152.05 19.4447ZM144.462 19.7818C144.462 16.2741 142.3 14.0627 138.554 14.0627C134.184 14.0627 131.014 17.5236 131.014 22.5698C131.014 26.0789 133.128 28.289 136.874 28.289C141.292 28.289 144.462 24.828 144.462 19.7818Z" fill="#090548"/>
<path d="M179.571 23.1946H159.785C160.026 26.7023 162.186 28.4816 166.461 28.4816C169.103 28.4816 171.6 27.6161 173.377 26.0789L176.498 31.0288C173.521 33.4315 169.631 34.4898 165.692 34.4898C157.625 34.4898 152.484 29.9238 152.484 22.907C152.484 14.2553 158.727 7.86328 167.708 7.86328C175.248 7.86328 180.003 12.3329 180.003 19.2534C180.003 20.6474 179.811 21.9932 179.571 23.1946ZM160.313 18.8213H173.136C173.136 15.4085 170.83 13.4861 167.373 13.4861C163.916 13.4861 161.321 15.6012 160.313 18.8213Z" fill="#090548"/>
<path d="M66.2964 12.1694C65.9457 10.1795 67.4226 8.35068 69.4083 8.2516C69.3574 8.24885 69.3106 8.24609 69.257 8.24609C69.0301 8.24609 68.8101 8.27086 68.5942 8.31903C67.7375 8.50756 66.988 9.05525 66.5521 9.84239L66.361 10.1905L64.5912 13.3969V13.3997L64.5156 13.5345L57.8298 25.643L56.3611 16.9198L55.9596 14.5446L55.7492 13.2909L55.5306 11.996C55.4976 11.8047 55.4549 11.6162 55.3985 11.4346C55.1428 10.591 54.6491 9.86028 54.0028 9.31258C53.5903 8.96167 53.1158 8.68645 52.6016 8.50618C52.1326 8.33967 51.6293 8.24747 51.1027 8.24747C51.038 8.24747 50.9789 8.25022 50.9143 8.25297C50.8098 8.25573 50.7011 8.26398 50.5994 8.27774C50.565 8.2805 50.532 8.286 50.499 8.28875C50.378 8.30527 50.2597 8.32591 50.1401 8.35343C50.092 8.36444 50.0452 8.37545 49.9971 8.38646C49.8788 8.41673 49.7633 8.45114 49.6464 8.49104C49.612 8.50205 49.5763 8.51581 49.5419 8.5282C49.5227 8.5337 49.5075 8.53921 49.491 8.54746C49.4608 8.55572 49.4347 8.56673 49.4072 8.57911C49.3728 8.59288 49.3425 8.60939 49.3068 8.62177C49.2504 8.64654 49.1968 8.66994 49.1418 8.69746C49.0771 8.72773 49.0152 8.75939 48.9534 8.79241C48.908 8.81993 48.864 8.84333 48.8214 8.87085C48.7567 8.90525 48.6948 8.94654 48.633 8.9892C48.6 9.00846 48.5683 9.0291 48.5381 9.05112C48.4542 9.10754 48.3717 9.17222 48.2906 9.23415C48.2452 9.2713 48.1984 9.30983 48.153 9.34974C48.12 9.37451 48.0912 9.40066 48.0609 9.43093C48.0279 9.4612 47.9963 9.49286 47.9633 9.52313C47.9303 9.5534 47.8986 9.58781 47.8656 9.62083C47.812 9.68001 47.7584 9.73643 47.7061 9.7956C47.6814 9.82037 47.6635 9.84652 47.6442 9.87129C47.5989 9.9222 47.5549 9.97587 47.515 10.0337C47.5067 10.0447 47.4957 10.0557 47.4902 10.0653C47.4421 10.13 47.3954 10.1919 47.3527 10.2594C47.3445 10.2731 47.3335 10.2896 47.3225 10.3048C47.2716 10.386 47.2221 10.4699 47.174 10.5525L45.4386 13.6611L38.7582 25.643L37.4051 17.3532L36.3779 11.0506C36.2486 10.2415 35.8334 9.54102 35.2462 9.04149C34.659 8.54196 33.9013 8.24609 33.0817 8.24609C31.0039 8.24609 29.4336 10.1231 29.7938 12.1694L32.3543 26.6806L32.4464 27.2062L32.9209 29.8814C33.1367 31.1006 33.7748 32.1575 34.67 32.9075C35.5625 33.6602 36.7121 34.1019 37.9524 34.1019C39.8116 34.1019 41.5222 33.0905 42.4229 31.4639L42.5659 31.2052L49.7908 18.1101L49.8499 18.0028L49.8719 18.1101L52.057 29.9213C52.5039 32.3433 54.6175 34.1006 57.0776 34.1006H57.2096C58.311 34.1006 59.3603 33.7469 60.2197 33.1222C60.2252 33.1194 60.228 33.1166 60.2307 33.1139C60.8179 32.6818 61.3171 32.1217 61.6828 31.4612L62.3594 30.2364L67.754 20.4605V20.4578L66.8354 15.256L66.2909 12.168L66.2964 12.1694Z" fill="url(#paint0_linear_1235_7963)"/>
<path d="M98.5101 30.819C98.5046 30.8382 98.4675 30.9318 98.4345 31.0213L98.1924 31.4603C98.1787 31.4878 98.1622 31.5139 98.1471 31.5387C98.1196 31.5814 98.0934 31.6254 98.0687 31.6708C98.0604 31.6846 98.0522 31.6983 98.0439 31.7107C97.696 32.2639 97.2519 32.7387 96.7376 33.1157C96.7376 33.1157 96.7348 33.1185 96.7293 33.1212C95.8699 33.7501 94.822 34.1024 93.7192 34.1024H93.5872C91.1271 34.1024 89.0149 32.341 88.5639 29.9204L86.3788 18.1092L86.3595 18.0018L86.3004 18.1064V18.1092L79.0755 31.2043L78.9325 31.463C78.5819 32.0974 78.1075 32.6327 77.5533 33.0565C77.4777 33.1157 77.3993 33.1721 77.3195 33.2258C77.2411 33.2795 77.16 33.3304 77.0802 33.3799C76.7213 33.596 76.3335 33.7625 75.9348 33.8836C75.4631 34.0267 74.9667 34.1024 74.4606 34.1024C73.6878 34.1024 72.9494 33.9304 72.2866 33.6139H72.2838C72.1518 33.5492 72.0226 33.4818 71.896 33.4088C71.7695 33.3331 71.6485 33.2547 71.5275 33.1721C71.4093 33.0882 71.2937 33.0001 71.1824 32.9052C71.126 32.857 71.0696 32.8075 71.016 32.7621C70.6928 32.4648 70.4068 32.1277 70.1703 31.7589C69.8925 31.3254 69.6739 30.8451 69.535 30.3291C69.4951 30.1805 69.4593 30.0318 69.4332 29.8791L68.9615 27.2039V27.2012L67.7734 20.4596V20.4568L69.1774 17.911L70.6406 15.2551C70.6406 15.2551 70.6406 15.2523 70.6433 15.2496L71.9772 12.8331C72.244 12.3474 72.3677 11.8382 72.3677 11.3387C72.3677 10.7098 72.1711 10.1015 71.8259 9.59376C71.3116 8.83552 70.4645 8.29883 69.4387 8.24791C69.4923 8.24241 69.5432 8.24241 69.5982 8.24241C70.4178 8.24241 71.1741 8.53965 71.7627 9.03781C71.8135 9.08046 71.8644 9.12725 71.9139 9.17542C71.9332 9.19468 71.9538 9.21257 71.973 9.23459C72.2453 9.50981 72.4695 9.83045 72.6331 10.1869C72.6551 10.2323 72.6757 10.2791 72.6922 10.3245C72.7459 10.4621 72.794 10.6025 72.8325 10.7483C72.8572 10.8488 72.8779 10.9451 72.8944 11.0483C73.5379 15.0019 73.9807 18.9871 74.8237 22.8994C74.8264 22.9104 74.8292 22.9242 74.8319 22.9338L75.2706 25.6407L75.305 25.576L81.9523 13.6574L81.9633 13.6354L82.0678 13.4524L82.8516 12.0446L83.6863 10.5474C83.7056 10.513 83.7262 10.4772 83.7482 10.4428C83.7509 10.4346 83.7564 10.4291 83.7619 10.4208C83.784 10.3809 83.8073 10.3396 83.8321 10.2997C83.8458 10.2832 83.8568 10.2694 83.8651 10.2543C83.9077 10.1869 83.9545 10.1249 84.0026 10.0603C84.0081 10.0493 84.0163 10.0382 84.0273 10.0272C84.0672 9.97356 84.1112 9.91714 84.1566 9.86485C84.1731 9.84008 84.1937 9.81669 84.2157 9.78916C84.2694 9.73274 84.323 9.67357 84.378 9.6144C84.411 9.58137 84.4399 9.54972 84.4756 9.51669C84.5086 9.48642 84.5375 9.45477 84.5733 9.42449C84.6035 9.39422 84.6324 9.36807 84.6654 9.3433C84.708 9.3034 84.7548 9.26486 84.8029 9.22771C84.8277 9.20844 84.851 9.19055 84.8785 9.17129C84.9212 9.13689 84.9652 9.10386 85.0106 9.07083C85.0216 9.06258 85.0353 9.05157 85.0477 9.04331C85.0807 9.02129 85.1123 9.00065 85.1453 8.98138C85.1756 8.95937 85.2072 8.94148 85.2374 8.91946C85.2677 8.89744 85.2993 8.87955 85.3323 8.86304C85.3777 8.83552 85.4217 8.81212 85.4671 8.78735C85.529 8.75295 85.5909 8.71992 85.6555 8.68965C85.7091 8.66213 85.7627 8.63873 85.8205 8.61396C85.8535 8.6002 85.8851 8.58369 85.9209 8.5713C85.9346 8.56305 85.9484 8.55754 85.9608 8.55479C85.9745 8.54653 85.991 8.54103 86.0034 8.53827C86.0199 8.53277 86.0364 8.52451 86.0515 8.51901C86.0886 8.50525 86.1217 8.49149 86.1588 8.48185C86.2152 8.46259 86.2715 8.4447 86.3279 8.42819C86.3898 8.40617 86.4544 8.39103 86.5191 8.37452C86.5617 8.36351 86.6057 8.35525 86.6511 8.34424C86.7102 8.32773 86.7693 8.31672 86.8285 8.30984C86.8876 8.29883 86.9467 8.28782 87.0058 8.27956C87.0402 8.27681 87.0732 8.27131 87.1062 8.26856C87.2107 8.25479 87.3166 8.24929 87.4239 8.24379C87.4858 8.24103 87.5476 8.23828 87.6095 8.23828C88.1348 8.23828 88.6395 8.33048 89.1084 8.49699C89.6255 8.67726 90.0999 8.95524 90.5124 9.3034C91.1587 9.85109 91.6524 10.5818 91.9082 11.4254C91.9645 11.6056 92.0085 11.7942 92.0402 11.9868L92.2588 13.2817L92.4692 14.5354L92.868 16.9106L94.0135 23.6976C94.0135 23.7058 94.0135 23.7141 94.0162 23.7223C94.1537 24.72 94.2775 25.7232 94.4961 26.7071C94.8275 28.2044 95.3363 30.4103 97.0593 30.8465C97.5365 30.9676 98.0453 30.9415 98.517 30.8121L98.5101 30.819Z" fill="url(#paint1_linear_1235_7963)"/>
<path d="M42.531 31.2837C42.0855 32.0433 41.523 32.763 40.786 33.2529C39.9554 33.8047 38.9612 34.1019 37.9656 34.1019C36.7266 34.1019 35.577 33.6588 34.6832 32.9061C33.7894 32.1561 33.1513 31.0993 32.9341 29.88L32.461 27.2049L29.8098 12.1694C29.4481 10.1231 31.0199 8.24609 33.0963 8.24609C33.9145 8.24609 34.6736 8.54196 35.2594 9.04011C35.8479 9.54102 36.2618 10.2428 36.3925 11.0506C37.0388 15.0138 37.6837 18.9757 38.33 22.9389C38.6779 25.0746 38.6422 27.5805 39.5429 29.5759C40.042 30.6809 41.2384 31.7171 42.531 31.285V31.2837Z" fill="url(#paint2_linear_1235_7963)"/>
<path d="M62.0081 30.8188C61.9971 30.8532 61.8761 31.1587 61.8665 31.1752C61.773 31.3445 61.6588 31.5013 61.5653 31.6706C61.0442 32.6132 60.0059 33.4348 59.0282 33.8614C58.0189 34.3017 56.8693 34.4311 55.794 34.1806C53.844 33.7265 52.2627 32.0642 51.912 30.0936L51.439 27.4184C51.3427 26.8748 51.2478 26.3313 51.1516 25.7877C50.9467 24.6276 50.7418 23.4676 50.5383 22.3075C50.3485 21.2341 50.1601 20.1594 49.9703 19.086C49.7668 17.9301 49.6623 16.7466 49.2635 15.6347C49.0022 14.9054 48.5828 14.1127 47.9475 13.6448C47.1637 13.0683 46.2493 13.2609 45.4297 13.6531C45.9399 12.9141 46.3111 12.0885 46.7374 11.2972C47.1651 10.5059 47.6643 9.73255 48.3697 9.17522C50.1683 7.75369 53.0547 7.97249 54.61 9.63209C55.391 10.466 55.5437 11.8738 55.7252 12.954C56.2711 16.2127 56.8267 19.4699 57.3575 22.7313C57.5734 24.0579 57.6957 25.401 57.9873 26.7152C58.3187 28.2097 58.8275 30.417 60.5505 30.8546C61.0277 30.9757 61.5351 30.9495 62.0081 30.8202V30.8188Z" fill="url(#paint3_linear_1235_7963)"/>
<path d="M66.4375 10.0572C66.5008 9.92788 66.5681 9.8054 66.6438 9.69531C66.6149 9.74348 66.5846 9.79026 66.5571 9.8398L66.4375 10.0572Z" fill="url(#paint4_linear_1235_7963)"/>
<path d="M67.2956 8.95312C67.1828 9.04808 67.0756 9.14991 66.9766 9.25862C67.0783 9.14303 67.187 9.0412 67.2956 8.95312Z" fill="url(#paint5_linear_1235_7963)"/>
<path d="M67.2891 8.95545C67.4678 8.80545 67.6507 8.68848 67.8295 8.59766C67.637 8.69674 67.4568 8.81783 67.2891 8.95545Z" fill="url(#paint6_linear_1235_7963)"/>
<path d="M69.3477 8.24792C69.3202 8.24516 69.2941 8.24516 69.2638 8.24516C69.1511 8.24516 69.0397 8.25205 68.9297 8.26305C69.1827 8.2314 69.3463 8.24516 69.3463 8.24516L69.3491 8.24792H69.3477Z" fill="url(#paint7_linear_1235_7963)"/>
<path d="M98.5017 30.8182C98.4962 30.8375 98.4591 30.9311 98.4261 31.0205C98.3931 31.0962 98.3669 31.1664 98.3614 31.1774C98.2913 31.3013 98.2129 31.4196 98.1373 31.5393C98.1098 31.582 98.0836 31.626 98.0589 31.6714C98.0506 31.6852 98.0424 31.699 98.0341 31.7113C97.5088 32.6388 96.4844 33.4425 95.5232 33.8636C94.5125 34.3026 93.3642 34.4319 92.2889 34.1815C90.3376 33.7287 88.7562 32.065 88.4056 30.093L87.9311 27.4179C87.9311 27.4179 86.3278 18.3217 86.2906 18.1084V18.1057C86.0995 17.0268 85.9702 15.992 85.4821 14.9943C85.2964 14.6145 85.075 14.2498 84.7835 13.9457C84.4493 13.6003 84.0231 13.3416 83.5418 13.2934C82.9917 13.2342 82.4403 13.409 81.9494 13.6388C81.9411 13.6443 81.9301 13.6471 81.9219 13.6526C81.9673 13.5879 82.0113 13.5232 82.0539 13.4558C82.3454 13.0058 82.5929 12.5283 82.8377 12.048C82.967 11.7976 83.0935 11.5471 83.2282 11.298C83.385 11.009 83.5514 10.7214 83.7343 10.4462C83.737 10.438 83.7425 10.4324 83.748 10.4242C84.0602 9.95493 84.4191 9.52283 84.8605 9.17605C84.9031 9.14165 84.9471 9.10862 84.9925 9.07559C85.0035 9.06734 85.0173 9.05633 85.0296 9.04807C85.0915 9.00541 85.1534 8.96138 85.218 8.92422C85.2483 8.9022 85.2799 8.88431 85.3129 8.8678C85.3583 8.84028 85.4023 8.81689 85.4477 8.79212C85.4614 8.78523 85.4738 8.77835 85.4876 8.77147C85.5687 8.72744 85.6512 8.68753 85.7351 8.65037C85.7571 8.64074 85.7791 8.62973 85.8011 8.6201C85.8341 8.60634 85.8657 8.58983 85.9015 8.57744C85.9152 8.56918 85.929 8.56368 85.9413 8.56093C85.9551 8.55267 85.9716 8.54717 85.984 8.54441C86.0005 8.53891 86.017 8.53065 86.0321 8.52515C86.0692 8.51139 86.1022 8.49763 86.1394 8.48799C86.1957 8.46873 86.2521 8.45084 86.3085 8.43432C86.3704 8.41231 86.435 8.39717 86.4996 8.38066C86.5423 8.36965 86.5863 8.36139 86.6317 8.35038C86.6908 8.33387 86.7499 8.32286 86.809 8.31598C86.8682 8.30497 86.9273 8.29396 86.9864 8.2857C88.4743 8.06965 90.075 8.53891 91.098 9.63155C91.8764 10.4655 92.0304 11.8719 92.2133 12.9535C92.7578 16.2135 93.3134 19.468 93.8442 22.7322C93.8978 23.0556 93.9445 23.379 93.9927 23.7051C93.9927 23.7133 93.9927 23.7216 93.9954 23.7299C94.1329 24.7275 94.2567 25.7307 94.4753 26.7147C94.8067 28.2119 95.3155 30.4178 97.0386 30.854C97.5157 30.9751 98.0245 30.949 98.4962 30.8196L98.5017 30.8182Z" fill="url(#paint8_linear_1235_7963)"/>
<path d="M102.93 10.0572C102.993 9.92788 103.06 9.8054 103.136 9.69531C103.107 9.74348 103.077 9.79026 103.049 9.8398L102.93 10.0572Z" fill="url(#paint9_linear_1235_7963)"/>
<path d="M103.788 8.95312C103.675 9.04808 103.568 9.14991 103.469 9.25862C103.571 9.14303 103.679 9.0412 103.788 8.95312Z" fill="url(#paint10_linear_1235_7963)"/>
<path d="M103.781 8.95545C103.96 8.80545 104.143 8.68848 104.322 8.59766C104.129 8.69674 103.949 8.81783 103.781 8.95545Z" fill="url(#paint11_linear_1235_7963)"/>
<path d="M105.84 8.24792C105.812 8.24516 105.786 8.24516 105.756 8.24516C105.643 8.24516 105.532 8.25205 105.422 8.26305C105.675 8.2314 105.839 8.24516 105.839 8.24516L105.841 8.24792H105.84Z" fill="url(#paint12_linear_1235_7963)"/>
<path d="M79.0064 31.2815C78.5801 31.9393 78.1442 32.5682 77.535 33.0526C77.4594 33.1118 77.3782 33.1682 77.2985 33.2219C77.2875 33.2329 77.2737 33.2411 77.2613 33.2494C77.194 33.292 77.1266 33.3361 77.0592 33.376C76.6975 33.5948 76.307 33.7613 75.9055 33.8852C75.4256 34.0255 74.9278 34.1012 74.4259 34.1012C73.6475 34.1012 72.9008 33.9292 72.2353 33.6127H72.2325C72.1005 33.548 71.9685 33.4806 71.842 33.4049C71.7155 33.3292 71.5917 33.2508 71.4707 33.1682C71.3525 33.0843 71.2369 32.9962 71.1228 32.8985C71.0664 32.8503 71.0101 32.8008 70.9564 32.7554C70.6333 32.454 70.3472 32.1196 70.1052 31.7467C69.8247 31.3104 69.6061 30.8274 69.4672 30.3072C69.4273 30.1586 69.3915 30.01 69.3654 29.8545L68.8882 27.1628V27.1601L67.6946 20.3786V20.3758L66.7898 15.258C66.3608 13.0274 64.5938 13.4003 64.5938 13.4003V13.3975L66.3635 10.1912L66.5547 9.84302C66.7004 9.58155 66.8778 9.34624 67.0855 9.14395C67.113 9.11368 67.1391 9.09028 67.1666 9.06276C67.7304 8.5013 68.4922 8.13801 69.3517 8.09535C69.3572 8.09535 69.3627 8.0926 69.3682 8.09535C69.4245 8.08984 69.4754 8.08984 69.5304 8.08984C70.3555 8.08984 71.1146 8.38708 71.7072 8.89074C71.7801 8.95267 71.8503 9.01735 71.9176 9.08753C72.1927 9.36275 72.4182 9.68339 72.5832 10.0453C72.6052 10.0907 72.6258 10.1375 72.6423 10.1829C72.6987 10.3233 72.7441 10.4664 72.7826 10.6095C72.8073 10.7113 72.828 10.8091 72.8445 10.9109C73.4935 14.8879 75.1107 24.6294 75.2729 25.5294C75.5053 26.8615 75.79 28.1908 76.3675 29.3646C76.8612 30.3678 77.8224 31.3118 79.0105 31.2815H79.0064Z" fill="url(#paint13_linear_1235_7963)"/>
<path d="M122.281 5.92578L121.355 10.5881L111.172 12.7004L112.189 7.8606L122.281 5.92578Z" fill="#090548"/>
<defs>
<linearGradient id="paint0_linear_1235_7963" x1="16.4607" y1="34.7707" x2="89.3474" y2="0.515882" gradientUnits="userSpaceOnUse">
<stop offset="0.04" stop-color="#FFA74E"/>
<stop offset="0.22" stop-color="#FE8358"/>
<stop offset="0.35" stop-color="#FEAF4B"/>
<stop offset="0.4" stop-color="#FFC446"/>
<stop offset="0.6" stop-color="#FE9753"/>
<stop offset="0.68" stop-color="#FFC446"/>
<stop offset="0.8" stop-color="#FFC047"/>
<stop offset="0.95" stop-color="#FFA54F"/>
</linearGradient>
<linearGradient id="paint1_linear_1235_7963" x1="58.0348" y1="32.5267" x2="106.877" y2="9.57288" gradientUnits="userSpaceOnUse">
<stop offset="0.04" stop-color="#FFA74E"/>
<stop offset="0.22" stop-color="#FE8358"/>
<stop offset="0.35" stop-color="#FEAF4B"/>
<stop offset="0.4" stop-color="#FFC446"/>
<stop offset="0.6" stop-color="#FE9753"/>
<stop offset="0.68" stop-color="#FFC446"/>
<stop offset="0.8" stop-color="#FFC047"/>
<stop offset="0.95" stop-color="#FFA54F"/>
</linearGradient>
<linearGradient id="paint2_linear_1235_7963" x1="31.7982" y1="7.65849" x2="38.1475" y2="32.1814" gradientUnits="userSpaceOnUse">
<stop stop-color="#10D9F0"/>
<stop offset="1" stop-color="#6E47FF"/>
</linearGradient>
<linearGradient id="paint3_linear_1235_7963" x1="57.0219" y1="37.6416" x2="50.8597" y2="8.94449" gradientUnits="userSpaceOnUse">
<stop stop-color="#10D9F0"/>
<stop offset="1" stop-color="#6E47FF"/>
</linearGradient>
<linearGradient id="paint4_linear_1235_7963" x1="66.4375" y1="9.87696" x2="66.6438" y2="9.87696" gradientUnits="userSpaceOnUse">
<stop stop-color="#FE8358"/>
<stop offset="1" stop-color="#FFC446"/>
</linearGradient>
<linearGradient id="paint5_linear_1235_7963" x1="66.9766" y1="9.10587" x2="67.2956" y2="9.10587" gradientUnits="userSpaceOnUse">
<stop stop-color="#FE8358"/>
<stop offset="1" stop-color="#FFC446"/>
</linearGradient>
<linearGradient id="paint6_linear_1235_7963" x1="67.2891" y1="8.77655" x2="67.8295" y2="8.77655" gradientUnits="userSpaceOnUse">
<stop stop-color="#FE8358"/>
<stop offset="1" stop-color="#FFC446"/>
</linearGradient>
<linearGradient id="paint7_linear_1235_7963" x1="68.9297" y1="8.25342" x2="69.3477" y2="8.25342" gradientUnits="userSpaceOnUse">
<stop stop-color="#FE8358"/>
<stop offset="1" stop-color="#FFC446"/>
</linearGradient>
<linearGradient id="paint8_linear_1235_7963" x1="94.4052" y1="40.5089" x2="85.4188" y2="1.39971" gradientUnits="userSpaceOnUse">
<stop stop-color="#10D9F0"/>
<stop offset="1" stop-color="#6E47FF"/>
</linearGradient>
<linearGradient id="paint9_linear_1235_7963" x1="102.93" y1="-0.00217211" x2="103.136" y2="-0.00217211" gradientUnits="userSpaceOnUse">
<stop stop-color="#FE8358"/>
<stop offset="1" stop-color="#FFC446"/>
</linearGradient>
<linearGradient id="paint10_linear_1235_7963" x1="103.469" y1="9.10587" x2="103.788" y2="9.10587" gradientUnits="userSpaceOnUse">
<stop stop-color="#FE8358"/>
<stop offset="1" stop-color="#FFC446"/>
</linearGradient>
<linearGradient id="paint11_linear_1235_7963" x1="103.781" y1="8.77655" x2="104.322" y2="8.77655" gradientUnits="userSpaceOnUse">
<stop stop-color="#FE8358"/>
<stop offset="1" stop-color="#FFC446"/>
</linearGradient>
<linearGradient id="paint12_linear_1235_7963" x1="105.422" y1="8.25342" x2="105.84" y2="8.25342" gradientUnits="userSpaceOnUse">
<stop stop-color="#FE8358"/>
<stop offset="1" stop-color="#FFC446"/>
</linearGradient>
<linearGradient id="paint13_linear_1235_7963" x1="69.232" y1="8.08847" x2="73.9526" y2="34.2693" gradientUnits="userSpaceOnUse">
<stop stop-color="#10D9F0"/>
<stop offset="1" stop-color="#6E47FF"/>
</linearGradient>
</defs>
</svg>
