<svg width="18" height="18" viewBox="0 0 18 18" fill="none" xmlns="http://www.w3.org/2000/svg">
<path d="M13.1826 10.7C13.2506 10.139 13.3016 9.578 13.3016 9C13.3016 8.422 13.2506 7.861 13.1826 7.3H16.0556C16.1916 7.844 16.2766 8.4135 16.2766 9C16.2766 9.5865 16.1916 10.156 16.0556 10.7M11.6781 15.426C12.1881 14.4825 12.5791 13.4625 12.8511 12.4H15.3586C14.5351 13.818 13.2286 14.8922 11.6781 15.426ZM11.4656 10.7H7.48756C7.40256 10.139 7.35156 9.578 7.35156 9C7.35156 8.422 7.40256 7.8525 7.48756 7.3H11.4656C11.5421 7.8525 11.6016 8.422 11.6016 9C11.6016 9.578 11.5421 10.139 11.4656 10.7ZM9.47656 15.766C8.77106 14.746 8.20156 13.6155 7.85306 12.4H11.1001C10.7516 13.6155 10.1821 14.746 9.47656 15.766ZM6.07656 5.6H3.59456C4.40959 4.17813 5.71514 3.10226 7.26656 2.574C6.75656 3.5175 6.37406 4.5375 6.07656 5.6ZM3.59456 12.4H6.07656C6.37406 13.4625 6.75656 14.4825 7.26656 15.426C5.71839 14.8919 4.41468 13.8176 3.59456 12.4ZM2.89756 10.7C2.76156 10.156 2.67656 9.5865 2.67656 9C2.67656 8.4135 2.76156 7.844 2.89756 7.3H5.77056C5.70256 7.861 5.65156 8.422 5.65156 9C5.65156 9.578 5.70256 10.139 5.77056 10.7M9.47656 2.2255C10.1821 3.2455 10.7516 4.3845 11.1001 5.6H7.85306C8.20156 4.3845 8.77106 3.2455 9.47656 2.2255ZM15.3586 5.6H12.8511C12.585 4.54724 12.1911 3.53101 11.6781 2.574C13.2421 3.1095 14.5426 4.189 15.3586 5.6ZM9.47656 0.5C4.77606 0.5 0.976562 4.325 0.976562 9C0.976562 11.2543 1.8721 13.4163 3.46615 15.0104C4.25545 15.7997 5.19249 16.4258 6.22375 16.853C7.25502 17.2801 8.36033 17.5 9.47656 17.5C11.7309 17.5 13.8929 16.6045 15.487 15.0104C17.081 13.4163 17.9766 11.2543 17.9766 9C17.9766 7.88376 17.7567 6.77846 17.3295 5.74719C16.9024 4.71592 16.2763 3.77889 15.487 2.98959C14.6977 2.20029 13.7606 1.57419 12.7294 1.14702C11.6981 0.719859 10.5928 0.5 9.47656 0.5Z" fill="white"/>
</svg>
