<svg width="179" height="43" viewBox="0 0 179 43" fill="none" xmlns="http://www.w3.org/2000/svg">
<path d="M112.248 4.43078C111.636 4.43078 111.085 4.00701 110.946 3.3843C110.787 2.66485 111.24 1.95085 111.959 1.79142L119.888 0.0323106C120.607 -0.128476 121.32 0.326632 121.479 1.04608C121.639 1.76554 121.185 2.47954 120.466 2.63896L112.539 4.39944C112.442 4.42124 112.344 4.43214 112.249 4.43214L112.248 4.43078Z" fill="white"/>
<path d="M96.9161 31.2263L96.9161 31.2265C96.402 32.1992 95.407 32.7536 94.3792 32.7536C93.9264 32.7536 93.4684 32.6468 93.0391 32.42C91.6389 31.6773 91.1055 29.941 91.8464 28.5397L101.119 11.0168C101.119 11.0168 101.119 11.0167 101.119 11.0167C101.861 9.61545 103.597 9.08191 104.996 9.8231C106.396 10.5657 106.93 12.302 106.189 13.7033C106.189 13.7034 106.189 13.7034 106.189 13.7034L96.9161 31.2263Z" fill="white" stroke="white" stroke-width="0.4"/>
<path d="M0 31.4835L2.85394 26.1066C5.04204 27.5823 8.51279 28.5334 11.7466 28.5334C15.2187 28.5334 16.7396 27.5823 16.7396 26.059C16.7396 22.4426 3.18617 25.4403 3.18617 16.7797C3.18617 11.0213 8.56044 7.78516 16.0262 7.78516C19.5922 7.78516 23.1596 8.59454 25.4893 9.92716L22.826 15.3517C20.4487 13.876 17.6424 13.4004 15.265 13.4004C11.8406 13.4004 10.3196 14.5423 10.3196 15.9226C10.3196 19.682 23.8255 16.6843 23.8255 25.2019C23.8255 31.0556 18.3096 34.1487 10.9378 34.1487C6.41999 34.1487 2.14045 33.0068 0 31.4835Z" fill="white"/>
<path d="M120.362 9.48438L119.337 14.5233L115.514 33.7672H108.141L111.986 14.4279L112.604 11.437L120.362 9.48438Z" fill="white"/>
<path d="M150.556 19.2528C150.556 27.8671 144.327 34.1487 136.385 34.1487C132.676 34.1487 129.774 32.9592 128.11 30.3416L125.59 43.0001H118.172L125.115 8.16532H132.153L131.63 10.6875C133.675 8.83163 136.338 7.78516 139.477 7.78516C145.422 7.78516 150.558 11.9724 150.558 19.2541L150.556 19.2528ZM143.043 19.5866C143.043 16.1134 140.903 13.9237 137.194 13.9237C132.866 13.9237 129.728 17.3506 129.728 22.3472C129.728 25.8219 131.821 28.0102 135.53 28.0102C139.905 28.0102 143.043 24.5833 143.043 19.5866Z" fill="white"/>
<path d="M177.805 22.9659H158.213C158.451 26.4391 160.591 28.201 164.824 28.201C167.439 28.201 169.912 27.3439 171.671 25.8219L174.762 30.7231C171.814 33.1022 167.962 34.1501 164.063 34.1501C156.074 34.1501 150.984 29.629 150.984 22.6811C150.984 14.1144 157.166 7.78516 166.059 7.78516C173.524 7.78516 178.233 12.2109 178.233 19.0634C178.233 20.4437 178.042 21.7763 177.805 22.9659ZM158.736 18.6355H171.433C171.433 15.2563 169.15 13.3527 165.727 13.3527C162.303 13.3527 159.734 15.447 158.736 18.6355Z" fill="white"/>
<path d="M65.4253 11.0232C65.3935 11.2706 65.388 11.5251 65.4113 11.7834L65.3923 11.7786L65.4458 12.0822L65.985 15.1399L65.985 15.1399L66.8826 20.223L61.5749 29.8417L61.5748 29.8417L60.905 31.0542C60.557 31.6826 60.0822 32.2154 59.5236 32.6265L59.5114 32.6355L59.5109 32.636C58.6939 33.229 57.6971 33.5646 56.6507 33.5646H56.52C54.1805 33.5646 52.1704 31.8933 51.7454 29.59L51.7454 29.59L49.5818 17.8948L49.5818 17.8948L49.5811 17.891L49.5593 17.7847L49.4502 17.2527L49.1882 17.7284L49.1297 17.8345L49.1296 17.8347L41.9759 30.8009L41.9758 30.801L41.8343 31.0569C40.9776 32.6041 39.3506 33.5659 37.5827 33.5659C36.4027 33.5659 35.3098 33.1458 34.4615 32.4303L34.461 32.4299C33.6096 31.7166 33.0028 30.7116 32.7975 29.552L32.7975 29.5519L32.3278 26.9034L32.3277 26.903L32.2366 26.3829L32.2365 26.3827L29.7012 12.0141C29.7012 12.0141 29.7012 12.0141 29.7012 12.0141C29.366 10.11 30.8273 8.36406 32.7599 8.36406C33.5225 8.36406 34.2271 8.63921 34.7735 9.10398C35.32 9.56895 35.706 10.2203 35.8262 10.9726L35.8263 10.9732L36.8434 17.2139L36.8434 17.214L38.1832 25.4222L38.2757 25.9889L38.5553 25.4874L45.1699 13.6234L45.17 13.6233L46.8874 10.5469C46.9334 10.4679 46.9797 10.3895 47.0268 10.3141C47.0387 10.2975 47.0506 10.2795 47.0607 10.2628C47.0952 10.2085 47.133 10.1577 47.1774 10.0981L47.1873 10.0848L47.1945 10.0751L47.1947 10.0747L47.1984 10.0703C47.2016 10.0665 47.2063 10.0608 47.2114 10.054L47.2115 10.0541L47.216 10.0477C47.2494 9.99925 47.2873 9.95275 47.3286 9.90636L47.329 9.90666L47.3372 9.89602C47.3467 9.88382 47.3535 9.87489 47.3587 9.86793C47.369 9.85431 47.3736 9.84819 47.3821 9.83972L47.3823 9.83999L47.3905 9.83073C47.4211 9.79613 47.4498 9.76506 47.4802 9.73211C47.5002 9.71046 47.521 9.68799 47.5435 9.66318C47.5577 9.64892 47.5694 9.63688 47.5798 9.62608C47.598 9.6073 47.6126 9.5923 47.6304 9.57594C47.6483 9.55952 47.6656 9.54296 47.6811 9.52808L47.6819 9.52732C47.6982 9.51174 47.7126 9.49792 47.7271 9.48464L47.7272 9.48478L47.7334 9.47863C47.7588 9.45316 47.7802 9.43407 47.8032 9.41682L47.8094 9.41217L47.8152 9.40705C47.8564 9.37082 47.8994 9.33533 47.9433 9.29932C47.9555 9.29004 47.9675 9.28086 47.9793 9.2718C48.0477 9.21937 48.1113 9.17063 48.176 9.12713L48.1761 9.12725L48.1821 9.12289C48.2065 9.10512 48.2322 9.08835 48.2592 9.07259L48.2656 9.0688L48.2718 9.06453C48.3324 9.02277 48.3857 8.98752 48.4388 8.95923L48.4463 8.95527L48.4533 8.95071C48.4766 8.93566 48.4939 8.92579 48.5148 8.91383C48.531 8.90458 48.5494 8.89407 48.5745 8.87895C48.6321 8.84826 48.6886 8.81943 48.747 8.79211L48.747 8.79217L48.7516 8.78985C48.7988 8.76622 48.8453 8.74582 48.8994 8.72205C48.9226 8.71359 48.9428 8.7046 48.9582 8.69763C48.9621 8.69587 48.9656 8.69427 48.9689 8.6928C48.9816 8.687 48.9899 8.68321 48.9992 8.67949L48.9993 8.67965L49.007 8.67617C49.0318 8.665 49.0462 8.65935 49.0606 8.65541L49.0797 8.6502L49.0975 8.64133C49.1 8.64006 49.1028 8.6387 49.1133 8.63569L49.1135 8.63613L49.1261 8.63156C49.1386 8.62708 49.1498 8.62297 49.1602 8.61913C49.1832 8.61067 49.2025 8.60358 49.2228 8.59708L49.2228 8.59711L49.2265 8.59588C49.3365 8.55831 49.4451 8.52592 49.5564 8.49738L49.6251 8.48152L49.6952 8.46531L49.6955 8.46525C49.8055 8.43994 49.9151 8.42069 50.0283 8.40512C50.0463 8.40349 50.0635 8.40136 50.0773 8.39965L50.0798 8.39934C50.0967 8.39724 50.1093 8.39573 50.1214 8.39476L50.1214 8.39506L50.1322 8.3936C50.2252 8.38103 50.3255 8.37336 50.4225 8.37083L50.4257 8.37069L50.4389 8.37013C50.4984 8.36759 50.5489 8.36543 50.6038 8.36543C51.1017 8.36543 51.5774 8.45256 52.021 8.61007L52.0218 8.61033C52.5073 8.78052 52.9556 9.04051 53.3458 9.37242L53.3461 9.37266C53.9575 9.89079 54.4243 10.5818 54.666 11.3792L54.6664 11.3805C54.7191 11.5501 54.7594 11.7279 54.791 11.9104L65.4253 11.0232ZM65.4253 11.0232L64.1598 13.3158V13.3192L64.1343 13.3648L64.06 13.4972L64.0594 13.4984L57.4399 25.4867L57.1627 25.9886L57.0676 25.4232L55.6134 16.7859L55.6134 16.7857L55.2158 14.434L55.2157 14.4338L55.0075 13.1926L55.0074 13.1924L54.7911 11.9111L65.4253 11.0232ZM59.5007 32.6462C59.5 32.6469 59.5002 32.6466 59.5012 32.6457L59.5007 32.6462Z" fill="white" stroke="white" stroke-width="0.4"/>
<mask id="path-8-inside-1_1235_8009" fill="white">
<path d="M97.5363 30.5151C97.5308 30.5342 97.4941 30.6269 97.4614 30.7154L97.2217 31.1501C97.2081 31.1773 97.1918 31.2032 97.1768 31.2278C97.1496 31.27 97.1237 31.3136 97.0992 31.3586C97.091 31.3722 97.0829 31.3858 97.0747 31.3981C96.7302 31.9458 96.2904 32.4159 95.7812 32.7893C95.7812 32.7893 95.7784 32.792 95.773 32.7947C94.922 33.4175 93.8844 33.7663 92.7924 33.7663H92.6617C90.2258 33.7663 88.1344 32.0222 87.6877 29.6253L85.5241 17.9302L85.5051 17.8239L85.4465 17.9274V17.9302L78.2926 30.8966L78.151 31.1528C77.8038 31.781 77.3341 32.311 76.7853 32.7307C76.7104 32.7893 76.6328 32.8452 76.5539 32.8983C76.4762 32.9514 76.3959 33.0019 76.3169 33.0509C75.9616 33.2648 75.5776 33.4297 75.1827 33.5496C74.7157 33.6913 74.2241 33.7663 73.7231 33.7663C72.9578 33.7663 72.2267 33.596 71.5704 33.2826H71.5676C71.4369 33.2185 71.3089 33.1517 71.1837 33.0795C71.0584 33.0046 70.9386 32.9269 70.8188 32.8452C70.7017 32.762 70.5873 32.6748 70.477 32.5808C70.4212 32.5331 70.3653 32.4841 70.3122 32.4391C69.9923 32.1448 69.709 31.811 69.4748 31.4458C69.1998 31.0166 68.9833 30.541 68.8458 30.03C68.8063 29.8829 68.7709 29.7357 68.745 29.5845L68.278 26.9356V26.9329L67.1016 20.2575V20.2548L68.4918 17.734L69.9405 15.1041C69.9405 15.1041 69.9405 15.1014 69.9432 15.0987L71.264 12.706C71.5282 12.225 71.6507 11.7208 71.6507 11.2262C71.6507 10.6035 71.456 10.0012 71.1142 9.49841C70.605 8.74762 69.7662 8.2162 68.7505 8.16579C68.8036 8.16034 68.854 8.16034 68.9084 8.16034C69.7199 8.16034 70.4688 8.45466 71.0516 8.94792C71.102 8.99016 71.1524 9.03649 71.2014 9.08418C71.2204 9.10326 71.2409 9.12097 71.2599 9.14277C71.5295 9.41529 71.7515 9.73278 71.9135 10.0857C71.9353 10.1307 71.9557 10.177 71.972 10.2219C72.0251 10.3582 72.0728 10.4972 72.1109 10.6416C72.1354 10.7411 72.1559 10.8365 72.1722 10.9387C72.8094 14.8534 73.2479 18.7995 74.0825 22.6734C74.0853 22.6843 74.088 22.6979 74.0907 22.7074L74.5251 25.3877L74.5591 25.3236L81.1411 13.5222L81.152 13.5004L81.2555 13.3191L82.0316 11.9252L82.8581 10.4427C82.8772 10.4086 82.8976 10.3732 82.9194 10.3391C82.9221 10.331 82.9276 10.3255 82.933 10.3173C82.9548 10.2778 82.9779 10.2369 83.0024 10.1974C83.0161 10.1811 83.027 10.1674 83.0351 10.1525C83.0773 10.0857 83.1236 10.0244 83.1713 9.96033C83.1767 9.94943 83.1849 9.93853 83.1958 9.92763C83.2353 9.87449 83.2789 9.81862 83.3238 9.76684C83.3401 9.74231 83.3606 9.71915 83.3823 9.6919C83.4354 9.63603 83.4885 9.57744 83.543 9.51885C83.5757 9.48615 83.6043 9.45481 83.6397 9.4221C83.6724 9.39213 83.7009 9.36079 83.7364 9.33081C83.7663 9.30083 83.7949 9.27494 83.8276 9.25042C83.8698 9.2109 83.9161 9.17275 83.9637 9.13596C83.9883 9.11688 84.0114 9.09917 84.0386 9.08009C84.0808 9.04603 84.1244 9.01332 84.1693 8.98062C84.1802 8.97245 84.1939 8.96155 84.2061 8.95337C84.2388 8.93157 84.2701 8.91113 84.3028 8.89205C84.3327 8.87025 84.3641 8.85254 84.394 8.83074C84.424 8.80893 84.4553 8.79122 84.488 8.77487C84.5329 8.74762 84.5765 8.72445 84.6214 8.69993C84.6827 8.66586 84.7439 8.63316 84.8079 8.60318C84.861 8.57593 84.9141 8.55277 84.9713 8.52824C85.004 8.51461 85.0353 8.49826 85.0707 8.486C85.0844 8.47782 85.098 8.47237 85.1102 8.46965C85.1238 8.46147 85.1402 8.45602 85.1524 8.4533C85.1688 8.44785 85.1851 8.43967 85.2001 8.43422C85.2368 8.42059 85.2695 8.40697 85.3063 8.39743C85.3621 8.37835 85.4179 8.36064 85.4738 8.34429C85.535 8.32249 85.599 8.3075 85.663 8.29115C85.7052 8.28025 85.7488 8.27207 85.7938 8.26117C85.8523 8.24482 85.9108 8.23392 85.9694 8.22711C86.0279 8.2162 86.0865 8.2053 86.145 8.19713C86.1791 8.1944 86.2118 8.18895 86.2444 8.18623C86.3479 8.1726 86.4528 8.16715 86.559 8.1617C86.6202 8.15898 86.6815 8.15625 86.7428 8.15625C87.2629 8.15625 87.7626 8.24754 88.2269 8.41242C88.7389 8.59092 89.2087 8.86616 89.6171 9.2109C90.2571 9.75322 90.7459 10.4768 90.9992 11.312C91.055 11.4905 91.0986 11.6772 91.1299 11.868L91.3464 13.1502L91.5547 14.3915L91.9496 16.7433L93.0838 23.4637C93.0838 23.4719 93.0838 23.48 93.0865 23.4882C93.2227 24.4761 93.3452 25.4694 93.5617 26.4437C93.8899 27.9262 94.3937 30.1104 96.0998 30.5424C96.5723 30.6623 97.076 30.6364 97.5431 30.5083L97.5363 30.5151Z"/>
</mask>
<path d="M97.5363 30.5151C97.5308 30.5342 97.4941 30.6269 97.4614 30.7154L97.2217 31.1501C97.2081 31.1773 97.1918 31.2032 97.1768 31.2278C97.1496 31.27 97.1237 31.3136 97.0992 31.3586C97.091 31.3722 97.0829 31.3858 97.0747 31.3981C96.7302 31.9458 96.2904 32.4159 95.7812 32.7893C95.7812 32.7893 95.7784 32.792 95.773 32.7947C94.922 33.4175 93.8844 33.7663 92.7924 33.7663H92.6617C90.2258 33.7663 88.1344 32.0222 87.6877 29.6253L85.5241 17.9302L85.5051 17.8239L85.4465 17.9274V17.9302L78.2926 30.8966L78.151 31.1528C77.8038 31.781 77.3341 32.311 76.7853 32.7307C76.7104 32.7893 76.6328 32.8452 76.5539 32.8983C76.4762 32.9514 76.3959 33.0019 76.3169 33.0509C75.9616 33.2648 75.5776 33.4297 75.1827 33.5496C74.7157 33.6913 74.2241 33.7663 73.7231 33.7663C72.9578 33.7663 72.2267 33.596 71.5704 33.2826H71.5676C71.4369 33.2185 71.3089 33.1517 71.1837 33.0795C71.0584 33.0046 70.9386 32.9269 70.8188 32.8452C70.7017 32.762 70.5873 32.6748 70.477 32.5808C70.4212 32.5331 70.3653 32.4841 70.3122 32.4391C69.9923 32.1448 69.709 31.811 69.4748 31.4458C69.1998 31.0166 68.9833 30.541 68.8458 30.03C68.8063 29.8829 68.7709 29.7357 68.745 29.5845L68.278 26.9356V26.9329L67.1016 20.2575V20.2548L68.4918 17.734L69.9405 15.1041C69.9405 15.1041 69.9405 15.1014 69.9432 15.0987L71.264 12.706C71.5282 12.225 71.6507 11.7208 71.6507 11.2262C71.6507 10.6035 71.456 10.0012 71.1142 9.49841C70.605 8.74762 69.7662 8.2162 68.7505 8.16579C68.8036 8.16034 68.854 8.16034 68.9084 8.16034C69.7199 8.16034 70.4688 8.45466 71.0516 8.94792C71.102 8.99016 71.1524 9.03649 71.2014 9.08418C71.2204 9.10326 71.2409 9.12097 71.2599 9.14277C71.5295 9.41529 71.7515 9.73278 71.9135 10.0857C71.9353 10.1307 71.9557 10.177 71.972 10.2219C72.0251 10.3582 72.0728 10.4972 72.1109 10.6416C72.1354 10.7411 72.1559 10.8365 72.1722 10.9387C72.8094 14.8534 73.2479 18.7995 74.0825 22.6734C74.0853 22.6843 74.088 22.6979 74.0907 22.7074L74.5251 25.3877L74.5591 25.3236L81.1411 13.5222L81.152 13.5004L81.2555 13.3191L82.0316 11.9252L82.8581 10.4427C82.8772 10.4086 82.8976 10.3732 82.9194 10.3391C82.9221 10.331 82.9276 10.3255 82.933 10.3173C82.9548 10.2778 82.9779 10.2369 83.0024 10.1974C83.0161 10.1811 83.027 10.1674 83.0351 10.1525C83.0773 10.0857 83.1236 10.0244 83.1713 9.96033C83.1767 9.94943 83.1849 9.93853 83.1958 9.92763C83.2353 9.87449 83.2789 9.81862 83.3238 9.76684C83.3401 9.74231 83.3606 9.71915 83.3823 9.6919C83.4354 9.63603 83.4885 9.57744 83.543 9.51885C83.5757 9.48615 83.6043 9.45481 83.6397 9.4221C83.6724 9.39213 83.7009 9.36079 83.7364 9.33081C83.7663 9.30083 83.7949 9.27494 83.8276 9.25042C83.8698 9.2109 83.9161 9.17275 83.9637 9.13596C83.9883 9.11688 84.0114 9.09917 84.0386 9.08009C84.0808 9.04603 84.1244 9.01332 84.1693 8.98062C84.1802 8.97245 84.1939 8.96155 84.2061 8.95337C84.2388 8.93157 84.2701 8.91113 84.3028 8.89205C84.3327 8.87025 84.3641 8.85254 84.394 8.83074C84.424 8.80893 84.4553 8.79122 84.488 8.77487C84.5329 8.74762 84.5765 8.72445 84.6214 8.69993C84.6827 8.66586 84.7439 8.63316 84.8079 8.60318C84.861 8.57593 84.9141 8.55277 84.9713 8.52824C85.004 8.51461 85.0353 8.49826 85.0707 8.486C85.0844 8.47782 85.098 8.47237 85.1102 8.46965C85.1238 8.46147 85.1402 8.45602 85.1524 8.4533C85.1688 8.44785 85.1851 8.43967 85.2001 8.43422C85.2368 8.42059 85.2695 8.40697 85.3063 8.39743C85.3621 8.37835 85.4179 8.36064 85.4738 8.34429C85.535 8.32249 85.599 8.3075 85.663 8.29115C85.7052 8.28025 85.7488 8.27207 85.7938 8.26117C85.8523 8.24482 85.9108 8.23392 85.9694 8.22711C86.0279 8.2162 86.0865 8.2053 86.145 8.19713C86.1791 8.1944 86.2118 8.18895 86.2444 8.18623C86.3479 8.1726 86.4528 8.16715 86.559 8.1617C86.6202 8.15898 86.6815 8.15625 86.7428 8.15625C87.2629 8.15625 87.7626 8.24754 88.2269 8.41242C88.7389 8.59092 89.2087 8.86616 89.6171 9.2109C90.2571 9.75322 90.7459 10.4768 90.9992 11.312C91.055 11.4905 91.0986 11.6772 91.1299 11.868L91.3464 13.1502L91.5547 14.3915L91.9496 16.7433L93.0838 23.4637C93.0838 23.4719 93.0838 23.48 93.0865 23.4882C93.2227 24.4761 93.3452 25.4694 93.5617 26.4437C93.8899 27.9262 94.3937 30.1104 96.0998 30.5424C96.5723 30.6623 97.076 30.6364 97.5431 30.5083L97.5363 30.5151Z" fill="white" stroke="white" stroke-width="0.8" mask="url(#path-8-inside-1_1235_8009)"/>
<path d="M41.6987 31.2679C41.1651 31.316 40.6624 31.1504 40.2327 30.8685C39.679 30.5052 39.2361 29.9437 38.9754 29.3667L38.9754 29.3666C38.5171 28.3512 38.3 27.2133 38.1536 26.0761C38.0935 25.6097 38.0457 25.1484 37.9987 24.6943C37.9295 24.0263 37.8619 23.3741 37.7593 22.7447C37.4394 20.7825 37.1197 18.8207 36.8001 16.8589C36.4805 14.8971 36.1608 12.9354 35.8408 10.9732L35.8408 10.973C35.7193 10.2215 35.3344 9.56877 34.7866 9.10259C34.2418 8.63926 33.5358 8.36406 32.7745 8.36406C30.8431 8.36406 29.3807 10.11 29.7172 12.014L29.7172 12.0141L32.3423 26.9017L32.3424 26.9018L32.8107 29.5504L41.6987 31.2679ZM41.6987 31.2679C41.3113 31.8525 40.8472 32.3802 40.2779 32.7586C39.4886 33.283 38.5427 33.5659 37.5959 33.5659C36.4175 33.5659 35.3245 33.1446 34.4746 32.4288L34.4743 32.4286C33.6243 31.7153 33.0175 30.7104 32.8107 29.5506L41.6987 31.2679Z" fill="white" stroke="white" stroke-width="0.4"/>
<path d="M61.074 30.794C61.034 30.8648 60.9896 30.9346 60.9419 31.0096L60.9404 31.0119C60.89 31.0911 60.8358 31.1762 60.7865 31.2655C60.2967 32.1514 59.3076 32.9388 58.3694 33.3482C57.4066 33.7682 56.3122 33.8904 55.2922 33.6528C53.4391 33.2213 51.9331 31.6379 51.5999 29.7657L51.1316 27.117L51.1315 27.1169C51.0839 26.848 51.0366 26.579 50.9893 26.3098L50.9893 26.3098C50.942 26.0407 50.8946 25.7715 50.847 25.5023C50.6441 24.3536 50.4412 23.2051 50.2397 22.0566L50.2397 22.0563C50.1458 21.525 50.0522 20.9933 49.9586 20.4615L49.9584 20.4609C49.8649 19.9294 49.7713 19.3978 49.6774 18.8666C49.6281 18.587 49.5844 18.3021 49.5403 18.0146C49.4075 17.1488 49.271 16.259 48.9688 15.4164C48.7055 14.6813 48.2731 13.8512 47.5961 13.3525L47.596 13.3525C46.9246 12.8586 46.1755 12.8842 45.4866 13.1046C45.7115 12.7238 45.9137 12.3293 46.1128 11.9411C46.2268 11.7187 46.3397 11.4984 46.4552 11.284C46.8754 10.5067 47.3539 9.77061 48.0195 9.24479L48.0195 9.24476C49.7191 7.90151 52.4598 8.10971 53.9285 9.67699C54.2825 10.055 54.5027 10.5731 54.6561 11.1452C54.7782 11.6008 54.854 12.0735 54.9259 12.5214C54.9445 12.637 54.9627 12.751 54.9815 12.8626C55.1325 13.7638 55.2842 14.6647 55.4358 15.5656C55.8274 17.8909 56.2188 20.2157 56.5976 22.5429C56.672 23 56.7357 23.4651 56.7999 23.9331C56.9173 24.7887 57.036 25.6541 57.2233 26.4988C57.2233 26.4988 57.2233 26.4988 57.2233 26.4988L57.4186 26.4555L61.074 30.794Z" fill="white" stroke="white" stroke-width="0.4"/>
<path d="M65.7812 9.95993C65.8439 9.83184 65.9106 9.71057 65.9855 9.60156C65.9569 9.64925 65.9269 9.69558 65.8997 9.74463L65.7812 9.95993Z" fill="white"/>
<path d="M66.6362 8.86719C66.5246 8.96121 66.4183 9.06204 66.3203 9.16968C66.4211 9.05523 66.5286 8.95439 66.6362 8.86719Z" fill="white"/>
<path d="M66.6328 8.86599C66.8098 8.71747 66.9909 8.60165 67.1679 8.51172C66.9773 8.60983 66.7989 8.72973 66.6328 8.86599Z" fill="white"/>
<path d="M68.6639 8.16583C68.6367 8.1631 68.6108 8.1631 68.5809 8.1631C68.4692 8.1631 68.3589 8.16992 68.25 8.18082C68.5005 8.14948 68.6626 8.1631 68.6626 8.1631L68.6653 8.16583H68.6639Z" fill="white"/>
<path d="M96.9007 31.2977L96.9047 31.2917C96.9094 31.2847 96.9145 31.2763 96.9221 31.2637C96.9482 31.216 96.9757 31.1696 97.0047 31.1246C97.0235 31.0949 97.0419 31.0661 97.06 31.0377C97.1135 30.954 97.1642 30.8747 97.2116 30.7922C96.8248 30.8529 96.4226 30.8456 96.0363 30.7476C95.1016 30.5109 94.5121 29.7962 94.1196 28.9854C93.7276 28.1758 93.5155 27.2365 93.352 26.4982C93.1616 25.6413 93.0432 24.7698 92.9263 23.9097C92.9094 23.7852 92.8925 23.6609 92.8754 23.537C92.8715 23.5186 92.8701 23.5022 92.8696 23.4909C92.8643 23.4551 92.859 23.4194 92.8538 23.3838C92.8122 23.1013 92.7712 22.8228 92.725 22.5443L92.7249 22.5437C92.3632 20.3189 91.9898 18.0989 91.6163 15.878C91.4473 14.8731 91.2783 13.8681 91.1103 12.8623C91.0913 12.7501 91.0728 12.6356 91.054 12.5194C90.9817 12.0716 90.9054 11.5993 90.7833 11.1442C90.6297 10.5723 90.4099 10.0544 90.0572 9.67639C89.0948 8.64852 87.5782 8.19917 86.1607 8.405L86.1597 8.40516C86.1064 8.4126 86.0523 8.42263 85.993 8.43367L85.9795 8.43617L85.9795 8.43571C85.9301 8.44146 85.8819 8.45051 85.8345 8.46375L85.8279 8.46559L85.8279 8.46548C85.8055 8.47091 85.7834 8.47573 85.7642 8.47993C85.7618 8.48046 85.7594 8.48097 85.7571 8.48148C85.7353 8.48625 85.7171 8.49032 85.7 8.49474L85.6995 8.49487C85.6884 8.49771 85.6777 8.50041 85.6674 8.50301C85.6133 8.5167 85.5699 8.52765 85.5278 8.54266L85.517 8.54648L85.5169 8.54617C85.464 8.56168 85.411 8.5785 85.3579 8.59663L85.3508 8.59907L85.3435 8.60097C85.326 8.6055 85.3122 8.61072 85.2879 8.61994C85.279 8.62328 85.2688 8.62715 85.2565 8.6317L85.2555 8.6321C85.2555 8.6321 85.2555 8.63211 85.2554 8.63211C85.2553 8.63217 85.2544 8.63251 85.2523 8.63337L85.2421 8.63772L85.2421 8.63772C85.2341 8.64113 85.2193 8.64743 85.2027 8.65297L85.1929 8.65623L85.1907 8.65671L85.1723 8.66778L85.1528 8.6721L85.1428 8.67812L85.1232 8.68493C85.1069 8.69054 85.099 8.69429 85.0866 8.70008C85.076 8.70505 85.0621 8.71154 85.0371 8.72203C85.0294 8.72542 85.0212 8.72925 85.0105 8.73424L85.0097 8.73465C84.9993 8.7395 84.9864 8.74555 84.9731 8.75137L84.8929 8.56819L84.9739 8.75103C84.8949 8.78601 84.8181 8.8232 84.7432 8.86385L84.7374 8.86703L84.7373 8.86693L84.7213 8.87524C84.7159 8.8781 84.7089 8.88178 84.7013 8.88565C84.6946 8.88928 84.6882 8.89279 84.6818 8.89622C84.6443 8.91663 84.6121 8.93415 84.5786 8.95446L84.5717 8.95868L84.5644 8.96231C84.5375 8.97575 84.5167 8.98792 84.4987 9.00103L84.49 9.00735L84.4806 9.01271C84.4331 9.04001 84.3874 9.07164 84.3339 9.10867C84.3255 9.11452 84.3168 9.1205 84.3079 9.12662L84.3054 9.12835L84.3054 9.12833C84.3044 9.12903 84.3017 9.13092 84.2963 9.13501L84.288 9.14137L84.2777 9.14916L84.2754 9.15093L84.2754 9.15091C84.2319 9.18257 84.1912 9.21313 84.1526 9.24431L84.1505 9.24596L84.1505 9.24595C83.7363 9.57137 83.3951 9.97998 83.094 10.4322L83.0931 10.4348L83.0784 10.457C82.9017 10.7229 82.7401 11.002 82.5865 11.2852L82.4108 11.1898L82.5866 11.285C82.4856 11.4716 82.3896 11.6586 82.2924 11.8479C82.2624 11.9062 82.2324 11.9648 82.202 12.0237C82.2019 12.0238 82.2018 12.024 82.2017 12.0241L82.024 11.9324C81.8022 12.3676 81.5781 12.8006 81.3204 13.2124L96.9007 31.2977ZM96.9007 31.2977L96.8971 31.304C96.4033 32.1761 95.4272 32.9463 94.5047 33.3504C93.5405 33.7691 92.4475 33.8912 91.4277 33.6537L91.4276 33.6536C89.5733 33.2234 88.0673 31.6388 87.7341 29.7652L87.2644 27.1165L87.2644 27.1164L87.2643 27.1161L87.2641 27.1149L87.2632 27.11L87.2598 27.0907L87.2466 27.0154L87.1961 26.7291L87.0157 25.7059L86.466 22.5868C86.0774 20.3818 85.6845 18.1526 85.643 17.9159V17.913L85.64 17.8957C85.6158 17.7593 85.5925 17.6228 85.5693 17.4862C85.4129 16.568 85.2564 15.6496 84.8221 14.7619C84.6334 14.3759 84.4035 13.9948 84.0951 13.673L84.0944 13.6724C83.7412 13.3072 83.278 13.0205 82.7418 12.9666C82.3562 12.9253 81.9758 12.9898 81.6207 13.1034L96.9007 31.2977Z" fill="white" stroke="white" stroke-width="0.4"/>
<path d="M101.922 9.95993C101.985 9.83184 102.051 9.71057 102.126 9.60156C102.098 9.64925 102.068 9.69558 102.04 9.74463L101.922 9.95993Z" fill="white"/>
<path d="M102.769 8.86719C102.657 8.96121 102.551 9.06204 102.453 9.16968C102.554 9.05523 102.661 8.95439 102.769 8.86719Z" fill="white"/>
<path d="M102.766 8.86599C102.943 8.71747 103.124 8.60165 103.301 8.51172C103.11 8.60983 102.932 8.72973 102.766 8.86599Z" fill="white"/>
<path d="M104.797 8.16583C104.77 8.1631 104.744 8.1631 104.714 8.1631C104.602 8.1631 104.492 8.16992 104.383 8.18082C104.633 8.14948 104.795 8.1631 104.795 8.1631L104.798 8.16583H104.797Z" fill="white"/>
<path d="M75.4396 29.1619C75.8945 30.0864 76.7599 31.0068 77.8738 31.1524C77.5137 31.6901 77.1396 32.1798 76.6512 32.5683C76.5821 32.6223 76.5066 32.6749 76.4292 32.727L76.4131 32.7378L76.405 32.746L76.4035 32.747L76.3991 32.7499L76.3956 32.7522C76.378 32.7633 76.3609 32.7742 76.3442 32.7849C76.295 32.8163 76.2489 32.8457 76.202 32.8735L76.2004 32.8744C75.8587 33.0811 75.4879 33.2396 75.104 33.3582C74.6464 33.4919 74.1728 33.5636 73.6965 33.5636C72.9553 33.5636 72.2453 33.3999 71.6133 33.0993L71.5725 33.0799H71.5713C71.4568 33.0232 71.346 32.9656 71.2407 32.9025C71.1188 32.8297 71.0002 32.7545 70.8846 32.6756C70.7718 32.5955 70.6629 32.5123 70.5559 32.4208L70.5558 32.4207C70.5337 32.4018 70.5095 32.3809 70.485 32.3597C70.4541 32.333 70.4226 32.3057 70.3941 32.2816C70.0866 31.9943 69.8154 31.6768 69.5862 31.3237C69.3194 30.9086 69.1116 30.4495 68.9797 29.9554L68.9797 29.9551C68.941 29.8111 68.9074 29.6707 68.883 29.5255L68.8827 29.5238L68.4132 26.8758V26.8732L68.4102 26.856L67.2314 20.1583V20.1555L67.2283 20.1383L66.3324 15.0708L66.3324 15.0708L66.3318 15.0678C66.1074 13.9011 65.5204 13.3806 64.959 13.1703C64.7181 13.08 64.4898 13.0498 64.3105 13.044L65.8884 10.1851L65.8886 10.1847L66.0776 9.8406C66.2131 9.59765 66.3771 9.38056 66.5677 9.19482L66.568 9.19509L66.5762 9.18604C66.5904 9.17044 66.6007 9.16052 66.6148 9.147C66.6241 9.13801 66.6351 9.12743 66.65 9.11254L66.5085 8.97117L66.6496 9.11288C67.1663 8.5984 67.8606 8.26323 68.6448 8.21508L68.6505 8.21792L68.7079 8.21232C68.7526 8.20795 68.7936 8.20781 68.8491 8.20781C69.617 8.20781 70.3231 8.4842 70.875 8.95325L70.875 8.95326C70.9431 9.01106 71.0074 9.07048 71.0686 9.13421L71.0686 9.13424L71.0714 9.13707C71.3273 9.39314 71.5367 9.69097 71.6899 10.027L71.6899 10.0271L71.6919 10.0313C71.7118 10.0722 71.7292 10.112 71.7425 10.1486L71.7424 10.1487L71.7448 10.1549C71.7967 10.284 71.8391 10.4171 71.8756 10.5523C71.8989 10.6484 71.918 10.7393 71.9332 10.8331L71.9332 10.8334C72.5756 14.7694 74.1765 24.4133 74.3382 25.3108C74.5686 26.6314 74.8542 27.9721 75.4396 29.1619L75.619 29.0736L75.4396 29.1619Z" fill="white" stroke="white" stroke-width="0.4"/>
<path d="M121.079 5.86719L120.161 10.4837L110.078 12.5753L111.086 7.783L121.079 5.86719Z" fill="white"/>
</svg>
