<svg width="137" height="252" viewBox="0 0 137 252" fill="none" xmlns="http://www.w3.org/2000/svg">
<path d="M6 249.512C3.5 249.512 1.5 247.512 1.5 245.012C1.5 242.512 3.5 240.512 6 240.512C8.5 240.512 10.5 242.512 10.5 245.012C10.5 247.512 8.5 249.512 6 249.512Z" fill="white"/>
<path d="M10.5 245.012C10.5 247.512 8.5 249.512 6 249.512C3.5 249.512 1.5 247.512 1.5 245.012C1.5 242.512 3.5 240.512 6 240.512C8.5 240.512 10.5 242.512 10.5 245.012ZM10.5 245.012H76.2097C87.2554 245.012 96.2097 236.057 96.2097 225.012V32.0116C96.2097 20.9659 105.164 12.0116 116.21 12.0116H120H143.25H166.5H189" stroke="#4D4D4D" stroke-width="3"/>
<rect x="76" y="165.012" width="45" height="31" rx="1.5" fill="white"/>
<rect x="76" y="165.012" width="45" height="31" rx="1.5" stroke="#4D4D4D" stroke-width="3"/>
<path d="M84.3693 175.827V174.421H94.1875V175.827H90.071V187.512H88.4858V175.827H84.3693ZM97.9828 187.742C97.3606 187.742 96.796 187.625 96.2889 187.39C95.7818 187.152 95.3791 186.809 95.0808 186.361C94.7825 185.909 94.6333 185.364 94.6333 184.725C94.6333 184.162 94.7441 183.706 94.9657 183.357C95.1873 183.003 95.4835 182.726 95.8542 182.526C96.225 182.326 96.6341 182.176 97.0815 182.078C97.5332 181.976 97.987 181.895 98.443 181.836C99.0396 181.759 99.5233 181.701 99.894 181.663C100.269 181.62 100.542 181.55 100.712 181.452C100.887 181.354 100.974 181.184 100.974 180.941V180.89C100.974 180.259 100.802 179.769 100.456 179.419C100.116 179.07 99.5978 178.895 98.9032 178.895C98.1831 178.895 97.6184 179.053 97.2093 179.368C96.8002 179.684 96.5126 180.02 96.3464 180.378L94.9146 179.867C95.1703 179.27 95.5112 178.806 95.9373 178.473C96.3677 178.137 96.8365 177.902 97.3436 177.77C97.8549 177.634 98.3578 177.566 98.8521 177.566C99.1674 177.566 99.5297 177.604 99.9387 177.681C100.352 177.753 100.751 177.904 101.134 178.135C101.522 178.365 101.844 178.712 102.099 179.176C102.355 179.641 102.483 180.263 102.483 181.043V187.512H100.974V186.182H100.898C100.795 186.395 100.625 186.623 100.386 186.866C100.148 187.109 99.8301 187.316 99.4338 187.486C99.0375 187.657 98.5538 187.742 97.9828 187.742ZM98.2129 186.387C98.8095 186.387 99.3123 186.27 99.7214 186.035C100.135 185.801 100.446 185.498 100.655 185.127C100.868 184.757 100.974 184.367 100.974 183.958V182.577C100.91 182.654 100.77 182.724 100.552 182.788C100.339 182.848 100.092 182.901 99.8109 182.948C99.5339 182.99 99.2633 183.029 98.9991 183.063C98.7392 183.093 98.5282 183.118 98.3663 183.14C97.9743 183.191 97.6078 183.274 97.2669 183.389C96.9302 183.5 96.6575 183.668 96.4487 183.894C96.2441 184.115 96.1419 184.418 96.1419 184.801C96.1419 185.326 96.3358 185.722 96.7235 185.99C97.1156 186.255 97.612 186.387 98.2129 186.387ZM105.236 191.194V177.694H106.694V179.253H106.873C106.983 179.083 107.137 178.865 107.333 178.601C107.533 178.333 107.819 178.094 108.189 177.885C108.564 177.672 109.071 177.566 109.711 177.566C110.537 177.566 111.266 177.772 111.897 178.186C112.527 178.599 113.02 179.185 113.373 179.944C113.727 180.702 113.904 181.597 113.904 182.628C113.904 183.668 113.727 184.569 113.373 185.332C113.02 186.091 112.529 186.679 111.903 187.096C111.277 187.51 110.554 187.716 109.736 187.716C109.105 187.716 108.6 187.612 108.221 187.403C107.842 187.19 107.55 186.949 107.346 186.681C107.141 186.408 106.983 186.182 106.873 186.003H106.745V191.194H105.236ZM106.719 182.603C106.719 183.344 106.828 183.998 107.045 184.565C107.262 185.127 107.58 185.569 107.998 185.888C108.415 186.203 108.926 186.361 109.532 186.361C110.162 186.361 110.689 186.195 111.11 185.863C111.537 185.526 111.856 185.074 112.069 184.507C112.287 183.936 112.395 183.301 112.395 182.603C112.395 181.912 112.289 181.29 112.076 180.736C111.867 180.178 111.549 179.737 111.123 179.413C110.701 179.085 110.171 178.921 109.532 178.921C108.918 178.921 108.402 179.076 107.985 179.387C107.567 179.694 107.252 180.125 107.039 180.679C106.826 181.228 106.719 181.87 106.719 182.603Z" fill="black"/>
</svg>
