<svg width="188" height="172" viewBox="0 0 188 172" fill="none" xmlns="http://www.w3.org/2000/svg">
<path d="M6 169.512C3.5 169.512 1.5 167.512 1.5 165.012C1.5 162.512 3.5 160.512 6 160.512C8.5 160.512 10.5 162.512 10.5 165.012C10.5 167.512 8.5 169.512 6 169.512Z" fill="white"/>
<path d="M10.5 165.012C10.5 167.512 8.5 169.512 6 169.512C3.5 169.512 1.5 167.512 1.5 165.012C1.5 162.512 3.5 160.512 6 160.512C8.5 160.512 10.5 162.512 10.5 165.012ZM10.5 165.012H74.2097C85.2554 165.012 94.2097 156.057 94.2097 145.012V32.0116C94.2097 20.9659 103.164 12.0116 114.21 12.0116H118H141.25H164.5H186" stroke="#4D4D4D" stroke-width="3"/>
<rect x="35" y="75.0117" width="129" height="31" rx="1.5" fill="white"/>
<rect x="35" y="75.0117" width="129" height="31" rx="1.5" stroke="#4D4D4D" stroke-width="3"/>
<path d="M43.3693 85.8271V84.4208H53.1875V85.8271H49.071V97.5117H47.4858V85.8271H43.3693ZM55.2761 101.194C55.0204 101.194 54.7924 101.172 54.5922 101.13C54.3919 101.091 54.2534 101.053 54.1767 101.015L54.5602 99.685C54.9267 99.7788 55.2505 99.8129 55.5318 99.7873C55.813 99.7617 56.0623 99.636 56.2797 99.4102C56.5012 99.1886 56.7037 98.8285 56.8869 98.3299L57.1681 97.5629L53.5375 87.6935H55.1738L57.8841 95.5174H57.9863L60.6966 87.6935H62.3329L58.1653 98.9435C57.9778 99.4506 57.7456 99.8704 57.4686 100.203C57.1916 100.539 56.8699 100.789 56.5034 100.951C56.1412 101.113 55.7321 101.194 55.2761 101.194ZM64.324 101.194V87.6935H65.7814V89.2532H65.9604C66.0712 89.0827 66.2246 88.8654 66.4206 88.6012C66.6209 88.3327 66.9064 88.0941 67.2772 87.8853C67.6522 87.6722 68.1593 87.5657 68.7985 87.5657C69.6252 87.5657 70.3539 87.7724 70.9846 88.1857C71.6152 88.5991 72.1074 89.185 72.4611 89.9435C72.8148 90.7021 72.9917 91.5969 72.9917 92.6282C72.9917 93.668 72.8148 94.5692 72.4611 95.332C72.1074 96.0906 71.6174 96.6786 70.9909 97.0962C70.3645 97.5096 69.6422 97.7163 68.824 97.7163C68.1934 97.7163 67.6884 97.6119 67.3091 97.4031C66.9299 97.19 66.638 96.9492 66.4334 96.6808C66.2289 96.408 66.0712 96.1822 65.9604 96.0032H65.8326V101.194H64.324ZM65.807 92.6026C65.807 93.3441 65.9157 93.9982 66.133 94.565C66.3503 95.1275 66.6678 95.5685 67.0854 95.8881C67.503 96.2035 68.0144 96.3612 68.6195 96.3612C69.2502 96.3612 69.7765 96.195 70.1983 95.8626C70.6245 95.5259 70.9441 95.0742 71.1571 94.5075C71.3745 93.9364 71.4831 93.3015 71.4831 92.6026C71.4831 91.9123 71.3766 91.2901 71.1635 90.7362C70.9547 90.1779 70.6373 89.7369 70.2111 89.413C69.7892 89.0849 69.2587 88.9208 68.6195 88.9208C68.0059 88.9208 67.4902 89.0763 67.0726 89.3874C66.655 89.6942 66.3397 90.1246 66.1266 90.6786C65.9135 91.2283 65.807 91.8697 65.807 92.6026ZM79.4093 97.7163C78.4632 97.7163 77.6472 97.5075 76.9611 97.0898C76.2793 96.668 75.753 96.0799 75.3823 95.3256C75.0158 94.5671 74.8326 93.685 74.8326 92.6793C74.8326 91.6737 75.0158 90.7873 75.3823 90.0202C75.753 89.2489 76.2686 88.6481 76.9292 88.2177C77.5939 87.783 78.3695 87.5657 79.2559 87.5657C79.7672 87.5657 80.2722 87.6509 80.7708 87.8214C81.2694 87.9918 81.7232 88.2688 82.1323 88.6523C82.5414 89.0316 82.8674 89.5344 83.1103 90.1609C83.3532 90.7873 83.4746 91.5586 83.4746 92.4748V93.114H75.9064V91.81H81.9405C81.9405 91.256 81.8297 90.7617 81.6081 90.3271C81.3908 89.8924 81.0797 89.5494 80.6749 89.2979C80.2743 89.0465 79.8013 88.9208 79.2559 88.9208C78.655 88.9208 78.1351 89.07 77.6962 89.3683C77.2615 89.6623 76.927 90.0458 76.6926 90.5188C76.4583 90.9918 76.3411 91.4989 76.3411 92.0401V92.9094C76.3411 93.6509 76.4689 94.2795 76.7246 94.7951C76.9846 95.3065 77.3446 95.6964 77.8049 95.9648C78.2651 96.229 78.7999 96.3612 79.4093 96.3612C79.8056 96.3612 80.1635 96.3058 80.4831 96.195C80.807 96.0799 81.0861 95.9094 81.3205 95.6836C81.5549 95.4535 81.736 95.168 81.8638 94.8271L83.3212 95.2362C83.1678 95.7305 82.91 96.1651 82.5478 96.5401C82.1855 96.9109 81.7381 97.2006 81.2054 97.4094C80.6728 97.614 80.074 97.7163 79.4093 97.7163ZM91.5733 97.5117H89.9114L94.7182 84.4208H96.3546L101.161 97.5117H99.4995L95.5875 86.4918H95.4853L91.5733 97.5117ZM92.187 92.3981H98.8858V93.8043H92.187V92.3981ZM102.996 97.5117V87.6935H104.453V89.2276H104.581C104.786 88.7035 105.116 88.2965 105.572 88.0067C106.028 87.7127 106.575 87.5657 107.215 87.5657C107.862 87.5657 108.401 87.7127 108.832 88.0067C109.267 88.2965 109.605 88.7035 109.848 89.2276H109.95C110.202 88.7205 110.579 88.3178 111.082 88.0195C111.585 87.717 112.188 87.5657 112.891 87.5657C113.769 87.5657 114.487 87.8406 115.045 88.3903C115.603 88.9357 115.882 89.7859 115.882 90.9407V97.5117H114.374V90.9407C114.374 90.2163 114.176 89.6985 113.779 89.3874C113.383 89.0763 112.916 88.9208 112.379 88.9208C111.689 88.9208 111.154 89.1296 110.775 89.5472C110.396 89.9606 110.206 90.4847 110.206 91.1197V97.5117H108.672V90.7873C108.672 90.229 108.491 89.7795 108.129 89.4386C107.767 89.0934 107.3 88.9208 106.729 88.9208C106.337 88.9208 105.97 89.0252 105.629 89.234C105.293 89.4428 105.02 89.7326 104.811 90.1033C104.607 90.4698 104.504 90.8938 104.504 91.3754V97.5117H102.996ZM122.629 97.7163C121.743 97.7163 120.965 97.5053 120.296 97.0835C119.631 96.6616 119.111 96.0714 118.736 95.3129C118.366 94.5543 118.18 93.668 118.18 92.6538C118.18 91.631 118.366 90.7383 118.736 89.9755C119.111 89.2127 119.631 88.6204 120.296 88.1985C120.965 87.7766 121.743 87.5657 122.629 87.5657C123.515 87.5657 124.291 87.7766 124.956 88.1985C125.625 88.6204 126.145 89.2127 126.515 89.9755C126.89 90.7383 127.078 91.631 127.078 92.6538C127.078 93.668 126.89 94.5543 126.515 95.3129C126.145 96.0714 125.625 96.6616 124.956 97.0835C124.291 97.5053 123.515 97.7163 122.629 97.7163ZM122.629 96.3612C123.302 96.3612 123.856 96.1886 124.291 95.8434C124.726 95.4982 125.047 95.0444 125.256 94.4819C125.465 93.9194 125.569 93.31 125.569 92.6538C125.569 91.9975 125.465 91.386 125.256 90.8192C125.047 90.2525 124.726 89.7944 124.291 89.445C123.856 89.0955 123.302 88.9208 122.629 88.9208C121.956 88.9208 121.402 89.0955 120.967 89.445C120.532 89.7944 120.211 90.2525 120.002 90.8192C119.793 91.386 119.689 91.9975 119.689 92.6538C119.689 93.31 119.793 93.9194 120.002 94.4819C120.211 95.0444 120.532 95.4982 120.967 95.8434C121.402 96.1886 121.956 96.3612 122.629 96.3612ZM135.568 93.4975V87.6935H137.077V97.5117H135.568V95.8498H135.466C135.236 96.3484 134.878 96.7724 134.392 97.1218C133.906 97.467 133.293 97.6396 132.551 97.6396C131.938 97.6396 131.392 97.5053 130.915 97.2369C130.438 96.9641 130.063 96.555 129.79 96.0096C129.517 95.4599 129.381 94.7674 129.381 93.9322V87.6935H130.889V93.8299C130.889 94.5458 131.089 95.1168 131.49 95.543C131.895 95.9691 132.411 96.1822 133.037 96.1822C133.412 96.1822 133.793 96.0863 134.181 95.8945C134.573 95.7028 134.901 95.4087 135.165 95.0124C135.434 94.6161 135.568 94.1112 135.568 93.4975ZM141.348 91.6055V97.5117H139.84V87.6935H141.297V89.2276H141.425C141.655 88.729 142.004 88.3285 142.473 88.0259C142.942 87.7191 143.547 87.5657 144.289 87.5657C144.953 87.5657 145.535 87.7021 146.034 87.9748C146.532 88.2433 146.92 88.6523 147.197 89.2021C147.474 89.7475 147.612 90.4379 147.612 91.2731V97.5117H146.104V91.3754C146.104 90.604 145.904 90.0032 145.503 89.5728C145.102 89.1381 144.553 88.9208 143.854 88.9208C143.372 88.9208 142.942 89.0252 142.563 89.234C142.188 89.4428 141.892 89.7475 141.674 90.1481C141.457 90.5487 141.348 91.0344 141.348 91.6055ZM154.639 87.6935V88.9719H149.551V87.6935H154.639ZM151.034 85.3413H152.542V94.6992C152.542 95.1254 152.604 95.445 152.728 95.658C152.855 95.8668 153.017 96.0075 153.213 96.0799C153.414 96.1481 153.625 96.1822 153.846 96.1822C154.012 96.1822 154.149 96.1737 154.255 96.1566C154.362 96.1353 154.447 96.1183 154.511 96.1055L154.818 97.4606C154.716 97.4989 154.573 97.5373 154.39 97.5756C154.206 97.6183 153.974 97.6396 153.693 97.6396C153.267 97.6396 152.849 97.5479 152.44 97.3647C152.035 97.1815 151.699 96.9023 151.43 96.5273C151.166 96.1523 151.034 95.6793 151.034 95.1083V85.3413Z" fill="black"/>
</svg>
