<svg width="190" height="172" viewBox="0 0 190 172" fill="none" xmlns="http://www.w3.org/2000/svg">
<path d="M6 169.512C3.5 169.512 1.5 167.512 1.5 165.012C1.5 162.512 3.5 160.512 6 160.512C8.5 160.512 10.5 162.512 10.5 165.012C10.5 167.512 8.5 169.512 6 169.512Z" fill="white"/>
<path d="M10.5 165.012C10.5 167.512 8.5 169.512 6 169.512C3.5 169.512 1.5 167.512 1.5 165.012C1.5 162.512 3.5 160.512 6 160.512C8.5 160.512 10.5 162.512 10.5 165.012ZM10.5 165.012H78.2097C89.2554 165.012 98.2097 156.057 98.2097 145.012V32.0116C98.2097 20.9659 107.164 12.0116 118.21 12.0116H122H145.25H168.5H188" stroke="#4D4D4D" stroke-width="3"/>
<rect x="78" y="75.0117" width="45" height="31" rx="1.5" fill="white"/>
<rect x="78" y="75.0117" width="45" height="31" rx="1.5" stroke="#4D4D4D" stroke-width="3"/>
<path d="M86.3693 85.8271V84.4208H96.1875V85.8271H92.071V97.5117H90.4858V85.8271H86.3693ZM99.9828 97.7418C99.3606 97.7418 98.796 97.6246 98.2889 97.3903C97.7818 97.1516 97.3791 96.8086 97.0808 96.3612C96.7825 95.9094 96.6333 95.364 96.6333 94.7248C96.6333 94.1623 96.7441 93.7063 96.9657 93.3569C97.1873 93.0032 97.4835 92.7262 97.8542 92.5259C98.225 92.3256 98.6341 92.1765 99.0815 92.0785C99.5332 91.9762 99.987 91.8952 100.443 91.8356C101.04 91.7589 101.523 91.7013 101.894 91.663C102.269 91.6204 102.542 91.5501 102.712 91.4521C102.887 91.354 102.974 91.1836 102.974 90.9407V90.8896C102.974 90.2589 102.802 89.7688 102.456 89.4194C102.116 89.07 101.598 88.8952 100.903 88.8952C100.183 88.8952 99.6184 89.0529 99.2093 89.3683C98.8002 89.6836 98.5126 90.0202 98.3464 90.3782L96.9146 89.8668C97.1703 89.2702 97.5112 88.8058 97.9373 88.4734C98.3677 88.1367 98.8365 87.9023 99.3436 87.7702C99.8549 87.6339 100.358 87.5657 100.852 87.5657C101.167 87.5657 101.53 87.604 101.939 87.6808C102.352 87.7532 102.751 87.9045 103.134 88.1346C103.522 88.3647 103.844 88.712 104.099 89.1765C104.355 89.641 104.483 90.2631 104.483 91.043V97.5117H102.974V96.1822H102.898C102.795 96.3952 102.625 96.6232 102.386 96.8661C102.148 97.109 101.83 97.3157 101.434 97.4862C101.037 97.6566 100.554 97.7418 99.9828 97.7418ZM100.213 96.3867C100.809 96.3867 101.312 96.2695 101.721 96.0352C102.135 95.8008 102.446 95.4982 102.655 95.1275C102.868 94.7567 102.974 94.3668 102.974 93.9577V92.5771C102.91 92.6538 102.77 92.7241 102.552 92.788C102.339 92.8477 102.092 92.9009 101.811 92.9478C101.534 92.9904 101.263 93.0288 100.999 93.0629C100.739 93.0927 100.528 93.1183 100.366 93.1396C99.9743 93.1907 99.6078 93.2738 99.2669 93.3888C98.9302 93.4996 98.6575 93.668 98.4487 93.8938C98.2441 94.1154 98.1419 94.418 98.1419 94.8015C98.1419 95.3256 98.3358 95.7219 98.7235 95.9904C99.1156 96.2546 99.612 96.3867 100.213 96.3867ZM107.236 101.194V87.6935H108.694V89.2532H108.873C108.983 89.0827 109.137 88.8654 109.333 88.6012C109.533 88.3327 109.819 88.0941 110.189 87.8853C110.564 87.6722 111.071 87.5657 111.711 87.5657C112.537 87.5657 113.266 87.7724 113.897 88.1857C114.527 88.5991 115.02 89.185 115.373 89.9435C115.727 90.7021 115.904 91.5969 115.904 92.6282C115.904 93.668 115.727 94.5692 115.373 95.332C115.02 96.0906 114.529 96.6786 113.903 97.0962C113.277 97.5096 112.554 97.7163 111.736 97.7163C111.105 97.7163 110.6 97.6119 110.221 97.4031C109.842 97.19 109.55 96.9492 109.346 96.6808C109.141 96.408 108.983 96.1822 108.873 96.0032H108.745V101.194H107.236ZM108.719 92.6026C108.719 93.3441 108.828 93.9982 109.045 94.565C109.262 95.1275 109.58 95.5685 109.998 95.8881C110.415 96.2035 110.926 96.3612 111.532 96.3612C112.162 96.3612 112.689 96.195 113.11 95.8626C113.537 95.5259 113.856 95.0742 114.069 94.5075C114.287 93.9364 114.395 93.3015 114.395 92.6026C114.395 91.9123 114.289 91.2901 114.076 90.7362C113.867 90.1779 113.549 89.7369 113.123 89.413C112.701 89.0849 112.171 88.9208 111.532 88.9208C110.918 88.9208 110.402 89.0763 109.985 89.3874C109.567 89.6942 109.252 90.1246 109.039 90.6786C108.826 91.2283 108.719 91.8697 108.719 92.6026Z" fill="black"/>
</svg>
