<svg width="531" height="102" viewBox="0 0 531 102" fill="none" xmlns="http://www.w3.org/2000/svg">
<path d="M6.5 91.2903C4 91.2903 2 93.2903 2 95.7903C2 98.2903 4 100.29 6.5 100.29C9 100.29 11 98.2903 11 95.7903C11 93.2903 9 91.2903 6.5 91.2903Z" fill="white"/>
<path d="M6.5 100.29C4 100.29 2 98.2903 2 95.7903C2 93.2903 4 91.2903 6.5 91.2903C9 91.2903 11 93.2903 11 95.7903C11 98.2903 9 100.29 6.5 100.29ZM6.5 100.29L6.49999 36C6.49999 24.9543 15.4543 16 26.5 16L501.71 16C511.535 16 519.5 23.965 519.5 33.7903V33.7903L519.5 33.0403L519.5 56.2903L519.5 59.7903" stroke="#4D4D4D" stroke-width="3"/>
<rect x="279.5" y="2" width="47" height="31" rx="1.5" fill="white"/>
<rect x="279.5" y="2" width="47" height="31" rx="1.5" stroke="#4D4D4D" stroke-width="3"/>
<path d="M287.869 12.8153V11.4091H297.688V12.8153H293.571V24.5H291.986V12.8153H287.869ZM301.483 24.7301C300.861 24.7301 300.296 24.6129 299.789 24.3786C299.282 24.1399 298.879 23.7969 298.581 23.3494C298.282 22.8977 298.133 22.3523 298.133 21.7131C298.133 21.1506 298.244 20.6946 298.466 20.3452C298.687 19.9915 298.983 19.7145 299.354 19.5142C299.725 19.3139 300.134 19.1648 300.581 19.0668C301.033 18.9645 301.487 18.8835 301.943 18.8239C302.54 18.7472 303.023 18.6896 303.394 18.6513C303.769 18.6087 304.042 18.5384 304.212 18.4403C304.387 18.3423 304.474 18.1719 304.474 17.929V17.8778C304.474 17.2472 304.302 16.7571 303.956 16.4077C303.616 16.0582 303.098 15.8835 302.403 15.8835C301.683 15.8835 301.118 16.0412 300.709 16.3565C300.3 16.6719 300.013 17.0085 299.846 17.3665L298.415 16.8551C298.67 16.2585 299.011 15.794 299.437 15.4616C299.868 15.125 300.336 14.8906 300.844 14.7585C301.355 14.6222 301.858 14.554 302.352 14.554C302.667 14.554 303.03 14.5923 303.439 14.669C303.852 14.7415 304.251 14.8928 304.634 15.1229C305.022 15.353 305.344 15.7003 305.599 16.1648C305.855 16.6293 305.983 17.2514 305.983 18.0312V24.5H304.474V23.1705H304.398C304.295 23.3835 304.125 23.6115 303.886 23.8544C303.648 24.0973 303.33 24.304 302.934 24.4744C302.537 24.6449 302.054 24.7301 301.483 24.7301ZM301.713 23.375C302.309 23.375 302.812 23.2578 303.221 23.0234C303.635 22.7891 303.946 22.4865 304.155 22.1158C304.368 21.745 304.474 21.3551 304.474 20.946V19.5653C304.41 19.642 304.27 19.7124 304.052 19.7763C303.839 19.8359 303.592 19.8892 303.311 19.9361C303.034 19.9787 302.763 20.017 302.499 20.0511C302.239 20.081 302.028 20.1065 301.866 20.1278C301.474 20.179 301.108 20.2621 300.767 20.3771C300.43 20.4879 300.157 20.6562 299.949 20.8821C299.744 21.1037 299.642 21.4062 299.642 21.7898C299.642 22.3139 299.836 22.7102 300.224 22.9787C300.616 23.2429 301.112 23.375 301.713 23.375ZM308.736 28.1818V14.6818H310.194V16.2415H310.373C310.483 16.071 310.637 15.8537 310.833 15.5895C311.033 15.321 311.319 15.0824 311.689 14.8736C312.064 14.6605 312.571 14.554 313.211 14.554C314.037 14.554 314.766 14.7607 315.397 15.174C316.027 15.5874 316.52 16.1733 316.873 16.9318C317.227 17.6903 317.404 18.5852 317.404 19.6165C317.404 20.6562 317.227 21.5575 316.873 22.3203C316.52 23.0788 316.029 23.6669 315.403 24.0845C314.777 24.4979 314.054 24.7045 313.236 24.7045C312.605 24.7045 312.1 24.6001 311.721 24.3913C311.342 24.1783 311.05 23.9375 310.846 23.669C310.641 23.3963 310.483 23.1705 310.373 22.9915H310.245V28.1818H308.736ZM310.219 19.5909C310.219 20.3324 310.328 20.9865 310.545 21.5533C310.762 22.1158 311.08 22.5568 311.498 22.8764C311.915 23.1918 312.426 23.3494 313.032 23.3494C313.662 23.3494 314.189 23.1832 314.61 22.8509C315.037 22.5142 315.356 22.0625 315.569 21.4957C315.787 20.9247 315.895 20.2898 315.895 19.5909C315.895 18.9006 315.789 18.2784 315.576 17.7244C315.367 17.1662 315.049 16.7251 314.623 16.4013C314.201 16.0732 313.671 15.9091 313.032 15.9091C312.418 15.9091 311.902 16.0646 311.485 16.3757C311.067 16.6825 310.752 17.1129 310.539 17.6669C310.326 18.2166 310.219 18.858 310.219 19.5909Z" fill="black"/>
</svg>
