<svg width="311" height="95" viewBox="0 0 311 95" fill="none" xmlns="http://www.w3.org/2000/svg">
<path d="M6 10.5157C3.5 10.5157 1.5 8.51572 1.5 6.01572C1.5 3.51572 3.5 1.51572 6 1.51572C8.5 1.51572 10.5 3.51572 10.5 6.01572C10.5 8.51572 8.5 10.5157 6 10.5157Z" fill="white"/>
<path d="M10.5 6.01572C10.5 8.51572 8.5 10.5157 6 10.5157C3.5 10.5157 1.5 8.51572 1.5 6.01572C1.5 3.51572 3.5 1.51572 6 1.51572C8.5 1.51572 10.5 3.51572 10.5 6.01572ZM10.5 6.01572H196.21C207.255 6.01572 216.21 14.97 216.21 26.0157V63.0156C216.21 74.0613 225.164 83.0156 236.21 83.0156H240H263.25H286.5H309" stroke="#4D4D4D" stroke-width="3"/>
<rect x="194" y="26.0156" width="45" height="31" rx="1.5" fill="white"/>
<rect x="194" y="26.0156" width="45" height="31" rx="1.5" stroke="#4D4D4D" stroke-width="3"/>
<path d="M202.369 36.831V35.4247H212.188V36.831H208.071V48.5156H206.486V36.831H202.369ZM215.983 48.7457C215.361 48.7457 214.796 48.6286 214.289 48.3942C213.782 48.1555 213.379 47.8125 213.081 47.3651C212.782 46.9134 212.633 46.3679 212.633 45.7287C212.633 45.1662 212.744 44.7102 212.966 44.3608C213.187 44.0071 213.483 43.7301 213.854 43.5298C214.225 43.3295 214.634 43.1804 215.081 43.0824C215.533 42.9801 215.987 42.8991 216.443 42.8395C217.04 42.7628 217.523 42.7053 217.894 42.6669C218.269 42.6243 218.542 42.554 218.712 42.456C218.887 42.358 218.974 42.1875 218.974 41.9446V41.8935C218.974 41.2628 218.802 40.7727 218.456 40.4233C218.116 40.0739 217.598 39.8991 216.903 39.8991C216.183 39.8991 215.618 40.0568 215.209 40.3722C214.8 40.6875 214.513 41.0241 214.346 41.3821L212.915 40.8707C213.17 40.2741 213.511 39.8097 213.937 39.4773C214.368 39.1406 214.836 38.9062 215.344 38.7741C215.855 38.6378 216.358 38.5696 216.852 38.5696C217.167 38.5696 217.53 38.608 217.939 38.6847C218.352 38.7571 218.751 38.9084 219.134 39.1385C219.522 39.3686 219.844 39.7159 220.099 40.1804C220.355 40.6449 220.483 41.267 220.483 42.0469V48.5156H218.974V47.1861H218.898C218.795 47.3991 218.625 47.6271 218.386 47.87C218.148 48.1129 217.83 48.3196 217.434 48.4901C217.037 48.6605 216.554 48.7457 215.983 48.7457ZM216.213 47.3906C216.809 47.3906 217.312 47.2734 217.721 47.0391C218.135 46.8047 218.446 46.5021 218.655 46.1314C218.868 45.7607 218.974 45.3707 218.974 44.9616V43.581C218.91 43.6577 218.77 43.728 218.552 43.7919C218.339 43.8516 218.092 43.9048 217.811 43.9517C217.534 43.9943 217.263 44.0327 216.999 44.0668C216.739 44.0966 216.528 44.1222 216.366 44.1435C215.974 44.1946 215.608 44.2777 215.267 44.3928C214.93 44.5036 214.657 44.6719 214.449 44.8977C214.244 45.1193 214.142 45.4219 214.142 45.8054C214.142 46.3295 214.336 46.7259 214.724 46.9943C215.116 47.2585 215.612 47.3906 216.213 47.3906ZM223.236 52.1974V38.6974H224.694V40.2571H224.873C224.983 40.0866 225.137 39.8693 225.333 39.6051C225.533 39.3366 225.819 39.098 226.189 38.8892C226.564 38.6761 227.071 38.5696 227.711 38.5696C228.537 38.5696 229.266 38.7763 229.897 39.1896C230.527 39.603 231.02 40.1889 231.373 40.9474C231.727 41.706 231.904 42.6009 231.904 43.6321C231.904 44.6719 231.727 45.5732 231.373 46.3359C231.02 47.0945 230.529 47.6825 229.903 48.1001C229.277 48.5135 228.554 48.7202 227.736 48.7202C227.105 48.7202 226.6 48.6158 226.221 48.407C225.842 48.1939 225.55 47.9531 225.346 47.6847C225.141 47.4119 224.983 47.1861 224.873 47.0071H224.745V52.1974H223.236ZM224.719 43.6065C224.719 44.348 224.828 45.0021 225.045 45.5689C225.262 46.1314 225.58 46.5724 225.998 46.892C226.415 47.2074 226.926 47.3651 227.532 47.3651C228.162 47.3651 228.689 47.1989 229.11 46.8665C229.537 46.5298 229.856 46.0781 230.069 45.5114C230.287 44.9403 230.395 44.3054 230.395 43.6065C230.395 42.9162 230.289 42.294 230.076 41.7401C229.867 41.1818 229.549 40.7408 229.123 40.4169C228.701 40.0888 228.171 39.9247 227.532 39.9247C226.918 39.9247 226.402 40.0803 225.985 40.3913C225.567 40.6982 225.252 41.1286 225.039 41.6825C224.826 42.2322 224.719 42.8736 224.719 43.6065Z" fill="black"/>
</svg>
