<svg width="190" height="172" viewBox="0 0 190 172" fill="none" xmlns="http://www.w3.org/2000/svg">
<path d="M6 169.516C3.5 169.516 1.5 167.516 1.5 165.016C1.5 162.516 3.5 160.516 6 160.516C8.5 160.516 10.5 162.516 10.5 165.016C10.5 167.516 8.5 169.516 6 169.516Z" fill="white"/>
<path d="M10.5 165.016C10.5 167.516 8.5 169.516 6 169.516C3.5 169.516 1.5 167.516 1.5 165.016C1.5 162.516 3.5 160.516 6 160.516C8.5 160.516 10.5 162.516 10.5 165.016ZM10.5 165.016H78.2097C89.2554 165.016 98.2097 156.061 98.2097 145.016V32.0155C98.2097 20.9698 107.164 12.0155 118.21 12.0155H122H145.25H168.5H188" stroke="#4D4D4D" stroke-width="3"/>
<rect x="78" y="75.0156" width="45" height="31" rx="1.5" fill="white"/>
<rect x="78" y="75.0156" width="45" height="31" rx="1.5" stroke="#4D4D4D" stroke-width="3"/>
<path d="M86.3693 85.831V84.4247H96.1875V85.831H92.071V97.5156H90.4858V85.831H86.3693ZM99.9828 97.7457C99.3606 97.7457 98.796 97.6286 98.2889 97.3942C97.7818 97.1555 97.3791 96.8125 97.0808 96.3651C96.7825 95.9134 96.6333 95.3679 96.6333 94.7287C96.6333 94.1662 96.7441 93.7102 96.9657 93.3608C97.1873 93.0071 97.4835 92.7301 97.8542 92.5298C98.225 92.3295 98.6341 92.1804 99.0815 92.0824C99.5332 91.9801 99.987 91.8991 100.443 91.8395C101.04 91.7628 101.523 91.7053 101.894 91.6669C102.269 91.6243 102.542 91.554 102.712 91.456C102.887 91.358 102.974 91.1875 102.974 90.9446V90.8935C102.974 90.2628 102.802 89.7727 102.456 89.4233C102.116 89.0739 101.598 88.8991 100.903 88.8991C100.183 88.8991 99.6184 89.0568 99.2093 89.3722C98.8002 89.6875 98.5126 90.0241 98.3464 90.3821L96.9146 89.8707C97.1703 89.2741 97.5112 88.8097 97.9373 88.4773C98.3677 88.1406 98.8365 87.9062 99.3436 87.7741C99.8549 87.6378 100.358 87.5696 100.852 87.5696C101.167 87.5696 101.53 87.608 101.939 87.6847C102.352 87.7571 102.751 87.9084 103.134 88.1385C103.522 88.3686 103.844 88.7159 104.099 89.1804C104.355 89.6449 104.483 90.267 104.483 91.0469V97.5156H102.974V96.1861H102.898C102.795 96.3991 102.625 96.6271 102.386 96.87C102.148 97.1129 101.83 97.3196 101.434 97.4901C101.037 97.6605 100.554 97.7457 99.9828 97.7457ZM100.213 96.3906C100.809 96.3906 101.312 96.2734 101.721 96.0391C102.135 95.8047 102.446 95.5021 102.655 95.1314C102.868 94.7607 102.974 94.3707 102.974 93.9616V92.581C102.91 92.6577 102.77 92.728 102.552 92.7919C102.339 92.8516 102.092 92.9048 101.811 92.9517C101.534 92.9943 101.263 93.0327 100.999 93.0668C100.739 93.0966 100.528 93.1222 100.366 93.1435C99.9743 93.1946 99.6078 93.2777 99.2669 93.3928C98.9302 93.5036 98.6575 93.6719 98.4487 93.8977C98.2441 94.1193 98.1419 94.4219 98.1419 94.8054C98.1419 95.3295 98.3358 95.7259 98.7235 95.9943C99.1156 96.2585 99.612 96.3906 100.213 96.3906ZM107.236 101.197V87.6974H108.694V89.2571H108.873C108.983 89.0866 109.137 88.8693 109.333 88.6051C109.533 88.3366 109.819 88.098 110.189 87.8892C110.564 87.6761 111.071 87.5696 111.711 87.5696C112.537 87.5696 113.266 87.7763 113.897 88.1896C114.527 88.603 115.02 89.1889 115.373 89.9474C115.727 90.706 115.904 91.6009 115.904 92.6321C115.904 93.6719 115.727 94.5732 115.373 95.3359C115.02 96.0945 114.529 96.6825 113.903 97.1001C113.277 97.5135 112.554 97.7202 111.736 97.7202C111.105 97.7202 110.6 97.6158 110.221 97.407C109.842 97.1939 109.55 96.9531 109.346 96.6847C109.141 96.4119 108.983 96.1861 108.873 96.0071H108.745V101.197H107.236ZM108.719 92.6065C108.719 93.348 108.828 94.0021 109.045 94.5689C109.262 95.1314 109.58 95.5724 109.998 95.892C110.415 96.2074 110.926 96.3651 111.532 96.3651C112.162 96.3651 112.689 96.1989 113.11 95.8665C113.537 95.5298 113.856 95.0781 114.069 94.5114C114.287 93.9403 114.395 93.3054 114.395 92.6065C114.395 91.9162 114.289 91.294 114.076 90.7401C113.867 90.1818 113.549 89.7408 113.123 89.4169C112.701 89.0888 112.171 88.9247 111.532 88.9247C110.918 88.9247 110.402 89.0803 109.985 89.3913C109.567 89.6982 109.252 90.1286 109.039 90.6825C108.826 91.2322 108.719 91.8736 108.719 92.6065Z" fill="black"/>
</svg>
