<svg width="16" height="22" viewBox="0 0 16 22" fill="none" xmlns="http://www.w3.org/2000/svg">
<path d="M8.00244 1H4.66944C3.78534 1 2.93745 1.35121 2.3123 1.97636C1.68714 2.60151 1.33594 3.4494 1.33594 4.3335C1.33594 5.2176 1.68714 6.06549 2.3123 6.69064C2.93745 7.31579 3.78534 7.667 4.66944 7.667H8.00244V1Z" stroke="white" stroke-width="1.5"/>
<path d="M8.00244 7.66406H4.66944C3.78534 7.66406 2.93745 8.01527 2.3123 8.64042C1.68714 9.26557 1.33594 10.1135 1.33594 10.9976C1.33594 11.8817 1.68714 12.7296 2.3123 13.3547C2.93745 13.9799 3.78534 14.3311 4.66944 14.3311H8.00244V7.66406Z" stroke="white" stroke-width="1.5"/>
<path d="M14.6689 11.0015C14.6689 11.8856 14.3177 12.7335 13.6926 13.3586C13.0674 13.9838 12.2195 14.335 11.3354 14.335C10.4513 14.335 9.60345 13.9838 8.9783 13.3586C8.35315 12.7335 8.00194 11.8856 8.00194 11.0015C8.00194 10.1174 8.35315 9.26948 8.9783 8.64433C9.60345 8.01918 10.4513 7.66797 11.3354 7.66797C12.2195 7.66797 13.0674 8.01918 13.6926 8.64433C14.3177 9.26948 14.6689 10.1174 14.6689 11.0015ZM4.66894 14.3355H8.00194V17.6685C8.00174 18.3276 7.8061 18.9719 7.43974 19.5199C7.07339 20.0679 6.55277 20.4949 5.94373 20.747C5.33469 20.9992 4.66456 21.065 4.01809 20.9363C3.37162 20.8076 2.77783 20.4901 2.3118 20.0239C1.84577 19.5577 1.52843 18.9638 1.39991 18.3173C1.27139 17.6708 1.33745 17.0007 1.58974 16.3918C1.84204 15.7828 2.26924 15.2623 2.81733 14.8961C3.36541 14.5299 4.00978 14.3355 4.66894 14.3355Z" stroke="white" stroke-width="1.5"/>
<path d="M8 1H11.333C12.2171 1 13.065 1.35121 13.6901 1.97636C14.3153 2.60151 14.6665 3.4494 14.6665 4.3335C14.6665 5.2176 14.3153 6.06549 13.6901 6.69064C13.065 7.31579 12.2171 7.667 11.333 7.667H8V1Z" stroke="white" stroke-width="1.5"/>
</svg>
