<svg width="191" height="251" viewBox="0 0 191 251" fill="none" xmlns="http://www.w3.org/2000/svg">
<path d="M6.5 249.254C4 249.254 2 247.254 2 244.754C2 242.254 4 240.254 6.5 240.254C9 240.254 11 242.254 11 244.754C11 247.254 9 249.254 6.5 249.254Z" fill="white"/>
<path d="M11 244.754C11 247.254 9 249.254 6.5 249.254C4 249.254 2 247.254 2 244.754C2 242.254 4 240.254 6.5 240.254C9 240.254 11 242.254 11 244.754ZM11 244.754H76.7097C87.7554 244.754 96.7097 235.8 96.7097 224.754V31.7538C96.7097 20.7081 105.664 11.7538 116.71 11.7538H120.5H143.75H167H189.5" stroke="#4D4D4D" stroke-width="3"/>
<rect x="76.5" y="164.754" width="45" height="31" rx="1.5" fill="white"/>
<rect x="76.5" y="164.754" width="45" height="31" rx="1.5" stroke="#4D4D4D" stroke-width="3"/>
<path d="M84.8693 175.569V174.163H94.6875V175.569H90.571V187.254H88.9858V175.569H84.8693ZM98.4828 187.484C97.8606 187.484 97.296 187.367 96.7889 187.132C96.2818 186.894 95.8791 186.551 95.5808 186.103C95.2825 185.652 95.1333 185.106 95.1333 184.467C95.1333 183.904 95.2441 183.449 95.4657 183.099C95.6873 182.745 95.9835 182.468 96.3542 182.268C96.725 182.068 97.1341 181.919 97.5815 181.821C98.0332 181.718 98.487 181.637 98.943 181.578C99.5396 181.501 100.023 181.444 100.394 181.405C100.769 181.363 101.042 181.292 101.212 181.194C101.387 181.096 101.474 180.926 101.474 180.683V180.632C101.474 180.001 101.302 179.511 100.956 179.162C100.616 178.812 100.098 178.637 99.4032 178.637C98.6831 178.637 98.1184 178.795 97.7093 179.11C97.3002 179.426 97.0126 179.762 96.8464 180.12L95.4146 179.609C95.6703 179.012 96.0112 178.548 96.4373 178.216C96.8677 177.879 97.3365 177.645 97.8436 177.512C98.3549 177.376 98.8578 177.308 99.3521 177.308C99.6674 177.308 100.03 177.346 100.439 177.423C100.852 177.495 101.251 177.647 101.634 177.877C102.022 178.107 102.344 178.454 102.599 178.919C102.855 179.383 102.983 180.005 102.983 180.785V187.254H101.474V185.924H101.398C101.295 186.137 101.125 186.365 100.886 186.608C100.648 186.851 100.33 187.058 99.9338 187.228C99.5375 187.399 99.0538 187.484 98.4828 187.484ZM98.7129 186.129C99.3095 186.129 99.8123 186.012 100.221 185.777C100.635 185.543 100.946 185.24 101.155 184.87C101.368 184.499 101.474 184.109 101.474 183.7V182.319C101.41 182.396 101.27 182.466 101.052 182.53C100.839 182.59 100.592 182.643 100.311 182.69C100.034 182.733 99.7633 182.771 99.4991 182.805C99.2392 182.835 99.0282 182.86 98.8663 182.882C98.4743 182.933 98.1078 183.016 97.7669 183.131C97.4302 183.242 97.1575 183.41 96.9487 183.636C96.7441 183.858 96.6419 184.16 96.6419 184.544C96.6419 185.068 96.8358 185.464 97.2235 185.733C97.6156 185.997 98.112 186.129 98.7129 186.129ZM105.736 190.936V177.436H107.194V178.995H107.373C107.483 178.825 107.637 178.608 107.833 178.343C108.033 178.075 108.319 177.836 108.689 177.627C109.064 177.414 109.571 177.308 110.211 177.308C111.037 177.308 111.766 177.515 112.397 177.928C113.027 178.341 113.52 178.927 113.873 179.686C114.227 180.444 114.404 181.339 114.404 182.37C114.404 183.41 114.227 184.311 113.873 185.074C113.52 185.833 113.029 186.421 112.403 186.838C111.777 187.252 111.054 187.458 110.236 187.458C109.605 187.458 109.1 187.354 108.721 187.145C108.342 186.932 108.05 186.691 107.846 186.423C107.641 186.15 107.483 185.924 107.373 185.745H107.245V190.936H105.736ZM107.219 182.345C107.219 183.086 107.328 183.74 107.545 184.307C107.762 184.87 108.08 185.311 108.498 185.63C108.915 185.946 109.426 186.103 110.032 186.103C110.662 186.103 111.189 185.937 111.61 185.605C112.037 185.268 112.356 184.816 112.569 184.25C112.787 183.679 112.895 183.044 112.895 182.345C112.895 181.654 112.789 181.032 112.576 180.478C112.367 179.92 112.049 179.479 111.623 179.155C111.201 178.827 110.671 178.663 110.032 178.663C109.418 178.663 108.902 178.819 108.485 179.13C108.067 179.436 107.752 179.867 107.539 180.421C107.326 180.971 107.219 181.612 107.219 182.345Z" fill="black"/>
</svg>
