<svg width="195" height="136" viewBox="0 0 195 136" fill="none" xmlns="http://www.w3.org/2000/svg">
<path d="M6.5 134.254C4 134.254 2 132.254 2 129.754C2 127.254 4 125.254 6.5 125.254C9 125.254 11 127.254 11 129.754C11 132.254 9 134.254 6.5 134.254Z" fill="white"/>
<path d="M11 129.754C11 132.254 9 134.254 6.5 134.254C4 134.254 2 132.254 2 129.754C2 127.254 4 125.254 6.5 125.254C9 125.254 11 127.254 11 129.754ZM11 129.754H80.7097C91.7554 129.754 100.71 120.8 100.71 109.754V31.7538C100.71 20.7081 109.664 11.7538 120.71 11.7538H124.5H147.75H171H193.5" stroke="#4D4D4D" stroke-width="3"/>
<rect x="80.5" y="54.7539" width="45" height="31" rx="1.5" fill="white"/>
<rect x="80.5" y="54.7539" width="45" height="31" rx="1.5" stroke="#4D4D4D" stroke-width="3"/>
<path d="M88.8693 65.5692V64.163H98.6875V65.5692H94.571V77.2539H92.9858V65.5692H88.8693ZM102.483 77.484C101.861 77.484 101.296 77.3668 100.789 77.1325C100.282 76.8938 99.8791 76.5508 99.5808 76.1033C99.2825 75.6516 99.1333 75.1062 99.1333 74.467C99.1333 73.9045 99.2441 73.4485 99.4657 73.0991C99.6873 72.7454 99.9835 72.4684 100.354 72.2681C100.725 72.0678 101.134 71.9187 101.581 71.8207C102.033 71.7184 102.487 71.6374 102.943 71.5778C103.54 71.5011 104.023 71.4435 104.394 71.4052C104.769 71.3626 105.042 71.2923 105.212 71.1942C105.387 71.0962 105.474 70.9258 105.474 70.6829V70.6317C105.474 70.0011 105.302 69.511 104.956 69.1616C104.616 68.8121 104.098 68.6374 103.403 68.6374C102.683 68.6374 102.118 68.7951 101.709 69.1104C101.3 69.4258 101.013 69.7624 100.846 70.1204L99.4146 69.609C99.6703 69.0124 100.011 68.5479 100.437 68.2156C100.868 67.8789 101.336 67.6445 101.844 67.5124C102.355 67.3761 102.858 67.3079 103.352 67.3079C103.667 67.3079 104.03 67.3462 104.439 67.4229C104.852 67.4954 105.251 67.6467 105.634 67.8768C106.022 68.1069 106.344 68.4542 106.599 68.9187C106.855 69.3832 106.983 70.0053 106.983 70.7852V77.2539H105.474V75.9244H105.398C105.295 76.1374 105.125 76.3654 104.886 76.6083C104.648 76.8512 104.33 77.0579 103.934 77.2283C103.537 77.3988 103.054 77.484 102.483 77.484ZM102.713 76.1289C103.309 76.1289 103.812 76.0117 104.221 75.7773C104.635 75.543 104.946 75.2404 105.155 74.8697C105.368 74.4989 105.474 74.109 105.474 73.6999V72.3192C105.41 72.396 105.27 72.4663 105.052 72.5302C104.839 72.5898 104.592 72.6431 104.311 72.69C104.034 72.7326 103.763 72.771 103.499 72.805C103.239 72.8349 103.028 72.8604 102.866 72.8817C102.474 72.9329 102.108 73.016 101.767 73.131C101.43 73.2418 101.157 73.4102 100.949 73.636C100.744 73.8576 100.642 74.1602 100.642 74.5437C100.642 75.0678 100.836 75.4641 101.224 75.7326C101.616 75.9968 102.112 76.1289 102.713 76.1289ZM109.736 80.9357V67.4357H111.194V68.9954H111.373C111.483 68.8249 111.637 68.6076 111.833 68.3434C112.033 68.0749 112.319 67.8363 112.689 67.6275C113.064 67.4144 113.571 67.3079 114.211 67.3079C115.037 67.3079 115.766 67.5146 116.397 67.9279C117.027 68.3413 117.52 68.9272 117.873 69.6857C118.227 70.4442 118.404 71.3391 118.404 72.3704C118.404 73.4102 118.227 74.3114 117.873 75.0742C117.52 75.8327 117.029 76.4208 116.403 76.8384C115.777 77.2518 115.054 77.4585 114.236 77.4585C113.605 77.4585 113.1 77.354 112.721 77.1452C112.342 76.9322 112.05 76.6914 111.846 76.4229C111.641 76.1502 111.483 75.9244 111.373 75.7454H111.245V80.9357H109.736ZM111.219 72.3448C111.219 73.0863 111.328 73.7404 111.545 74.3072C111.762 74.8697 112.08 75.3107 112.498 75.6303C112.915 75.9457 113.426 76.1033 114.032 76.1033C114.662 76.1033 115.189 75.9371 115.61 75.6048C116.037 75.2681 116.356 74.8164 116.569 74.2496C116.787 73.6786 116.895 73.0437 116.895 72.3448C116.895 71.6545 116.789 71.0323 116.576 70.4783C116.367 69.9201 116.049 69.479 115.623 69.1552C115.201 68.8271 114.671 68.663 114.032 68.663C113.418 68.663 112.902 68.8185 112.485 69.1296C112.067 69.4364 111.752 69.8668 111.539 70.4208C111.326 70.9705 111.219 71.6119 111.219 72.3448Z" fill="black"/>
</svg>
