<svg width="188" height="171" viewBox="0 0 188 171" fill="none" xmlns="http://www.w3.org/2000/svg">
<path d="M6.5 169.254C4 169.254 2 167.254 2 164.754C2 162.254 4 160.254 6.5 160.254C9 160.254 11 162.254 11 164.754C11 167.254 9 169.254 6.5 169.254Z" fill="white"/>
<path d="M11 164.754C11 167.254 9 169.254 6.5 169.254C4 169.254 2 167.254 2 164.754C2 162.254 4 160.254 6.5 160.254C9 160.254 11 162.254 11 164.754ZM11 164.754H74.7097C85.7554 164.754 94.7097 155.8 94.7097 144.754V31.7538C94.7097 20.7081 103.664 11.7538 114.71 11.7538H118.5H141.75H165H186.5" stroke="#4D4D4D" stroke-width="3"/>
<rect x="35.5" y="74.7539" width="129" height="31" rx="1.5" fill="white"/>
<rect x="35.5" y="74.7539" width="129" height="31" rx="1.5" stroke="#4D4D4D" stroke-width="3"/>
<path d="M43.8693 85.5692V84.163H53.6875V85.5692H49.571V97.2539H47.9858V85.5692H43.8693ZM55.7761 100.936C55.5204 100.936 55.2924 100.914 55.0922 100.872C54.8919 100.833 54.7534 100.795 54.6767 100.757L55.0602 99.4272C55.4267 99.521 55.7505 99.555 56.0318 99.5295C56.313 99.5039 56.5623 99.3782 56.7797 99.1523C57.0012 98.9308 57.2037 98.5707 57.3869 98.0721L57.6681 97.305L54.0375 87.4357H55.6738L58.3841 95.2596H58.4863L61.1966 87.4357H62.8329L58.6653 98.6857C58.4778 99.1928 58.2456 99.6126 57.9686 99.945C57.6916 100.282 57.3699 100.531 57.0034 100.693C56.6412 100.855 56.2321 100.936 55.7761 100.936ZM64.824 100.936V87.4357H66.2814V88.9954H66.4604C66.5712 88.8249 66.7246 88.6076 66.9206 88.3434C67.1209 88.0749 67.4064 87.8363 67.7772 87.6275C68.1522 87.4144 68.6593 87.3079 69.2985 87.3079C70.1252 87.3079 70.8539 87.5146 71.4846 87.9279C72.1152 88.3413 72.6074 88.9272 72.9611 89.6857C73.3148 90.4442 73.4917 91.3391 73.4917 92.3704C73.4917 93.4102 73.3148 94.3114 72.9611 95.0742C72.6074 95.8327 72.1174 96.4208 71.4909 96.8384C70.8645 97.2518 70.1422 97.4585 69.324 97.4585C68.6934 97.4585 68.1884 97.354 67.8091 97.1452C67.4299 96.9322 67.138 96.6914 66.9334 96.4229C66.7289 96.1502 66.5712 95.9244 66.4604 95.7454H66.3326V100.936H64.824ZM66.307 92.3448C66.307 93.0863 66.4157 93.7404 66.633 94.3072C66.8503 94.8697 67.1678 95.3107 67.5854 95.6303C68.003 95.9457 68.5144 96.1033 69.1195 96.1033C69.7502 96.1033 70.2765 95.9371 70.6983 95.6048C71.1245 95.2681 71.4441 94.8164 71.6571 94.2496C71.8745 93.6786 71.9831 93.0437 71.9831 92.3448C71.9831 91.6545 71.8766 91.0323 71.6635 90.4783C71.4547 89.9201 71.1373 89.479 70.7111 89.1552C70.2892 88.8271 69.7587 88.663 69.1195 88.663C68.5059 88.663 67.9902 88.8185 67.5726 89.1296C67.155 89.4364 66.8397 89.8668 66.6266 90.4208C66.4135 90.9705 66.307 91.6119 66.307 92.3448ZM79.9093 97.4585C78.9632 97.4585 78.1472 97.2496 77.4611 96.832C76.7793 96.4102 76.253 95.8221 75.8823 95.0678C75.5158 94.3093 75.3326 93.4272 75.3326 92.4215C75.3326 91.4158 75.5158 90.5295 75.8823 89.7624C76.253 88.9911 76.7686 88.3903 77.4292 87.9599C78.0939 87.5252 78.8695 87.3079 79.7559 87.3079C80.2672 87.3079 80.7722 87.3931 81.2708 87.5636C81.7694 87.734 82.2232 88.011 82.6323 88.3945C83.0414 88.7738 83.3674 89.2766 83.6103 89.9031C83.8532 90.5295 83.9746 91.3008 83.9746 92.217V92.8562H76.4064V91.5522H82.4405C82.4405 90.9982 82.3297 90.5039 82.1081 90.0692C81.8908 89.6346 81.5797 89.2915 81.1749 89.0401C80.7743 88.7887 80.3013 88.663 79.7559 88.663C79.155 88.663 78.6351 88.8121 78.1962 89.1104C77.7615 89.4045 77.427 89.788 77.1926 90.261C76.9583 90.734 76.8411 91.2411 76.8411 91.7823V92.6516C76.8411 93.3931 76.9689 94.0217 77.2246 94.5373C77.4846 95.0487 77.8446 95.4386 78.3049 95.707C78.7651 95.9712 79.2999 96.1033 79.9093 96.1033C80.3056 96.1033 80.6635 96.0479 80.9831 95.9371C81.307 95.8221 81.5861 95.6516 81.8205 95.4258C82.0549 95.1957 82.236 94.9102 82.3638 94.5692L83.8212 94.9783C83.6678 95.4727 83.41 95.9073 83.0478 96.2823C82.6855 96.6531 82.2381 96.9428 81.7054 97.1516C81.1728 97.3562 80.574 97.4585 79.9093 97.4585ZM92.0733 97.2539H90.4114L95.2182 84.163H96.8546L101.661 97.2539H99.9995L96.0875 86.234H95.9853L92.0733 97.2539ZM92.687 92.1403H99.3858V93.5465H92.687V92.1403ZM103.496 97.2539V87.4357H104.953V88.9698H105.081C105.286 88.4457 105.616 88.0387 106.072 87.7489C106.528 87.4549 107.075 87.3079 107.715 87.3079C108.362 87.3079 108.901 87.4549 109.332 87.7489C109.767 88.0387 110.105 88.4457 110.348 88.9698H110.45C110.702 88.4627 111.079 88.06 111.582 87.7617C112.085 87.4592 112.688 87.3079 113.391 87.3079C114.269 87.3079 114.987 87.5827 115.545 88.1325C116.103 88.6779 116.382 89.5281 116.382 90.6829V97.2539H114.874V90.6829C114.874 89.9585 114.676 89.4407 114.279 89.1296C113.883 88.8185 113.416 88.663 112.879 88.663C112.189 88.663 111.654 88.8718 111.275 89.2894C110.896 89.7028 110.706 90.2269 110.706 90.8619V97.2539H109.172V90.5295C109.172 89.9712 108.991 89.5217 108.629 89.1808C108.267 88.8356 107.8 88.663 107.229 88.663C106.837 88.663 106.47 88.7674 106.129 88.9762C105.793 89.185 105.52 89.4748 105.311 89.8455C105.107 90.212 105.004 90.636 105.004 91.1175V97.2539H103.496ZM123.129 97.4585C122.243 97.4585 121.465 97.2475 120.796 96.8256C120.131 96.4038 119.611 95.8136 119.236 95.055C118.866 94.2965 118.68 93.4102 118.68 92.396C118.68 91.3732 118.866 90.4805 119.236 89.7177C119.611 88.9549 120.131 88.3626 120.796 87.9407C121.465 87.5188 122.243 87.3079 123.129 87.3079C124.015 87.3079 124.791 87.5188 125.456 87.9407C126.125 88.3626 126.645 88.9549 127.015 89.7177C127.39 90.4805 127.578 91.3732 127.578 92.396C127.578 93.4102 127.39 94.2965 127.015 95.055C126.645 95.8136 126.125 96.4038 125.456 96.8256C124.791 97.2475 124.015 97.4585 123.129 97.4585ZM123.129 96.1033C123.802 96.1033 124.356 95.9308 124.791 95.5856C125.226 95.2404 125.547 94.7866 125.756 94.2241C125.965 93.6616 126.069 93.0522 126.069 92.396C126.069 91.7397 125.965 91.1282 125.756 90.5614C125.547 89.9947 125.226 89.5366 124.791 89.1871C124.356 88.8377 123.802 88.663 123.129 88.663C122.456 88.663 121.902 88.8377 121.467 89.1871C121.032 89.5366 120.711 89.9947 120.502 90.5614C120.293 91.1282 120.189 91.7397 120.189 92.396C120.189 93.0522 120.293 93.6616 120.502 94.2241C120.711 94.7866 121.032 95.2404 121.467 95.5856C121.902 95.9308 122.456 96.1033 123.129 96.1033ZM136.068 93.2397V87.4357H137.577V97.2539H136.068V95.592H135.966C135.736 96.0906 135.378 96.5146 134.892 96.864C134.406 97.2092 133.793 97.3817 133.051 97.3817C132.438 97.3817 131.892 97.2475 131.415 96.979C130.938 96.7063 130.563 96.2972 130.29 95.7518C130.017 95.2021 129.881 94.5096 129.881 93.6744V87.4357H131.389V93.5721C131.389 94.288 131.589 94.859 131.99 95.2852C132.395 95.7113 132.911 95.9244 133.537 95.9244C133.912 95.9244 134.293 95.8285 134.681 95.6367C135.073 95.445 135.401 95.1509 135.665 94.7546C135.934 94.3583 136.068 93.8533 136.068 93.2397ZM141.848 91.3477V97.2539H140.34V87.4357H141.797V88.9698H141.925C142.155 88.4712 142.504 88.0707 142.973 87.7681C143.442 87.4613 144.047 87.3079 144.789 87.3079C145.453 87.3079 146.035 87.4442 146.534 87.717C147.032 87.9854 147.42 88.3945 147.697 88.9442C147.974 89.4897 148.112 90.18 148.112 91.0153V97.2539H146.604V91.1175C146.604 90.3462 146.404 89.7454 146.003 89.315C145.602 88.8803 145.053 88.663 144.354 88.663C143.872 88.663 143.442 88.7674 143.063 88.9762C142.688 89.185 142.392 89.4897 142.174 89.8903C141.957 90.2908 141.848 90.7766 141.848 91.3477ZM155.139 87.4357V88.7141H150.051V87.4357H155.139ZM151.534 85.0835H153.042V94.4414C153.042 94.8675 153.104 95.1871 153.228 95.4002C153.355 95.609 153.517 95.7496 153.713 95.8221C153.914 95.8903 154.125 95.9244 154.346 95.9244C154.512 95.9244 154.649 95.9158 154.755 95.8988C154.862 95.8775 154.947 95.8604 155.011 95.8477L155.318 97.2028C155.216 97.2411 155.073 97.2795 154.89 97.3178C154.706 97.3604 154.474 97.3817 154.193 97.3817C153.767 97.3817 153.349 97.2901 152.94 97.1069C152.535 96.9237 152.199 96.6445 151.93 96.2695C151.666 95.8945 151.534 95.4215 151.534 94.8505V85.0835Z" fill="black"/>
</svg>
