<svg width="260" height="171" viewBox="0 0 260 171" fill="none" xmlns="http://www.w3.org/2000/svg">
<path d="M6.5 169.5C4 169.5 2 167.5 2 165C2 162.5 4 160.5 6.5 160.5C9 160.5 11 162.5 11 165C11 167.5 9 169.5 6.5 169.5Z" fill="white"/>
<path d="M11 165C11 167.5 9 169.5 6.5 169.5C4 169.5 2 167.5 2 165C2 162.5 4 160.5 6.5 160.5C9 160.5 11 162.5 11 165ZM11 165H148.71C159.755 165 168.71 156.046 168.71 145V31.9999C168.71 20.9542 177.664 11.9999 188.71 11.9999H192.5H215.75H239H258.5" stroke="#4D4D4D" stroke-width="3"/>
<rect x="148.5" y="75" width="45" height="31" rx="1.5" fill="white"/>
<rect x="148.5" y="75" width="45" height="31" rx="1.5" stroke="#4D4D4D" stroke-width="3"/>
<path d="M156.869 85.8153V84.4091H166.688V85.8153H162.571V97.5H160.986V85.8153H156.869ZM170.483 97.7301C169.861 97.7301 169.296 97.6129 168.789 97.3786C168.282 97.1399 167.879 96.7969 167.581 96.3494C167.282 95.8977 167.133 95.3523 167.133 94.7131C167.133 94.1506 167.244 93.6946 167.466 93.3452C167.687 92.9915 167.983 92.7145 168.354 92.5142C168.725 92.3139 169.134 92.1648 169.581 92.0668C170.033 91.9645 170.487 91.8835 170.943 91.8239C171.54 91.7472 172.023 91.6896 172.394 91.6513C172.769 91.6087 173.042 91.5384 173.212 91.4403C173.387 91.3423 173.474 91.1719 173.474 90.929V90.8778C173.474 90.2472 173.302 89.7571 172.956 89.4077C172.616 89.0582 172.098 88.8835 171.403 88.8835C170.683 88.8835 170.118 89.0412 169.709 89.3565C169.3 89.6719 169.013 90.0085 168.846 90.3665L167.415 89.8551C167.67 89.2585 168.011 88.794 168.437 88.4616C168.868 88.125 169.336 87.8906 169.844 87.7585C170.355 87.6222 170.858 87.554 171.352 87.554C171.667 87.554 172.03 87.5923 172.439 87.669C172.852 87.7415 173.251 87.8928 173.634 88.1229C174.022 88.353 174.344 88.7003 174.599 89.1648C174.855 89.6293 174.983 90.2514 174.983 91.0312V97.5H173.474V96.1705H173.398C173.295 96.3835 173.125 96.6115 172.886 96.8544C172.648 97.0973 172.33 97.304 171.934 97.4744C171.537 97.6449 171.054 97.7301 170.483 97.7301ZM170.713 96.375C171.309 96.375 171.812 96.2578 172.221 96.0234C172.635 95.7891 172.946 95.4865 173.155 95.1158C173.368 94.745 173.474 94.3551 173.474 93.946V92.5653C173.41 92.642 173.27 92.7124 173.052 92.7763C172.839 92.8359 172.592 92.8892 172.311 92.9361C172.034 92.9787 171.763 93.017 171.499 93.0511C171.239 93.081 171.028 93.1065 170.866 93.1278C170.474 93.179 170.108 93.2621 169.767 93.3771C169.43 93.4879 169.157 93.6562 168.949 93.8821C168.744 94.1037 168.642 94.4062 168.642 94.7898C168.642 95.3139 168.836 95.7102 169.224 95.9787C169.616 96.2429 170.112 96.375 170.713 96.375ZM177.736 101.182V87.6818H179.194V89.2415H179.373C179.483 89.071 179.637 88.8537 179.833 88.5895C180.033 88.321 180.319 88.0824 180.689 87.8736C181.064 87.6605 181.571 87.554 182.211 87.554C183.037 87.554 183.766 87.7607 184.397 88.174C185.027 88.5874 185.52 89.1733 185.873 89.9318C186.227 90.6903 186.404 91.5852 186.404 92.6165C186.404 93.6562 186.227 94.5575 185.873 95.3203C185.52 96.0788 185.029 96.6669 184.403 97.0845C183.777 97.4979 183.054 97.7045 182.236 97.7045C181.605 97.7045 181.1 97.6001 180.721 97.3913C180.342 97.1783 180.05 96.9375 179.846 96.669C179.641 96.3963 179.483 96.1705 179.373 95.9915H179.245V101.182H177.736ZM179.219 92.5909C179.219 93.3324 179.328 93.9865 179.545 94.5533C179.762 95.1158 180.08 95.5568 180.498 95.8764C180.915 96.1918 181.426 96.3494 182.032 96.3494C182.662 96.3494 183.189 96.1832 183.61 95.8509C184.037 95.5142 184.356 95.0625 184.569 94.4957C184.787 93.9247 184.895 93.2898 184.895 92.5909C184.895 91.9006 184.789 91.2784 184.576 90.7244C184.367 90.1662 184.049 89.7251 183.623 89.4013C183.201 89.0732 182.671 88.9091 182.032 88.9091C181.418 88.9091 180.902 89.0646 180.485 89.3757C180.067 89.6825 179.752 90.1129 179.539 90.6669C179.326 91.2166 179.219 91.858 179.219 92.5909Z" fill="black"/>
</svg>
