<svg width="120" height="171" viewBox="0 0 120 171" fill="none" xmlns="http://www.w3.org/2000/svg">
<path d="M6.5 169.5C4 169.5 2 167.5 2 165C2 162.5 4 160.5 6.5 160.5C9 160.5 11 162.5 11 165C11 167.5 9 169.5 6.5 169.5Z" fill="white"/>
<path d="M11 165C11 167.5 9 169.5 6.5 169.5C4 169.5 2 167.5 2 165C2 162.5 4 160.5 6.5 160.5C9 160.5 11 162.5 11 165ZM11 165H38.7097C49.7554 165 58.7097 156.046 58.7097 145V31.9999C58.7097 20.9542 67.664 11.9999 78.7097 11.9999H82.5H75.75H99H118.5" stroke="#4D4D4D" stroke-width="3"/>
<rect x="26.5" y="75" width="73" height="31" rx="1.5" fill="white"/>
<rect x="26.5" y="75" width="73" height="31" rx="1.5" stroke="#4D4D4D" stroke-width="3"/>
<path d="M46.1193 88.5H44.5341C44.4403 88.044 44.2763 87.6435 44.0419 87.2983C43.8118 86.9531 43.5305 86.6634 43.1982 86.429C42.87 86.1903 42.5057 86.0114 42.1051 85.892C41.7045 85.7727 41.2869 85.7131 40.8523 85.7131C40.0597 85.7131 39.3416 85.9134 38.6982 86.3139C38.0589 86.7145 37.5497 87.3047 37.1705 88.0845C36.7955 88.8643 36.608 89.821 36.608 90.9545C36.608 92.0881 36.7955 93.0447 37.1705 93.8246C37.5497 94.6044 38.0589 95.1946 38.6982 95.5952C39.3416 95.9957 40.0597 96.196 40.8523 96.196C41.2869 96.196 41.7045 96.1364 42.1051 96.017C42.5057 95.8977 42.87 95.7209 43.1982 95.4865C43.5305 95.2479 43.8118 94.956 44.0419 94.6108C44.2763 94.2614 44.4403 93.8608 44.5341 93.4091H46.1193C46 94.0781 45.7827 94.6768 45.4673 95.2053C45.152 95.7337 44.7599 96.1832 44.2912 96.554C43.8224 96.9205 43.2962 97.1996 42.7124 97.3913C42.1328 97.5831 41.5128 97.679 40.8523 97.679C39.7358 97.679 38.7429 97.4062 37.8736 96.8608C37.0043 96.3153 36.3203 95.5398 35.8217 94.5341C35.3232 93.5284 35.0739 92.3352 35.0739 90.9545C35.0739 89.5739 35.3232 88.3807 35.8217 87.375C36.3203 86.3693 37.0043 85.5938 37.8736 85.0483C38.7429 84.5028 39.7358 84.2301 40.8523 84.2301C41.5128 84.2301 42.1328 84.326 42.7124 84.5178C43.2962 84.7095 43.8224 84.9908 44.2912 85.3615C44.7599 85.728 45.152 86.1754 45.4673 86.7038C45.7827 87.228 46 87.8267 46.1193 88.5ZM48.4764 97.5V87.6818H49.9338V89.1648H50.036C50.215 88.679 50.5389 88.2848 51.0076 87.9822C51.4764 87.6797 52.0048 87.5284 52.5929 87.5284C52.7037 87.5284 52.8422 87.5305 53.0083 87.5348C53.1745 87.5391 53.3002 87.5455 53.3855 87.554V89.0881C53.3343 89.0753 53.2172 89.0561 53.0339 89.0305C52.8549 89.0007 52.6653 88.9858 52.465 88.9858C51.9877 88.9858 51.5616 89.0859 51.1866 89.2862C50.8159 89.4822 50.5218 89.755 50.3045 90.1044C50.0914 90.4496 49.9849 90.8437 49.9849 91.2869V97.5H48.4764ZM58.9913 97.7045C58.0453 97.7045 57.2292 97.4957 56.5431 97.0781C55.8613 96.6562 55.335 96.0682 54.9643 95.3139C54.5978 94.5554 54.4146 93.6733 54.4146 92.6676C54.4146 91.6619 54.5978 90.7756 54.9643 90.0085C55.335 89.2372 55.8507 88.6364 56.5112 88.206C57.176 87.7713 57.9515 87.554 58.8379 87.554C59.3493 87.554 59.8542 87.6392 60.3528 87.8097C60.8514 87.9801 61.3052 88.2571 61.7143 88.6406C62.1234 89.0199 62.4494 89.5227 62.6923 90.1491C62.9352 90.7756 63.0566 91.5469 63.0566 92.4631V93.1023H55.4885V91.7983H61.5226C61.5226 91.2443 61.4118 90.75 61.1902 90.3153C60.9728 89.8807 60.6618 89.5376 60.2569 89.2862C59.8564 89.0348 59.3833 88.9091 58.8379 88.9091C58.237 88.9091 57.7172 89.0582 57.2782 89.3565C56.8436 89.6506 56.5091 90.0341 56.2747 90.5071C56.0403 90.9801 55.9231 91.4872 55.9231 92.0284V92.8977C55.9231 93.6392 56.051 94.2678 56.3066 94.7834C56.5666 95.2947 56.9267 95.6847 57.3869 95.9531C57.8471 96.2173 58.3819 96.3494 58.9913 96.3494C59.3876 96.3494 59.7456 96.294 60.0652 96.1832C60.389 96.0682 60.6681 95.8977 60.9025 95.6719C61.1369 95.4418 61.318 95.1562 61.4458 94.8153L62.9032 95.2244C62.7498 95.7188 62.492 96.1534 62.1298 96.5284C61.7676 96.8991 61.3201 97.1889 60.7875 97.3977C60.2548 97.6023 59.6561 97.7045 58.9913 97.7045ZM68.2406 97.7301C67.6184 97.7301 67.0538 97.6129 66.5467 97.3786C66.0396 97.1399 65.6369 96.7969 65.3386 96.3494C65.0403 95.8977 64.8912 95.3523 64.8912 94.7131C64.8912 94.1506 65.002 93.6946 65.2235 93.3452C65.4451 92.9915 65.7413 92.7145 66.112 92.5142C66.4828 92.3139 66.8919 92.1648 67.3393 92.0668C67.791 91.9645 68.2449 91.8835 68.7008 91.8239C69.2974 91.7472 69.7811 91.6896 70.1518 91.6513C70.5268 91.6087 70.7995 91.5384 70.97 91.4403C71.1447 91.3423 71.2321 91.1719 71.2321 90.929V90.8778C71.2321 90.2472 71.0595 89.7571 70.7143 89.4077C70.3734 89.0582 69.8556 88.8835 69.161 88.8835C68.4409 88.8835 67.8762 89.0412 67.4672 89.3565C67.0581 89.6719 66.7704 90.0085 66.6042 90.3665L65.1724 89.8551C65.4281 89.2585 65.769 88.794 66.1951 88.4616C66.6255 88.125 67.0943 87.8906 67.6014 87.7585C68.1127 87.6222 68.6156 87.554 69.1099 87.554C69.4252 87.554 69.7875 87.5923 70.1966 87.669C70.6099 87.7415 71.0083 87.8928 71.3919 88.1229C71.7797 88.353 72.1014 88.7003 72.3571 89.1648C72.6127 89.6293 72.7406 90.2514 72.7406 91.0312V97.5H71.2321V96.1705H71.1554C71.0531 96.3835 70.8826 96.6115 70.644 96.8544C70.4054 97.0973 70.0879 97.304 69.6916 97.4744C69.2953 97.6449 68.8116 97.7301 68.2406 97.7301ZM68.4707 96.375C69.0673 96.375 69.5701 96.2578 69.9792 96.0234C70.3926 95.7891 70.7037 95.4865 70.9125 95.1158C71.1255 94.745 71.2321 94.3551 71.2321 93.946V92.5653C71.1681 92.642 71.0275 92.7124 70.8102 92.7763C70.5971 92.8359 70.35 92.8892 70.0687 92.9361C69.7917 92.9787 69.5211 93.017 69.2569 93.0511C68.997 93.081 68.786 93.1065 68.6241 93.1278C68.2321 93.179 67.8656 93.2621 67.5247 93.3771C67.188 93.4879 66.9153 93.6562 66.7065 93.8821C66.502 94.1037 66.3997 94.4062 66.3997 94.7898C66.3997 95.3139 66.5936 95.7102 66.9814 95.9787C67.3734 96.2429 67.8699 96.375 68.4707 96.375ZM79.7638 87.6818V88.9602H74.6758V87.6818H79.7638ZM76.1587 85.3295H77.6673V94.6875C77.6673 95.1136 77.729 95.4332 77.8526 95.6463C77.9805 95.8551 78.1424 95.9957 78.3384 96.0682C78.5387 96.1364 78.7496 96.1705 78.9712 96.1705C79.1374 96.1705 79.2738 96.1619 79.3803 96.1449C79.4869 96.1236 79.5721 96.1065 79.636 96.0938L79.9428 97.4489C79.8406 97.4872 79.6978 97.5256 79.5146 97.5639C79.3313 97.6065 79.0991 97.6278 78.8178 97.6278C78.3917 97.6278 77.9741 97.5362 77.565 97.353C77.1602 97.1697 76.8235 96.8906 76.555 96.5156C76.2908 96.1406 76.1587 95.6676 76.1587 95.0966V85.3295ZM86.044 97.7045C85.098 97.7045 84.282 97.4957 83.5959 97.0781C82.9141 96.6562 82.3878 96.0682 82.017 95.3139C81.6506 94.5554 81.4673 93.6733 81.4673 92.6676C81.4673 91.6619 81.6506 90.7756 82.017 90.0085C82.3878 89.2372 82.9034 88.6364 83.5639 88.206C84.2287 87.7713 85.0043 87.554 85.8906 87.554C86.402 87.554 86.907 87.6392 87.4055 87.8097C87.9041 87.9801 88.358 88.2571 88.767 88.6406C89.1761 89.0199 89.5021 89.5227 89.745 90.1491C89.9879 90.7756 90.1094 91.5469 90.1094 92.4631V93.1023H82.5412V91.7983H88.5753C88.5753 91.2443 88.4645 90.75 88.2429 90.3153C88.0256 89.8807 87.7145 89.5376 87.3097 89.2862C86.9091 89.0348 86.4361 88.9091 85.8906 88.9091C85.2898 88.9091 84.7699 89.0582 84.331 89.3565C83.8963 89.6506 83.5618 90.0341 83.3274 90.5071C83.093 90.9801 82.9759 91.4872 82.9759 92.0284V92.8977C82.9759 93.6392 83.1037 94.2678 83.3594 94.7834C83.6193 95.2947 83.9794 95.6847 84.4396 95.9531C84.8999 96.2173 85.4347 96.3494 86.044 96.3494C86.4403 96.3494 86.7983 96.294 87.1179 96.1832C87.4418 96.0682 87.7209 95.8977 87.9553 95.6719C88.1896 95.4418 88.3707 95.1562 88.4986 94.8153L89.956 95.2244C89.8026 95.7188 89.5447 96.1534 89.1825 96.5284C88.8203 96.8991 88.3729 97.1889 87.8402 97.3977C87.3075 97.6023 86.7088 97.7045 86.044 97.7045Z" fill="black"/>
</svg>
