<svg width="121" height="171" viewBox="0 0 121 171" fill="none" xmlns="http://www.w3.org/2000/svg">
<path d="M6.5 169.5C4 169.5 2 167.5 2 165C2 162.5 4 160.5 6.5 160.5C9 160.5 11 162.5 11 165C11 167.5 9 169.5 6.5 169.5Z" fill="white"/>
<path d="M11 165C11 167.5 9 169.5 6.5 169.5C4 169.5 2 167.5 2 165C2 162.5 4 160.5 6.5 160.5C9 160.5 11 162.5 11 165ZM11 165H58.7097C69.7554 165 78.7097 156.046 78.7097 145V31.9999C78.7097 20.9542 87.664 11.9999 98.7097 11.9999H102.5H95.75H100H119.5" stroke="#4D4D4D" stroke-width="3"/>
<rect x="58.5" y="75" width="45" height="31" rx="1.5" fill="white"/>
<rect x="58.5" y="75" width="45" height="31" rx="1.5" stroke="#4D4D4D" stroke-width="3"/>
<path d="M66.8693 85.8153V84.4091H76.6875V85.8153H72.571V97.5H70.9858V85.8153H66.8693ZM80.4828 97.7301C79.8606 97.7301 79.296 97.6129 78.7889 97.3786C78.2818 97.1399 77.8791 96.7969 77.5808 96.3494C77.2825 95.8977 77.1333 95.3523 77.1333 94.7131C77.1333 94.1506 77.2441 93.6946 77.4657 93.3452C77.6873 92.9915 77.9835 92.7145 78.3542 92.5142C78.725 92.3139 79.1341 92.1648 79.5815 92.0668C80.0332 91.9645 80.487 91.8835 80.943 91.8239C81.5396 91.7472 82.0233 91.6896 82.394 91.6513C82.769 91.6087 83.0417 91.5384 83.2122 91.4403C83.3869 91.3423 83.4743 91.1719 83.4743 90.929V90.8778C83.4743 90.2472 83.3017 89.7571 82.9565 89.4077C82.6156 89.0582 82.0978 88.8835 81.4032 88.8835C80.6831 88.8835 80.1184 89.0412 79.7093 89.3565C79.3002 89.6719 79.0126 90.0085 78.8464 90.3665L77.4146 89.8551C77.6703 89.2585 78.0112 88.794 78.4373 88.4616C78.8677 88.125 79.3365 87.8906 79.8436 87.7585C80.3549 87.6222 80.8578 87.554 81.3521 87.554C81.6674 87.554 82.0297 87.5923 82.4387 87.669C82.8521 87.7415 83.2505 87.8928 83.6341 88.1229C84.0218 88.353 84.3436 88.7003 84.5993 89.1648C84.8549 89.6293 84.9828 90.2514 84.9828 91.0312V97.5H83.4743V96.1705H83.3976C83.2953 96.3835 83.1248 96.6115 82.8862 96.8544C82.6475 97.0973 82.3301 97.304 81.9338 97.4744C81.5375 97.6449 81.0538 97.7301 80.4828 97.7301ZM80.7129 96.375C81.3095 96.375 81.8123 96.2578 82.2214 96.0234C82.6348 95.7891 82.9458 95.4865 83.1547 95.1158C83.3677 94.745 83.4743 94.3551 83.4743 93.946V92.5653C83.4103 92.642 83.2697 92.7124 83.0524 92.7763C82.8393 92.8359 82.5922 92.8892 82.3109 92.9361C82.0339 92.9787 81.7633 93.017 81.4991 93.0511C81.2392 93.081 81.0282 93.1065 80.8663 93.1278C80.4743 93.179 80.1078 93.2621 79.7669 93.3771C79.4302 93.4879 79.1575 93.6562 78.9487 93.8821C78.7441 94.1037 78.6419 94.4062 78.6419 94.7898C78.6419 95.3139 78.8358 95.7102 79.2235 95.9787C79.6156 96.2429 80.112 96.375 80.7129 96.375ZM87.7362 101.182V87.6818H89.1935V89.2415H89.3725C89.4833 89.071 89.6367 88.8537 89.8327 88.5895C90.033 88.321 90.3185 88.0824 90.6893 87.8736C91.0643 87.6605 91.5714 87.554 92.2106 87.554C93.0373 87.554 93.766 87.7607 94.3967 88.174C95.0273 88.5874 95.5195 89.1733 95.8732 89.9318C96.2269 90.6903 96.4038 91.5852 96.4038 92.6165C96.4038 93.6562 96.2269 94.5575 95.8732 95.3203C95.5195 96.0788 95.0295 96.6669 94.4031 97.0845C93.7766 97.4979 93.0543 97.7045 92.2362 97.7045C91.6055 97.7045 91.1005 97.6001 90.7212 97.3913C90.342 97.1783 90.0501 96.9375 89.8455 96.669C89.641 96.3963 89.4833 96.1705 89.3725 95.9915H89.2447V101.182H87.7362ZM89.2191 92.5909C89.2191 93.3324 89.3278 93.9865 89.5451 94.5533C89.7624 95.1158 90.0799 95.5568 90.4975 95.8764C90.9151 96.1918 91.4265 96.3494 92.0316 96.3494C92.6623 96.3494 93.1886 96.1832 93.6104 95.8509C94.0366 95.5142 94.3562 95.0625 94.5692 94.4957C94.7866 93.9247 94.8952 93.2898 94.8952 92.5909C94.8952 91.9006 94.7887 91.2784 94.5756 90.7244C94.3668 90.1662 94.0494 89.7251 93.6232 89.4013C93.2013 89.0732 92.6708 88.9091 92.0316 88.9091C91.418 88.9091 90.9023 89.0646 90.4847 89.3757C90.0671 89.6825 89.7518 90.1129 89.5387 90.6669C89.3256 91.2166 89.2191 91.858 89.2191 92.5909Z" fill="black"/>
</svg>
