<svg width="120" height="171" viewBox="0 0 120 171" fill="none" xmlns="http://www.w3.org/2000/svg">
<path d="M6.5 169.5C4 169.5 2 167.5 2 165C2 162.5 4 160.5 6.5 160.5C9 160.5 11 162.5 11 165C11 167.5 9 169.5 6.5 169.5Z" fill="white"/>
<path d="M11 165C11 167.5 9 169.5 6.5 169.5C4 169.5 2 167.5 2 165C2 162.5 4 160.5 6.5 160.5C9 160.5 11 162.5 11 165ZM11 165H38.7097C49.7554 165 58.7097 156.046 58.7097 145V31.9999C58.7097 20.9542 67.664 11.9999 78.7097 11.9999H82.5H75.75H99H118.5" stroke="#4D4D4D" stroke-width="3"/>
<rect x="34.5" y="75" width="47" height="31" rx="1.5" fill="white"/>
<rect x="34.5" y="75" width="47" height="31" rx="1.5" stroke="#4D4D4D" stroke-width="3"/>
<path d="M43.5852 97.5V84.4091H48.0085C49.0355 84.4091 49.875 84.5945 50.527 84.9652C51.1832 85.3317 51.669 85.8281 51.9844 86.4545C52.2997 87.081 52.4574 87.7798 52.4574 88.5511C52.4574 89.3224 52.2997 90.0234 51.9844 90.6541C51.6733 91.2848 51.1918 91.7876 50.5398 92.1626C49.8878 92.5334 49.0526 92.7188 48.0341 92.7188H44.8636V91.3125H47.983C48.6861 91.3125 49.2507 91.1911 49.6768 90.9482C50.103 90.7053 50.4119 90.3771 50.6037 89.9638C50.7997 89.5462 50.8977 89.0753 50.8977 88.5511C50.8977 88.027 50.7997 87.5582 50.6037 87.1449C50.4119 86.7315 50.1009 86.4077 49.6705 86.1733C49.2401 85.9347 48.669 85.8153 47.9574 85.8153H45.1705V97.5H43.5852ZM57.6957 97.7301C57.0735 97.7301 56.5089 97.6129 56.0018 97.3786C55.4947 97.1399 55.092 96.7969 54.7937 96.3494C54.4954 95.8977 54.3462 95.3523 54.3462 94.7131C54.3462 94.1506 54.457 93.6946 54.6786 93.3452C54.9002 92.9915 55.1964 92.7145 55.5671 92.5142C55.9379 92.3139 56.3469 92.1648 56.7944 92.0668C57.2461 91.9645 57.6999 91.8835 58.1559 91.8239C58.7525 91.7472 59.2362 91.6896 59.6069 91.6513C59.9819 91.6087 60.2546 91.5384 60.4251 91.4403C60.5998 91.3423 60.6871 91.1719 60.6871 90.929V90.8778C60.6871 90.2472 60.5146 89.7571 60.1694 89.4077C59.8285 89.0582 59.3107 88.8835 58.6161 88.8835C57.896 88.8835 57.3313 89.0412 56.9222 89.3565C56.5131 89.6719 56.2255 90.0085 56.0593 90.3665L54.6275 89.8551C54.8832 89.2585 55.2241 88.794 55.6502 88.4616C56.0806 88.125 56.5494 87.8906 57.0565 87.7585C57.5678 87.6222 58.0707 87.554 58.565 87.554C58.8803 87.554 59.2425 87.5923 59.6516 87.669C60.065 87.7415 60.4634 87.8928 60.8469 88.1229C61.2347 88.353 61.5565 88.7003 61.8121 89.1648C62.0678 89.6293 62.1957 90.2514 62.1957 91.0312V97.5H60.6871V96.1705H60.6104C60.5082 96.3835 60.3377 96.6115 60.0991 96.8544C59.8604 97.0973 59.543 97.304 59.1467 97.4744C58.7504 97.6449 58.2667 97.7301 57.6957 97.7301ZM57.9258 96.375C58.5224 96.375 59.0252 96.2578 59.4343 96.0234C59.8477 95.7891 60.1587 95.4865 60.3675 95.1158C60.5806 94.745 60.6871 94.3551 60.6871 93.946V92.5653C60.6232 92.642 60.4826 92.7124 60.2653 92.7763C60.0522 92.8359 59.805 92.8892 59.5238 92.9361C59.2468 92.9787 58.9762 93.017 58.712 93.0511C58.4521 93.081 58.2411 93.1065 58.0792 93.1278C57.6871 93.179 57.3207 93.2621 56.9798 93.3771C56.6431 93.4879 56.3704 93.6562 56.1616 93.8821C55.957 94.1037 55.8548 94.4062 55.8548 94.7898C55.8548 95.3139 56.0487 95.7102 56.4364 95.9787C56.8285 96.2429 57.3249 96.375 57.9258 96.375ZM65.5691 101.182C65.3134 101.182 65.0854 101.161 64.8851 101.118C64.6848 101.08 64.5463 101.041 64.4696 101.003L64.8532 99.6733C65.2196 99.767 65.5435 99.8011 65.8248 99.7756C66.106 99.75 66.3553 99.6243 66.5726 99.3984C66.7942 99.1768 66.9966 98.8168 67.1799 98.3182L67.4611 97.5511L63.8304 87.6818H65.4668L68.177 95.5057H68.2793L70.9895 87.6818H72.6259L68.4583 98.9318C68.2708 99.4389 68.0385 99.8587 67.7615 100.191C67.4846 100.528 67.1628 100.777 66.7963 100.939C66.4341 101.101 66.025 101.182 65.5691 101.182Z" fill="black"/>
</svg>
