<svg width="158" height="50" viewBox="0 0 158 50" fill="none" xmlns="http://www.w3.org/2000/svg">
<path d="M52.2 41V19.16H57.8V24.4L57.4 23.64C57.88 21.8 58.6667 20.56 59.76 19.92C60.88 19.2533 62.2 18.92 63.72 18.92H65V24.12H63.12C61.6533 24.12 60.4667 24.5733 59.56 25.48C58.6533 26.36 58.2 27.6133 58.2 29.24V41H52.2ZM76.5497 41.48C74.2297 41.48 72.2164 40.9733 70.5097 39.96C68.803 38.92 67.483 37.5333 66.5497 35.8C65.6164 34.0667 65.1497 32.1467 65.1497 30.04C65.1497 27.8533 65.6297 25.9067 66.5897 24.2C67.5764 22.4933 68.8964 21.1467 70.5497 20.16C72.203 19.1733 74.0697 18.68 76.1497 18.68C77.883 18.68 79.4164 18.96 80.7497 19.52C82.083 20.0533 83.203 20.8133 84.1097 21.8C85.043 22.7867 85.7497 23.9333 86.2297 25.24C86.7097 26.52 86.9497 27.92 86.9497 29.44C86.9497 29.8667 86.923 30.2933 86.8697 30.72C86.843 31.12 86.7764 31.4667 86.6697 31.76H70.3097V27.36H83.2697L80.4297 29.44C80.6964 28.2933 80.683 27.28 80.3897 26.4C80.0964 25.4933 79.5764 24.7867 78.8297 24.28C78.1097 23.7467 77.2164 23.48 76.1497 23.48C75.1097 23.48 74.2164 23.7333 73.4697 24.24C72.723 24.7467 72.163 25.4933 71.7897 26.48C71.4164 27.4667 71.2697 28.6667 71.3497 30.08C71.243 31.3067 71.3897 32.3867 71.7897 33.32C72.1897 34.2533 72.803 34.9867 73.6297 35.52C74.4564 36.0267 75.4564 36.28 76.6297 36.28C77.6964 36.28 78.603 36.0667 79.3497 35.64C80.123 35.2133 80.723 34.6267 81.1497 33.88L85.9497 36.16C85.523 37.2267 84.843 38.16 83.9097 38.96C83.003 39.76 81.923 40.3867 80.6697 40.84C79.4164 41.2667 78.043 41.48 76.5497 41.48ZM88.8828 41V19.16H94.4828V23.48L94.1628 22.52C94.6695 21.2133 95.4828 20.2533 96.6028 19.64C97.7495 19 99.0828 18.68 100.603 18.68C102.256 18.68 103.696 19.0267 104.923 19.72C106.176 20.4133 107.149 21.3867 107.843 22.64C108.536 23.8667 108.883 25.3067 108.883 26.96V41H102.883V28.24C102.883 27.3867 102.709 26.6533 102.363 26.04C102.043 25.4267 101.576 24.9467 100.963 24.6C100.376 24.2533 99.6828 24.08 98.8828 24.08C98.1095 24.08 97.4161 24.2533 96.8028 24.6C96.1895 24.9467 95.7095 25.4267 95.3628 26.04C95.0428 26.6533 94.8828 27.3867 94.8828 28.24V41H88.8828ZM121.748 41.24C119.108 41.24 117.055 40.5333 115.588 39.12C114.148 37.68 113.428 35.68 113.428 33.12V24.36H109.748V19.16H109.948C111.068 19.16 111.921 18.88 112.508 18.32C113.121 17.76 113.428 16.92 113.428 15.8V14.2H119.428V19.16H124.548V24.36H119.428V32.72C119.428 33.4667 119.561 34.0933 119.828 34.6C120.095 35.08 120.508 35.44 121.068 35.68C121.628 35.92 122.321 36.04 123.148 36.04C123.335 36.04 123.548 36.0267 123.788 36C124.028 35.9733 124.281 35.9467 124.548 35.92V41C124.148 41.0533 123.695 41.1067 123.188 41.16C122.681 41.2133 122.201 41.24 121.748 41.24ZM126.464 41V10.72H132.464V41H126.464ZM138.655 49.88C138.015 49.88 137.388 49.8267 136.775 49.72C136.188 49.6133 135.668 49.44 135.215 49.2V44.28C135.588 44.3867 136.028 44.48 136.535 44.56C137.041 44.64 137.508 44.68 137.935 44.68C139.108 44.68 139.948 44.4 140.455 43.84C140.961 43.28 141.375 42.64 141.695 41.92L143.175 38.52L143.095 43.52L133.495 19.16H139.935L146.295 36.48H143.895L150.255 19.16H156.695L147.335 43.04C146.748 44.56 146.028 45.8267 145.175 46.84C144.321 47.8533 143.348 48.6133 142.255 49.12C141.188 49.6267 139.988 49.88 138.655 49.88Z" fill="#266DB4"/>
<path fill-rule="evenodd" clip-rule="evenodd" d="M17.5437 6.84275C18.2458 6.29655 19.11 6 19.9996 6C20.8892 6 21.7534 6.29655 22.4555 6.84275L39.223 19.8824C40.729 21.0563 39.897 23.4662 37.9931 23.4662H35.9991L33.9992 39.4658C33.999 39.999 33.5778 41.544 32.8276 42.2941C32.0775 43.0442 31.0601 43.4656 29.9993 43.4656H9.9999C8.93907 43.4656 7.92169 43.0442 7.17156 42.2941C6.42144 41.544 6.00003 39.999 6.00003 39.4658L4.00009 23.4662H2.00615C0.100204 23.4662 -0.72777 21.0543 0.776184 19.8844L17.5437 6.84275ZM9.3524 26.7111C9.5072 26.7952 9.56355 27.0311 9.45979 27.1521C9.06656 27.6109 8.28451 28.604 8.05522 29.4889C7.82593 30.3739 7.96382 31.8668 8.05159 32.587C8.07475 32.777 7.92519 32.9009 7.77039 32.8168C7.71617 32.7874 7.67082 32.7373 7.6438 32.6741C7.43213 32.1787 6.50402 29.9068 6.79038 28.8016C7.07673 27.6964 8.80774 26.8695 9.19222 26.698C9.2413 26.6762 9.29818 26.6817 9.3524 26.7111ZM9.19043 30.7622C9.19043 30.1285 9.86236 29.7094 10.4379 29.9746C12.5829 30.9629 17.0463 32.8247 20.2286 32.8247C23.411 32.8247 27.8743 30.9629 30.0194 29.9746C30.5949 29.7094 31.2669 30.1285 31.2669 30.7622C31.2669 30.9788 31.1877 31.1832 31.0354 31.3373C29.8358 32.551 24.2279 38 20.2286 38C16.2294 38 10.6215 32.5511 9.42188 31.3373C9.2696 31.1832 9.19043 30.9788 9.19043 30.7622ZM30.9963 27.1521C30.8925 27.0311 30.9489 26.7952 31.1037 26.7111C31.1579 26.6817 31.2148 26.6762 31.2638 26.698C31.6483 26.8695 33.3793 27.6964 33.6657 28.8016C33.952 29.9068 33.0239 32.1787 32.8122 32.6741C32.7852 32.7373 32.7399 32.7874 32.6857 32.8168C32.5309 32.9009 32.3813 32.777 32.4045 32.587C32.4922 31.8668 32.6301 30.3739 32.4008 29.4889C32.1715 28.604 31.3895 27.6109 30.9963 27.1521Z" fill="#FF9800"/>
</svg>
