<svg width="24" height="24" viewBox="0 0 24 24" fill="none" xmlns="http://www.w3.org/2000/svg">
<path d="M20.5001 6.96162L20.8843 7.4859L20.2361 7.53406C20.2487 7.7034 20.249 7.87559 20.249 8.07568C20.249 13.801 15.895 20.35 7.97582 20.35C6.43356 20.35 4.96161 20.0685 3.60581 19.5525C5.25188 19.2985 6.81441 18.6256 8.13799 17.5871L9.57589 16.4589L7.74851 16.4258C6.93599 16.4111 6.14833 16.143 5.49553 15.659C5.11709 15.3784 4.79493 15.0334 4.54224 14.6423C4.94169 14.6271 5.33655 14.5662 5.70589 14.4709L5.67206 13.2044C4.79059 13.0264 3.99797 12.5486 3.42898 11.8522C3.06717 11.4094 2.80999 10.8957 2.67099 10.349C3.07189 10.4657 3.4939 10.5367 3.92879 10.5532L6.23686 10.6406L4.31314 9.36227C3.77899 9.00733 3.341 8.52568 3.03825 7.96031C2.73551 7.39494 2.57742 6.76341 2.57808 6.12209V6.12141C2.57808 5.73747 2.63196 5.37142 2.73279 5.02612C3.79735 6.14675 5.0474 7.0792 6.43033 7.78098C8.12502 8.64098 9.98146 9.13542 11.8794 9.23229L12.7193 9.27516L12.5491 8.45158C12.4864 8.1481 12.4498 7.84206 12.4498 7.54229L12.4498 7.54197C12.4495 7.03079 12.55 6.52458 12.7455 6.05227C12.941 5.57996 13.2277 5.15082 13.5891 4.78936C13.9506 4.42791 14.3797 4.14124 14.852 3.94574C15.3244 3.75024 15.8306 3.64975 16.3417 3.65H16.3421C17.4648 3.65 18.4755 4.11949 19.1864 4.87869L19.4317 5.14075L19.7842 5.07258C20.149 5.00204 20.5088 4.91055 20.8619 4.79877C20.6646 4.98072 20.4477 5.1429 20.2139 5.28192L20.6197 6.48643C20.8098 6.46475 20.9991 6.43749 21.1873 6.40473C20.9677 6.6011 20.7384 6.78698 20.5001 6.96162Z" stroke="white" stroke-width="1.3"/>
</svg>
