<svg width="305" height="259" viewBox="0 0 305 259" fill="none" xmlns="http://www.w3.org/2000/svg">
<path d="M6.5 257.496C4 257.496 2 255.496 2 252.996C2 250.496 4 248.496 6.5 248.496C9 248.496 11 250.496 11 252.996C11 255.496 9 257.496 6.5 257.496Z" fill="white"/>
<path d="M11 252.996C11 255.496 9 257.496 6.5 257.496C4 257.496 2 255.496 2 252.996C2 250.496 4 248.496 6.5 248.496C9 248.496 11 250.496 11 252.996ZM11 252.996L223 253C234.045 253 243 244.045 243 233V31.9999C243 20.9542 251.954 11.9999 263 11.9999H266.79H290.04H283.29H302.79" stroke="#4D4D4D" stroke-width="3"/>
<rect x="217.5" y="102.5" width="45" height="31" rx="1.5" fill="white"/>
<rect x="217.5" y="102.5" width="45" height="31" rx="1.5" stroke="#4D4D4D" stroke-width="3"/>
<path d="M225.869 113.315V111.909H235.688V113.315H231.571V125H229.986V113.315H225.869ZM239.483 125.23C238.861 125.23 238.296 125.113 237.789 124.879C237.282 124.64 236.879 124.297 236.581 123.849C236.282 123.398 236.133 122.852 236.133 122.213C236.133 121.651 236.244 121.195 236.466 120.845C236.687 120.491 236.983 120.214 237.354 120.014C237.725 119.814 238.134 119.665 238.581 119.567C239.033 119.464 239.487 119.384 239.943 119.324C240.54 119.247 241.023 119.19 241.394 119.151C241.769 119.109 242.042 119.038 242.212 118.94C242.387 118.842 242.474 118.672 242.474 118.429V118.378C242.474 117.747 242.302 117.257 241.956 116.908C241.616 116.558 241.098 116.384 240.403 116.384C239.683 116.384 239.118 116.541 238.709 116.857C238.3 117.172 238.013 117.509 237.846 117.866L236.415 117.355C236.67 116.759 237.011 116.294 237.437 115.962C237.868 115.625 238.336 115.391 238.844 115.259C239.355 115.122 239.858 115.054 240.352 115.054C240.667 115.054 241.03 115.092 241.439 115.169C241.852 115.241 242.251 115.393 242.634 115.623C243.022 115.853 243.344 116.2 243.599 116.665C243.855 117.129 243.983 117.751 243.983 118.531V125H242.474V123.67H242.398C242.295 123.884 242.125 124.112 241.886 124.354C241.648 124.597 241.33 124.804 240.934 124.974C240.537 125.145 240.054 125.23 239.483 125.23ZM239.713 123.875C240.309 123.875 240.812 123.758 241.221 123.523C241.635 123.289 241.946 122.987 242.155 122.616C242.368 122.245 242.474 121.855 242.474 121.446V120.065C242.41 120.142 242.27 120.212 242.052 120.276C241.839 120.336 241.592 120.389 241.311 120.436C241.034 120.479 240.763 120.517 240.499 120.551C240.239 120.581 240.028 120.607 239.866 120.628C239.474 120.679 239.108 120.762 238.767 120.877C238.43 120.988 238.157 121.156 237.949 121.382C237.744 121.604 237.642 121.906 237.642 122.29C237.642 122.814 237.836 123.21 238.224 123.479C238.616 123.743 239.112 123.875 239.713 123.875ZM246.736 128.682V115.182H248.194V116.741H248.373C248.483 116.571 248.637 116.354 248.833 116.089C249.033 115.821 249.319 115.582 249.689 115.374C250.064 115.161 250.571 115.054 251.211 115.054C252.037 115.054 252.766 115.261 253.397 115.674C254.027 116.087 254.52 116.673 254.873 117.432C255.227 118.19 255.404 119.085 255.404 120.116C255.404 121.156 255.227 122.058 254.873 122.82C254.52 123.579 254.029 124.167 253.403 124.585C252.777 124.998 252.054 125.205 251.236 125.205C250.605 125.205 250.1 125.1 249.721 124.891C249.342 124.678 249.05 124.437 248.846 124.169C248.641 123.896 248.483 123.67 248.373 123.491H248.245V128.682H246.736ZM248.219 120.091C248.219 120.832 248.328 121.487 248.545 122.053C248.762 122.616 249.08 123.057 249.498 123.376C249.915 123.692 250.426 123.849 251.032 123.849C251.662 123.849 252.189 123.683 252.61 123.351C253.037 123.014 253.356 122.562 253.569 121.996C253.787 121.425 253.895 120.79 253.895 120.091C253.895 119.401 253.789 118.778 253.576 118.224C253.367 117.666 253.049 117.225 252.623 116.901C252.201 116.573 251.671 116.409 251.032 116.409C250.418 116.409 249.902 116.565 249.485 116.876C249.067 117.183 248.752 117.613 248.539 118.167C248.326 118.717 248.219 119.358 248.219 120.091Z" fill="black"/>
</svg>
