<svg width="195" height="172" viewBox="0 0 195 172" fill="none" xmlns="http://www.w3.org/2000/svg">
<path d="M6.5 170.5C4 170.5 2 168.5 2 166C2 163.5 4 161.5 6.5 161.5C9 161.5 11 163.5 11 166C11 168.5 9 170.5 6.5 170.5Z" fill="white"/>
<path d="M11 166C11 168.5 9 170.5 6.5 170.5C4 170.5 2 168.5 2 166C2 163.5 4 161.5 6.5 161.5C9 161.5 11 163.5 11 166ZM11 166L113.292 165.581C124.305 165.536 133.21 156.595 133.21 145.582V31.9999C133.21 20.9542 142.164 11.9999 153.21 11.9999H157H150.25H173.5H193" stroke="#4D4D4D" stroke-width="3"/>
<rect x="114.5" y="64.5" width="45" height="31" rx="1.5" fill="white"/>
<rect x="114.5" y="64.5" width="45" height="31" rx="1.5" stroke="#4D4D4D" stroke-width="3"/>
<path d="M122.869 75.3153V73.9091H132.688V75.3153H128.571V87H126.986V75.3153H122.869ZM136.483 87.2301C135.861 87.2301 135.296 87.1129 134.789 86.8786C134.282 86.6399 133.879 86.2969 133.581 85.8494C133.282 85.3977 133.133 84.8523 133.133 84.2131C133.133 83.6506 133.244 83.1946 133.466 82.8452C133.687 82.4915 133.983 82.2145 134.354 82.0142C134.725 81.8139 135.134 81.6648 135.581 81.5668C136.033 81.4645 136.487 81.3835 136.943 81.3239C137.54 81.2472 138.023 81.1896 138.394 81.1513C138.769 81.1087 139.042 81.0384 139.212 80.9403C139.387 80.8423 139.474 80.6719 139.474 80.429V80.3778C139.474 79.7472 139.302 79.2571 138.956 78.9077C138.616 78.5582 138.098 78.3835 137.403 78.3835C136.683 78.3835 136.118 78.5412 135.709 78.8565C135.3 79.1719 135.013 79.5085 134.846 79.8665L133.415 79.3551C133.67 78.7585 134.011 78.294 134.437 77.9616C134.868 77.625 135.336 77.3906 135.844 77.2585C136.355 77.1222 136.858 77.054 137.352 77.054C137.667 77.054 138.03 77.0923 138.439 77.169C138.852 77.2415 139.251 77.3928 139.634 77.6229C140.022 77.853 140.344 78.2003 140.599 78.6648C140.855 79.1293 140.983 79.7514 140.983 80.5312V87H139.474V85.6705H139.398C139.295 85.8835 139.125 86.1115 138.886 86.3544C138.648 86.5973 138.33 86.804 137.934 86.9744C137.537 87.1449 137.054 87.2301 136.483 87.2301ZM136.713 85.875C137.309 85.875 137.812 85.7578 138.221 85.5234C138.635 85.2891 138.946 84.9865 139.155 84.6158C139.368 84.245 139.474 83.8551 139.474 83.446V82.0653C139.41 82.142 139.27 82.2124 139.052 82.2763C138.839 82.3359 138.592 82.3892 138.311 82.4361C138.034 82.4787 137.763 82.517 137.499 82.5511C137.239 82.581 137.028 82.6065 136.866 82.6278C136.474 82.679 136.108 82.7621 135.767 82.8771C135.43 82.9879 135.157 83.1562 134.949 83.3821C134.744 83.6037 134.642 83.9062 134.642 84.2898C134.642 84.8139 134.836 85.2102 135.224 85.4787C135.616 85.7429 136.112 85.875 136.713 85.875ZM143.736 90.6818V77.1818H145.194V78.7415H145.373C145.483 78.571 145.637 78.3537 145.833 78.0895C146.033 77.821 146.319 77.5824 146.689 77.3736C147.064 77.1605 147.571 77.054 148.211 77.054C149.037 77.054 149.766 77.2607 150.397 77.674C151.027 78.0874 151.52 78.6733 151.873 79.4318C152.227 80.1903 152.404 81.0852 152.404 82.1165C152.404 83.1562 152.227 84.0575 151.873 84.8203C151.52 85.5788 151.029 86.1669 150.403 86.5845C149.777 86.9979 149.054 87.2045 148.236 87.2045C147.605 87.2045 147.1 87.1001 146.721 86.8913C146.342 86.6783 146.05 86.4375 145.846 86.169C145.641 85.8963 145.483 85.6705 145.373 85.4915H145.245V90.6818H143.736ZM145.219 82.0909C145.219 82.8324 145.328 83.4865 145.545 84.0533C145.762 84.6158 146.08 85.0568 146.498 85.3764C146.915 85.6918 147.426 85.8494 148.032 85.8494C148.662 85.8494 149.189 85.6832 149.61 85.3509C150.037 85.0142 150.356 84.5625 150.569 83.9957C150.787 83.4247 150.895 82.7898 150.895 82.0909C150.895 81.4006 150.789 80.7784 150.576 80.2244C150.367 79.6662 150.049 79.2251 149.623 78.9013C149.201 78.5732 148.671 78.4091 148.032 78.4091C147.418 78.4091 146.902 78.5646 146.485 78.8757C146.067 79.1825 145.752 79.6129 145.539 80.1669C145.326 80.7166 145.219 81.358 145.219 82.0909Z" fill="black"/>
</svg>
