<svg width="827" height="247" viewBox="0 0 827 247" fill="none" xmlns="http://www.w3.org/2000/svg">
<path d="M2 208C2 210.5 4 212.5 6.5 212.5C8.94546 212.5 10.9125 210.586 10.9972 208.163C10.999 208.109 11 208.055 11 208C11 205.5 9 203.5 6.5 203.5C4 203.5 2 205.5 2 208Z" fill="white"/>
<path d="M11 208C11 210.5 9 212.5 6.5 212.5C4 212.5 2 210.5 2 208C2 205.5 4 203.5 6.5 203.5C9 203.5 11 205.5 11 208ZM11 208L10.3549 245H715.5C726.546 245 735.5 236.046 735.5 225V31.9999C735.5 20.9542 744.454 11.9999 755.5 11.9999H759.29H782.54H805.79H825.29" stroke="#4D4D4D" stroke-width="3"/>
<rect x="713.5" y="129.5" width="45" height="31" rx="1.5" fill="white"/>
<rect x="713.5" y="129.5" width="45" height="31" rx="1.5" stroke="#4D4D4D" stroke-width="3"/>
<path d="M721.869 140.315V138.909H731.688V140.315H727.571V152H725.986V140.315H721.869ZM735.483 152.23C734.861 152.23 734.296 152.113 733.789 151.879C733.282 151.64 732.879 151.297 732.581 150.849C732.282 150.398 732.133 149.852 732.133 149.213C732.133 148.651 732.244 148.195 732.466 147.845C732.687 147.491 732.983 147.214 733.354 147.014C733.725 146.814 734.134 146.665 734.581 146.567C735.033 146.464 735.487 146.384 735.943 146.324C736.54 146.247 737.023 146.19 737.394 146.151C737.769 146.109 738.042 146.038 738.212 145.94C738.387 145.842 738.474 145.672 738.474 145.429V145.378C738.474 144.747 738.302 144.257 737.956 143.908C737.616 143.558 737.098 143.384 736.403 143.384C735.683 143.384 735.118 143.541 734.709 143.857C734.3 144.172 734.013 144.509 733.846 144.866L732.415 144.355C732.67 143.759 733.011 143.294 733.437 142.962C733.868 142.625 734.336 142.391 734.844 142.259C735.355 142.122 735.858 142.054 736.352 142.054C736.667 142.054 737.03 142.092 737.439 142.169C737.852 142.241 738.251 142.393 738.634 142.623C739.022 142.853 739.344 143.2 739.599 143.665C739.855 144.129 739.983 144.751 739.983 145.531V152H738.474V150.67H738.398C738.295 150.884 738.125 151.112 737.886 151.354C737.648 151.597 737.33 151.804 736.934 151.974C736.537 152.145 736.054 152.23 735.483 152.23ZM735.713 150.875C736.309 150.875 736.812 150.758 737.221 150.523C737.635 150.289 737.946 149.987 738.155 149.616C738.368 149.245 738.474 148.855 738.474 148.446V147.065C738.41 147.142 738.27 147.212 738.052 147.276C737.839 147.336 737.592 147.389 737.311 147.436C737.034 147.479 736.763 147.517 736.499 147.551C736.239 147.581 736.028 147.607 735.866 147.628C735.474 147.679 735.108 147.762 734.767 147.877C734.43 147.988 734.157 148.156 733.949 148.382C733.744 148.604 733.642 148.906 733.642 149.29C733.642 149.814 733.836 150.21 734.224 150.479C734.616 150.743 735.112 150.875 735.713 150.875ZM742.736 155.682V142.182H744.194V143.741H744.373C744.483 143.571 744.637 143.354 744.833 143.089C745.033 142.821 745.319 142.582 745.689 142.374C746.064 142.161 746.571 142.054 747.211 142.054C748.037 142.054 748.766 142.261 749.397 142.674C750.027 143.087 750.52 143.673 750.873 144.432C751.227 145.19 751.404 146.085 751.404 147.116C751.404 148.156 751.227 149.058 750.873 149.82C750.52 150.579 750.029 151.167 749.403 151.585C748.777 151.998 748.054 152.205 747.236 152.205C746.605 152.205 746.1 152.1 745.721 151.891C745.342 151.678 745.05 151.437 744.846 151.169C744.641 150.896 744.483 150.67 744.373 150.491H744.245V155.682H742.736ZM744.219 147.091C744.219 147.832 744.328 148.487 744.545 149.053C744.762 149.616 745.08 150.057 745.498 150.376C745.915 150.692 746.426 150.849 747.032 150.849C747.662 150.849 748.189 150.683 748.61 150.351C749.037 150.014 749.356 149.562 749.569 148.996C749.787 148.425 749.895 147.79 749.895 147.091C749.895 146.401 749.789 145.778 749.576 145.224C749.367 144.666 749.049 144.225 748.623 143.901C748.201 143.573 747.671 143.409 747.032 143.409C746.418 143.409 745.902 143.565 745.485 143.876C745.067 144.183 744.752 144.613 744.539 145.167C744.326 145.717 744.219 146.358 744.219 147.091Z" fill="black"/>
</svg>
